<svg xmlns="http://www.w3.org/2000/svg" xmlns:xlink="http://www.w3.org/1999/xlink" version="1.1" class="marks" width="739" height="387" viewBox="0 0 739 387"><rect width="739" height="387" fill="white"/><g fill="none" stroke-miterlimit="10" transform="translate(5,22)"><g class="mark-group role-frame root" role="graphics-object" aria-roledescription="group mark container"><g transform="translate(0,0)"><path class="background" aria-hidden="true" d="M0,0h640v360h-640Z"/><g><g class="mark-shape role-mark layer_0_marks" role="graphics-object" aria-roledescription="shape mark container"><path aria-label="percentage: 8.70162976068" role="graphics-symbol" aria-roledescription="geoshape" transform="translate(0,0)" d="M385.05,77.243L385.787,77.086L393.626,75.239L399.483,73.823L399.485,73.834L399.996,73.727L404.825,72.956L406.625,78.948L407.093,80.748L407.332,81.665L408.115,85.599L407.856,87.625L400.604,90.688L398.164,87.97L400.272,90.809L397.105,91.904L397.236,91.944L397.373,92.007L391.337,92.734L388.826,96.015L388.456,94.751L387.661,96.435L380.982,102.04L380.973,102.005L379.35,100.017L382.631,96.596L380.869,93.535L380.27,90.048L379.715,87.001L378.244,78.671Z" fill="rgb(192, 230, 181)"/><path aria-label="percentage: 1.01523485703" role="graphics-symbol" aria-roledescription="geoshape" transform="translate(0,0)" d="M358.4,134.045L356.142,138.851L357.198,139.75L357.196,141.998L358.975,143.941L360.436,144.702L361.823,147.083L362.269,149.95L364.295,152.116L367.069,154.832L368.777,154.694L369.45,156.867L368.131,157.088L370.206,159.13L371.017,161.917L370.72,161.983L370.423,162.05L366.198,162.977L360.33,164.091L359.738,161.936L359.27,160.349L358.127,156.224L356.185,149.54L355.586,147.339L355.291,146.261L354.853,144.522L352.837,137.176L355.452,133.998L355.452,133.998L355.737,133.9Z" fill="rgb(235, 247, 187)"/><path aria-label="percentage: 0.0933004697556" role="graphics-symbol" aria-roledescription="geoshape" transform="translate(0,0)" d="M289.509,348.974L288.62,347.179L290.233,344.854L290.536,346.37ZM290.515,337.494L290.644,337.45L291.936,338.359L289.911,341.455L289.018,340.066L289.567,337.486ZM291.262,335.777L290.006,333.787L292.627,332.41ZM291.995,329.677L291.989,329.642L292.847,328.67L292.572,331.63ZM292.666,327.946L292.162,325.18L294.165,325.509ZM294.317,320.127L294.459,320.176L294.461,320.188L294.78,320.508L294.354,322.466L293.293,320.864ZM291.043,327.902L291.68,328.962L288.947,330.01L291.948,330.664L290.72,331.872L290.059,334.125L290.991,337.073L287.803,337.018L287.764,337.203L287.773,337.261L287.803,337.018L288.371,337.193L288.327,337.343L288.52,337.278L289.537,338.171L288.876,340.899L289.412,342.618L289.524,342.899L287.171,343.047L288.814,344.023L289.674,345.632L288.529,347.026L289.339,350.527L287.439,351.02L287.377,351.065L281.49,349.499L279.424,350.7L279.389,353.684L280.48,355.523L280.323,360L277.332,359.654L276.592,355.988L272.743,356.249L272,356.296L269.64,356.478L267.684,356.612L259.253,357.197L256.017,357.421L255.408,357.443L255.137,357.456L250.351,357.781L247.858,357.951L242.94,358.285L241.459,358.389L237.756,358.65L235.937,358.768L226.849,359.374L223.509,353.391L222.852,351.805L221.301,350.061L221.199,346.843L221.404,342.21L220.938,339.923L219.33,337.019L219.02,336.65L218.87,334.183L219.81,331.899L219.825,330.304L219.582,328.774L221.833,326.371L222.402,325.555L220.074,324.411L220.604,323.254L219.743,320.415L218.056,318.445L216.663,315.534L215.506,312.929L214.001,307.826L213.883,307.363L212.104,300.942L211.774,299.765L210.774,296.113L209.258,290.754L208.912,289.41L208.241,286.899L206.97,282.487L205.495,277.357L205.085,275.984L204.873,275.232L203.472,270.127L202.727,267.442L205.078,267.218L206.979,266.994L208.751,266.758L213.817,266.128L216.732,265.786L217.365,265.699L220.151,265.354L225.408,264.713L228.767,264.319L230.983,264.039L232.186,263.886L239.005,262.882L240.207,262.724L246.759,261.663L246.884,263.046L244.78,264.648L243.295,268.483L243.633,269.072L243.577,269.139L248.208,271.802L249.292,272.623L250.408,272.72L252.71,272.952L254.815,276.403L255.636,278.083L258.856,281.959L259.545,283.129L259.614,283.155L264.771,285.824L266.337,288.025L268.766,289.823L270.476,290.731L270.775,290.974L272.537,292.208L272.737,294.871L274.6,296.747L276.503,297.549L276.508,298.458L279.363,299.413L280.886,300.281L283.73,304.547L284.356,306.449L285.121,309.668L287.201,310.194L287.203,310.206L289.221,312.02L290.753,314.543L290.804,316.987L291.701,319.274L293.885,319.945L293.293,320.864L294.652,324.344L291.599,323.308L290.378,324.516L292.148,325.087L292.248,327.856L289.014,326.546Z" fill="rgb(239, 249, 189)"/><path aria-label="percentage: 14.86961488" role="graphics-symbol" aria-roledescription="geoshape" transform="translate(0,0)" d="M437.273,81.78L433.903,81.909L436.967,79.823ZM424.931,83.737L425.351,80.602L426.723,79.195L429.567,81.388L425.247,82.89ZM429.025,75.245L428.122,77.017L425.24,78.422L424.772,73.613L423.135,74.244L423.714,75.486L421.967,77.053L421.127,79.305L418.386,81.024L417.291,77.613L416.19,77.552L415.467,76.875L413.705,75.91L411.513,71.726L409.539,71.513L404.825,72.956L399.996,73.727L399.485,73.834L399.483,73.823L393.626,75.239L385.787,77.086L385.05,77.243L378.244,78.671L378.075,78.712L377.745,78.085L377.932,68.31L378.102,62.937L381.859,62.125L383.315,61.802L390.67,60.242L393.423,59.665L398.974,58.447L399.421,58.343L408.881,56.19L409.225,55.253L409.216,55.219L409.346,55.038L411.751,52.938L411.954,51.708L415.19,50.515L417.383,55.091L419.155,53.516L420,54.646L418.77,56.246L416.163,57.836L416.95,58.322L415.168,60.556L414.388,61.648L414.014,61.81L414.301,62.211L414.248,62.237L415.132,63.973L417.061,64.25L418.582,63.458L419.39,63.79L422.502,66.414L421.853,68.432L425.012,69.434L425.689,71.901L427.857,72.766L430.102,72.587L433.882,70.119L431.24,65.203L433.563,66.618L435.565,70.52L434.741,72.535Z" fill="rgb(137, 209, 186)"/><path aria-label="percentage: 6.43956937003" role="graphics-symbol" aria-roledescription="geoshape" transform="translate(0,0)" d="M347.426,158.347L347.464,153.815L348.991,156.077L347.82,155.802ZM370.32,163.265L370.277,166.717L368.804,167.409L367.683,172.545L363.708,173.877L363.701,173.842L363.648,173.89L359.187,175.304L359.464,173.096L360.074,171.276L357.719,171.673L359.565,168.629L357.483,169.114L358.238,165.369L356.88,169.218L355.412,167.02L355.519,169.861L353.098,168.749L351.781,168.421L349.661,166.041L350.866,164.671L350.028,162.761L355.045,162.388L355.274,160.263L354.046,159.167L354.783,157.686L354.046,159.167L354.987,160.373L354.245,162.717L348.249,159.909L349.05,157.824L351.009,159.472L350.179,157.598L351.227,155.531L350.051,156.994L349.492,153.181L351.874,148.137L350.261,151.563L348.606,153.078L347.488,151.287L348.232,147.225L349.178,145.884L353.756,144.856L350.344,145.296L350.655,141.286L348.915,142.045L349.066,144.488L346.373,146.574L345.015,146.253L345.321,147.716L345.118,149.978L342.936,150.142L342.203,151.058L342.328,151.068L343.024,150.863L345.326,153.038L343.678,153.418L346.213,154.623L345.426,157.067L344.368,157.627L345.385,159.246L345.302,161.531L345.309,161.565L346.235,165.422L349.22,168.692L348.267,169.801L347.293,168.415L344.502,167.26L342.991,163.245L342.729,163.178L342.991,163.245L343.275,165.829L343.478,166.817L347.849,169.888L349.466,169.866L351.75,175.1L347.901,174.036L346.459,172.505L342.768,172.453L341.09,169.73L342.165,172.249L339.5,171.095L337.986,169.149L335.598,171.495L334.017,169.184L334.286,167.423L336.309,163.917L336.798,161.13L338.216,158.977L336.348,157.685L334.589,158.755L330.621,156.801L328.288,156.84L326.981,155.828L327.715,153.626L325.588,152.183L323.677,152.134L323.043,152.342L320.546,148.946L319.213,147.741L319.964,146.569L316.777,146.82L313.928,145.635L312.711,147.581L311.583,147.419L309.89,150.44L306.63,150.635L303.963,149.062L301.931,153.653L300.172,153.042L297.39,156.952L294.3,160.234L292.509,148.993L293.865,148.755L301.46,147.359L303.463,146.994L310.471,145.72L311.118,145.599L315.118,144.842L325.409,142.881L325.587,142.858L329.58,142.064L333.098,141.343L336.559,140.637L340.131,139.877L345.521,138.75L345.58,138.737L347.22,138.39L352.837,137.176L354.853,144.522L355.291,146.261L355.586,147.339L356.185,149.54L358.127,156.224L359.27,160.349L359.738,161.936L360.33,164.091L366.198,162.977L370.423,162.05Z" fill="rgb(207, 236, 180)"/><path aria-label="percentage: 0.366409307518" role="graphics-symbol" aria-roledescription="geoshape" transform="translate(0,0)" d="M377.04,223.506L377.722,225.141L378.346,233.322L374.667,234.971L374.64,234.844L378.283,232.146L377.824,226.491ZM373.994,221.111L371.64,218.891L373.088,219.026ZM365.915,206.045L366.343,205.953L369.42,212.5L373.889,218.852L370.92,216.461L369.362,212.525L368.719,212.227L366.152,206.552ZM363.837,206.49L364.387,206.372L364.693,206.307L365.426,206.15L365.737,207.6ZM366.252,212.393L364.732,210.983L366.094,211.954L365.31,214.293L362.017,212.081L362.01,212.046L361.092,211.646L360.862,211.161L361.092,211.646L362.01,212.046L362.017,212.081L361.507,212.699L364.305,214.398L364.8,215.518L362.424,216.131L360.707,214.686L362.81,216.741L357.797,218.265L358.566,219.487L356.594,220.212L354.439,219.421L353.344,216.594L353.575,214.293L351.977,213.374L348.687,212.919L351.588,213.345L353.088,215.665L352.967,217.883L354.9,221.035L354.883,222.516L359.8,220.162L360.586,221.149L363.691,219.077L365.622,218.776L366.562,219.861L366.228,222.225L367.05,225.483L365.183,225.515L367.901,225.532L367.32,220.694L370.167,218.639L372.065,221.154L372.93,225.445L370.947,226.759L370.205,225.718L370.621,227.048L369.063,228.85L368.285,232.193L365.813,233.396L362.491,232.095L360.925,232.979L358.716,231.075L360.761,230.638L360.047,229.382L358.204,230.479L359.444,233.65L352.057,232.997L349.805,231.771L349.654,231.983L352.58,233.98L358.845,234.828L359.322,236.194L359.328,234.97L361.689,236.333L359.071,238.753L361.198,238.663L360.379,240.674L357.399,243.599L354.551,242.402L354.489,241.458L351.184,242.478L351.434,242.427L352.633,241.605L355.779,244.281L359.767,244.65L359.826,242.725L362.51,241.527L363.353,240.261L363.516,242.916L366.543,241.797L363.537,247.404L363.614,247.461L363.621,247.496L362.433,248.07L361.489,246.352L361.405,248.791L360.125,246.707L359.78,248.52L356.699,249.115L353.796,250.912L352.135,249.155L352.138,249.167L352.135,249.155L353.107,250.737L350.748,253.978L347.649,253.518L349.85,255.051L347.184,257.463L343.887,261.381L343.894,261.416L344.271,261.33L344.347,261.388L342.38,265.124L341.741,267.262L340.455,264.337L341.329,268.885L340.282,270.98L334.513,271.82L331.188,273.404L330.894,273.242L330.815,273.172L329.221,272.022L320.393,265.696L320.323,265.673L312.441,259.889L312.219,259.736L307.583,256.634L303.349,257.303L296.449,258.31L292.147,258.948L287.971,259.567L287.876,256.976L286.642,255.734L285.245,254.277L282.9,255.36L282.73,253.069L277.519,253.541L276.825,253.636L269.724,254.363L267.888,254.567L266.178,254.75L261.867,255.182L259.426,255.644L255.664,257.214L252.621,259.356L250.322,259.952L248.448,260.833L246.759,261.663L240.207,262.724L239.005,262.882L232.186,263.886L230.983,264.039L228.767,264.319L225.408,264.713L225.324,259.873L226.296,258.414L228.62,258.553L229.759,257.417L229.555,254.801L230.479,253.512L230.613,253.567L233.471,250.94L235.396,250.522L238.239,250.28L242.117,246.818L242.055,246.359L244.906,244.344L246.965,244.025L247.623,240.497L249.004,240.82L249.94,238.868L252.448,237.723L252.548,239.327L254.322,238.822L255.586,236.555L255.583,236.532L258.676,234.201L261.274,235.019L262.144,234.459L263.359,231.099L263.536,230.581L264.769,229.077L267.026,228.916L266.479,227.811L266.692,223.373L272.295,222.813L280.117,221.867L281.238,221.747L285.13,221.152L288.054,220.828L294.742,219.89L295.174,219.817L300.6,218.911L304.051,218.322L304.79,218.193L306.942,217.801L309.097,217.418L310.451,217.176L316.294,216.117L317.401,215.914L322.13,215.014L324.397,214.553L329.126,213.656L331.641,213.162L333.907,212.699L341.947,211.141L344.208,210.652L348.445,209.844L348.41,209.67L354.845,208.383L355.702,208.205L358.7,207.578L361.942,206.893L363.47,206.568L363.504,207.628L366.32,210.315L369.737,216.049Z" fill="rgb(238, 249, 188)"/><path aria-label="percentage: 1.97208842726" role="graphics-symbol" aria-roledescription="geoshape" transform="translate(0,0)" d="M404.189,21.318L407.322,31.654L407.337,31.711L407.337,31.711L409.146,36.897L409.681,40.41L413.318,42.964L413.511,44.981L412.93,46.326L412.872,46.33L413.888,45.283L415.855,46.426L415.19,50.515L411.954,51.708L411.751,52.938L409.346,55.038L409.216,55.219L409.225,55.253L408.881,56.19L399.421,58.343L398.974,58.447L393.423,59.665L390.67,60.242L388.954,58.833L388.508,55.422L389.434,54.188L388.436,50.941L388.323,49.336L387.323,41.925L387.935,41.111L387.812,38.791L388.926,36.984L389.098,31.75L389.877,29.808L389.332,28.145L388.538,24.611L391.319,23.283L392.136,21.755L394.415,18.977L394.553,17.089L392.197,13.822L393.366,9.959L392.691,7.836L393.216,2.67L394.094,1.026L396.711,1.618L397.25,0L400.932,10.93Z" fill="rgb(231, 246, 185)"/><path aria-label="percentage: 8.50136631326" role="graphics-symbol" aria-roledescription="geoshape" transform="translate(0,0)" d="M361.535,143.816L360.712,143.159L360.582,143.127L360.505,143.059L357.937,141.168L357.996,141.155L358.398,139.342L357.181,138.831L357.013,138.345L358.448,134.545L362.753,131.318L363.525,128.751L363.454,128.706L364.466,127.227L368.11,124.177L368.108,124.165L363.627,120.789L361.411,119.585L360.628,116.905L358.43,116.29L358.235,115.956L357.825,112.209L359.331,109.759L357.773,107.921L359.573,104.663L359.182,104.799L360.106,103.559L360.737,100.233L362.59,98.086L368.663,100.193L371.058,100.914L371.39,101.043L377.051,102.793L376.621,107.377L375.866,110.868L374.948,109.281L374.499,110.47L374.209,112.608L373.668,113.671L374.701,115.756L378.819,115.923L379.422,118.218L379.459,122.524L378.68,122.853L378.373,122.328L378.68,122.853L379.223,126.734L378.663,130.899L379.402,131.433L377.227,135.302L376.024,135.69L376.013,135.644L376.024,135.69L375.97,135.727L376.963,138.153L376.119,139.31L375.373,140.626L373.398,142.248L373.435,142.41L374.98,141.873L373.472,145.554L372.729,149.095L370.117,151.255L370.427,147.134L369.747,145.766L366.404,145.738Z" fill="rgb(193, 231, 181)"/><path aria-label="percentage: 7.4894385412" role="graphics-symbol" aria-roledescription="geoshape" transform="translate(0,0)" d="M374.013,114.894L374.315,111.499L376.661,111.924ZM402.829,95.857L401.231,95.775L401.419,94.369ZM386.427,108.289L382.611,110.11L381.751,110.84L381.165,110.419L381.419,109.956L379.568,110.092L379.535,111.489L377.792,112.34L376.755,111.548L377.462,108.628L377.993,107.285L380.633,106.913L380.686,104.853L382.799,103.31L384.748,104.109L383.91,102.896L386.179,102.762L385.393,101.769L388.391,102.138L389.044,100.599L395.28,99.106L397.92,97.785L401.514,93.55L399.833,97.437L397.745,99.503L399.887,99.575L401.494,96.809L404.249,95.005L405.807,95.878L407.529,93.61L408.995,93.647L401.697,99.765L399.951,99.828L398.131,102.254L396.672,102.253L395.196,104.136L389.341,106.275ZM288.264,77.231L287.231,75.051L289.031,75.698ZM381.059,102.363L379.354,104.854L379.643,106.32L377.788,107.187L376.728,109.63L377.316,105.447L377.36,104.608L376.742,99.2L374.154,96.147L374.1,96.172L374.102,96.183L376.262,99.716L377.051,102.793L371.39,101.043L371.058,100.914L368.663,100.193L362.59,98.086L361.396,96.791L357.413,96.392L355.522,94.096L354.392,89.579L353.183,88.963L351.266,89.172L348.966,86.564L347.105,87.009L337.239,89.103L336.616,89.235L330.092,90.603L324.244,91.805L323.619,91.931L313.444,93.961L311.239,94.464L303.996,95.781L302.401,96.083L292.668,97.956L290.431,98.288L281.711,99.905L279.249,100.296L278.234,94.417L281.842,91.255L284.39,88.126L287.023,86.179L287.018,86.156L287.906,83.304L290.628,80.635L289.072,77.204L289.187,75.598L286.213,74.875L285.442,70.919L289.182,68.907L294.357,66.882L301.696,65.626L306.224,65.689L308.99,67.086L311.669,65.666L315.133,64.709L317.709,64.816L321.555,62.33L321.534,62.226L322.862,60.227L325.555,57.291L328.343,56.5L328.397,53.194L328.228,53.217L328.115,53.229L327.102,50.62L325.851,50.16L328.237,48.353L326.621,46.705L327.278,44.648L325.345,46.383L323.07,44.582L325.935,40.207L329.976,36.596L330.826,33.904L336.343,25.475L340.739,21.201L344.364,20.127L354.898,17.664L365.125,14.879L365.39,18.558L367.168,24.467L367.58,24.743L368.854,26.907L369.429,30.686L368.654,32.489L369.262,36.189L370.809,40.659L371.313,41.775L370.935,44.539L371.778,45.854L372.902,44.244L374.111,45.615L375.244,50.737L376.902,58.739L378.102,62.937L377.932,68.31L377.745,78.085L378.075,78.712L378.244,78.671L379.715,87.001L380.27,90.048L380.869,93.535L382.631,96.596L379.35,100.017L380.973,102.005L380.982,102.04L380.991,102.33Z" fill="rgb(200, 233, 181)"/><path aria-label="percentage: 45.4056081279" role="graphics-symbol" aria-roledescription="geoshape" transform="translate(0,0)" d="M281.711,99.905L290.431,98.288L292.668,97.956L302.401,96.083L303.996,95.781L311.239,94.464L313.444,93.961L323.619,91.931L324.244,91.805L330.092,90.603L336.616,89.235L337.239,89.103L347.105,87.009L348.966,86.564L351.266,89.172L353.183,88.963L354.392,89.579L355.522,94.096L357.413,96.392L361.396,96.791L362.59,98.086L360.737,100.233L360.106,103.559L359.182,104.799L359.573,104.663L357.773,107.921L359.331,109.759L357.825,112.209L358.235,115.956L358.43,116.29L360.628,116.905L361.411,119.585L363.627,120.789L368.108,124.165L368.11,124.177L364.466,127.227L363.454,128.706L361.482,131.93L358.4,134.045L355.737,133.9L355.452,133.998L355.452,133.998L352.837,137.176L347.22,138.39L345.58,138.737L345.521,138.75L340.131,139.877L336.559,140.637L333.098,141.343L329.58,142.064L325.587,142.858L325.409,142.881L315.118,144.842L311.118,145.599L310.471,145.72L303.463,146.994L301.46,147.359L293.865,148.755L292.509,148.993L287.796,149.838L285.259,150.274L276.99,151.64L275.336,151.912L274.474,146.667L274.339,145.475L273.766,142.36L272.969,137.142L272.63,135.443L272.051,131.921L271.348,127.278L271.119,126.247L270.313,121.346L270.283,121.159L269.009,113.406L268.972,113.184L267.72,105.564L267.263,102.783L269.977,101.074L278.234,94.417L279.249,100.296Z" fill="rgb(28, 49, 133)"/><path aria-label="percentage: 0.43529440443" role="graphics-symbol" aria-roledescription="geoshape" transform="translate(0,0)" d="M415.116,81.676L415.823,78.889L416.647,81.979ZM418.386,81.024L417.397,81.62L416.19,77.552L417.291,77.613ZM411.513,71.726L413.705,75.91L415.467,76.875L415.36,78.509L413.33,76.537L412.591,76.475L412.668,79.04L413.83,83.205L412.745,85.281L407.883,88.193L407.856,87.625L408.115,85.599L407.332,81.665L407.093,80.748L406.625,78.948L404.825,72.956L409.539,71.513Z" fill="rgb(237, 248, 188)"/><path aria-label="percentage: 4.71044554092" role="graphics-symbol" aria-roledescription="geoshape" transform="translate(0,0)" d="M366.799,175.377L366.868,175.69L365.643,183.054L365.017,184.235L363.132,185.153L362.978,185.903L362.065,188.71L362.364,193.648L360.327,191.231L360.608,184.567L362.095,184.15L360.395,184.455L361.884,179.374L363.161,178.588L363.648,173.89L363.708,173.877L367.683,172.545ZM353.232,184.553L350.422,184.655L347.937,181.461L347.38,181.806L342.37,178.459L341.37,176.615L338.91,175.26L338.857,175.307L339.714,176.769L341.53,176.788L341.93,178.754L344.536,180.173L346.956,182.487L350.197,185.393L354.35,185.677L352.517,187.153L350.154,186.396L352.282,187.238L353.507,186.764L355.685,188.125L355.217,190.699L352.436,188.577L354.186,192.419L352.322,193.184L348.028,189.527L345.892,186.79L343.259,187.763L343.081,187.509L343.259,187.763L345.647,187.749L347.078,189.504L347.146,189.526L348.872,191.171L348.872,191.171L350.867,192.88L353.828,193.428L354.326,195.203L355.131,194.513L354.996,195.682L356.983,195.786L355.429,198.356L350.798,196.215L350.917,195.258L350.019,194.28L348.262,195.271L346.157,194.563L345.478,191.855L345.964,194.239L344.964,194.915L343.423,193.544L339.121,194.119L339.175,192.813L338.01,192.972L338.346,194.661L339.447,194.804L342.11,193.918L343.832,195.254L347.474,195.13L349.89,196.112L350.704,198.211L353.929,199.384L353.484,200.604L355.545,200.429L356.105,201.586L355.975,202.183L357.789,201.426L358.572,201.213L358.927,201.089L359.123,201.109L356.987,200.637L356.582,198.708L359.265,199.077L362.427,198.393L366.343,205.953L365.915,206.045L364.286,202.619L364.387,206.372L363.837,206.49L363.47,206.568L361.942,206.893L358.7,207.578L355.702,208.205L354.845,208.383L348.41,209.67L348.445,209.844L344.208,210.652L341.947,211.141L333.907,212.699L331.641,213.162L329.126,213.656L324.397,214.553L322.13,215.014L317.401,215.914L316.294,216.117L310.451,217.176L309.097,217.418L306.942,217.801L304.79,218.193L304.051,218.322L300.6,218.911L295.174,219.817L294.742,219.89L288.054,220.828L285.13,221.152L281.238,221.747L280.117,221.867L272.295,222.813L266.692,223.373L267.108,222.782L264.011,223.19L258.577,224.441L256.904,224.662L256.039,224.788L250.602,225.604L246.767,226.143L244.108,226.524L235.739,227.571L232.198,227.953L235.728,226.064L241.118,223.555L241.84,221.013L245.054,219.719L244.991,217.906L247.243,216.069L247.287,214.157L249.47,212.326L249.697,212.162L253.501,209.468L253.558,209.424L258.6,203.368L259.354,203.82L258.348,204.606L259.86,207.213L263.435,209.353L266.601,209.568L269.586,206.177L272.261,208.066L276.216,206.119L278.227,204.595L277.817,202.822L277.823,202.857L279.544,203.83L283.482,200.722L284.364,201.9L287.042,199.555L286.35,198.407L287.944,196.721L286.433,195.529L287.957,191.229L289.48,189.19L290.694,186.456L291.244,183.496L292.716,181.593L292.33,180.792L293.899,177.69L293.954,174.09L295.97,174.679L297.34,176.499L300.216,177.016L301.462,175.324L303.164,168.627L303.832,166.528L306.263,168.041L307.142,165.093L308.205,164.512L310.509,160.671L310.972,159.86L312.375,157.835L311.756,155.838L312.103,151.161L314.36,152.426L318.074,154.558L322.005,156.799L323.043,152.342L323.677,152.134L325.588,152.183L327.715,153.626L326.981,155.828L328.288,156.84L330.621,156.801L334.589,158.755L335.062,159.265L335.657,159.459L335.664,159.494L335.673,159.541L335.678,159.564L335.683,159.587L335.754,159.634L335.756,159.645L335.768,159.703L335.894,159.714L335.899,159.738L336.034,159.795L336.187,160.551L336.182,160.528L336.187,160.551L336.351,161.669L336.777,163.169L334.538,165.896L333.659,164.91L333.419,168.674L334.315,171.921L333.726,172.401L338.747,170.449L338.993,172.894L340.001,174.179L344.917,174.108L348.054,175.375L347.602,176.814L348.698,176.368L353.36,177.988L353.948,179.587L352.031,179.723L352.093,179.722L353.72,182.68L352.869,182.822Z" fill="rgb(218, 241, 180)"/></g><g class="mark-group role-legend" role="graphics-symbol" aria-roledescription="legend" aria-label="Gradient legend titled 'percentage' for fill color with values from 0 to 45"><g transform="translate(658,0)"><path class="background" aria-hidden="true" d="M0,0h71v216h-71Z" pointer-events="none"/><g><g class="mark-group role-legend-entry"><g transform="translate(0,16)"><path class="background" aria-hidden="true" d="M0,0h0v0h0Z" pointer-events="none"/><g><g class="mark-rect role-legend-gradient" pointer-events="none"><path d="M0,0h16v200h-16Z" fill="url(#gradient_0)" stroke="#ddd" stroke-width="0" opacity="1"/></g><g class="mark-text role-legend-label" pointer-events="none"><text text-anchor="start" transform="translate(18,159.2736923266572)" font-family="sans-serif" font-size="10px" fill="#000" opacity="1">10</text><text text-anchor="start" transform="translate(18,115.1355739353103)" font-family="sans-serif" font-size="10px" fill="#000" opacity="1">20</text><text text-anchor="start" transform="translate(18,70.9974555439634)" font-family="sans-serif" font-size="10px" fill="#000" opacity="1">30</text><text text-anchor="start" transform="translate(18,26.8593371526165)" font-family="sans-serif" font-size="10px" fill="#000" opacity="1">40</text></g></g><path class="foreground" aria-hidden="true" d="" pointer-events="none" display="none"/></g></g><g class="mark-text role-legend-title" pointer-events="none"><text text-anchor="start" transform="translate(0,9)" font-family="sans-serif" font-size="11px" font-weight="bold" fill="#000" opacity="1">percentage</text></g></g><path class="foreground" aria-hidden="true" d="" pointer-events="none" display="none"/></g></g><g class="mark-group role-title"><g transform="translate(320,-17)"><path class="background" aria-hidden="true" d="M0,0h0v0h0Z" pointer-events="none"/><g><g class="mark-text role-title-text" role="graphics-symbol" aria-roledescription="title" aria-label="Title text 'Pre-1790 Debt By State (in percentage)'" pointer-events="none"><text text-anchor="middle" transform="translate(0,10)" font-family="sans-serif" font-size="13px" font-weight="bold" fill="#000" opacity="1">Pre-1790 Debt By State (in percentage)</text></g></g><path class="foreground" aria-hidden="true" d="" pointer-events="none" display="none"/></g></g></g><path class="foreground" aria-hidden="true" d="" display="none"/></g></g></g><defs><linearGradient id="gradient_0" x1="0" x2="0" y1="1" y2="0"><stop offset="0" stop-color="rgb(239, 249, 189)"/><stop offset="0.04207906480132645" stop-color="rgb(231, 246, 185)"/><stop offset="0.08621718319267334" stop-color="rgb(222, 242, 181)"/><stop offset="0.13035530158402023" stop-color="rgb(210, 237, 180)"/><stop offset="0.17449341997536713" stop-color="rgb(197, 232, 181)"/><stop offset="0.21863153836671403" stop-color="rgb(181, 226, 182)"/><stop offset="0.2627696567580609" stop-color="rgb(163, 219, 184)"/><stop offset="0.3069077751494078" stop-color="rgb(145, 212, 185)"/><stop offset="0.3510458935407547" stop-color="rgb(126, 205, 188)"/><stop offset="0.3951840119321016" stop-color="rgb(107, 198, 190)"/><stop offset="0.4393221303234485" stop-color="rgb(91, 190, 192)"/><stop offset="0.4834602487147954" stop-color="rgb(75, 183, 193)"/><stop offset="0.5275983671061424" stop-color="rgb(62, 174, 193)"/><stop offset="0.5717364854974892" stop-color="rgb(51, 164, 193)"/><stop offset="0.6158746038888361" stop-color="rgb(42, 154, 191)"/><stop offset="0.660012722280183" stop-color="rgb(37, 141, 187)"/><stop offset="0.7041508406715299" stop-color="rgb(33, 129, 183)"/><stop offset="0.7482889590628768" stop-color="rgb(33, 115, 177)"/><stop offset="0.7924270774542237" stop-color="rgb(33, 101, 171)"/><stop offset="0.8365651958455707" stop-color="rgb(34, 89, 165)"/><stop offset="0.8807033142369175" stop-color="rgb(35, 76, 159)"/><stop offset="0.9248414326282643" stop-color="rgb(33, 66, 150)"/><stop offset="0.9689795510196113" stop-color="rgb(30, 56, 140)"/><stop offset="1" stop-color="rgb(28, 49, 133)"/></linearGradient></defs></svg>