<?xml version="1.0" encoding="UTF-8"?>
<svg xmlns="http://www.w3.org/2000/svg"
     xmlns:xlink="http://www.w3.org/1999/xlink"
     xmlns:gadfly="http://www.gadflyjl.org/ns"
     version="1.2"
     width="400mm" height="225mm" viewBox="0 0 400 225"
     stroke="none"
     fill="#000000"
     stroke-width="0.3"
     font-size="3.88"
>
<defs>
  <marker id="arrow" markerWidth="15" markerHeight="7" refX="5" refY="3.5" orient="auto" markerUnits="strokeWidth">
    <path d="M0,0 L15,3.5 L0,7 z" stroke="context-stroke" fill="context-stroke"/>
  </marker>
</defs>
<g stroke="#000000" stroke-opacity="0.000" fill="#FFFFFF" id="img-dd39660b-1">
  <g transform="translate(200,112.5)">
    <path d="M-200,-112.5 L200,-112.5 200,112.5 -200,112.5  z" class="primitive"/>
  </g>
</g>
<g class="plotroot yscalable" id="img-dd39660b-2">
  <g font-size="3.88" font-family="'PT Sans','Helvetica Neue','Helvetica',sans-serif" fill="#564A55" stroke="#000000" stroke-opacity="0.000" id="img-dd39660b-3">
    <g transform="translate(211.7,213.39)">
      <g class="primitive">
        <text text-anchor="middle" dy="0.6em">Year</text>
      </g>
    </g>
  </g>
  <g class="guide xlabels" font-size="2.82" font-family="'PT Sans Caption','Helvetica Neue','Helvetica',sans-serif" fill="#6C606B" id="img-dd39660b-4">
    <g transform="translate(32.38,192.22)">
      <g class="primitive">
        <text text-anchor="end" dy="0.35em" transform="rotate(-90,0, 0)">1790-10</text>
      </g>
    </g>
    <g transform="translate(40.35,192.22)">
      <g class="primitive">
        <text text-anchor="end" dy="0.35em" transform="rotate(-90,0, 0)">1790-11</text>
      </g>
    </g>
    <g transform="translate(48.32,192.22)">
      <g class="primitive">
        <text text-anchor="end" dy="0.35em" transform="rotate(-90,0, 0)">1790-12</text>
      </g>
    </g>
    <g transform="translate(56.29,192.22)">
      <g class="primitive">
        <text text-anchor="end" dy="0.35em" transform="rotate(-90,0, 0)">1791-01</text>
      </g>
    </g>
    <g transform="translate(64.26,192.22)">
      <g class="primitive">
        <text text-anchor="end" dy="0.35em" transform="rotate(-90,0, 0)">1791-02</text>
      </g>
    </g>
    <g transform="translate(72.23,192.22)">
      <g class="primitive">
        <text text-anchor="end" dy="0.35em" transform="rotate(-90,0, 0)">1791-03</text>
      </g>
    </g>
    <g transform="translate(80.2,192.22)">
      <g class="primitive">
        <text text-anchor="end" dy="0.35em" transform="rotate(-90,0, 0)">1791-04</text>
      </g>
    </g>
    <g transform="translate(88.17,192.22)">
      <g class="primitive">
        <text text-anchor="end" dy="0.35em" transform="rotate(-90,0, 0)">1791-05</text>
      </g>
    </g>
    <g transform="translate(96.14,192.22)">
      <g class="primitive">
        <text text-anchor="end" dy="0.35em" transform="rotate(-90,0, 0)">1791-06</text>
      </g>
    </g>
    <g transform="translate(104.11,192.22)">
      <g class="primitive">
        <text text-anchor="end" dy="0.35em" transform="rotate(-90,0, 0)">1791-07</text>
      </g>
    </g>
    <g transform="translate(112.08,192.22)">
      <g class="primitive">
        <text text-anchor="end" dy="0.35em" transform="rotate(-90,0, 0)">1791-08</text>
      </g>
    </g>
    <g transform="translate(120.05,192.22)">
      <g class="primitive">
        <text text-anchor="end" dy="0.35em" transform="rotate(-90,0, 0)">1791-09</text>
      </g>
    </g>
    <g transform="translate(128.02,192.22)">
      <g class="primitive">
        <text text-anchor="end" dy="0.35em" transform="rotate(-90,0, 0)">1791-10</text>
      </g>
    </g>
    <g transform="translate(135.99,192.22)">
      <g class="primitive">
        <text text-anchor="end" dy="0.35em" transform="rotate(-90,0, 0)">1791-11</text>
      </g>
    </g>
    <g transform="translate(143.96,192.22)">
      <g class="primitive">
        <text text-anchor="end" dy="0.35em" transform="rotate(-90,0, 0)">1791-12</text>
      </g>
    </g>
    <g transform="translate(151.93,192.22)">
      <g class="primitive">
        <text text-anchor="end" dy="0.35em" transform="rotate(-90,0, 0)">1792-01</text>
      </g>
    </g>
    <g transform="translate(159.9,192.22)">
      <g class="primitive">
        <text text-anchor="end" dy="0.35em" transform="rotate(-90,0, 0)">1792-02</text>
      </g>
    </g>
    <g transform="translate(167.87,192.22)">
      <g class="primitive">
        <text text-anchor="end" dy="0.35em" transform="rotate(-90,0, 0)">1792-06</text>
      </g>
    </g>
    <g transform="translate(175.84,192.22)">
      <g class="primitive">
        <text text-anchor="end" dy="0.35em" transform="rotate(-90,0, 0)">1792-07</text>
      </g>
    </g>
    <g transform="translate(183.81,192.22)">
      <g class="primitive">
        <text text-anchor="end" dy="0.35em" transform="rotate(-90,0, 0)">1792-08</text>
      </g>
    </g>
    <g transform="translate(191.78,192.22)">
      <g class="primitive">
        <text text-anchor="end" dy="0.35em" transform="rotate(-90,0, 0)">1792-09</text>
      </g>
    </g>
    <g transform="translate(199.74,192.22)">
      <g class="primitive">
        <text text-anchor="end" dy="0.35em" transform="rotate(-90,0, 0)">1792-10</text>
      </g>
    </g>
    <g transform="translate(207.71,192.22)">
      <g class="primitive">
        <text text-anchor="end" dy="0.35em" transform="rotate(-90,0, 0)">1792-11</text>
      </g>
    </g>
    <g transform="translate(215.68,192.22)">
      <g class="primitive">
        <text text-anchor="end" dy="0.35em" transform="rotate(-90,0, 0)">1792-12</text>
      </g>
    </g>
    <g transform="translate(223.65,192.22)">
      <g class="primitive">
        <text text-anchor="end" dy="0.35em" transform="rotate(-90,0, 0)">1793-01</text>
      </g>
    </g>
    <g transform="translate(231.62,192.22)">
      <g class="primitive">
        <text text-anchor="end" dy="0.35em" transform="rotate(-90,0, 0)">1793-02</text>
      </g>
    </g>
    <g transform="translate(239.59,192.22)">
      <g class="primitive">
        <text text-anchor="end" dy="0.35em" transform="rotate(-90,0, 0)">1793-03</text>
      </g>
    </g>
    <g transform="translate(247.56,192.22)">
      <g class="primitive">
        <text text-anchor="end" dy="0.35em" transform="rotate(-90,0, 0)">1793-04</text>
      </g>
    </g>
    <g transform="translate(255.53,192.22)">
      <g class="primitive">
        <text text-anchor="end" dy="0.35em" transform="rotate(-90,0, 0)">1793-05</text>
      </g>
    </g>
    <g transform="translate(263.5,192.22)">
      <g class="primitive">
        <text text-anchor="end" dy="0.35em" transform="rotate(-90,0, 0)">1793-06</text>
      </g>
    </g>
    <g transform="translate(271.47,192.22)">
      <g class="primitive">
        <text text-anchor="end" dy="0.35em" transform="rotate(-90,0, 0)">1793-08</text>
      </g>
    </g>
    <g transform="translate(279.44,192.22)">
      <g class="primitive">
        <text text-anchor="end" dy="0.35em" transform="rotate(-90,0, 0)">1793-09</text>
      </g>
    </g>
    <g transform="translate(287.41,192.22)">
      <g class="primitive">
        <text text-anchor="end" dy="0.35em" transform="rotate(-90,0, 0)">1793-10</text>
      </g>
    </g>
    <g transform="translate(295.38,192.22)">
      <g class="primitive">
        <text text-anchor="end" dy="0.35em" transform="rotate(-90,0, 0)">1793-11</text>
      </g>
    </g>
    <g transform="translate(303.35,192.22)">
      <g class="primitive">
        <text text-anchor="end" dy="0.35em" transform="rotate(-90,0, 0)">1794-01</text>
      </g>
    </g>
    <g transform="translate(311.32,192.22)">
      <g class="primitive">
        <text text-anchor="end" dy="0.35em" transform="rotate(-90,0, 0)">1794-03</text>
      </g>
    </g>
    <g transform="translate(319.29,192.22)">
      <g class="primitive">
        <text text-anchor="end" dy="0.35em" transform="rotate(-90,0, 0)">1794-04</text>
      </g>
    </g>
    <g transform="translate(327.26,192.22)">
      <g class="primitive">
        <text text-anchor="end" dy="0.35em" transform="rotate(-90,0, 0)">1794-05</text>
      </g>
    </g>
    <g transform="translate(335.23,192.22)">
      <g class="primitive">
        <text text-anchor="end" dy="0.35em" transform="rotate(-90,0, 0)">1794-06</text>
      </g>
    </g>
    <g transform="translate(343.2,192.22)">
      <g class="primitive">
        <text text-anchor="end" dy="0.35em" transform="rotate(-90,0, 0)">1794-08</text>
      </g>
    </g>
    <g transform="translate(351.17,192.22)">
      <g class="primitive">
        <text text-anchor="end" dy="0.35em" transform="rotate(-90,0, 0)">1794-09</text>
      </g>
    </g>
    <g transform="translate(359.14,192.22)">
      <g class="primitive">
        <text text-anchor="end" dy="0.35em" transform="rotate(-90,0, 0)">1794-10</text>
      </g>
    </g>
    <g transform="translate(367.11,192.22)">
      <g class="primitive">
        <text text-anchor="end" dy="0.35em" transform="rotate(-90,0, 0)">1794-11</text>
      </g>
    </g>
    <g transform="translate(375.08,192.22)">
      <g class="primitive">
        <text text-anchor="end" dy="0.35em" transform="rotate(-90,0, 0)">1794-12</text>
      </g>
    </g>
    <g transform="translate(383.05,192.22)">
      <g class="primitive">
        <text text-anchor="end" dy="0.35em" transform="rotate(-90,0, 0)">post-1795</text>
      </g>
    </g>
    <g transform="translate(391.02,192.22)">
      <g class="primitive">
        <text text-anchor="end" dy="0.35em" transform="rotate(-90,0, 0)">missing info</text>
      </g>
    </g>
  </g>
  <g clip-path="url(#img-dd39660b-5)">
    <g id="img-dd39660b-6">
      <g pointer-events="visible" stroke-width="0.3" fill="#000000" fill-opacity="0.000" stroke="#000000" stroke-opacity="0.000" class="guide background" id="img-dd39660b-7">
        <g transform="translate(211.7,100.91)" id="img-dd39660b-8">
          <path d="M-183.3,-90.3 L183.3,-90.3 183.3,90.3 -183.3,90.3  z" class="primitive"/>
        </g>
      </g>
      <g class="guide ygridlines xfixed" stroke-dasharray="0.5,0.5" stroke-width="0.2" stroke="#D0D0E0" id="img-dd39660b-9">
        <g transform="translate(211.7,189.22)" id="img-dd39660b-10">
          <path fill="none" d="M-183.3,0 L183.3,0 " class="primitive"/>
        </g>
        <g transform="translate(211.7,130.35)" id="img-dd39660b-11">
          <path fill="none" d="M-183.3,0 L183.3,0 " class="primitive"/>
        </g>
        <g transform="translate(211.7,71.48)" id="img-dd39660b-12">
          <path fill="none" d="M-183.3,0 L183.3,0 " class="primitive"/>
        </g>
        <g transform="translate(211.7,12.61)" id="img-dd39660b-13">
          <path fill="none" d="M-183.3,0 L183.3,0 " class="primitive"/>
        </g>
      </g>
      <g class="guide xgridlines yfixed" stroke-dasharray="0.5,0.5" stroke-width="0.2" stroke="#D0D0E0" id="img-dd39660b-14">
        <g transform="translate(36.37,100.91)" id="img-dd39660b-15">
          <path fill="none" d="M0,-90.3 L0,90.3 " class="primitive"/>
        </g>
        <g transform="translate(44.34,100.91)" id="img-dd39660b-16">
          <path fill="none" d="M0,-90.3 L0,90.3 " class="primitive"/>
        </g>
        <g transform="translate(52.31,100.91)" id="img-dd39660b-17">
          <path fill="none" d="M0,-90.3 L0,90.3 " class="primitive"/>
        </g>
        <g transform="translate(60.28,100.91)" id="img-dd39660b-18">
          <path fill="none" d="M0,-90.3 L0,90.3 " class="primitive"/>
        </g>
        <g transform="translate(68.25,100.91)" id="img-dd39660b-19">
          <path fill="none" d="M0,-90.3 L0,90.3 " class="primitive"/>
        </g>
        <g transform="translate(76.22,100.91)" id="img-dd39660b-20">
          <path fill="none" d="M0,-90.3 L0,90.3 " class="primitive"/>
        </g>
        <g transform="translate(84.19,100.91)" id="img-dd39660b-21">
          <path fill="none" d="M0,-90.3 L0,90.3 " class="primitive"/>
        </g>
        <g transform="translate(92.16,100.91)" id="img-dd39660b-22">
          <path fill="none" d="M0,-90.3 L0,90.3 " class="primitive"/>
        </g>
        <g transform="translate(100.12,100.91)" id="img-dd39660b-23">
          <path fill="none" d="M0,-90.3 L0,90.3 " class="primitive"/>
        </g>
        <g transform="translate(108.09,100.91)" id="img-dd39660b-24">
          <path fill="none" d="M0,-90.3 L0,90.3 " class="primitive"/>
        </g>
        <g transform="translate(116.06,100.91)" id="img-dd39660b-25">
          <path fill="none" d="M0,-90.3 L0,90.3 " class="primitive"/>
        </g>
        <g transform="translate(124.03,100.91)" id="img-dd39660b-26">
          <path fill="none" d="M0,-90.3 L0,90.3 " class="primitive"/>
        </g>
        <g transform="translate(132,100.91)" id="img-dd39660b-27">
          <path fill="none" d="M0,-90.3 L0,90.3 " class="primitive"/>
        </g>
        <g transform="translate(139.97,100.91)" id="img-dd39660b-28">
          <path fill="none" d="M0,-90.3 L0,90.3 " class="primitive"/>
        </g>
        <g transform="translate(147.94,100.91)" id="img-dd39660b-29">
          <path fill="none" d="M0,-90.3 L0,90.3 " class="primitive"/>
        </g>
        <g transform="translate(155.91,100.91)" id="img-dd39660b-30">
          <path fill="none" d="M0,-90.3 L0,90.3 " class="primitive"/>
        </g>
        <g transform="translate(163.88,100.91)" id="img-dd39660b-31">
          <path fill="none" d="M0,-90.3 L0,90.3 " class="primitive"/>
        </g>
        <g transform="translate(171.85,100.91)" id="img-dd39660b-32">
          <path fill="none" d="M0,-90.3 L0,90.3 " class="primitive"/>
        </g>
        <g transform="translate(179.82,100.91)" id="img-dd39660b-33">
          <path fill="none" d="M0,-90.3 L0,90.3 " class="primitive"/>
        </g>
        <g transform="translate(187.79,100.91)" id="img-dd39660b-34">
          <path fill="none" d="M0,-90.3 L0,90.3 " class="primitive"/>
        </g>
        <g transform="translate(195.76,100.91)" id="img-dd39660b-35">
          <path fill="none" d="M0,-90.3 L0,90.3 " class="primitive"/>
        </g>
        <g transform="translate(203.73,100.91)" id="img-dd39660b-36">
          <path fill="none" d="M0,-90.3 L0,90.3 " class="primitive"/>
        </g>
        <g transform="translate(211.7,100.91)" id="img-dd39660b-37">
          <path fill="none" d="M0,-90.3 L0,90.3 " class="primitive"/>
        </g>
        <g transform="translate(219.67,100.91)" id="img-dd39660b-38">
          <path fill="none" d="M0,-90.3 L0,90.3 " class="primitive"/>
        </g>
        <g transform="translate(227.64,100.91)" id="img-dd39660b-39">
          <path fill="none" d="M0,-90.3 L0,90.3 " class="primitive"/>
        </g>
        <g transform="translate(235.61,100.91)" id="img-dd39660b-40">
          <path fill="none" d="M0,-90.3 L0,90.3 " class="primitive"/>
        </g>
        <g transform="translate(243.58,100.91)" id="img-dd39660b-41">
          <path fill="none" d="M0,-90.3 L0,90.3 " class="primitive"/>
        </g>
        <g transform="translate(251.55,100.91)" id="img-dd39660b-42">
          <path fill="none" d="M0,-90.3 L0,90.3 " class="primitive"/>
        </g>
        <g transform="translate(259.52,100.91)" id="img-dd39660b-43">
          <path fill="none" d="M0,-90.3 L0,90.3 " class="primitive"/>
        </g>
        <g transform="translate(267.49,100.91)" id="img-dd39660b-44">
          <path fill="none" d="M0,-90.3 L0,90.3 " class="primitive"/>
        </g>
        <g transform="translate(275.46,100.91)" id="img-dd39660b-45">
          <path fill="none" d="M0,-90.3 L0,90.3 " class="primitive"/>
        </g>
        <g transform="translate(283.43,100.91)" id="img-dd39660b-46">
          <path fill="none" d="M0,-90.3 L0,90.3 " class="primitive"/>
        </g>
        <g transform="translate(291.4,100.91)" id="img-dd39660b-47">
          <path fill="none" d="M0,-90.3 L0,90.3 " class="primitive"/>
        </g>
        <g transform="translate(299.36,100.91)" id="img-dd39660b-48">
          <path fill="none" d="M0,-90.3 L0,90.3 " class="primitive"/>
        </g>
        <g transform="translate(307.33,100.91)" id="img-dd39660b-49">
          <path fill="none" d="M0,-90.3 L0,90.3 " class="primitive"/>
        </g>
        <g transform="translate(315.3,100.91)" id="img-dd39660b-50">
          <path fill="none" d="M0,-90.3 L0,90.3 " class="primitive"/>
        </g>
        <g transform="translate(323.27,100.91)" id="img-dd39660b-51">
          <path fill="none" d="M0,-90.3 L0,90.3 " class="primitive"/>
        </g>
        <g transform="translate(331.24,100.91)" id="img-dd39660b-52">
          <path fill="none" d="M0,-90.3 L0,90.3 " class="primitive"/>
        </g>
        <g transform="translate(339.21,100.91)" id="img-dd39660b-53">
          <path fill="none" d="M0,-90.3 L0,90.3 " class="primitive"/>
        </g>
        <g transform="translate(347.18,100.91)" id="img-dd39660b-54">
          <path fill="none" d="M0,-90.3 L0,90.3 " class="primitive"/>
        </g>
        <g transform="translate(355.15,100.91)" id="img-dd39660b-55">
          <path fill="none" d="M0,-90.3 L0,90.3 " class="primitive"/>
        </g>
        <g transform="translate(363.12,100.91)" id="img-dd39660b-56">
          <path fill="none" d="M0,-90.3 L0,90.3 " class="primitive"/>
        </g>
        <g transform="translate(371.09,100.91)" id="img-dd39660b-57">
          <path fill="none" d="M0,-90.3 L0,90.3 " class="primitive"/>
        </g>
        <g transform="translate(379.06,100.91)" id="img-dd39660b-58">
          <path fill="none" d="M0,-90.3 L0,90.3 " class="primitive"/>
        </g>
        <g transform="translate(387.03,100.91)" id="img-dd39660b-59">
          <path fill="none" d="M0,-90.3 L0,90.3 " class="primitive"/>
        </g>
      </g>
      <g class="plotpanel" id="img-dd39660b-60">
        <metadata>
          <boundingbox value="28.39833333333337mm 10.611666666666679mm 366.6016666666667mm 180.60333333333335mm"/>
          <unitbox value="0.5 151698.72218342425 46.0 -153397.4443668485"/>
        </metadata>
        <g shape-rendering="crispEdges" stroke-width="0.3" id="img-dd39660b-61">
          <g class="geometry" fill-opacity="1" stroke="#000000" stroke-opacity="0.000" fill="#00BFFF" id="img-dd39660b-62">
            <g transform="translate(32.38,163.95)" id="img-dd39660b-63">
              <path d="M-4.01,-25.26 L4.01,-25.26 4.01,25.26 -4.01,25.26  z" class="primitive"/>
            </g>
            <g transform="translate(40.35,163.75)" id="img-dd39660b-64">
              <path d="M-4.01,-25.46 L4.01,-25.46 4.01,25.46 -4.01,25.46  z" class="primitive"/>
            </g>
            <g transform="translate(48.32,170.02)" id="img-dd39660b-65">
              <path d="M-4.01,-19.2 L4.01,-19.2 4.01,19.2 -4.01,19.2  z" class="primitive"/>
            </g>
            <g transform="translate(56.29,169.19)" id="img-dd39660b-66">
              <path d="M-4.01,-20.02 L4.01,-20.02 4.01,20.02 -4.01,20.02  z" class="primitive"/>
            </g>
            <g transform="translate(64.26,157.68)" id="img-dd39660b-67">
              <path d="M-4.01,-31.54 L4.01,-31.54 4.01,31.54 -4.01,31.54  z" class="primitive"/>
            </g>
            <g transform="translate(72.23,168.42)" id="img-dd39660b-68">
              <path d="M-4.01,-20.8 L4.01,-20.8 4.01,20.8 -4.01,20.8  z" class="primitive"/>
            </g>
            <g transform="translate(80.2,185.48)" id="img-dd39660b-69">
              <path d="M-4.01,-3.74 L4.01,-3.74 4.01,3.74 -4.01,3.74  z" class="primitive"/>
            </g>
            <g transform="translate(88.17,176.94)" id="img-dd39660b-70">
              <path d="M-4.01,-12.27 L4.01,-12.27 4.01,12.27 -4.01,12.27  z" class="primitive"/>
            </g>
            <g transform="translate(96.14,183.7)" id="img-dd39660b-71">
              <path d="M-4.01,-5.51 L4.01,-5.51 4.01,5.51 -4.01,5.51  z" class="primitive"/>
            </g>
            <g transform="translate(104.11,187.52)" id="img-dd39660b-72">
              <path d="M-4.01,-1.7 L4.01,-1.7 4.01,1.7 -4.01,1.7  z" class="primitive"/>
            </g>
            <g transform="translate(112.08,179.87)" id="img-dd39660b-73">
              <path d="M-4.01,-9.35 L4.01,-9.35 4.01,9.35 -4.01,9.35  z" class="primitive"/>
            </g>
            <g transform="translate(120.05,163.79)" id="img-dd39660b-74">
              <path d="M-4.01,-25.42 L4.01,-25.42 4.01,25.42 -4.01,25.42  z" class="primitive"/>
            </g>
            <g transform="translate(128.02,188.69)" id="img-dd39660b-75">
              <path d="M-4.01,-0.52 L4.01,-0.52 4.01,0.52 -4.01,0.52  z" class="primitive"/>
            </g>
            <g transform="translate(135.99,189.07)" id="img-dd39660b-76">
              <path d="M-4.01,-0.14 L4.01,-0.14 4.01,0.14 -4.01,0.14  z" class="primitive"/>
            </g>
            <g transform="translate(143.96,188.24)" id="img-dd39660b-77">
              <path d="M-4.01,-0.97 L4.01,-0.97 4.01,0.97 -4.01,0.97  z" class="primitive"/>
            </g>
            <g transform="translate(151.93,188.89)" id="img-dd39660b-78">
              <path d="M-4.01,-0.33 L4.01,-0.33 4.01,0.33 -4.01,0.33  z" class="primitive"/>
            </g>
            <g transform="translate(159.9,188.9)" id="img-dd39660b-79">
              <path d="M-4.01,-0.32 L4.01,-0.32 4.01,0.32 -4.01,0.32  z" class="primitive"/>
            </g>
            <g transform="translate(167.87,189.22)" id="img-dd39660b-80">
              <path d="M-4.01,-0 L4.01,-0 4.01,0 -4.01,0  z" class="primitive"/>
            </g>
            <g transform="translate(175.84,189.06)" id="img-dd39660b-81">
              <path d="M-4.01,-0.15 L4.01,-0.15 4.01,0.15 -4.01,0.15  z" class="primitive"/>
            </g>
            <g transform="translate(183.81,189.22)" id="img-dd39660b-82">
              <path d="M-4.01,-0 L4.01,-0 4.01,0 -4.01,0  z" class="primitive"/>
            </g>
            <g transform="translate(191.78,189.22)" id="img-dd39660b-83">
              <path d="M-4.01,-0 L4.01,-0 4.01,0 -4.01,0  z" class="primitive"/>
            </g>
            <g transform="translate(199.74,189.22)" id="img-dd39660b-84">
              <path d="M-4.01,-0 L4.01,-0 4.01,0 -4.01,0  z" class="primitive"/>
            </g>
            <g transform="translate(207.71,188.73)" id="img-dd39660b-85">
              <path d="M-4.01,-0.49 L4.01,-0.49 4.01,0.49 -4.01,0.49  z" class="primitive"/>
            </g>
            <g transform="translate(215.68,189.18)" id="img-dd39660b-86">
              <path d="M-4.01,-0.04 L4.01,-0.04 4.01,0.04 -4.01,0.04  z" class="primitive"/>
            </g>
            <g transform="translate(223.65,188.39)" id="img-dd39660b-87">
              <path d="M-4.01,-0.82 L4.01,-0.82 4.01,0.82 -4.01,0.82  z" class="primitive"/>
            </g>
            <g transform="translate(231.62,188.44)" id="img-dd39660b-88">
              <path d="M-4.01,-0.78 L4.01,-0.78 4.01,0.78 -4.01,0.78  z" class="primitive"/>
            </g>
            <g transform="translate(239.59,189.21)" id="img-dd39660b-89">
              <path d="M-4.01,-0.01 L4.01,-0.01 4.01,0.01 -4.01,0.01  z" class="primitive"/>
            </g>
            <g transform="translate(247.56,189.01)" id="img-dd39660b-90">
              <path d="M-4.01,-0.2 L4.01,-0.2 4.01,0.2 -4.01,0.2  z" class="primitive"/>
            </g>
            <g transform="translate(255.53,189.18)" id="img-dd39660b-91">
              <path d="M-4.01,-0.03 L4.01,-0.03 4.01,0.03 -4.01,0.03  z" class="primitive"/>
            </g>
            <g transform="translate(263.5,189.22)" id="img-dd39660b-92">
              <path d="M-4.01,-0 L4.01,-0 4.01,0 -4.01,0  z" class="primitive"/>
            </g>
            <g transform="translate(271.47,189.17)" id="img-dd39660b-93">
              <path d="M-4.01,-0.05 L4.01,-0.05 4.01,0.05 -4.01,0.05  z" class="primitive"/>
            </g>
            <g transform="translate(279.44,189.16)" id="img-dd39660b-94">
              <path d="M-4.01,-0.06 L4.01,-0.06 4.01,0.06 -4.01,0.06  z" class="primitive"/>
            </g>
            <g transform="translate(287.41,189.18)" id="img-dd39660b-95">
              <path d="M-4.01,-0.03 L4.01,-0.03 4.01,0.03 -4.01,0.03  z" class="primitive"/>
            </g>
            <g transform="translate(295.38,189.22)" id="img-dd39660b-96">
              <path d="M-4.01,-0 L4.01,-0 4.01,0 -4.01,0  z" class="primitive"/>
            </g>
            <g transform="translate(303.35,189.2)" id="img-dd39660b-97">
              <path d="M-4.01,-0.01 L4.01,-0.01 4.01,0.01 -4.01,0.01  z" class="primitive"/>
            </g>
            <g transform="translate(311.32,189.17)" id="img-dd39660b-98">
              <path d="M-4.01,-0.05 L4.01,-0.05 4.01,0.05 -4.01,0.05  z" class="primitive"/>
            </g>
            <g transform="translate(319.29,189.17)" id="img-dd39660b-99">
              <path d="M-4.01,-0.04 L4.01,-0.04 4.01,0.04 -4.01,0.04  z" class="primitive"/>
            </g>
            <g transform="translate(327.26,188.65)" id="img-dd39660b-100">
              <path d="M-4.01,-0.56 L4.01,-0.56 4.01,0.56 -4.01,0.56  z" class="primitive"/>
            </g>
            <g transform="translate(335.23,189.01)" id="img-dd39660b-101">
              <path d="M-4.01,-0.21 L4.01,-0.21 4.01,0.21 -4.01,0.21  z" class="primitive"/>
            </g>
            <g transform="translate(343.2,189.17)" id="img-dd39660b-102">
              <path d="M-4.01,-0.04 L4.01,-0.04 4.01,0.04 -4.01,0.04  z" class="primitive"/>
            </g>
            <g transform="translate(351.17,189.21)" id="img-dd39660b-103">
              <path d="M-4.01,-0 L4.01,-0 4.01,0 -4.01,0  z" class="primitive"/>
            </g>
            <g transform="translate(359.14,188.94)" id="img-dd39660b-104">
              <path d="M-4.01,-0.27 L4.01,-0.27 4.01,0.27 -4.01,0.27  z" class="primitive"/>
            </g>
            <g transform="translate(367.11,116.32)" id="img-dd39660b-105">
              <path d="M-4.01,-72.89 L4.01,-72.89 4.01,72.89 -4.01,72.89  z" class="primitive"/>
            </g>
            <g transform="translate(375.08,189.22)" id="img-dd39660b-106">
              <path d="M-4.01,-0 L4.01,-0 4.01,0 -4.01,0  z" class="primitive"/>
            </g>
            <g transform="translate(383.05,188.75)" id="img-dd39660b-107">
              <path d="M-4.01,-0.46 L4.01,-0.46 4.01,0.46 -4.01,0.46  z" class="primitive"/>
            </g>
            <g transform="translate(391.02,181.36)" id="img-dd39660b-108">
              <path d="M-4.01,-7.85 L4.01,-7.85 4.01,7.85 -4.01,7.85  z" class="primitive"/>
            </g>
          </g>
        </g>
      </g>
    </g>
  </g>
  <g class="guide ylabels" font-size="2.82" font-family="'PT Sans Caption','Helvetica Neue','Helvetica',sans-serif" fill="#6C606B" id="img-dd39660b-109">
    <g transform="translate(27.4,189.22)" id="img-dd39660b-110">
      <g class="primitive">
        <text text-anchor="end" dy="0.35em">0</text>
      </g>
    </g>
    <g transform="translate(27.4,130.35)" id="img-dd39660b-111">
      <g class="primitive">
        <text text-anchor="end" dy="0.35em">5.00×10⁴</text>
      </g>
    </g>
    <g transform="translate(27.4,71.48)" id="img-dd39660b-112">
      <g class="primitive">
        <text text-anchor="end" dy="0.35em">1.00×10⁵</text>
      </g>
    </g>
    <g transform="translate(27.4,12.61)" id="img-dd39660b-113">
      <g class="primitive">
        <text text-anchor="end" dy="0.35em">1.50×10⁵</text>
      </g>
    </g>
  </g>
  <g font-size="3.88" font-family="'PT Sans','Helvetica Neue','Helvetica',sans-serif" fill="#564A55" stroke="#000000" stroke-opacity="0.000" id="img-dd39660b-114">
    <g transform="translate(8.81,98.91)" id="img-dd39660b-115">
      <g class="primitive">
        <text text-anchor="middle" dy="0.35em" transform="rotate(-90,0, 2)">Total Debt (in dollars)</text>
      </g>
    </g>
  </g>
  <g font-size="3.88" font-family="'PT Sans','Helvetica Neue','Helvetica',sans-serif" fill="#564A55" stroke="#000000" stroke-opacity="0.000" id="img-dd39660b-116">
    <g transform="translate(211.7,5)" id="img-dd39660b-117">
      <g class="primitive">
        <text text-anchor="middle" dy="0.6em">CT Debt Redeemed Per Year/Month</text>
      </g>
    </g>
  </g>
</g>
<defs>
  <clipPath id="img-dd39660b-5">
    <path d="M28.4,10.61 L395,10.61 395,191.22 28.4,191.22 " />
  </clipPath>
</defs>
</svg>
