<?xml version="1.0" encoding="UTF-8"?>
<svg xmlns="http://www.w3.org/2000/svg"
     xmlns:xlink="http://www.w3.org/1999/xlink"
     xmlns:gadfly="http://www.gadflyjl.org/ns"
     version="1.2"
     width="400mm" height="225mm" viewBox="0 0 400 225"
     stroke="none"
     fill="#000000"
     stroke-width="0.3"
     font-size="3.88"
>
<defs>
  <marker id="arrow" markerWidth="15" markerHeight="7" refX="5" refY="3.5" orient="auto" markerUnits="strokeWidth">
    <path d="M0,0 L15,3.5 L0,7 z" stroke="context-stroke" fill="context-stroke"/>
  </marker>
</defs>
<g stroke="#000000" stroke-opacity="0.000" fill="#FFFFFF" id="img-6f9aafc5-1">
  <g transform="translate(200,112.5)">
    <path d="M-200,-112.5 L200,-112.5 200,112.5 -200,112.5  z" class="primitive"/>
  </g>
</g>
<g class="plotroot yscalable" id="img-6f9aafc5-2">
  <g font-size="3.88" font-family="'PT Sans','Helvetica Neue','Helvetica',sans-serif" fill="#564A55" stroke="#000000" stroke-opacity="0.000" id="img-6f9aafc5-3">
    <g transform="translate(210.86,213.39)">
      <g class="primitive">
        <text text-anchor="middle" dy="0.6em">Year</text>
      </g>
    </g>
  </g>
  <g class="guide xlabels" font-size="2.82" font-family="'PT Sans Caption','Helvetica Neue','Helvetica',sans-serif" fill="#6C606B" id="img-6f9aafc5-4">
    <g transform="translate(35.49,206.72)">
      <g class="primitive">
        <text text-anchor="middle" dy="0.6em">1791-02</text>
      </g>
    </g>
    <g transform="translate(53.03,206.72)">
      <g class="primitive">
        <text text-anchor="middle" dy="0.6em">1791-04</text>
      </g>
    </g>
    <g transform="translate(70.57,206.72)">
      <g class="primitive">
        <text text-anchor="middle" dy="0.6em">1791-06</text>
      </g>
    </g>
    <g transform="translate(88.1,206.72)">
      <g class="primitive">
        <text text-anchor="middle" dy="0.6em">1791-07</text>
      </g>
    </g>
    <g transform="translate(105.64,206.72)">
      <g class="primitive">
        <text text-anchor="middle" dy="0.6em">1791-08</text>
      </g>
    </g>
    <g transform="translate(123.18,206.72)">
      <g class="primitive">
        <text text-anchor="middle" dy="0.6em">1791-09</text>
      </g>
    </g>
    <g transform="translate(140.71,206.72)">
      <g class="primitive">
        <text text-anchor="middle" dy="0.6em">1791-10</text>
      </g>
    </g>
    <g transform="translate(158.25,206.72)">
      <g class="primitive">
        <text text-anchor="middle" dy="0.6em">1791-12</text>
      </g>
    </g>
    <g transform="translate(175.79,206.72)">
      <g class="primitive">
        <text text-anchor="middle" dy="0.6em">1792-05</text>
      </g>
    </g>
    <g transform="translate(193.33,206.72)">
      <g class="primitive">
        <text text-anchor="middle" dy="0.6em">1792-07</text>
      </g>
    </g>
    <g transform="translate(210.86,206.72)">
      <g class="primitive">
        <text text-anchor="middle" dy="0.6em">1792-09</text>
      </g>
    </g>
    <g transform="translate(228.4,206.72)">
      <g class="primitive">
        <text text-anchor="middle" dy="0.6em">1792-11</text>
      </g>
    </g>
    <g transform="translate(245.94,206.72)">
      <g class="primitive">
        <text text-anchor="middle" dy="0.6em">1792-12</text>
      </g>
    </g>
    <g transform="translate(263.47,206.72)">
      <g class="primitive">
        <text text-anchor="middle" dy="0.6em">1793-01</text>
      </g>
    </g>
    <g transform="translate(281.01,206.72)">
      <g class="primitive">
        <text text-anchor="middle" dy="0.6em">1793-02</text>
      </g>
    </g>
    <g transform="translate(298.55,206.72)">
      <g class="primitive">
        <text text-anchor="middle" dy="0.6em">1793-04</text>
      </g>
    </g>
    <g transform="translate(316.08,206.72)">
      <g class="primitive">
        <text text-anchor="middle" dy="0.6em">1793-06</text>
      </g>
    </g>
    <g transform="translate(333.62,206.72)">
      <g class="primitive">
        <text text-anchor="middle" dy="0.6em">1794-02</text>
      </g>
    </g>
    <g transform="translate(351.16,206.72)">
      <g class="primitive">
        <text text-anchor="middle" dy="0.6em">1794-07</text>
      </g>
    </g>
    <g transform="translate(368.69,206.72)">
      <g class="primitive">
        <text text-anchor="middle" dy="0.6em">post-1795</text>
      </g>
    </g>
    <g transform="translate(386.23,206.72)">
      <g class="primitive">
        <text text-anchor="middle" dy="0.6em">missing info</text>
      </g>
    </g>
  </g>
  <g clip-path="url(#img-6f9aafc5-5)">
    <g id="img-6f9aafc5-6">
      <g pointer-events="visible" stroke-width="0.3" fill="#000000" fill-opacity="0.000" stroke="#000000" stroke-opacity="0.000" class="guide background" id="img-6f9aafc5-7">
        <g transform="translate(210.86,108.16)" id="img-6f9aafc5-8">
          <path d="M-184.14,-97.55 L184.14,-97.55 184.14,97.55 -184.14,97.55  z" class="primitive"/>
        </g>
      </g>
      <g class="guide ygridlines xfixed" stroke-dasharray="0.5,0.5" stroke-width="0.2" stroke="#D0D0E0" id="img-6f9aafc5-9">
        <g transform="translate(210.86,203.72)" id="img-6f9aafc5-10">
          <path fill="none" d="M-184.14,0 L184.14,0 " class="primitive"/>
        </g>
        <g transform="translate(210.86,140.01)" id="img-6f9aafc5-11">
          <path fill="none" d="M-184.14,0 L184.14,0 " class="primitive"/>
        </g>
        <g transform="translate(210.86,76.31)" id="img-6f9aafc5-12">
          <path fill="none" d="M-184.14,0 L184.14,0 " class="primitive"/>
        </g>
        <g transform="translate(210.86,12.61)" id="img-6f9aafc5-13">
          <path fill="none" d="M-184.14,0 L184.14,0 " class="primitive"/>
        </g>
      </g>
      <g class="guide xgridlines yfixed" stroke-dasharray="0.5,0.5" stroke-width="0.2" stroke="#D0D0E0" id="img-6f9aafc5-14">
        <g transform="translate(44.26,108.16)" id="img-6f9aafc5-15">
          <path fill="none" d="M0,-97.55 L0,97.55 " class="primitive"/>
        </g>
        <g transform="translate(61.8,108.16)" id="img-6f9aafc5-16">
          <path fill="none" d="M0,-97.55 L0,97.55 " class="primitive"/>
        </g>
        <g transform="translate(79.34,108.16)" id="img-6f9aafc5-17">
          <path fill="none" d="M0,-97.55 L0,97.55 " class="primitive"/>
        </g>
        <g transform="translate(96.87,108.16)" id="img-6f9aafc5-18">
          <path fill="none" d="M0,-97.55 L0,97.55 " class="primitive"/>
        </g>
        <g transform="translate(114.41,108.16)" id="img-6f9aafc5-19">
          <path fill="none" d="M0,-97.55 L0,97.55 " class="primitive"/>
        </g>
        <g transform="translate(131.95,108.16)" id="img-6f9aafc5-20">
          <path fill="none" d="M0,-97.55 L0,97.55 " class="primitive"/>
        </g>
        <g transform="translate(149.48,108.16)" id="img-6f9aafc5-21">
          <path fill="none" d="M0,-97.55 L0,97.55 " class="primitive"/>
        </g>
        <g transform="translate(167.02,108.16)" id="img-6f9aafc5-22">
          <path fill="none" d="M0,-97.55 L0,97.55 " class="primitive"/>
        </g>
        <g transform="translate(184.56,108.16)" id="img-6f9aafc5-23">
          <path fill="none" d="M0,-97.55 L0,97.55 " class="primitive"/>
        </g>
        <g transform="translate(202.09,108.16)" id="img-6f9aafc5-24">
          <path fill="none" d="M0,-97.55 L0,97.55 " class="primitive"/>
        </g>
        <g transform="translate(219.63,108.16)" id="img-6f9aafc5-25">
          <path fill="none" d="M0,-97.55 L0,97.55 " class="primitive"/>
        </g>
        <g transform="translate(237.17,108.16)" id="img-6f9aafc5-26">
          <path fill="none" d="M0,-97.55 L0,97.55 " class="primitive"/>
        </g>
        <g transform="translate(254.7,108.16)" id="img-6f9aafc5-27">
          <path fill="none" d="M0,-97.55 L0,97.55 " class="primitive"/>
        </g>
        <g transform="translate(272.24,108.16)" id="img-6f9aafc5-28">
          <path fill="none" d="M0,-97.55 L0,97.55 " class="primitive"/>
        </g>
        <g transform="translate(289.78,108.16)" id="img-6f9aafc5-29">
          <path fill="none" d="M0,-97.55 L0,97.55 " class="primitive"/>
        </g>
        <g transform="translate(307.32,108.16)" id="img-6f9aafc5-30">
          <path fill="none" d="M0,-97.55 L0,97.55 " class="primitive"/>
        </g>
        <g transform="translate(324.85,108.16)" id="img-6f9aafc5-31">
          <path fill="none" d="M0,-97.55 L0,97.55 " class="primitive"/>
        </g>
        <g transform="translate(342.39,108.16)" id="img-6f9aafc5-32">
          <path fill="none" d="M0,-97.55 L0,97.55 " class="primitive"/>
        </g>
        <g transform="translate(359.93,108.16)" id="img-6f9aafc5-33">
          <path fill="none" d="M0,-97.55 L0,97.55 " class="primitive"/>
        </g>
        <g transform="translate(377.46,108.16)" id="img-6f9aafc5-34">
          <path fill="none" d="M0,-97.55 L0,97.55 " class="primitive"/>
        </g>
      </g>
      <g class="plotpanel" id="img-6f9aafc5-35">
        <metadata>
          <boundingbox value="26.725000000000023mm 10.611666666666679mm 368.275mm 195.10333333333335mm"/>
          <unitbox value="0.5 30313.96626606897 21.0 -30627.932532137933"/>
        </metadata>
        <g shape-rendering="crispEdges" stroke-width="0.3" id="img-6f9aafc5-36">
          <g class="geometry" fill-opacity="1" stroke="#000000" stroke-opacity="0.000" fill="#00BFFF" id="img-6f9aafc5-37">
            <g transform="translate(35.49,188.59)" id="img-6f9aafc5-38">
              <path d="M-8.79,-15.13 L8.79,-15.13 8.79,15.13 -8.79,15.13  z" class="primitive"/>
            </g>
            <g transform="translate(53.03,202.27)" id="img-6f9aafc5-39">
              <path d="M-8.79,-1.45 L8.79,-1.45 8.79,1.45 -8.79,1.45  z" class="primitive"/>
            </g>
            <g transform="translate(70.57,188.14)" id="img-6f9aafc5-40">
              <path d="M-8.79,-15.58 L8.79,-15.58 8.79,15.58 -8.79,15.58  z" class="primitive"/>
            </g>
            <g transform="translate(88.1,178.65)" id="img-6f9aafc5-41">
              <path d="M-8.79,-25.07 L8.79,-25.07 8.79,25.07 -8.79,25.07  z" class="primitive"/>
            </g>
            <g transform="translate(105.64,194.08)" id="img-6f9aafc5-42">
              <path d="M-8.79,-9.64 L8.79,-9.64 8.79,9.64 -8.79,9.64  z" class="primitive"/>
            </g>
            <g transform="translate(123.18,190.12)" id="img-6f9aafc5-43">
              <path d="M-8.79,-13.59 L8.79,-13.59 8.79,13.59 -8.79,13.59  z" class="primitive"/>
            </g>
            <g transform="translate(140.71,202.55)" id="img-6f9aafc5-44">
              <path d="M-8.79,-1.16 L8.79,-1.16 8.79,1.16 -8.79,1.16  z" class="primitive"/>
            </g>
            <g transform="translate(158.25,178.1)" id="img-6f9aafc5-45">
              <path d="M-8.79,-25.62 L8.79,-25.62 8.79,25.62 -8.79,25.62  z" class="primitive"/>
            </g>
            <g transform="translate(175.79,201.27)" id="img-6f9aafc5-46">
              <path d="M-8.79,-2.45 L8.79,-2.45 8.79,2.45 -8.79,2.45  z" class="primitive"/>
            </g>
            <g transform="translate(193.33,199.82)" id="img-6f9aafc5-47">
              <path d="M-8.79,-3.9 L8.79,-3.9 8.79,3.9 -8.79,3.9  z" class="primitive"/>
            </g>
            <g transform="translate(210.86,110.69)" id="img-6f9aafc5-48">
              <path d="M-8.79,-93.03 L8.79,-93.03 8.79,93.03 -8.79,93.03  z" class="primitive"/>
            </g>
            <g transform="translate(228.4,203.53)" id="img-6f9aafc5-49">
              <path d="M-8.79,-0.18 L8.79,-0.18 8.79,0.18 -8.79,0.18  z" class="primitive"/>
            </g>
            <g transform="translate(245.94,200.94)" id="img-6f9aafc5-50">
              <path d="M-8.79,-2.78 L8.79,-2.78 8.79,2.78 -8.79,2.78  z" class="primitive"/>
            </g>
            <g transform="translate(263.47,194.51)" id="img-6f9aafc5-51">
              <path d="M-8.79,-9.21 L8.79,-9.21 8.79,9.21 -8.79,9.21  z" class="primitive"/>
            </g>
            <g transform="translate(281.01,203.14)" id="img-6f9aafc5-52">
              <path d="M-8.79,-0.57 L8.79,-0.57 8.79,0.57 -8.79,0.57  z" class="primitive"/>
            </g>
            <g transform="translate(298.55,201.68)" id="img-6f9aafc5-53">
              <path d="M-8.79,-2.03 L8.79,-2.03 8.79,2.03 -8.79,2.03  z" class="primitive"/>
            </g>
            <g transform="translate(316.08,200.51)" id="img-6f9aafc5-54">
              <path d="M-8.79,-3.2 L8.79,-3.2 8.79,3.2 -8.79,3.2  z" class="primitive"/>
            </g>
            <g transform="translate(333.62,164.95)" id="img-6f9aafc5-55">
              <path d="M-8.79,-38.76 L8.79,-38.76 8.79,38.76 -8.79,38.76  z" class="primitive"/>
            </g>
            <g transform="translate(351.16,196.61)" id="img-6f9aafc5-56">
              <path d="M-8.79,-7.11 L8.79,-7.11 8.79,7.11 -8.79,7.11  z" class="primitive"/>
            </g>
            <g transform="translate(368.69,203.72)" id="img-6f9aafc5-57">
              <path d="M-8.79,-0 L8.79,-0 8.79,0 -8.79,0  z" class="primitive"/>
            </g>
            <g transform="translate(386.23,203.72)" id="img-6f9aafc5-58">
              <path d="M-8.79,-0 L8.79,-0 8.79,0 -8.79,0  z" class="primitive"/>
            </g>
          </g>
        </g>
      </g>
    </g>
  </g>
  <g class="guide ylabels" font-size="2.82" font-family="'PT Sans Caption','Helvetica Neue','Helvetica',sans-serif" fill="#6C606B" id="img-6f9aafc5-59">
    <g transform="translate(25.72,203.72)" id="img-6f9aafc5-60">
      <g class="primitive">
        <text text-anchor="end" dy="0.35em">0</text>
      </g>
    </g>
    <g transform="translate(25.72,140.01)" id="img-6f9aafc5-61">
      <g class="primitive">
        <text text-anchor="end" dy="0.35em">1.0×10⁴</text>
      </g>
    </g>
    <g transform="translate(25.72,76.31)" id="img-6f9aafc5-62">
      <g class="primitive">
        <text text-anchor="end" dy="0.35em">2.0×10⁴</text>
      </g>
    </g>
    <g transform="translate(25.72,12.61)" id="img-6f9aafc5-63">
      <g class="primitive">
        <text text-anchor="end" dy="0.35em">3.0×10⁴</text>
      </g>
    </g>
  </g>
  <g font-size="3.88" font-family="'PT Sans','Helvetica Neue','Helvetica',sans-serif" fill="#564A55" stroke="#000000" stroke-opacity="0.000" id="img-6f9aafc5-64">
    <g transform="translate(8.81,106.16)" id="img-6f9aafc5-65">
      <g class="primitive">
        <text text-anchor="middle" dy="0.35em" transform="rotate(-90,0, 2)">Total Debt (in dollars)</text>
      </g>
    </g>
  </g>
  <g font-size="3.88" font-family="'PT Sans','Helvetica Neue','Helvetica',sans-serif" fill="#564A55" stroke="#000000" stroke-opacity="0.000" id="img-6f9aafc5-66">
    <g transform="translate(210.86,5)" id="img-6f9aafc5-67">
      <g class="primitive">
        <text text-anchor="middle" dy="0.6em">NC Debt Redeemed Per Year/Month</text>
      </g>
    </g>
  </g>
</g>
<defs>
  <clipPath id="img-6f9aafc5-5">
    <path d="M26.73,10.61 L395,10.61 395,205.72 26.73,205.72 " />
  </clipPath>
</defs>
</svg>
