<?xml version="1.0" encoding="UTF-8"?>
<svg xmlns="http://www.w3.org/2000/svg"
     xmlns:xlink="http://www.w3.org/1999/xlink"
     xmlns:gadfly="http://www.gadflyjl.org/ns"
     version="1.2"
     width="400mm" height="225mm" viewBox="0 0 400 225"
     stroke="none"
     fill="#000000"
     stroke-width="0.3"
     font-size="3.88"
>
<defs>
  <marker id="arrow" markerWidth="15" markerHeight="7" refX="5" refY="3.5" orient="auto" markerUnits="strokeWidth">
    <path d="M0,0 L15,3.5 L0,7 z" stroke="context-stroke" fill="context-stroke"/>
  </marker>
</defs>
<g stroke="#000000" stroke-opacity="0.000" fill="#FFFFFF" id="img-9072da8c-1">
  <g transform="translate(200,112.5)">
    <path d="M-200,-112.5 L200,-112.5 200,112.5 -200,112.5  z" class="primitive"/>
  </g>
</g>
<g class="plotroot yscalable" id="img-9072da8c-2">
  <g font-size="3.88" font-family="'PT Sans','Helvetica Neue','Helvetica',sans-serif" fill="#564A55" stroke="#000000" stroke-opacity="0.000" id="img-9072da8c-3">
    <g transform="translate(211.7,213.39)">
      <g class="primitive">
        <text text-anchor="middle" dy="0.6em">Year</text>
      </g>
    </g>
  </g>
  <g class="guide xlabels" font-size="2.82" font-family="'PT Sans Caption','Helvetica Neue','Helvetica',sans-serif" fill="#6C606B" id="img-9072da8c-4">
    <g transform="translate(34.31,206.72)">
      <g class="primitive">
        <text text-anchor="middle" dy="0.6em">1791-01</text>
      </g>
    </g>
    <g transform="translate(46.14,206.72)">
      <g class="primitive">
        <text text-anchor="middle" dy="0.6em">1791-06</text>
      </g>
    </g>
    <g transform="translate(57.96,206.72)">
      <g class="primitive">
        <text text-anchor="middle" dy="0.6em">1791-07</text>
      </g>
    </g>
    <g transform="translate(69.79,206.72)">
      <g class="primitive">
        <text text-anchor="middle" dy="0.6em">1791-08</text>
      </g>
    </g>
    <g transform="translate(81.61,206.72)">
      <g class="primitive">
        <text text-anchor="middle" dy="0.6em">1791-09</text>
      </g>
    </g>
    <g transform="translate(93.44,206.72)">
      <g class="primitive">
        <text text-anchor="middle" dy="0.6em">1791-10</text>
      </g>
    </g>
    <g transform="translate(105.27,206.72)">
      <g class="primitive">
        <text text-anchor="middle" dy="0.6em">1791-11</text>
      </g>
    </g>
    <g transform="translate(117.09,206.72)">
      <g class="primitive">
        <text text-anchor="middle" dy="0.6em">1791-12</text>
      </g>
    </g>
    <g transform="translate(128.92,206.72)">
      <g class="primitive">
        <text text-anchor="middle" dy="0.6em">1792-01</text>
      </g>
    </g>
    <g transform="translate(140.74,206.72)">
      <g class="primitive">
        <text text-anchor="middle" dy="0.6em">1792-02</text>
      </g>
    </g>
    <g transform="translate(152.57,206.72)">
      <g class="primitive">
        <text text-anchor="middle" dy="0.6em">1792-04</text>
      </g>
    </g>
    <g transform="translate(164.4,206.72)">
      <g class="primitive">
        <text text-anchor="middle" dy="0.6em">1792-06</text>
      </g>
    </g>
    <g transform="translate(176.22,206.72)">
      <g class="primitive">
        <text text-anchor="middle" dy="0.6em">1792-07</text>
      </g>
    </g>
    <g transform="translate(188.05,206.72)">
      <g class="primitive">
        <text text-anchor="middle" dy="0.6em">1792-08</text>
      </g>
    </g>
    <g transform="translate(199.87,206.72)">
      <g class="primitive">
        <text text-anchor="middle" dy="0.6em">1792-09</text>
      </g>
    </g>
    <g transform="translate(211.7,206.72)">
      <g class="primitive">
        <text text-anchor="middle" dy="0.6em">1792-10</text>
      </g>
    </g>
    <g transform="translate(223.53,206.72)">
      <g class="primitive">
        <text text-anchor="middle" dy="0.6em">1792-11</text>
      </g>
    </g>
    <g transform="translate(235.35,206.72)">
      <g class="primitive">
        <text text-anchor="middle" dy="0.6em">1792-12</text>
      </g>
    </g>
    <g transform="translate(247.18,206.72)">
      <g class="primitive">
        <text text-anchor="middle" dy="0.6em">1793-01</text>
      </g>
    </g>
    <g transform="translate(259,206.72)">
      <g class="primitive">
        <text text-anchor="middle" dy="0.6em">1793-02</text>
      </g>
    </g>
    <g transform="translate(270.83,206.72)">
      <g class="primitive">
        <text text-anchor="middle" dy="0.6em">1793-03</text>
      </g>
    </g>
    <g transform="translate(282.65,206.72)">
      <g class="primitive">
        <text text-anchor="middle" dy="0.6em">1793-04</text>
      </g>
    </g>
    <g transform="translate(294.48,206.72)">
      <g class="primitive">
        <text text-anchor="middle" dy="0.6em">1793-07</text>
      </g>
    </g>
    <g transform="translate(306.31,206.72)">
      <g class="primitive">
        <text text-anchor="middle" dy="0.6em">1793-09</text>
      </g>
    </g>
    <g transform="translate(318.13,206.72)">
      <g class="primitive">
        <text text-anchor="middle" dy="0.6em">1794-01</text>
      </g>
    </g>
    <g transform="translate(329.96,206.72)">
      <g class="primitive">
        <text text-anchor="middle" dy="0.6em">1794-04</text>
      </g>
    </g>
    <g transform="translate(341.78,206.72)">
      <g class="primitive">
        <text text-anchor="middle" dy="0.6em">1794-09</text>
      </g>
    </g>
    <g transform="translate(353.61,206.72)">
      <g class="primitive">
        <text text-anchor="middle" dy="0.6em">1794-10</text>
      </g>
    </g>
    <g transform="translate(365.44,206.72)">
      <g class="primitive">
        <text text-anchor="middle" dy="0.6em">1794-11</text>
      </g>
    </g>
    <g transform="translate(377.26,206.72)">
      <g class="primitive">
        <text text-anchor="middle" dy="0.6em">post-1795</text>
      </g>
    </g>
    <g transform="translate(389.09,206.72)">
      <g class="primitive">
        <text text-anchor="middle" dy="0.6em">missing info</text>
      </g>
    </g>
  </g>
  <g clip-path="url(#img-9072da8c-5)">
    <g id="img-9072da8c-6">
      <g pointer-events="visible" stroke-width="0.3" fill="#000000" fill-opacity="0.000" stroke="#000000" stroke-opacity="0.000" class="guide background" id="img-9072da8c-7">
        <g transform="translate(211.7,108.16)" id="img-9072da8c-8">
          <path d="M-183.3,-97.55 L183.3,-97.55 183.3,97.55 -183.3,97.55  z" class="primitive"/>
        </g>
      </g>
      <g class="guide ygridlines xfixed" stroke-dasharray="0.5,0.5" stroke-width="0.2" stroke="#D0D0E0" id="img-9072da8c-9">
        <g transform="translate(211.7,203.72)" id="img-9072da8c-10">
          <path fill="none" d="M-183.3,0 L183.3,0 " class="primitive"/>
        </g>
        <g transform="translate(211.7,155.94)" id="img-9072da8c-11">
          <path fill="none" d="M-183.3,0 L183.3,0 " class="primitive"/>
        </g>
        <g transform="translate(211.7,108.16)" id="img-9072da8c-12">
          <path fill="none" d="M-183.3,0 L183.3,0 " class="primitive"/>
        </g>
        <g transform="translate(211.7,60.39)" id="img-9072da8c-13">
          <path fill="none" d="M-183.3,0 L183.3,0 " class="primitive"/>
        </g>
        <g transform="translate(211.7,12.61)" id="img-9072da8c-14">
          <path fill="none" d="M-183.3,0 L183.3,0 " class="primitive"/>
        </g>
      </g>
      <g class="guide xgridlines yfixed" stroke-dasharray="0.5,0.5" stroke-width="0.2" stroke="#D0D0E0" id="img-9072da8c-15">
        <g transform="translate(40.22,108.16)" id="img-9072da8c-16">
          <path fill="none" d="M0,-97.55 L0,97.55 " class="primitive"/>
        </g>
        <g transform="translate(52.05,108.16)" id="img-9072da8c-17">
          <path fill="none" d="M0,-97.55 L0,97.55 " class="primitive"/>
        </g>
        <g transform="translate(63.88,108.16)" id="img-9072da8c-18">
          <path fill="none" d="M0,-97.55 L0,97.55 " class="primitive"/>
        </g>
        <g transform="translate(75.7,108.16)" id="img-9072da8c-19">
          <path fill="none" d="M0,-97.55 L0,97.55 " class="primitive"/>
        </g>
        <g transform="translate(87.53,108.16)" id="img-9072da8c-20">
          <path fill="none" d="M0,-97.55 L0,97.55 " class="primitive"/>
        </g>
        <g transform="translate(99.35,108.16)" id="img-9072da8c-21">
          <path fill="none" d="M0,-97.55 L0,97.55 " class="primitive"/>
        </g>
        <g transform="translate(111.18,108.16)" id="img-9072da8c-22">
          <path fill="none" d="M0,-97.55 L0,97.55 " class="primitive"/>
        </g>
        <g transform="translate(123.01,108.16)" id="img-9072da8c-23">
          <path fill="none" d="M0,-97.55 L0,97.55 " class="primitive"/>
        </g>
        <g transform="translate(134.83,108.16)" id="img-9072da8c-24">
          <path fill="none" d="M0,-97.55 L0,97.55 " class="primitive"/>
        </g>
        <g transform="translate(146.66,108.16)" id="img-9072da8c-25">
          <path fill="none" d="M0,-97.55 L0,97.55 " class="primitive"/>
        </g>
        <g transform="translate(158.48,108.16)" id="img-9072da8c-26">
          <path fill="none" d="M0,-97.55 L0,97.55 " class="primitive"/>
        </g>
        <g transform="translate(170.31,108.16)" id="img-9072da8c-27">
          <path fill="none" d="M0,-97.55 L0,97.55 " class="primitive"/>
        </g>
        <g transform="translate(182.13,108.16)" id="img-9072da8c-28">
          <path fill="none" d="M0,-97.55 L0,97.55 " class="primitive"/>
        </g>
        <g transform="translate(193.96,108.16)" id="img-9072da8c-29">
          <path fill="none" d="M0,-97.55 L0,97.55 " class="primitive"/>
        </g>
        <g transform="translate(205.79,108.16)" id="img-9072da8c-30">
          <path fill="none" d="M0,-97.55 L0,97.55 " class="primitive"/>
        </g>
        <g transform="translate(217.61,108.16)" id="img-9072da8c-31">
          <path fill="none" d="M0,-97.55 L0,97.55 " class="primitive"/>
        </g>
        <g transform="translate(229.44,108.16)" id="img-9072da8c-32">
          <path fill="none" d="M0,-97.55 L0,97.55 " class="primitive"/>
        </g>
        <g transform="translate(241.26,108.16)" id="img-9072da8c-33">
          <path fill="none" d="M0,-97.55 L0,97.55 " class="primitive"/>
        </g>
        <g transform="translate(253.09,108.16)" id="img-9072da8c-34">
          <path fill="none" d="M0,-97.55 L0,97.55 " class="primitive"/>
        </g>
        <g transform="translate(264.92,108.16)" id="img-9072da8c-35">
          <path fill="none" d="M0,-97.55 L0,97.55 " class="primitive"/>
        </g>
        <g transform="translate(276.74,108.16)" id="img-9072da8c-36">
          <path fill="none" d="M0,-97.55 L0,97.55 " class="primitive"/>
        </g>
        <g transform="translate(288.57,108.16)" id="img-9072da8c-37">
          <path fill="none" d="M0,-97.55 L0,97.55 " class="primitive"/>
        </g>
        <g transform="translate(300.39,108.16)" id="img-9072da8c-38">
          <path fill="none" d="M0,-97.55 L0,97.55 " class="primitive"/>
        </g>
        <g transform="translate(312.22,108.16)" id="img-9072da8c-39">
          <path fill="none" d="M0,-97.55 L0,97.55 " class="primitive"/>
        </g>
        <g transform="translate(324.04,108.16)" id="img-9072da8c-40">
          <path fill="none" d="M0,-97.55 L0,97.55 " class="primitive"/>
        </g>
        <g transform="translate(335.87,108.16)" id="img-9072da8c-41">
          <path fill="none" d="M0,-97.55 L0,97.55 " class="primitive"/>
        </g>
        <g transform="translate(347.7,108.16)" id="img-9072da8c-42">
          <path fill="none" d="M0,-97.55 L0,97.55 " class="primitive"/>
        </g>
        <g transform="translate(359.52,108.16)" id="img-9072da8c-43">
          <path fill="none" d="M0,-97.55 L0,97.55 " class="primitive"/>
        </g>
        <g transform="translate(371.35,108.16)" id="img-9072da8c-44">
          <path fill="none" d="M0,-97.55 L0,97.55 " class="primitive"/>
        </g>
        <g transform="translate(383.17,108.16)" id="img-9072da8c-45">
          <path fill="none" d="M0,-97.55 L0,97.55 " class="primitive"/>
        </g>
      </g>
      <g class="plotpanel" id="img-9072da8c-46">
        <metadata>
          <boundingbox value="28.39833333333337mm 10.611666666666679mm 366.6016666666667mm 195.10333333333335mm"/>
          <unitbox value="0.5 202093.1084404598 31.0 -204186.21688091956"/>
        </metadata>
        <g shape-rendering="crispEdges" stroke-width="0.3" id="img-9072da8c-47">
          <g class="geometry" fill-opacity="1" stroke="#000000" stroke-opacity="0.000" fill="#00BFFF" id="img-9072da8c-48">
            <g transform="translate(34.31,203.26)" id="img-9072da8c-49">
              <path d="M-5.94,-0.46 L5.94,-0.46 5.94,0.46 -5.94,0.46  z" class="primitive"/>
            </g>
            <g transform="translate(46.14,203.67)" id="img-9072da8c-50">
              <path d="M-5.94,-0.04 L5.94,-0.04 5.94,0.04 -5.94,0.04  z" class="primitive"/>
            </g>
            <g transform="translate(57.96,114.01)" id="img-9072da8c-51">
              <path d="M-5.94,-89.71 L5.94,-89.71 5.94,89.71 -5.94,89.71  z" class="primitive"/>
            </g>
            <g transform="translate(69.79,196.75)" id="img-9072da8c-52">
              <path d="M-5.94,-6.97 L5.94,-6.97 5.94,6.97 -5.94,6.97  z" class="primitive"/>
            </g>
            <g transform="translate(81.61,190.11)" id="img-9072da8c-53">
              <path d="M-5.94,-13.6 L5.94,-13.6 5.94,13.6 -5.94,13.6  z" class="primitive"/>
            </g>
            <g transform="translate(93.44,203.49)" id="img-9072da8c-54">
              <path d="M-5.94,-0.22 L5.94,-0.22 5.94,0.22 -5.94,0.22  z" class="primitive"/>
            </g>
            <g transform="translate(105.27,202.95)" id="img-9072da8c-55">
              <path d="M-5.94,-0.76 L5.94,-0.76 5.94,0.76 -5.94,0.76  z" class="primitive"/>
            </g>
            <g transform="translate(117.09,202.91)" id="img-9072da8c-56">
              <path d="M-5.94,-0.81 L5.94,-0.81 5.94,0.81 -5.94,0.81  z" class="primitive"/>
            </g>
            <g transform="translate(128.92,203.69)" id="img-9072da8c-57">
              <path d="M-5.94,-0.02 L5.94,-0.02 5.94,0.02 -5.94,0.02  z" class="primitive"/>
            </g>
            <g transform="translate(140.74,203.03)" id="img-9072da8c-58">
              <path d="M-5.94,-0.68 L5.94,-0.68 5.94,0.68 -5.94,0.68  z" class="primitive"/>
            </g>
            <g transform="translate(152.57,203.24)" id="img-9072da8c-59">
              <path d="M-5.94,-0.48 L5.94,-0.48 5.94,0.48 -5.94,0.48  z" class="primitive"/>
            </g>
            <g transform="translate(164.4,198.09)" id="img-9072da8c-60">
              <path d="M-5.94,-5.63 L5.94,-5.63 5.94,5.63 -5.94,5.63  z" class="primitive"/>
            </g>
            <g transform="translate(176.22,203.08)" id="img-9072da8c-61">
              <path d="M-5.94,-0.64 L5.94,-0.64 5.94,0.64 -5.94,0.64  z" class="primitive"/>
            </g>
            <g transform="translate(188.05,203.61)" id="img-9072da8c-62">
              <path d="M-5.94,-0.11 L5.94,-0.11 5.94,0.11 -5.94,0.11  z" class="primitive"/>
            </g>
            <g transform="translate(199.87,203.7)" id="img-9072da8c-63">
              <path d="M-5.94,-0.01 L5.94,-0.01 5.94,0.01 -5.94,0.01  z" class="primitive"/>
            </g>
            <g transform="translate(211.7,203.29)" id="img-9072da8c-64">
              <path d="M-5.94,-0.42 L5.94,-0.42 5.94,0.42 -5.94,0.42  z" class="primitive"/>
            </g>
            <g transform="translate(223.53,203.27)" id="img-9072da8c-65">
              <path d="M-5.94,-0.44 L5.94,-0.44 5.94,0.44 -5.94,0.44  z" class="primitive"/>
            </g>
            <g transform="translate(235.35,203.59)" id="img-9072da8c-66">
              <path d="M-5.94,-0.12 L5.94,-0.12 5.94,0.12 -5.94,0.12  z" class="primitive"/>
            </g>
            <g transform="translate(247.18,203.55)" id="img-9072da8c-67">
              <path d="M-5.94,-0.17 L5.94,-0.17 5.94,0.17 -5.94,0.17  z" class="primitive"/>
            </g>
            <g transform="translate(259,202.85)" id="img-9072da8c-68">
              <path d="M-5.94,-0.87 L5.94,-0.87 5.94,0.87 -5.94,0.87  z" class="primitive"/>
            </g>
            <g transform="translate(270.83,203.42)" id="img-9072da8c-69">
              <path d="M-5.94,-0.3 L5.94,-0.3 5.94,0.3 -5.94,0.3  z" class="primitive"/>
            </g>
            <g transform="translate(282.65,203.44)" id="img-9072da8c-70">
              <path d="M-5.94,-0.27 L5.94,-0.27 5.94,0.27 -5.94,0.27  z" class="primitive"/>
            </g>
            <g transform="translate(294.48,203.71)" id="img-9072da8c-71">
              <path d="M-5.94,-0 L5.94,-0 5.94,0 -5.94,0  z" class="primitive"/>
            </g>
            <g transform="translate(306.31,203.57)" id="img-9072da8c-72">
              <path d="M-5.94,-0.14 L5.94,-0.14 5.94,0.14 -5.94,0.14  z" class="primitive"/>
            </g>
            <g transform="translate(318.13,203.65)" id="img-9072da8c-73">
              <path d="M-5.94,-0.06 L5.94,-0.06 5.94,0.06 -5.94,0.06  z" class="primitive"/>
            </g>
            <g transform="translate(329.96,201.22)" id="img-9072da8c-74">
              <path d="M-5.94,-2.49 L5.94,-2.49 5.94,2.49 -5.94,2.49  z" class="primitive"/>
            </g>
            <g transform="translate(341.78,203.23)" id="img-9072da8c-75">
              <path d="M-5.94,-0.48 L5.94,-0.48 5.94,0.48 -5.94,0.48  z" class="primitive"/>
            </g>
            <g transform="translate(353.61,198.86)" id="img-9072da8c-76">
              <path d="M-5.94,-4.85 L5.94,-4.85 5.94,4.85 -5.94,4.85  z" class="primitive"/>
            </g>
            <g transform="translate(365.44,203.72)" id="img-9072da8c-77">
              <path d="M-5.94,-0 L5.94,-0 5.94,0 -5.94,0  z" class="primitive"/>
            </g>
            <g transform="translate(377.26,120.62)" id="img-9072da8c-78">
              <path d="M-5.94,-83.1 L5.94,-83.1 5.94,83.1 -5.94,83.1  z" class="primitive"/>
            </g>
            <g transform="translate(389.09,203.55)" id="img-9072da8c-79">
              <path d="M-5.94,-0.17 L5.94,-0.17 5.94,0.17 -5.94,0.17  z" class="primitive"/>
            </g>
          </g>
        </g>
      </g>
    </g>
  </g>
  <g class="guide ylabels" font-size="2.82" font-family="'PT Sans Caption','Helvetica Neue','Helvetica',sans-serif" fill="#6C606B" id="img-9072da8c-80">
    <g transform="translate(27.4,203.72)" id="img-9072da8c-81">
      <g class="primitive">
        <text text-anchor="end" dy="0.35em">0</text>
      </g>
    </g>
    <g transform="translate(27.4,155.94)" id="img-9072da8c-82">
      <g class="primitive">
        <text text-anchor="end" dy="0.35em">5.00×10⁴</text>
      </g>
    </g>
    <g transform="translate(27.4,108.16)" id="img-9072da8c-83">
      <g class="primitive">
        <text text-anchor="end" dy="0.35em">1.00×10⁵</text>
      </g>
    </g>
    <g transform="translate(27.4,60.39)" id="img-9072da8c-84">
      <g class="primitive">
        <text text-anchor="end" dy="0.35em">1.50×10⁵</text>
      </g>
    </g>
    <g transform="translate(27.4,12.61)" id="img-9072da8c-85">
      <g class="primitive">
        <text text-anchor="end" dy="0.35em">2.00×10⁵</text>
      </g>
    </g>
  </g>
  <g font-size="3.88" font-family="'PT Sans','Helvetica Neue','Helvetica',sans-serif" fill="#564A55" stroke="#000000" stroke-opacity="0.000" id="img-9072da8c-86">
    <g transform="translate(8.81,106.16)" id="img-9072da8c-87">
      <g class="primitive">
        <text text-anchor="middle" dy="0.35em" transform="rotate(-90,0, 2)">Total Debt (in dollars)</text>
      </g>
    </g>
  </g>
  <g font-size="3.88" font-family="'PT Sans','Helvetica Neue','Helvetica',sans-serif" fill="#564A55" stroke="#000000" stroke-opacity="0.000" id="img-9072da8c-88">
    <g transform="translate(211.7,5)" id="img-9072da8c-89">
      <g class="primitive">
        <text text-anchor="middle" dy="0.6em">NJ Debt Redeemed Per Year/Month</text>
      </g>
    </g>
  </g>
</g>
<defs>
  <clipPath id="img-9072da8c-5">
    <path d="M28.4,10.61 L395,10.61 395,205.72 28.4,205.72 " />
  </clipPath>
</defs>
</svg>
