<?xml version="1.0" encoding="UTF-8"?>
<svg xmlns="http://www.w3.org/2000/svg"
     xmlns:xlink="http://www.w3.org/1999/xlink"
     xmlns:gadfly="http://www.gadflyjl.org/ns"
     version="1.2"
     width="400mm" height="225mm" viewBox="0 0 400 225"
     stroke="none"
     fill="#000000"
     stroke-width="0.3"
     font-size="3.88"
>
<defs>
  <marker id="arrow" markerWidth="15" markerHeight="7" refX="5" refY="3.5" orient="auto" markerUnits="strokeWidth">
    <path d="M0,0 L15,3.5 L0,7 z" stroke="context-stroke" fill="context-stroke"/>
  </marker>
</defs>
<g stroke="#000000" stroke-opacity="0.000" fill="#FFFFFF" id="img-4133917d-1">
  <g transform="translate(200,112.5)">
    <path d="M-200,-112.5 L200,-112.5 200,112.5 -200,112.5  z" class="primitive"/>
  </g>
</g>
<g class="plotroot yscalable" id="img-4133917d-2">
  <g font-size="3.88" font-family="'PT Sans','Helvetica Neue','Helvetica',sans-serif" fill="#564A55" stroke="#000000" stroke-opacity="0.000" id="img-4133917d-3">
    <g transform="translate(210.86,213.39)">
      <g class="primitive">
        <text text-anchor="middle" dy="0.6em">Year</text>
      </g>
    </g>
  </g>
  <g class="guide xlabels" font-size="2.82" font-family="'PT Sans Caption','Helvetica Neue','Helvetica',sans-serif" fill="#6C606B" id="img-4133917d-4">
    <g transform="translate(30.27,192.22)">
      <g class="primitive">
        <text text-anchor="end" dy="0.35em" transform="rotate(-90,0, 0)">1790-10</text>
      </g>
    </g>
    <g transform="translate(37.35,192.22)">
      <g class="primitive">
        <text text-anchor="end" dy="0.35em" transform="rotate(-90,0, 0)">1790-11</text>
      </g>
    </g>
    <g transform="translate(44.43,192.22)">
      <g class="primitive">
        <text text-anchor="end" dy="0.35em" transform="rotate(-90,0, 0)">1790-12</text>
      </g>
    </g>
    <g transform="translate(51.51,192.22)">
      <g class="primitive">
        <text text-anchor="end" dy="0.35em" transform="rotate(-90,0, 0)">1791-01</text>
      </g>
    </g>
    <g transform="translate(58.59,192.22)">
      <g class="primitive">
        <text text-anchor="end" dy="0.35em" transform="rotate(-90,0, 0)">1791-02</text>
      </g>
    </g>
    <g transform="translate(65.68,192.22)">
      <g class="primitive">
        <text text-anchor="end" dy="0.35em" transform="rotate(-90,0, 0)">1791-03</text>
      </g>
    </g>
    <g transform="translate(72.76,192.22)">
      <g class="primitive">
        <text text-anchor="end" dy="0.35em" transform="rotate(-90,0, 0)">1791-04</text>
      </g>
    </g>
    <g transform="translate(79.84,192.22)">
      <g class="primitive">
        <text text-anchor="end" dy="0.35em" transform="rotate(-90,0, 0)">1791-05</text>
      </g>
    </g>
    <g transform="translate(86.92,192.22)">
      <g class="primitive">
        <text text-anchor="end" dy="0.35em" transform="rotate(-90,0, 0)">1791-06</text>
      </g>
    </g>
    <g transform="translate(94.01,192.22)">
      <g class="primitive">
        <text text-anchor="end" dy="0.35em" transform="rotate(-90,0, 0)">1791-07</text>
      </g>
    </g>
    <g transform="translate(101.09,192.22)">
      <g class="primitive">
        <text text-anchor="end" dy="0.35em" transform="rotate(-90,0, 0)">1791-08</text>
      </g>
    </g>
    <g transform="translate(108.17,192.22)">
      <g class="primitive">
        <text text-anchor="end" dy="0.35em" transform="rotate(-90,0, 0)">1791-09</text>
      </g>
    </g>
    <g transform="translate(115.25,192.22)">
      <g class="primitive">
        <text text-anchor="end" dy="0.35em" transform="rotate(-90,0, 0)">1791-10</text>
      </g>
    </g>
    <g transform="translate(122.33,192.22)">
      <g class="primitive">
        <text text-anchor="end" dy="0.35em" transform="rotate(-90,0, 0)">1791-11</text>
      </g>
    </g>
    <g transform="translate(129.42,192.22)">
      <g class="primitive">
        <text text-anchor="end" dy="0.35em" transform="rotate(-90,0, 0)">1791-12</text>
      </g>
    </g>
    <g transform="translate(136.5,192.22)">
      <g class="primitive">
        <text text-anchor="end" dy="0.35em" transform="rotate(-90,0, 0)">1792-01</text>
      </g>
    </g>
    <g transform="translate(143.58,192.22)">
      <g class="primitive">
        <text text-anchor="end" dy="0.35em" transform="rotate(-90,0, 0)">1792-02</text>
      </g>
    </g>
    <g transform="translate(150.66,192.22)">
      <g class="primitive">
        <text text-anchor="end" dy="0.35em" transform="rotate(-90,0, 0)">1792-03</text>
      </g>
    </g>
    <g transform="translate(157.75,192.22)">
      <g class="primitive">
        <text text-anchor="end" dy="0.35em" transform="rotate(-90,0, 0)">1792-04</text>
      </g>
    </g>
    <g transform="translate(164.83,192.22)">
      <g class="primitive">
        <text text-anchor="end" dy="0.35em" transform="rotate(-90,0, 0)">1792-05</text>
      </g>
    </g>
    <g transform="translate(171.91,192.22)">
      <g class="primitive">
        <text text-anchor="end" dy="0.35em" transform="rotate(-90,0, 0)">1792-06</text>
      </g>
    </g>
    <g transform="translate(178.99,192.22)">
      <g class="primitive">
        <text text-anchor="end" dy="0.35em" transform="rotate(-90,0, 0)">1792-07</text>
      </g>
    </g>
    <g transform="translate(186.07,192.22)">
      <g class="primitive">
        <text text-anchor="end" dy="0.35em" transform="rotate(-90,0, 0)">1792-08</text>
      </g>
    </g>
    <g transform="translate(193.16,192.22)">
      <g class="primitive">
        <text text-anchor="end" dy="0.35em" transform="rotate(-90,0, 0)">1792-09</text>
      </g>
    </g>
    <g transform="translate(200.24,192.22)">
      <g class="primitive">
        <text text-anchor="end" dy="0.35em" transform="rotate(-90,0, 0)">1792-10</text>
      </g>
    </g>
    <g transform="translate(207.32,192.22)">
      <g class="primitive">
        <text text-anchor="end" dy="0.35em" transform="rotate(-90,0, 0)">1792-11</text>
      </g>
    </g>
    <g transform="translate(214.4,192.22)">
      <g class="primitive">
        <text text-anchor="end" dy="0.35em" transform="rotate(-90,0, 0)">1792-12</text>
      </g>
    </g>
    <g transform="translate(221.49,192.22)">
      <g class="primitive">
        <text text-anchor="end" dy="0.35em" transform="rotate(-90,0, 0)">1793-01</text>
      </g>
    </g>
    <g transform="translate(228.57,192.22)">
      <g class="primitive">
        <text text-anchor="end" dy="0.35em" transform="rotate(-90,0, 0)">1793-02</text>
      </g>
    </g>
    <g transform="translate(235.65,192.22)">
      <g class="primitive">
        <text text-anchor="end" dy="0.35em" transform="rotate(-90,0, 0)">1793-03</text>
      </g>
    </g>
    <g transform="translate(242.73,192.22)">
      <g class="primitive">
        <text text-anchor="end" dy="0.35em" transform="rotate(-90,0, 0)">1793-04</text>
      </g>
    </g>
    <g transform="translate(249.81,192.22)">
      <g class="primitive">
        <text text-anchor="end" dy="0.35em" transform="rotate(-90,0, 0)">1793-05</text>
      </g>
    </g>
    <g transform="translate(256.9,192.22)">
      <g class="primitive">
        <text text-anchor="end" dy="0.35em" transform="rotate(-90,0, 0)">1793-06</text>
      </g>
    </g>
    <g transform="translate(263.98,192.22)">
      <g class="primitive">
        <text text-anchor="end" dy="0.35em" transform="rotate(-90,0, 0)">1793-07</text>
      </g>
    </g>
    <g transform="translate(271.06,192.22)">
      <g class="primitive">
        <text text-anchor="end" dy="0.35em" transform="rotate(-90,0, 0)">1793-08</text>
      </g>
    </g>
    <g transform="translate(278.14,192.22)">
      <g class="primitive">
        <text text-anchor="end" dy="0.35em" transform="rotate(-90,0, 0)">1793-09</text>
      </g>
    </g>
    <g transform="translate(285.23,192.22)">
      <g class="primitive">
        <text text-anchor="end" dy="0.35em" transform="rotate(-90,0, 0)">1793-10</text>
      </g>
    </g>
    <g transform="translate(292.31,192.22)">
      <g class="primitive">
        <text text-anchor="end" dy="0.35em" transform="rotate(-90,0, 0)">1793-11</text>
      </g>
    </g>
    <g transform="translate(299.39,192.22)">
      <g class="primitive">
        <text text-anchor="end" dy="0.35em" transform="rotate(-90,0, 0)">1793-12</text>
      </g>
    </g>
    <g transform="translate(306.47,192.22)">
      <g class="primitive">
        <text text-anchor="end" dy="0.35em" transform="rotate(-90,0, 0)">1794-01</text>
      </g>
    </g>
    <g transform="translate(313.55,192.22)">
      <g class="primitive">
        <text text-anchor="end" dy="0.35em" transform="rotate(-90,0, 0)">1794-02</text>
      </g>
    </g>
    <g transform="translate(320.64,192.22)">
      <g class="primitive">
        <text text-anchor="end" dy="0.35em" transform="rotate(-90,0, 0)">1794-03</text>
      </g>
    </g>
    <g transform="translate(327.72,192.22)">
      <g class="primitive">
        <text text-anchor="end" dy="0.35em" transform="rotate(-90,0, 0)">1794-04</text>
      </g>
    </g>
    <g transform="translate(334.8,192.22)">
      <g class="primitive">
        <text text-anchor="end" dy="0.35em" transform="rotate(-90,0, 0)">1794-05</text>
      </g>
    </g>
    <g transform="translate(341.88,192.22)">
      <g class="primitive">
        <text text-anchor="end" dy="0.35em" transform="rotate(-90,0, 0)">1794-06</text>
      </g>
    </g>
    <g transform="translate(348.97,192.22)">
      <g class="primitive">
        <text text-anchor="end" dy="0.35em" transform="rotate(-90,0, 0)">1794-07</text>
      </g>
    </g>
    <g transform="translate(356.05,192.22)">
      <g class="primitive">
        <text text-anchor="end" dy="0.35em" transform="rotate(-90,0, 0)">1794-08</text>
      </g>
    </g>
    <g transform="translate(363.13,192.22)">
      <g class="primitive">
        <text text-anchor="end" dy="0.35em" transform="rotate(-90,0, 0)">1794-09</text>
      </g>
    </g>
    <g transform="translate(370.21,192.22)">
      <g class="primitive">
        <text text-anchor="end" dy="0.35em" transform="rotate(-90,0, 0)">1794-10</text>
      </g>
    </g>
    <g transform="translate(377.29,192.22)">
      <g class="primitive">
        <text text-anchor="end" dy="0.35em" transform="rotate(-90,0, 0)">1794-12</text>
      </g>
    </g>
    <g transform="translate(384.38,192.22)">
      <g class="primitive">
        <text text-anchor="end" dy="0.35em" transform="rotate(-90,0, 0)">post-1795</text>
      </g>
    </g>
    <g transform="translate(391.46,192.22)">
      <g class="primitive">
        <text text-anchor="end" dy="0.35em" transform="rotate(-90,0, 0)">missing info</text>
      </g>
    </g>
  </g>
  <g clip-path="url(#img-4133917d-5)">
    <g id="img-4133917d-6">
      <g pointer-events="visible" stroke-width="0.3" fill="#000000" fill-opacity="0.000" stroke="#000000" stroke-opacity="0.000" class="guide background" id="img-4133917d-7">
        <g transform="translate(210.86,100.91)" id="img-4133917d-8">
          <path d="M-184.14,-90.3 L184.14,-90.3 184.14,90.3 -184.14,90.3  z" class="primitive"/>
        </g>
      </g>
      <g class="guide ygridlines xfixed" stroke-dasharray="0.5,0.5" stroke-width="0.2" stroke="#D0D0E0" id="img-4133917d-9">
        <g transform="translate(210.86,189.22)" id="img-4133917d-10">
          <path fill="none" d="M-184.14,0 L184.14,0 " class="primitive"/>
        </g>
        <g transform="translate(210.86,153.89)" id="img-4133917d-11">
          <path fill="none" d="M-184.14,0 L184.14,0 " class="primitive"/>
        </g>
        <g transform="translate(210.86,118.57)" id="img-4133917d-12">
          <path fill="none" d="M-184.14,0 L184.14,0 " class="primitive"/>
        </g>
        <g transform="translate(210.86,83.25)" id="img-4133917d-13">
          <path fill="none" d="M-184.14,0 L184.14,0 " class="primitive"/>
        </g>
        <g transform="translate(210.86,47.93)" id="img-4133917d-14">
          <path fill="none" d="M-184.14,0 L184.14,0 " class="primitive"/>
        </g>
        <g transform="translate(210.86,12.61)" id="img-4133917d-15">
          <path fill="none" d="M-184.14,0 L184.14,0 " class="primitive"/>
        </g>
      </g>
      <g class="guide xgridlines yfixed" stroke-dasharray="0.5,0.5" stroke-width="0.2" stroke="#D0D0E0" id="img-4133917d-16">
        <g transform="translate(33.81,100.91)" id="img-4133917d-17">
          <path fill="none" d="M0,-90.3 L0,90.3 " class="primitive"/>
        </g>
        <g transform="translate(40.89,100.91)" id="img-4133917d-18">
          <path fill="none" d="M0,-90.3 L0,90.3 " class="primitive"/>
        </g>
        <g transform="translate(47.97,100.91)" id="img-4133917d-19">
          <path fill="none" d="M0,-90.3 L0,90.3 " class="primitive"/>
        </g>
        <g transform="translate(55.05,100.91)" id="img-4133917d-20">
          <path fill="none" d="M0,-90.3 L0,90.3 " class="primitive"/>
        </g>
        <g transform="translate(62.14,100.91)" id="img-4133917d-21">
          <path fill="none" d="M0,-90.3 L0,90.3 " class="primitive"/>
        </g>
        <g transform="translate(69.22,100.91)" id="img-4133917d-22">
          <path fill="none" d="M0,-90.3 L0,90.3 " class="primitive"/>
        </g>
        <g transform="translate(76.3,100.91)" id="img-4133917d-23">
          <path fill="none" d="M0,-90.3 L0,90.3 " class="primitive"/>
        </g>
        <g transform="translate(83.38,100.91)" id="img-4133917d-24">
          <path fill="none" d="M0,-90.3 L0,90.3 " class="primitive"/>
        </g>
        <g transform="translate(90.46,100.91)" id="img-4133917d-25">
          <path fill="none" d="M0,-90.3 L0,90.3 " class="primitive"/>
        </g>
        <g transform="translate(97.55,100.91)" id="img-4133917d-26">
          <path fill="none" d="M0,-90.3 L0,90.3 " class="primitive"/>
        </g>
        <g transform="translate(104.63,100.91)" id="img-4133917d-27">
          <path fill="none" d="M0,-90.3 L0,90.3 " class="primitive"/>
        </g>
        <g transform="translate(111.71,100.91)" id="img-4133917d-28">
          <path fill="none" d="M0,-90.3 L0,90.3 " class="primitive"/>
        </g>
        <g transform="translate(118.79,100.91)" id="img-4133917d-29">
          <path fill="none" d="M0,-90.3 L0,90.3 " class="primitive"/>
        </g>
        <g transform="translate(125.88,100.91)" id="img-4133917d-30">
          <path fill="none" d="M0,-90.3 L0,90.3 " class="primitive"/>
        </g>
        <g transform="translate(132.96,100.91)" id="img-4133917d-31">
          <path fill="none" d="M0,-90.3 L0,90.3 " class="primitive"/>
        </g>
        <g transform="translate(140.04,100.91)" id="img-4133917d-32">
          <path fill="none" d="M0,-90.3 L0,90.3 " class="primitive"/>
        </g>
        <g transform="translate(147.12,100.91)" id="img-4133917d-33">
          <path fill="none" d="M0,-90.3 L0,90.3 " class="primitive"/>
        </g>
        <g transform="translate(154.2,100.91)" id="img-4133917d-34">
          <path fill="none" d="M0,-90.3 L0,90.3 " class="primitive"/>
        </g>
        <g transform="translate(161.29,100.91)" id="img-4133917d-35">
          <path fill="none" d="M0,-90.3 L0,90.3 " class="primitive"/>
        </g>
        <g transform="translate(168.37,100.91)" id="img-4133917d-36">
          <path fill="none" d="M0,-90.3 L0,90.3 " class="primitive"/>
        </g>
        <g transform="translate(175.45,100.91)" id="img-4133917d-37">
          <path fill="none" d="M0,-90.3 L0,90.3 " class="primitive"/>
        </g>
        <g transform="translate(182.53,100.91)" id="img-4133917d-38">
          <path fill="none" d="M0,-90.3 L0,90.3 " class="primitive"/>
        </g>
        <g transform="translate(189.62,100.91)" id="img-4133917d-39">
          <path fill="none" d="M0,-90.3 L0,90.3 " class="primitive"/>
        </g>
        <g transform="translate(196.7,100.91)" id="img-4133917d-40">
          <path fill="none" d="M0,-90.3 L0,90.3 " class="primitive"/>
        </g>
        <g transform="translate(203.78,100.91)" id="img-4133917d-41">
          <path fill="none" d="M0,-90.3 L0,90.3 " class="primitive"/>
        </g>
        <g transform="translate(210.86,100.91)" id="img-4133917d-42">
          <path fill="none" d="M0,-90.3 L0,90.3 " class="primitive"/>
        </g>
        <g transform="translate(217.94,100.91)" id="img-4133917d-43">
          <path fill="none" d="M0,-90.3 L0,90.3 " class="primitive"/>
        </g>
        <g transform="translate(225.03,100.91)" id="img-4133917d-44">
          <path fill="none" d="M0,-90.3 L0,90.3 " class="primitive"/>
        </g>
        <g transform="translate(232.11,100.91)" id="img-4133917d-45">
          <path fill="none" d="M0,-90.3 L0,90.3 " class="primitive"/>
        </g>
        <g transform="translate(239.19,100.91)" id="img-4133917d-46">
          <path fill="none" d="M0,-90.3 L0,90.3 " class="primitive"/>
        </g>
        <g transform="translate(246.27,100.91)" id="img-4133917d-47">
          <path fill="none" d="M0,-90.3 L0,90.3 " class="primitive"/>
        </g>
        <g transform="translate(253.36,100.91)" id="img-4133917d-48">
          <path fill="none" d="M0,-90.3 L0,90.3 " class="primitive"/>
        </g>
        <g transform="translate(260.44,100.91)" id="img-4133917d-49">
          <path fill="none" d="M0,-90.3 L0,90.3 " class="primitive"/>
        </g>
        <g transform="translate(267.52,100.91)" id="img-4133917d-50">
          <path fill="none" d="M0,-90.3 L0,90.3 " class="primitive"/>
        </g>
        <g transform="translate(274.6,100.91)" id="img-4133917d-51">
          <path fill="none" d="M0,-90.3 L0,90.3 " class="primitive"/>
        </g>
        <g transform="translate(281.68,100.91)" id="img-4133917d-52">
          <path fill="none" d="M0,-90.3 L0,90.3 " class="primitive"/>
        </g>
        <g transform="translate(288.77,100.91)" id="img-4133917d-53">
          <path fill="none" d="M0,-90.3 L0,90.3 " class="primitive"/>
        </g>
        <g transform="translate(295.85,100.91)" id="img-4133917d-54">
          <path fill="none" d="M0,-90.3 L0,90.3 " class="primitive"/>
        </g>
        <g transform="translate(302.93,100.91)" id="img-4133917d-55">
          <path fill="none" d="M0,-90.3 L0,90.3 " class="primitive"/>
        </g>
        <g transform="translate(310.01,100.91)" id="img-4133917d-56">
          <path fill="none" d="M0,-90.3 L0,90.3 " class="primitive"/>
        </g>
        <g transform="translate(317.1,100.91)" id="img-4133917d-57">
          <path fill="none" d="M0,-90.3 L0,90.3 " class="primitive"/>
        </g>
        <g transform="translate(324.18,100.91)" id="img-4133917d-58">
          <path fill="none" d="M0,-90.3 L0,90.3 " class="primitive"/>
        </g>
        <g transform="translate(331.26,100.91)" id="img-4133917d-59">
          <path fill="none" d="M0,-90.3 L0,90.3 " class="primitive"/>
        </g>
        <g transform="translate(338.34,100.91)" id="img-4133917d-60">
          <path fill="none" d="M0,-90.3 L0,90.3 " class="primitive"/>
        </g>
        <g transform="translate(345.42,100.91)" id="img-4133917d-61">
          <path fill="none" d="M0,-90.3 L0,90.3 " class="primitive"/>
        </g>
        <g transform="translate(352.51,100.91)" id="img-4133917d-62">
          <path fill="none" d="M0,-90.3 L0,90.3 " class="primitive"/>
        </g>
        <g transform="translate(359.59,100.91)" id="img-4133917d-63">
          <path fill="none" d="M0,-90.3 L0,90.3 " class="primitive"/>
        </g>
        <g transform="translate(366.67,100.91)" id="img-4133917d-64">
          <path fill="none" d="M0,-90.3 L0,90.3 " class="primitive"/>
        </g>
        <g transform="translate(373.75,100.91)" id="img-4133917d-65">
          <path fill="none" d="M0,-90.3 L0,90.3 " class="primitive"/>
        </g>
        <g transform="translate(380.84,100.91)" id="img-4133917d-66">
          <path fill="none" d="M0,-90.3 L0,90.3 " class="primitive"/>
        </g>
        <g transform="translate(387.92,100.91)" id="img-4133917d-67">
          <path fill="none" d="M0,-90.3 L0,90.3 " class="primitive"/>
        </g>
      </g>
      <g class="plotpanel" id="img-4133917d-68">
        <metadata>
          <boundingbox value="26.725000000000023mm 10.611666666666679mm 368.275mm 180.60333333333335mm"/>
          <unitbox value="0.5 505662.4072780808 52.0 -511324.81455616164"/>
        </metadata>
        <g shape-rendering="crispEdges" stroke-width="0.3" id="img-4133917d-69">
          <g class="geometry" fill-opacity="1" stroke="#000000" stroke-opacity="0.000" fill="#00BFFF" id="img-4133917d-70">
            <g transform="translate(30.27,140.91)" id="img-4133917d-71">
              <path d="M-3.57,-48.31 L3.57,-48.31 3.57,48.31 -3.57,48.31  z" class="primitive"/>
            </g>
            <g transform="translate(37.35,171.35)" id="img-4133917d-72">
              <path d="M-3.57,-17.87 L3.57,-17.87 3.57,17.87 -3.57,17.87  z" class="primitive"/>
            </g>
            <g transform="translate(44.43,159.54)" id="img-4133917d-73">
              <path d="M-3.57,-29.67 L3.57,-29.67 3.57,29.67 -3.57,29.67  z" class="primitive"/>
            </g>
            <g transform="translate(51.51,168.38)" id="img-4133917d-74">
              <path d="M-3.57,-20.83 L3.57,-20.83 3.57,20.83 -3.57,20.83  z" class="primitive"/>
            </g>
            <g transform="translate(58.59,168.9)" id="img-4133917d-75">
              <path d="M-3.57,-20.31 L3.57,-20.31 3.57,20.31 -3.57,20.31  z" class="primitive"/>
            </g>
            <g transform="translate(65.68,155.95)" id="img-4133917d-76">
              <path d="M-3.57,-33.26 L3.57,-33.26 3.57,33.26 -3.57,33.26  z" class="primitive"/>
            </g>
            <g transform="translate(72.76,159.17)" id="img-4133917d-77">
              <path d="M-3.57,-30.05 L3.57,-30.05 3.57,30.05 -3.57,30.05  z" class="primitive"/>
            </g>
            <g transform="translate(79.84,162.6)" id="img-4133917d-78">
              <path d="M-3.57,-26.61 L3.57,-26.61 3.57,26.61 -3.57,26.61  z" class="primitive"/>
            </g>
            <g transform="translate(86.92,151.85)" id="img-4133917d-79">
              <path d="M-3.57,-37.36 L3.57,-37.36 3.57,37.36 -3.57,37.36  z" class="primitive"/>
            </g>
            <g transform="translate(94.01,164.38)" id="img-4133917d-80">
              <path d="M-3.57,-24.84 L3.57,-24.84 3.57,24.84 -3.57,24.84  z" class="primitive"/>
            </g>
            <g transform="translate(101.09,144.16)" id="img-4133917d-81">
              <path d="M-3.57,-45.05 L3.57,-45.05 3.57,45.05 -3.57,45.05  z" class="primitive"/>
            </g>
            <g transform="translate(108.17,123.14)" id="img-4133917d-82">
              <path d="M-3.57,-66.08 L3.57,-66.08 3.57,66.08 -3.57,66.08  z" class="primitive"/>
            </g>
            <g transform="translate(115.25,176.84)" id="img-4133917d-83">
              <path d="M-3.57,-12.37 L3.57,-12.37 3.57,12.37 -3.57,12.37  z" class="primitive"/>
            </g>
            <g transform="translate(122.33,128.99)" id="img-4133917d-84">
              <path d="M-3.57,-60.23 L3.57,-60.23 3.57,60.23 -3.57,60.23  z" class="primitive"/>
            </g>
            <g transform="translate(129.42,107.03)" id="img-4133917d-85">
              <path d="M-3.57,-82.18 L3.57,-82.18 3.57,82.18 -3.57,82.18  z" class="primitive"/>
            </g>
            <g transform="translate(136.5,176.21)" id="img-4133917d-86">
              <path d="M-3.57,-13 L3.57,-13 3.57,13 -3.57,13  z" class="primitive"/>
            </g>
            <g transform="translate(143.58,164.86)" id="img-4133917d-87">
              <path d="M-3.57,-24.36 L3.57,-24.36 3.57,24.36 -3.57,24.36  z" class="primitive"/>
            </g>
            <g transform="translate(150.66,181.76)" id="img-4133917d-88">
              <path d="M-3.57,-7.46 L3.57,-7.46 3.57,7.46 -3.57,7.46  z" class="primitive"/>
            </g>
            <g transform="translate(157.75,184.13)" id="img-4133917d-89">
              <path d="M-3.57,-5.09 L3.57,-5.09 3.57,5.09 -3.57,5.09  z" class="primitive"/>
            </g>
            <g transform="translate(164.83,170.07)" id="img-4133917d-90">
              <path d="M-3.57,-19.15 L3.57,-19.15 3.57,19.15 -3.57,19.15  z" class="primitive"/>
            </g>
            <g transform="translate(171.91,173.51)" id="img-4133917d-91">
              <path d="M-3.57,-15.71 L3.57,-15.71 3.57,15.71 -3.57,15.71  z" class="primitive"/>
            </g>
            <g transform="translate(178.99,174.25)" id="img-4133917d-92">
              <path d="M-3.57,-14.96 L3.57,-14.96 3.57,14.96 -3.57,14.96  z" class="primitive"/>
            </g>
            <g transform="translate(186.07,181.17)" id="img-4133917d-93">
              <path d="M-3.57,-8.04 L3.57,-8.04 3.57,8.04 -3.57,8.04  z" class="primitive"/>
            </g>
            <g transform="translate(193.16,180.54)" id="img-4133917d-94">
              <path d="M-3.57,-8.68 L3.57,-8.68 3.57,8.68 -3.57,8.68  z" class="primitive"/>
            </g>
            <g transform="translate(200.24,175.47)" id="img-4133917d-95">
              <path d="M-3.57,-13.74 L3.57,-13.74 3.57,13.74 -3.57,13.74  z" class="primitive"/>
            </g>
            <g transform="translate(207.32,183.62)" id="img-4133917d-96">
              <path d="M-3.57,-5.59 L3.57,-5.59 3.57,5.59 -3.57,5.59  z" class="primitive"/>
            </g>
            <g transform="translate(214.4,186.02)" id="img-4133917d-97">
              <path d="M-3.57,-3.19 L3.57,-3.19 3.57,3.19 -3.57,3.19  z" class="primitive"/>
            </g>
            <g transform="translate(221.49,180.01)" id="img-4133917d-98">
              <path d="M-3.57,-9.21 L3.57,-9.21 3.57,9.21 -3.57,9.21  z" class="primitive"/>
            </g>
            <g transform="translate(228.57,184.6)" id="img-4133917d-99">
              <path d="M-3.57,-4.61 L3.57,-4.61 3.57,4.61 -3.57,4.61  z" class="primitive"/>
            </g>
            <g transform="translate(235.65,185.89)" id="img-4133917d-100">
              <path d="M-3.57,-3.32 L3.57,-3.32 3.57,3.32 -3.57,3.32  z" class="primitive"/>
            </g>
            <g transform="translate(242.73,182.06)" id="img-4133917d-101">
              <path d="M-3.57,-7.16 L3.57,-7.16 3.57,7.16 -3.57,7.16  z" class="primitive"/>
            </g>
            <g transform="translate(249.81,172.45)" id="img-4133917d-102">
              <path d="M-3.57,-16.77 L3.57,-16.77 3.57,16.77 -3.57,16.77  z" class="primitive"/>
            </g>
            <g transform="translate(256.9,188.1)" id="img-4133917d-103">
              <path d="M-3.57,-1.12 L3.57,-1.12 3.57,1.12 -3.57,1.12  z" class="primitive"/>
            </g>
            <g transform="translate(263.98,181.14)" id="img-4133917d-104">
              <path d="M-3.57,-8.08 L3.57,-8.08 3.57,8.08 -3.57,8.08  z" class="primitive"/>
            </g>
            <g transform="translate(271.06,187.38)" id="img-4133917d-105">
              <path d="M-3.57,-1.83 L3.57,-1.83 3.57,1.83 -3.57,1.83  z" class="primitive"/>
            </g>
            <g transform="translate(278.14,188.15)" id="img-4133917d-106">
              <path d="M-3.57,-1.07 L3.57,-1.07 3.57,1.07 -3.57,1.07  z" class="primitive"/>
            </g>
            <g transform="translate(285.23,188.18)" id="img-4133917d-107">
              <path d="M-3.57,-1.03 L3.57,-1.03 3.57,1.03 -3.57,1.03  z" class="primitive"/>
            </g>
            <g transform="translate(292.31,189.17)" id="img-4133917d-108">
              <path d="M-3.57,-0.04 L3.57,-0.04 3.57,0.04 -3.57,0.04  z" class="primitive"/>
            </g>
            <g transform="translate(299.39,168.55)" id="img-4133917d-109">
              <path d="M-3.57,-20.66 L3.57,-20.66 3.57,20.66 -3.57,20.66  z" class="primitive"/>
            </g>
            <g transform="translate(306.47,185.1)" id="img-4133917d-110">
              <path d="M-3.57,-4.12 L3.57,-4.12 3.57,4.12 -3.57,4.12  z" class="primitive"/>
            </g>
            <g transform="translate(313.55,188.17)" id="img-4133917d-111">
              <path d="M-3.57,-1.04 L3.57,-1.04 3.57,1.04 -3.57,1.04  z" class="primitive"/>
            </g>
            <g transform="translate(320.64,170.55)" id="img-4133917d-112">
              <path d="M-3.57,-18.66 L3.57,-18.66 3.57,18.66 -3.57,18.66  z" class="primitive"/>
            </g>
            <g transform="translate(327.72,188.2)" id="img-4133917d-113">
              <path d="M-3.57,-1.01 L3.57,-1.01 3.57,1.01 -3.57,1.01  z" class="primitive"/>
            </g>
            <g transform="translate(334.8,187.5)" id="img-4133917d-114">
              <path d="M-3.57,-1.71 L3.57,-1.71 3.57,1.71 -3.57,1.71  z" class="primitive"/>
            </g>
            <g transform="translate(341.88,185.61)" id="img-4133917d-115">
              <path d="M-3.57,-3.61 L3.57,-3.61 3.57,3.61 -3.57,3.61  z" class="primitive"/>
            </g>
            <g transform="translate(348.97,186.61)" id="img-4133917d-116">
              <path d="M-3.57,-2.6 L3.57,-2.6 3.57,2.6 -3.57,2.6  z" class="primitive"/>
            </g>
            <g transform="translate(356.05,188.43)" id="img-4133917d-117">
              <path d="M-3.57,-0.78 L3.57,-0.78 3.57,0.78 -3.57,0.78  z" class="primitive"/>
            </g>
            <g transform="translate(363.13,182.15)" id="img-4133917d-118">
              <path d="M-3.57,-7.07 L3.57,-7.07 3.57,7.07 -3.57,7.07  z" class="primitive"/>
            </g>
            <g transform="translate(370.21,180.87)" id="img-4133917d-119">
              <path d="M-3.57,-8.35 L3.57,-8.35 3.57,8.35 -3.57,8.35  z" class="primitive"/>
            </g>
            <g transform="translate(377.29,188.95)" id="img-4133917d-120">
              <path d="M-3.57,-0.26 L3.57,-0.26 3.57,0.26 -3.57,0.26  z" class="primitive"/>
            </g>
            <g transform="translate(384.38,159.04)" id="img-4133917d-121">
              <path d="M-3.57,-30.17 L3.57,-30.17 3.57,30.17 -3.57,30.17  z" class="primitive"/>
            </g>
            <g transform="translate(391.46,188.62)" id="img-4133917d-122">
              <path d="M-3.57,-0.59 L3.57,-0.59 3.57,0.59 -3.57,0.59  z" class="primitive"/>
            </g>
          </g>
        </g>
      </g>
    </g>
  </g>
  <g class="guide ylabels" font-size="2.82" font-family="'PT Sans Caption','Helvetica Neue','Helvetica',sans-serif" fill="#6C606B" id="img-4133917d-123">
    <g transform="translate(25.72,189.22)" id="img-4133917d-124">
      <g class="primitive">
        <text text-anchor="end" dy="0.35em">0</text>
      </g>
    </g>
    <g transform="translate(25.72,153.89)" id="img-4133917d-125">
      <g class="primitive">
        <text text-anchor="end" dy="0.35em">1.0×10⁵</text>
      </g>
    </g>
    <g transform="translate(25.72,118.57)" id="img-4133917d-126">
      <g class="primitive">
        <text text-anchor="end" dy="0.35em">2.0×10⁵</text>
      </g>
    </g>
    <g transform="translate(25.72,83.25)" id="img-4133917d-127">
      <g class="primitive">
        <text text-anchor="end" dy="0.35em">3.0×10⁵</text>
      </g>
    </g>
    <g transform="translate(25.72,47.93)" id="img-4133917d-128">
      <g class="primitive">
        <text text-anchor="end" dy="0.35em">4.0×10⁵</text>
      </g>
    </g>
    <g transform="translate(25.72,12.61)" id="img-4133917d-129">
      <g class="primitive">
        <text text-anchor="end" dy="0.35em">5.0×10⁵</text>
      </g>
    </g>
  </g>
  <g font-size="3.88" font-family="'PT Sans','Helvetica Neue','Helvetica',sans-serif" fill="#564A55" stroke="#000000" stroke-opacity="0.000" id="img-4133917d-130">
    <g transform="translate(8.81,98.91)" id="img-4133917d-131">
      <g class="primitive">
        <text text-anchor="middle" dy="0.35em" transform="rotate(-90,0, 2)">Total Debt (in dollars)</text>
      </g>
    </g>
  </g>
  <g font-size="3.88" font-family="'PT Sans','Helvetica Neue','Helvetica',sans-serif" fill="#564A55" stroke="#000000" stroke-opacity="0.000" id="img-4133917d-132">
    <g transform="translate(210.86,5)" id="img-4133917d-133">
      <g class="primitive">
        <text text-anchor="middle" dy="0.6em">NY Debt Redeemed Per Year/Month</text>
      </g>
    </g>
  </g>
</g>
<defs>
  <clipPath id="img-4133917d-5">
    <path d="M26.73,10.61 L395,10.61 395,191.22 26.73,191.22 " />
  </clipPath>
</defs>
</svg>
