<?xml version="1.0" encoding="UTF-8"?>
<svg xmlns="http://www.w3.org/2000/svg"
     xmlns:xlink="http://www.w3.org/1999/xlink"
     xmlns:gadfly="http://www.gadflyjl.org/ns"
     version="1.2"
     width="400mm" height="225mm" viewBox="0 0 400 225"
     stroke="none"
     fill="#000000"
     stroke-width="0.3"
     font-size="3.88"
>
<defs>
  <marker id="arrow" markerWidth="15" markerHeight="7" refX="5" refY="3.5" orient="auto" markerUnits="strokeWidth">
    <path d="M0,0 L15,3.5 L0,7 z" stroke="context-stroke" fill="context-stroke"/>
  </marker>
</defs>
<g stroke="#000000" stroke-opacity="0.000" fill="#FFFFFF" id="img-7774d060-1">
  <g transform="translate(200,112.5)">
    <path d="M-200,-112.5 L200,-112.5 200,112.5 -200,112.5  z" class="primitive"/>
  </g>
</g>
<g class="plotroot yscalable" id="img-7774d060-2">
  <g font-size="3.88" font-family="'PT Sans','Helvetica Neue','Helvetica',sans-serif" fill="#564A55" stroke="#000000" stroke-opacity="0.000" id="img-7774d060-3">
    <g transform="translate(210.86,213.39)">
      <g class="primitive">
        <text text-anchor="middle" dy="0.6em">Year</text>
      </g>
    </g>
  </g>
  <g class="guide xlabels" font-size="2.82" font-family="'PT Sans Caption','Helvetica Neue','Helvetica',sans-serif" fill="#6C606B" id="img-7774d060-4">
    <g transform="translate(34.09,206.72)">
      <g class="primitive">
        <text text-anchor="middle" dy="0.6em">1790-10</text>
      </g>
    </g>
    <g transform="translate(48.82,206.72)">
      <g class="primitive">
        <text text-anchor="middle" dy="0.6em">1790-11</text>
      </g>
    </g>
    <g transform="translate(63.55,206.72)">
      <g class="primitive">
        <text text-anchor="middle" dy="0.6em">1790-12</text>
      </g>
    </g>
    <g transform="translate(78.28,206.72)">
      <g class="primitive">
        <text text-anchor="middle" dy="0.6em">1791-01</text>
      </g>
    </g>
    <g transform="translate(93.01,206.72)">
      <g class="primitive">
        <text text-anchor="middle" dy="0.6em">1791-02</text>
      </g>
    </g>
    <g transform="translate(107.75,206.72)">
      <g class="primitive">
        <text text-anchor="middle" dy="0.6em">1791-03</text>
      </g>
    </g>
    <g transform="translate(122.48,206.72)">
      <g class="primitive">
        <text text-anchor="middle" dy="0.6em">1791-04</text>
      </g>
    </g>
    <g transform="translate(137.21,206.72)">
      <g class="primitive">
        <text text-anchor="middle" dy="0.6em">1791-05</text>
      </g>
    </g>
    <g transform="translate(151.94,206.72)">
      <g class="primitive">
        <text text-anchor="middle" dy="0.6em">1791-06</text>
      </g>
    </g>
    <g transform="translate(166.67,206.72)">
      <g class="primitive">
        <text text-anchor="middle" dy="0.6em">1791-07</text>
      </g>
    </g>
    <g transform="translate(181.4,206.72)">
      <g class="primitive">
        <text text-anchor="middle" dy="0.6em">1791-08</text>
      </g>
    </g>
    <g transform="translate(196.13,206.72)">
      <g class="primitive">
        <text text-anchor="middle" dy="0.6em">1791-09</text>
      </g>
    </g>
    <g transform="translate(210.86,206.72)">
      <g class="primitive">
        <text text-anchor="middle" dy="0.6em">1791-10</text>
      </g>
    </g>
    <g transform="translate(225.59,206.72)">
      <g class="primitive">
        <text text-anchor="middle" dy="0.6em">1792-02</text>
      </g>
    </g>
    <g transform="translate(240.32,206.72)">
      <g class="primitive">
        <text text-anchor="middle" dy="0.6em">1792-06</text>
      </g>
    </g>
    <g transform="translate(255.06,206.72)">
      <g class="primitive">
        <text text-anchor="middle" dy="0.6em">1792-07</text>
      </g>
    </g>
    <g transform="translate(269.79,206.72)">
      <g class="primitive">
        <text text-anchor="middle" dy="0.6em">1792-08</text>
      </g>
    </g>
    <g transform="translate(284.52,206.72)">
      <g class="primitive">
        <text text-anchor="middle" dy="0.6em">1792-09</text>
      </g>
    </g>
    <g transform="translate(299.25,206.72)">
      <g class="primitive">
        <text text-anchor="middle" dy="0.6em">1792-10</text>
      </g>
    </g>
    <g transform="translate(313.98,206.72)">
      <g class="primitive">
        <text text-anchor="middle" dy="0.6em">1792-11</text>
      </g>
    </g>
    <g transform="translate(328.71,206.72)">
      <g class="primitive">
        <text text-anchor="middle" dy="0.6em">1792-12</text>
      </g>
    </g>
    <g transform="translate(343.44,206.72)">
      <g class="primitive">
        <text text-anchor="middle" dy="0.6em">1793-01</text>
      </g>
    </g>
    <g transform="translate(358.17,206.72)">
      <g class="primitive">
        <text text-anchor="middle" dy="0.6em">1793-02</text>
      </g>
    </g>
    <g transform="translate(372.9,206.72)">
      <g class="primitive">
        <text text-anchor="middle" dy="0.6em">post-1795</text>
      </g>
    </g>
    <g transform="translate(387.63,206.72)">
      <g class="primitive">
        <text text-anchor="middle" dy="0.6em">missing info</text>
      </g>
    </g>
  </g>
  <g clip-path="url(#img-7774d060-5)">
    <g id="img-7774d060-6">
      <g pointer-events="visible" stroke-width="0.3" fill="#000000" fill-opacity="0.000" stroke="#000000" stroke-opacity="0.000" class="guide background" id="img-7774d060-7">
        <g transform="translate(210.86,108.16)" id="img-7774d060-8">
          <path d="M-184.14,-97.55 L184.14,-97.55 184.14,97.55 -184.14,97.55  z" class="primitive"/>
        </g>
      </g>
      <g class="guide ygridlines xfixed" stroke-dasharray="0.5,0.5" stroke-width="0.2" stroke="#D0D0E0" id="img-7774d060-9">
        <g transform="translate(210.86,203.72)" id="img-7774d060-10">
          <path fill="none" d="M-184.14,0 L184.14,0 " class="primitive"/>
        </g>
        <g transform="translate(210.86,108.16)" id="img-7774d060-11">
          <path fill="none" d="M-184.14,0 L184.14,0 " class="primitive"/>
        </g>
        <g transform="translate(210.86,12.61)" id="img-7774d060-12">
          <path fill="none" d="M-184.14,0 L184.14,0 " class="primitive"/>
        </g>
      </g>
      <g class="guide xgridlines yfixed" stroke-dasharray="0.5,0.5" stroke-width="0.2" stroke="#D0D0E0" id="img-7774d060-13">
        <g transform="translate(41.46,108.16)" id="img-7774d060-14">
          <path fill="none" d="M0,-97.55 L0,97.55 " class="primitive"/>
        </g>
        <g transform="translate(56.19,108.16)" id="img-7774d060-15">
          <path fill="none" d="M0,-97.55 L0,97.55 " class="primitive"/>
        </g>
        <g transform="translate(70.92,108.16)" id="img-7774d060-16">
          <path fill="none" d="M0,-97.55 L0,97.55 " class="primitive"/>
        </g>
        <g transform="translate(85.65,108.16)" id="img-7774d060-17">
          <path fill="none" d="M0,-97.55 L0,97.55 " class="primitive"/>
        </g>
        <g transform="translate(100.38,108.16)" id="img-7774d060-18">
          <path fill="none" d="M0,-97.55 L0,97.55 " class="primitive"/>
        </g>
        <g transform="translate(115.11,108.16)" id="img-7774d060-19">
          <path fill="none" d="M0,-97.55 L0,97.55 " class="primitive"/>
        </g>
        <g transform="translate(129.84,108.16)" id="img-7774d060-20">
          <path fill="none" d="M0,-97.55 L0,97.55 " class="primitive"/>
        </g>
        <g transform="translate(144.57,108.16)" id="img-7774d060-21">
          <path fill="none" d="M0,-97.55 L0,97.55 " class="primitive"/>
        </g>
        <g transform="translate(159.3,108.16)" id="img-7774d060-22">
          <path fill="none" d="M0,-97.55 L0,97.55 " class="primitive"/>
        </g>
        <g transform="translate(174.04,108.16)" id="img-7774d060-23">
          <path fill="none" d="M0,-97.55 L0,97.55 " class="primitive"/>
        </g>
        <g transform="translate(188.77,108.16)" id="img-7774d060-24">
          <path fill="none" d="M0,-97.55 L0,97.55 " class="primitive"/>
        </g>
        <g transform="translate(203.5,108.16)" id="img-7774d060-25">
          <path fill="none" d="M0,-97.55 L0,97.55 " class="primitive"/>
        </g>
        <g transform="translate(218.23,108.16)" id="img-7774d060-26">
          <path fill="none" d="M0,-97.55 L0,97.55 " class="primitive"/>
        </g>
        <g transform="translate(232.96,108.16)" id="img-7774d060-27">
          <path fill="none" d="M0,-97.55 L0,97.55 " class="primitive"/>
        </g>
        <g transform="translate(247.69,108.16)" id="img-7774d060-28">
          <path fill="none" d="M0,-97.55 L0,97.55 " class="primitive"/>
        </g>
        <g transform="translate(262.42,108.16)" id="img-7774d060-29">
          <path fill="none" d="M0,-97.55 L0,97.55 " class="primitive"/>
        </g>
        <g transform="translate(277.15,108.16)" id="img-7774d060-30">
          <path fill="none" d="M0,-97.55 L0,97.55 " class="primitive"/>
        </g>
        <g transform="translate(291.88,108.16)" id="img-7774d060-31">
          <path fill="none" d="M0,-97.55 L0,97.55 " class="primitive"/>
        </g>
        <g transform="translate(306.61,108.16)" id="img-7774d060-32">
          <path fill="none" d="M0,-97.55 L0,97.55 " class="primitive"/>
        </g>
        <g transform="translate(321.35,108.16)" id="img-7774d060-33">
          <path fill="none" d="M0,-97.55 L0,97.55 " class="primitive"/>
        </g>
        <g transform="translate(336.08,108.16)" id="img-7774d060-34">
          <path fill="none" d="M0,-97.55 L0,97.55 " class="primitive"/>
        </g>
        <g transform="translate(350.81,108.16)" id="img-7774d060-35">
          <path fill="none" d="M0,-97.55 L0,97.55 " class="primitive"/>
        </g>
        <g transform="translate(365.54,108.16)" id="img-7774d060-36">
          <path fill="none" d="M0,-97.55 L0,97.55 " class="primitive"/>
        </g>
        <g transform="translate(380.27,108.16)" id="img-7774d060-37">
          <path fill="none" d="M0,-97.55 L0,97.55 " class="primitive"/>
        </g>
      </g>
      <g class="plotpanel" id="img-7774d060-38">
        <metadata>
          <boundingbox value="26.725000000000023mm 10.611666666666679mm 368.275mm 195.10333333333335mm"/>
          <unitbox value="0.5 101046.5542202299 25.0 -102093.10844045978"/>
        </metadata>
        <g shape-rendering="crispEdges" stroke-width="0.3" id="img-7774d060-39">
          <g class="geometry" fill-opacity="1" stroke="#000000" stroke-opacity="0.000" fill="#00BFFF" id="img-7774d060-40">
            <g transform="translate(34.09,114.84)" id="img-7774d060-41">
              <path d="M-7.39,-88.87 L7.39,-88.87 7.39,88.87 -7.39,88.87  z" class="primitive"/>
            </g>
            <g transform="translate(48.82,147.74)" id="img-7774d060-42">
              <path d="M-7.39,-55.97 L7.39,-55.97 7.39,55.97 -7.39,55.97  z" class="primitive"/>
            </g>
            <g transform="translate(63.55,154.16)" id="img-7774d060-43">
              <path d="M-7.39,-49.56 L7.39,-49.56 7.39,49.56 -7.39,49.56  z" class="primitive"/>
            </g>
            <g transform="translate(78.28,122.42)" id="img-7774d060-44">
              <path d="M-7.39,-81.29 L7.39,-81.29 7.39,81.29 -7.39,81.29  z" class="primitive"/>
            </g>
            <g transform="translate(93.01,115.55)" id="img-7774d060-45">
              <path d="M-7.39,-88.17 L7.39,-88.17 7.39,88.17 -7.39,88.17  z" class="primitive"/>
            </g>
            <g transform="translate(107.75,140.62)" id="img-7774d060-46">
              <path d="M-7.39,-63.1 L7.39,-63.1 7.39,63.1 -7.39,63.1  z" class="primitive"/>
            </g>
            <g transform="translate(122.48,120.97)" id="img-7774d060-47">
              <path d="M-7.39,-82.74 L7.39,-82.74 7.39,82.74 -7.39,82.74  z" class="primitive"/>
            </g>
            <g transform="translate(137.21,136.7)" id="img-7774d060-48">
              <path d="M-7.39,-67.01 L7.39,-67.01 7.39,67.01 -7.39,67.01  z" class="primitive"/>
            </g>
            <g transform="translate(151.94,175.22)" id="img-7774d060-49">
              <path d="M-7.39,-28.49 L7.39,-28.49 7.39,28.49 -7.39,28.49  z" class="primitive"/>
            </g>
            <g transform="translate(166.67,156.16)" id="img-7774d060-50">
              <path d="M-7.39,-47.55 L7.39,-47.55 7.39,47.55 -7.39,47.55  z" class="primitive"/>
            </g>
            <g transform="translate(181.4,163.38)" id="img-7774d060-51">
              <path d="M-7.39,-40.34 L7.39,-40.34 7.39,40.34 -7.39,40.34  z" class="primitive"/>
            </g>
            <g transform="translate(196.13,173.58)" id="img-7774d060-52">
              <path d="M-7.39,-30.14 L7.39,-30.14 7.39,30.14 -7.39,30.14  z" class="primitive"/>
            </g>
            <g transform="translate(210.86,153.34)" id="img-7774d060-53">
              <path d="M-7.39,-50.37 L7.39,-50.37 7.39,50.37 -7.39,50.37  z" class="primitive"/>
            </g>
            <g transform="translate(225.59,202.18)" id="img-7774d060-54">
              <path d="M-7.39,-1.54 L7.39,-1.54 7.39,1.54 -7.39,1.54  z" class="primitive"/>
            </g>
            <g transform="translate(240.32,193.57)" id="img-7774d060-55">
              <path d="M-7.39,-10.14 L7.39,-10.14 7.39,10.14 -7.39,10.14  z" class="primitive"/>
            </g>
            <g transform="translate(255.06,191.62)" id="img-7774d060-56">
              <path d="M-7.39,-12.1 L7.39,-12.1 7.39,12.1 -7.39,12.1  z" class="primitive"/>
            </g>
            <g transform="translate(269.79,200.56)" id="img-7774d060-57">
              <path d="M-7.39,-3.15 L7.39,-3.15 7.39,3.15 -7.39,3.15  z" class="primitive"/>
            </g>
            <g transform="translate(284.52,201.36)" id="img-7774d060-58">
              <path d="M-7.39,-2.35 L7.39,-2.35 7.39,2.35 -7.39,2.35  z" class="primitive"/>
            </g>
            <g transform="translate(299.25,200.98)" id="img-7774d060-59">
              <path d="M-7.39,-2.74 L7.39,-2.74 7.39,2.74 -7.39,2.74  z" class="primitive"/>
            </g>
            <g transform="translate(313.98,203.36)" id="img-7774d060-60">
              <path d="M-7.39,-0.35 L7.39,-0.35 7.39,0.35 -7.39,0.35  z" class="primitive"/>
            </g>
            <g transform="translate(328.71,202.77)" id="img-7774d060-61">
              <path d="M-7.39,-0.95 L7.39,-0.95 7.39,0.95 -7.39,0.95  z" class="primitive"/>
            </g>
            <g transform="translate(343.44,203.16)" id="img-7774d060-62">
              <path d="M-7.39,-0.56 L7.39,-0.56 7.39,0.56 -7.39,0.56  z" class="primitive"/>
            </g>
            <g transform="translate(358.17,188.71)" id="img-7774d060-63">
              <path d="M-7.39,-15 L7.39,-15 7.39,15 -7.39,15  z" class="primitive"/>
            </g>
            <g transform="translate(372.9,203.72)" id="img-7774d060-64">
              <path d="M-7.39,-0 L7.39,-0 7.39,0 -7.39,0  z" class="primitive"/>
            </g>
            <g transform="translate(387.63,130.59)" id="img-7774d060-65">
              <path d="M-7.39,-73.12 L7.39,-73.12 7.39,73.12 -7.39,73.12  z" class="primitive"/>
            </g>
          </g>
        </g>
      </g>
    </g>
  </g>
  <g class="guide ylabels" font-size="2.82" font-family="'PT Sans Caption','Helvetica Neue','Helvetica',sans-serif" fill="#6C606B" id="img-7774d060-66">
    <g transform="translate(25.72,203.72)" id="img-7774d060-67">
      <g class="primitive">
        <text text-anchor="end" dy="0.35em">0</text>
      </g>
    </g>
    <g transform="translate(25.72,108.16)" id="img-7774d060-68">
      <g class="primitive">
        <text text-anchor="end" dy="0.35em">5.0×10⁴</text>
      </g>
    </g>
    <g transform="translate(25.72,12.61)" id="img-7774d060-69">
      <g class="primitive">
        <text text-anchor="end" dy="0.35em">1.0×10⁵</text>
      </g>
    </g>
  </g>
  <g font-size="3.88" font-family="'PT Sans','Helvetica Neue','Helvetica',sans-serif" fill="#564A55" stroke="#000000" stroke-opacity="0.000" id="img-7774d060-70">
    <g transform="translate(8.81,106.16)" id="img-7774d060-71">
      <g class="primitive">
        <text text-anchor="middle" dy="0.35em" transform="rotate(-90,0, 2)">Total Debt (in dollars)</text>
      </g>
    </g>
  </g>
  <g font-size="3.88" font-family="'PT Sans','Helvetica Neue','Helvetica',sans-serif" fill="#564A55" stroke="#000000" stroke-opacity="0.000" id="img-7774d060-72">
    <g transform="translate(210.86,5)" id="img-7774d060-73">
      <g class="primitive">
        <text text-anchor="middle" dy="0.6em">PA Debt Redeemed Per Year/Month</text>
      </g>
    </g>
  </g>
</g>
<defs>
  <clipPath id="img-7774d060-5">
    <path d="M26.73,10.61 L395,10.61 395,205.72 26.73,205.72 " />
  </clipPath>
</defs>
</svg>
