<?xml version="1.0" encoding="UTF-8"?>
<svg xmlns="http://www.w3.org/2000/svg"
     xmlns:xlink="http://www.w3.org/1999/xlink"
     xmlns:gadfly="http://www.gadflyjl.org/ns"
     version="1.2"
     width="400mm" height="225mm" viewBox="0 0 400 225"
     stroke="none"
     fill="#000000"
     stroke-width="0.3"
     font-size="3.88"
>
<defs>
  <marker id="arrow" markerWidth="15" markerHeight="7" refX="5" refY="3.5" orient="auto" markerUnits="strokeWidth">
    <path d="M0,0 L15,3.5 L0,7 z" stroke="context-stroke" fill="context-stroke"/>
  </marker>
</defs>
<g stroke="#000000" stroke-opacity="0.000" fill="#FFFFFF" id="img-c748b894-1">
  <g transform="translate(200,112.5)">
    <path d="M-200,-112.5 L200,-112.5 200,112.5 -200,112.5  z" class="primitive"/>
  </g>
</g>
<g class="plotroot yscalable" id="img-c748b894-2">
  <g font-size="3.88" font-family="'PT Sans','Helvetica Neue','Helvetica',sans-serif" fill="#564A55" stroke="#000000" stroke-opacity="0.000" id="img-c748b894-3">
    <g transform="translate(210.86,213.39)">
      <g class="primitive">
        <text text-anchor="middle" dy="0.6em">Year</text>
      </g>
    </g>
  </g>
  <g class="guide xlabels" font-size="2.82" font-family="'PT Sans Caption','Helvetica Neue','Helvetica',sans-serif" fill="#6C606B" id="img-c748b894-4">
    <g transform="translate(31.7,192.22)">
      <g class="primitive">
        <text text-anchor="end" dy="0.35em" transform="rotate(-90,0, 0)">1790-11</text>
      </g>
    </g>
    <g transform="translate(41.66,192.22)">
      <g class="primitive">
        <text text-anchor="end" dy="0.35em" transform="rotate(-90,0, 0)">1790-12</text>
      </g>
    </g>
    <g transform="translate(51.61,192.22)">
      <g class="primitive">
        <text text-anchor="end" dy="0.35em" transform="rotate(-90,0, 0)">1791-01</text>
      </g>
    </g>
    <g transform="translate(61.56,192.22)">
      <g class="primitive">
        <text text-anchor="end" dy="0.35em" transform="rotate(-90,0, 0)">1791-02</text>
      </g>
    </g>
    <g transform="translate(71.52,192.22)">
      <g class="primitive">
        <text text-anchor="end" dy="0.35em" transform="rotate(-90,0, 0)">1791-03</text>
      </g>
    </g>
    <g transform="translate(81.47,192.22)">
      <g class="primitive">
        <text text-anchor="end" dy="0.35em" transform="rotate(-90,0, 0)">1791-04</text>
      </g>
    </g>
    <g transform="translate(91.42,192.22)">
      <g class="primitive">
        <text text-anchor="end" dy="0.35em" transform="rotate(-90,0, 0)">1791-05</text>
      </g>
    </g>
    <g transform="translate(101.38,192.22)">
      <g class="primitive">
        <text text-anchor="end" dy="0.35em" transform="rotate(-90,0, 0)">1791-06</text>
      </g>
    </g>
    <g transform="translate(111.33,192.22)">
      <g class="primitive">
        <text text-anchor="end" dy="0.35em" transform="rotate(-90,0, 0)">1791-07</text>
      </g>
    </g>
    <g transform="translate(121.28,192.22)">
      <g class="primitive">
        <text text-anchor="end" dy="0.35em" transform="rotate(-90,0, 0)">1791-08</text>
      </g>
    </g>
    <g transform="translate(131.24,192.22)">
      <g class="primitive">
        <text text-anchor="end" dy="0.35em" transform="rotate(-90,0, 0)">1791-09</text>
      </g>
    </g>
    <g transform="translate(141.19,192.22)">
      <g class="primitive">
        <text text-anchor="end" dy="0.35em" transform="rotate(-90,0, 0)">1791-10</text>
      </g>
    </g>
    <g transform="translate(151.14,192.22)">
      <g class="primitive">
        <text text-anchor="end" dy="0.35em" transform="rotate(-90,0, 0)">1791-12</text>
      </g>
    </g>
    <g transform="translate(161.1,192.22)">
      <g class="primitive">
        <text text-anchor="end" dy="0.35em" transform="rotate(-90,0, 0)">1792-01</text>
      </g>
    </g>
    <g transform="translate(171.05,192.22)">
      <g class="primitive">
        <text text-anchor="end" dy="0.35em" transform="rotate(-90,0, 0)">1792-02</text>
      </g>
    </g>
    <g transform="translate(181,192.22)">
      <g class="primitive">
        <text text-anchor="end" dy="0.35em" transform="rotate(-90,0, 0)">1792-03</text>
      </g>
    </g>
    <g transform="translate(190.96,192.22)">
      <g class="primitive">
        <text text-anchor="end" dy="0.35em" transform="rotate(-90,0, 0)">1792-07</text>
      </g>
    </g>
    <g transform="translate(200.91,192.22)">
      <g class="primitive">
        <text text-anchor="end" dy="0.35em" transform="rotate(-90,0, 0)">1792-08</text>
      </g>
    </g>
    <g transform="translate(210.86,192.22)">
      <g class="primitive">
        <text text-anchor="end" dy="0.35em" transform="rotate(-90,0, 0)">1792-09</text>
      </g>
    </g>
    <g transform="translate(220.82,192.22)">
      <g class="primitive">
        <text text-anchor="end" dy="0.35em" transform="rotate(-90,0, 0)">1792-10</text>
      </g>
    </g>
    <g transform="translate(230.77,192.22)">
      <g class="primitive">
        <text text-anchor="end" dy="0.35em" transform="rotate(-90,0, 0)">1792-11</text>
      </g>
    </g>
    <g transform="translate(240.72,192.22)">
      <g class="primitive">
        <text text-anchor="end" dy="0.35em" transform="rotate(-90,0, 0)">1792-12</text>
      </g>
    </g>
    <g transform="translate(250.68,192.22)">
      <g class="primitive">
        <text text-anchor="end" dy="0.35em" transform="rotate(-90,0, 0)">1793-01</text>
      </g>
    </g>
    <g transform="translate(260.63,192.22)">
      <g class="primitive">
        <text text-anchor="end" dy="0.35em" transform="rotate(-90,0, 0)">1793-02</text>
      </g>
    </g>
    <g transform="translate(270.58,192.22)">
      <g class="primitive">
        <text text-anchor="end" dy="0.35em" transform="rotate(-90,0, 0)">1793-03</text>
      </g>
    </g>
    <g transform="translate(280.54,192.22)">
      <g class="primitive">
        <text text-anchor="end" dy="0.35em" transform="rotate(-90,0, 0)">1793-04</text>
      </g>
    </g>
    <g transform="translate(290.49,192.22)">
      <g class="primitive">
        <text text-anchor="end" dy="0.35em" transform="rotate(-90,0, 0)">1793-08</text>
      </g>
    </g>
    <g transform="translate(300.44,192.22)">
      <g class="primitive">
        <text text-anchor="end" dy="0.35em" transform="rotate(-90,0, 0)">1793-09</text>
      </g>
    </g>
    <g transform="translate(310.4,192.22)">
      <g class="primitive">
        <text text-anchor="end" dy="0.35em" transform="rotate(-90,0, 0)">1794-02</text>
      </g>
    </g>
    <g transform="translate(320.35,192.22)">
      <g class="primitive">
        <text text-anchor="end" dy="0.35em" transform="rotate(-90,0, 0)">1794-03</text>
      </g>
    </g>
    <g transform="translate(330.3,192.22)">
      <g class="primitive">
        <text text-anchor="end" dy="0.35em" transform="rotate(-90,0, 0)">1794-05</text>
      </g>
    </g>
    <g transform="translate(340.26,192.22)">
      <g class="primitive">
        <text text-anchor="end" dy="0.35em" transform="rotate(-90,0, 0)">1794-08</text>
      </g>
    </g>
    <g transform="translate(350.21,192.22)">
      <g class="primitive">
        <text text-anchor="end" dy="0.35em" transform="rotate(-90,0, 0)">1794-09</text>
      </g>
    </g>
    <g transform="translate(360.16,192.22)">
      <g class="primitive">
        <text text-anchor="end" dy="0.35em" transform="rotate(-90,0, 0)">1794-11</text>
      </g>
    </g>
    <g transform="translate(370.12,192.22)">
      <g class="primitive">
        <text text-anchor="end" dy="0.35em" transform="rotate(-90,0, 0)">1794-12</text>
      </g>
    </g>
    <g transform="translate(380.07,192.22)">
      <g class="primitive">
        <text text-anchor="end" dy="0.35em" transform="rotate(-90,0, 0)">post-1795</text>
      </g>
    </g>
    <g transform="translate(390.02,192.22)">
      <g class="primitive">
        <text text-anchor="end" dy="0.35em" transform="rotate(-90,0, 0)">missing info</text>
      </g>
    </g>
  </g>
  <g clip-path="url(#img-c748b894-5)">
    <g id="img-c748b894-6">
      <g pointer-events="visible" stroke-width="0.3" fill="#000000" fill-opacity="0.000" stroke="#000000" stroke-opacity="0.000" class="guide background" id="img-c748b894-7">
        <g transform="translate(210.86,100.91)" id="img-c748b894-8">
          <path d="M-184.14,-90.3 L184.14,-90.3 184.14,90.3 -184.14,90.3  z" class="primitive"/>
        </g>
      </g>
      <g class="guide ygridlines xfixed" stroke-dasharray="0.5,0.5" stroke-width="0.2" stroke="#D0D0E0" id="img-c748b894-9">
        <g transform="translate(210.86,189.22)" id="img-c748b894-10">
          <path fill="none" d="M-184.14,0 L184.14,0 " class="primitive"/>
        </g>
        <g transform="translate(210.86,159.78)" id="img-c748b894-11">
          <path fill="none" d="M-184.14,0 L184.14,0 " class="primitive"/>
        </g>
        <g transform="translate(210.86,130.35)" id="img-c748b894-12">
          <path fill="none" d="M-184.14,0 L184.14,0 " class="primitive"/>
        </g>
        <g transform="translate(210.86,100.91)" id="img-c748b894-13">
          <path fill="none" d="M-184.14,0 L184.14,0 " class="primitive"/>
        </g>
        <g transform="translate(210.86,71.48)" id="img-c748b894-14">
          <path fill="none" d="M-184.14,0 L184.14,0 " class="primitive"/>
        </g>
        <g transform="translate(210.86,42.05)" id="img-c748b894-15">
          <path fill="none" d="M-184.14,0 L184.14,0 " class="primitive"/>
        </g>
        <g transform="translate(210.86,12.61)" id="img-c748b894-16">
          <path fill="none" d="M-184.14,0 L184.14,0 " class="primitive"/>
        </g>
      </g>
      <g class="guide xgridlines yfixed" stroke-dasharray="0.5,0.5" stroke-width="0.2" stroke="#D0D0E0" id="img-c748b894-17">
        <g transform="translate(36.68,100.91)" id="img-c748b894-18">
          <path fill="none" d="M0,-90.3 L0,90.3 " class="primitive"/>
        </g>
        <g transform="translate(46.63,100.91)" id="img-c748b894-19">
          <path fill="none" d="M0,-90.3 L0,90.3 " class="primitive"/>
        </g>
        <g transform="translate(56.59,100.91)" id="img-c748b894-20">
          <path fill="none" d="M0,-90.3 L0,90.3 " class="primitive"/>
        </g>
        <g transform="translate(66.54,100.91)" id="img-c748b894-21">
          <path fill="none" d="M0,-90.3 L0,90.3 " class="primitive"/>
        </g>
        <g transform="translate(76.49,100.91)" id="img-c748b894-22">
          <path fill="none" d="M0,-90.3 L0,90.3 " class="primitive"/>
        </g>
        <g transform="translate(86.45,100.91)" id="img-c748b894-23">
          <path fill="none" d="M0,-90.3 L0,90.3 " class="primitive"/>
        </g>
        <g transform="translate(96.4,100.91)" id="img-c748b894-24">
          <path fill="none" d="M0,-90.3 L0,90.3 " class="primitive"/>
        </g>
        <g transform="translate(106.35,100.91)" id="img-c748b894-25">
          <path fill="none" d="M0,-90.3 L0,90.3 " class="primitive"/>
        </g>
        <g transform="translate(116.31,100.91)" id="img-c748b894-26">
          <path fill="none" d="M0,-90.3 L0,90.3 " class="primitive"/>
        </g>
        <g transform="translate(126.26,100.91)" id="img-c748b894-27">
          <path fill="none" d="M0,-90.3 L0,90.3 " class="primitive"/>
        </g>
        <g transform="translate(136.21,100.91)" id="img-c748b894-28">
          <path fill="none" d="M0,-90.3 L0,90.3 " class="primitive"/>
        </g>
        <g transform="translate(146.17,100.91)" id="img-c748b894-29">
          <path fill="none" d="M0,-90.3 L0,90.3 " class="primitive"/>
        </g>
        <g transform="translate(156.12,100.91)" id="img-c748b894-30">
          <path fill="none" d="M0,-90.3 L0,90.3 " class="primitive"/>
        </g>
        <g transform="translate(166.07,100.91)" id="img-c748b894-31">
          <path fill="none" d="M0,-90.3 L0,90.3 " class="primitive"/>
        </g>
        <g transform="translate(176.03,100.91)" id="img-c748b894-32">
          <path fill="none" d="M0,-90.3 L0,90.3 " class="primitive"/>
        </g>
        <g transform="translate(185.98,100.91)" id="img-c748b894-33">
          <path fill="none" d="M0,-90.3 L0,90.3 " class="primitive"/>
        </g>
        <g transform="translate(195.93,100.91)" id="img-c748b894-34">
          <path fill="none" d="M0,-90.3 L0,90.3 " class="primitive"/>
        </g>
        <g transform="translate(205.89,100.91)" id="img-c748b894-35">
          <path fill="none" d="M0,-90.3 L0,90.3 " class="primitive"/>
        </g>
        <g transform="translate(215.84,100.91)" id="img-c748b894-36">
          <path fill="none" d="M0,-90.3 L0,90.3 " class="primitive"/>
        </g>
        <g transform="translate(225.79,100.91)" id="img-c748b894-37">
          <path fill="none" d="M0,-90.3 L0,90.3 " class="primitive"/>
        </g>
        <g transform="translate(235.75,100.91)" id="img-c748b894-38">
          <path fill="none" d="M0,-90.3 L0,90.3 " class="primitive"/>
        </g>
        <g transform="translate(245.7,100.91)" id="img-c748b894-39">
          <path fill="none" d="M0,-90.3 L0,90.3 " class="primitive"/>
        </g>
        <g transform="translate(255.65,100.91)" id="img-c748b894-40">
          <path fill="none" d="M0,-90.3 L0,90.3 " class="primitive"/>
        </g>
        <g transform="translate(265.61,100.91)" id="img-c748b894-41">
          <path fill="none" d="M0,-90.3 L0,90.3 " class="primitive"/>
        </g>
        <g transform="translate(275.56,100.91)" id="img-c748b894-42">
          <path fill="none" d="M0,-90.3 L0,90.3 " class="primitive"/>
        </g>
        <g transform="translate(285.51,100.91)" id="img-c748b894-43">
          <path fill="none" d="M0,-90.3 L0,90.3 " class="primitive"/>
        </g>
        <g transform="translate(295.47,100.91)" id="img-c748b894-44">
          <path fill="none" d="M0,-90.3 L0,90.3 " class="primitive"/>
        </g>
        <g transform="translate(305.42,100.91)" id="img-c748b894-45">
          <path fill="none" d="M0,-90.3 L0,90.3 " class="primitive"/>
        </g>
        <g transform="translate(315.37,100.91)" id="img-c748b894-46">
          <path fill="none" d="M0,-90.3 L0,90.3 " class="primitive"/>
        </g>
        <g transform="translate(325.33,100.91)" id="img-c748b894-47">
          <path fill="none" d="M0,-90.3 L0,90.3 " class="primitive"/>
        </g>
        <g transform="translate(335.28,100.91)" id="img-c748b894-48">
          <path fill="none" d="M0,-90.3 L0,90.3 " class="primitive"/>
        </g>
        <g transform="translate(345.23,100.91)" id="img-c748b894-49">
          <path fill="none" d="M0,-90.3 L0,90.3 " class="primitive"/>
        </g>
        <g transform="translate(355.19,100.91)" id="img-c748b894-50">
          <path fill="none" d="M0,-90.3 L0,90.3 " class="primitive"/>
        </g>
        <g transform="translate(365.14,100.91)" id="img-c748b894-51">
          <path fill="none" d="M0,-90.3 L0,90.3 " class="primitive"/>
        </g>
        <g transform="translate(375.09,100.91)" id="img-c748b894-52">
          <path fill="none" d="M0,-90.3 L0,90.3 " class="primitive"/>
        </g>
        <g transform="translate(385.05,100.91)" id="img-c748b894-53">
          <path fill="none" d="M0,-90.3 L0,90.3 " class="primitive"/>
        </g>
      </g>
      <g class="plotpanel" id="img-c748b894-54">
        <metadata>
          <boundingbox value="26.725000000000023mm 10.611666666666679mm 368.27500000000003mm 180.60333333333335mm"/>
          <unitbox value="0.5 60679.4888733697 37.0 -61358.977746739394"/>
        </metadata>
        <g shape-rendering="crispEdges" stroke-width="0.3" id="img-c748b894-55">
          <g class="geometry" fill-opacity="1" stroke="#000000" stroke-opacity="0.000" fill="#00BFFF" id="img-c748b894-56">
            <g transform="translate(31.7,174.19)" id="img-c748b894-57">
              <path d="M-5,-15.03 L5,-15.03 5,15.03 -5,15.03  z" class="primitive"/>
            </g>
            <g transform="translate(41.66,149.99)" id="img-c748b894-58">
              <path d="M-5,-39.22 L5,-39.22 5,39.22 -5,39.22  z" class="primitive"/>
            </g>
            <g transform="translate(51.61,168.43)" id="img-c748b894-59">
              <path d="M-5,-20.78 L5,-20.78 5,20.78 -5,20.78  z" class="primitive"/>
            </g>
            <g transform="translate(61.56,175.7)" id="img-c748b894-60">
              <path d="M-5,-13.52 L5,-13.52 5,13.52 -5,13.52  z" class="primitive"/>
            </g>
            <g transform="translate(71.52,141.09)" id="img-c748b894-61">
              <path d="M-5,-48.13 L5,-48.13 5,48.13 -5,48.13  z" class="primitive"/>
            </g>
            <g transform="translate(81.47,173.9)" id="img-c748b894-62">
              <path d="M-5,-15.31 L5,-15.31 5,15.31 -5,15.31  z" class="primitive"/>
            </g>
            <g transform="translate(91.42,162.1)" id="img-c748b894-63">
              <path d="M-5,-27.12 L5,-27.12 5,27.12 -5,27.12  z" class="primitive"/>
            </g>
            <g transform="translate(101.38,151)" id="img-c748b894-64">
              <path d="M-5,-38.21 L5,-38.21 5,38.21 -5,38.21  z" class="primitive"/>
            </g>
            <g transform="translate(111.33,175.27)" id="img-c748b894-65">
              <path d="M-5,-13.95 L5,-13.95 5,13.95 -5,13.95  z" class="primitive"/>
            </g>
            <g transform="translate(121.28,174.77)" id="img-c748b894-66">
              <path d="M-5,-14.45 L5,-14.45 5,14.45 -5,14.45  z" class="primitive"/>
            </g>
            <g transform="translate(131.24,172.86)" id="img-c748b894-67">
              <path d="M-5,-16.35 L5,-16.35 5,16.35 -5,16.35  z" class="primitive"/>
            </g>
            <g transform="translate(141.19,182.04)" id="img-c748b894-68">
              <path d="M-5,-7.18 L5,-7.18 5,7.18 -5,7.18  z" class="primitive"/>
            </g>
            <g transform="translate(151.14,188.74)" id="img-c748b894-69">
              <path d="M-5,-0.47 L5,-0.47 5,0.47 -5,0.47  z" class="primitive"/>
            </g>
            <g transform="translate(161.1,189.09)" id="img-c748b894-70">
              <path d="M-5,-0.12 L5,-0.12 5,0.12 -5,0.12  z" class="primitive"/>
            </g>
            <g transform="translate(171.05,189.07)" id="img-c748b894-71">
              <path d="M-5,-0.15 L5,-0.15 5,0.15 -5,0.15  z" class="primitive"/>
            </g>
            <g transform="translate(181,186.14)" id="img-c748b894-72">
              <path d="M-5,-3.08 L5,-3.08 5,3.08 -5,3.08  z" class="primitive"/>
            </g>
            <g transform="translate(190.96,188.92)" id="img-c748b894-73">
              <path d="M-5,-0.29 L5,-0.29 5,0.29 -5,0.29  z" class="primitive"/>
            </g>
            <g transform="translate(200.91,183.38)" id="img-c748b894-74">
              <path d="M-5,-5.84 L5,-5.84 5,5.84 -5,5.84  z" class="primitive"/>
            </g>
            <g transform="translate(210.86,188.7)" id="img-c748b894-75">
              <path d="M-5,-0.51 L5,-0.51 5,0.51 -5,0.51  z" class="primitive"/>
            </g>
            <g transform="translate(220.82,188.96)" id="img-c748b894-76">
              <path d="M-5,-0.26 L5,-0.26 5,0.26 -5,0.26  z" class="primitive"/>
            </g>
            <g transform="translate(230.77,188.66)" id="img-c748b894-77">
              <path d="M-5,-0.55 L5,-0.55 5,0.55 -5,0.55  z" class="primitive"/>
            </g>
            <g transform="translate(240.72,188.01)" id="img-c748b894-78">
              <path d="M-5,-1.21 L5,-1.21 5,1.21 -5,1.21  z" class="primitive"/>
            </g>
            <g transform="translate(250.68,189.14)" id="img-c748b894-79">
              <path d="M-5,-0.08 L5,-0.08 5,0.08 -5,0.08  z" class="primitive"/>
            </g>
            <g transform="translate(260.63,187.98)" id="img-c748b894-80">
              <path d="M-5,-1.23 L5,-1.23 5,1.23 -5,1.23  z" class="primitive"/>
            </g>
            <g transform="translate(270.58,188.92)" id="img-c748b894-81">
              <path d="M-5,-0.29 L5,-0.29 5,0.29 -5,0.29  z" class="primitive"/>
            </g>
            <g transform="translate(280.54,188.71)" id="img-c748b894-82">
              <path d="M-5,-0.5 L5,-0.5 5,0.5 -5,0.5  z" class="primitive"/>
            </g>
            <g transform="translate(290.49,188.76)" id="img-c748b894-83">
              <path d="M-5,-0.45 L5,-0.45 5,0.45 -5,0.45  z" class="primitive"/>
            </g>
            <g transform="translate(300.44,186.36)" id="img-c748b894-84">
              <path d="M-5,-2.86 L5,-2.86 5,2.86 -5,2.86  z" class="primitive"/>
            </g>
            <g transform="translate(310.4,189)" id="img-c748b894-85">
              <path d="M-5,-0.21 L5,-0.21 5,0.21 -5,0.21  z" class="primitive"/>
            </g>
            <g transform="translate(320.35,189.16)" id="img-c748b894-86">
              <path d="M-5,-0.06 L5,-0.06 5,0.06 -5,0.06  z" class="primitive"/>
            </g>
            <g transform="translate(330.3,189.19)" id="img-c748b894-87">
              <path d="M-5,-0.02 L5,-0.02 5,0.02 -5,0.02  z" class="primitive"/>
            </g>
            <g transform="translate(340.26,188.81)" id="img-c748b894-88">
              <path d="M-5,-0.41 L5,-0.41 5,0.41 -5,0.41  z" class="primitive"/>
            </g>
            <g transform="translate(350.21,188.9)" id="img-c748b894-89">
              <path d="M-5,-0.31 L5,-0.31 5,0.31 -5,0.31  z" class="primitive"/>
            </g>
            <g transform="translate(360.16,101.03)" id="img-c748b894-90">
              <path d="M-5,-88.19 L5,-88.19 5,88.19 -5,88.19  z" class="primitive"/>
            </g>
            <g transform="translate(370.12,189.2)" id="img-c748b894-91">
              <path d="M-5,-0.01 L5,-0.01 5,0.01 -5,0.01  z" class="primitive"/>
            </g>
            <g transform="translate(380.07,189.22)" id="img-c748b894-92">
              <path d="M-5,-0 L5,-0 5,0 -5,0  z" class="primitive"/>
            </g>
            <g transform="translate(390.02,158.79)" id="img-c748b894-93">
              <path d="M-5,-30.42 L5,-30.42 5,30.42 -5,30.42  z" class="primitive"/>
            </g>
          </g>
        </g>
      </g>
    </g>
  </g>
  <g class="guide ylabels" font-size="2.82" font-family="'PT Sans Caption','Helvetica Neue','Helvetica',sans-serif" fill="#6C606B" id="img-c748b894-94">
    <g transform="translate(25.72,189.22)" id="img-c748b894-95">
      <g class="primitive">
        <text text-anchor="end" dy="0.35em">0</text>
      </g>
    </g>
    <g transform="translate(25.72,159.78)" id="img-c748b894-96">
      <g class="primitive">
        <text text-anchor="end" dy="0.35em">1.0×10⁴</text>
      </g>
    </g>
    <g transform="translate(25.72,130.35)" id="img-c748b894-97">
      <g class="primitive">
        <text text-anchor="end" dy="0.35em">2.0×10⁴</text>
      </g>
    </g>
    <g transform="translate(25.72,100.91)" id="img-c748b894-98">
      <g class="primitive">
        <text text-anchor="end" dy="0.35em">3.0×10⁴</text>
      </g>
    </g>
    <g transform="translate(25.72,71.48)" id="img-c748b894-99">
      <g class="primitive">
        <text text-anchor="end" dy="0.35em">4.0×10⁴</text>
      </g>
    </g>
    <g transform="translate(25.72,42.05)" id="img-c748b894-100">
      <g class="primitive">
        <text text-anchor="end" dy="0.35em">5.0×10⁴</text>
      </g>
    </g>
    <g transform="translate(25.72,12.61)" id="img-c748b894-101">
      <g class="primitive">
        <text text-anchor="end" dy="0.35em">6.0×10⁴</text>
      </g>
    </g>
  </g>
  <g font-size="3.88" font-family="'PT Sans','Helvetica Neue','Helvetica',sans-serif" fill="#564A55" stroke="#000000" stroke-opacity="0.000" id="img-c748b894-102">
    <g transform="translate(8.81,98.91)" id="img-c748b894-103">
      <g class="primitive">
        <text text-anchor="middle" dy="0.35em" transform="rotate(-90,0, 2)">Total Debt (in dollars)</text>
      </g>
    </g>
  </g>
  <g font-size="3.88" font-family="'PT Sans','Helvetica Neue','Helvetica',sans-serif" fill="#564A55" stroke="#000000" stroke-opacity="0.000" id="img-c748b894-104">
    <g transform="translate(210.86,5)" id="img-c748b894-105">
      <g class="primitive">
        <text text-anchor="middle" dy="0.6em">RI Debt Redeemed Per Year/Month</text>
      </g>
    </g>
  </g>
</g>
<defs>
  <clipPath id="img-c748b894-5">
    <path d="M26.73,10.61 L395,10.61 395,191.22 26.73,191.22 " />
  </clipPath>
</defs>
</svg>
