<?xml version="1.0" encoding="UTF-8"?>
<svg xmlns="http://www.w3.org/2000/svg"
     xmlns:xlink="http://www.w3.org/1999/xlink"
     xmlns:gadfly="http://www.gadflyjl.org/ns"
     version="1.2"
     width="400mm" height="225mm" viewBox="0 0 400 225"
     stroke="none"
     fill="#000000"
     stroke-width="0.3"
     font-size="3.88"
>
<defs>
  <marker id="arrow" markerWidth="15" markerHeight="7" refX="5" refY="3.5" orient="auto" markerUnits="strokeWidth">
    <path d="M0,0 L15,3.5 L0,7 z" stroke="context-stroke" fill="context-stroke"/>
  </marker>
</defs>
<g stroke="#000000" stroke-opacity="0.000" fill="#FFFFFF" id="img-c9e53c73-1">
  <g transform="translate(200,112.5)">
    <path d="M-200,-112.5 L200,-112.5 200,112.5 -200,112.5  z" class="primitive"/>
  </g>
</g>
<g class="plotroot yscalable" id="img-c9e53c73-2">
  <g font-size="3.88" font-family="'PT Sans','Helvetica Neue','Helvetica',sans-serif" fill="#564A55" stroke="#000000" stroke-opacity="0.000" id="img-c9e53c73-3">
    <g transform="translate(211.7,213.39)">
      <g class="primitive">
        <text text-anchor="middle" dy="0.6em">Year</text>
      </g>
    </g>
  </g>
  <g class="guide xlabels" font-size="2.82" font-family="'PT Sans Caption','Helvetica Neue','Helvetica',sans-serif" fill="#6C606B" id="img-c9e53c73-4">
    <g transform="translate(33.49,192.22)">
      <g class="primitive">
        <text text-anchor="end" dy="0.35em" transform="rotate(-90,0, 0)">1790-09</text>
      </g>
    </g>
    <g transform="translate(43.67,192.22)">
      <g class="primitive">
        <text text-anchor="end" dy="0.35em" transform="rotate(-90,0, 0)">1790-11</text>
      </g>
    </g>
    <g transform="translate(53.86,192.22)">
      <g class="primitive">
        <text text-anchor="end" dy="0.35em" transform="rotate(-90,0, 0)">1790-12</text>
      </g>
    </g>
    <g transform="translate(64.04,192.22)">
      <g class="primitive">
        <text text-anchor="end" dy="0.35em" transform="rotate(-90,0, 0)">1791-01</text>
      </g>
    </g>
    <g transform="translate(74.22,192.22)">
      <g class="primitive">
        <text text-anchor="end" dy="0.35em" transform="rotate(-90,0, 0)">1791-02</text>
      </g>
    </g>
    <g transform="translate(84.41,192.22)">
      <g class="primitive">
        <text text-anchor="end" dy="0.35em" transform="rotate(-90,0, 0)">1791-03</text>
      </g>
    </g>
    <g transform="translate(94.59,192.22)">
      <g class="primitive">
        <text text-anchor="end" dy="0.35em" transform="rotate(-90,0, 0)">1791-04</text>
      </g>
    </g>
    <g transform="translate(104.77,192.22)">
      <g class="primitive">
        <text text-anchor="end" dy="0.35em" transform="rotate(-90,0, 0)">1791-05</text>
      </g>
    </g>
    <g transform="translate(114.96,192.22)">
      <g class="primitive">
        <text text-anchor="end" dy="0.35em" transform="rotate(-90,0, 0)">1791-06</text>
      </g>
    </g>
    <g transform="translate(125.14,192.22)">
      <g class="primitive">
        <text text-anchor="end" dy="0.35em" transform="rotate(-90,0, 0)">1791-07</text>
      </g>
    </g>
    <g transform="translate(135.32,192.22)">
      <g class="primitive">
        <text text-anchor="end" dy="0.35em" transform="rotate(-90,0, 0)">1791-08</text>
      </g>
    </g>
    <g transform="translate(145.51,192.22)">
      <g class="primitive">
        <text text-anchor="end" dy="0.35em" transform="rotate(-90,0, 0)">1791-09</text>
      </g>
    </g>
    <g transform="translate(155.69,192.22)">
      <g class="primitive">
        <text text-anchor="end" dy="0.35em" transform="rotate(-90,0, 0)">1791-10</text>
      </g>
    </g>
    <g transform="translate(165.87,192.22)">
      <g class="primitive">
        <text text-anchor="end" dy="0.35em" transform="rotate(-90,0, 0)">1791-12</text>
      </g>
    </g>
    <g transform="translate(176.06,192.22)">
      <g class="primitive">
        <text text-anchor="end" dy="0.35em" transform="rotate(-90,0, 0)">1792-01</text>
      </g>
    </g>
    <g transform="translate(186.24,192.22)">
      <g class="primitive">
        <text text-anchor="end" dy="0.35em" transform="rotate(-90,0, 0)">1792-02</text>
      </g>
    </g>
    <g transform="translate(196.42,192.22)">
      <g class="primitive">
        <text text-anchor="end" dy="0.35em" transform="rotate(-90,0, 0)">1792-04</text>
      </g>
    </g>
    <g transform="translate(206.61,192.22)">
      <g class="primitive">
        <text text-anchor="end" dy="0.35em" transform="rotate(-90,0, 0)">1792-05</text>
      </g>
    </g>
    <g transform="translate(216.79,192.22)">
      <g class="primitive">
        <text text-anchor="end" dy="0.35em" transform="rotate(-90,0, 0)">1792-07</text>
      </g>
    </g>
    <g transform="translate(226.97,192.22)">
      <g class="primitive">
        <text text-anchor="end" dy="0.35em" transform="rotate(-90,0, 0)">1792-09</text>
      </g>
    </g>
    <g transform="translate(237.16,192.22)">
      <g class="primitive">
        <text text-anchor="end" dy="0.35em" transform="rotate(-90,0, 0)">1792-10</text>
      </g>
    </g>
    <g transform="translate(247.34,192.22)">
      <g class="primitive">
        <text text-anchor="end" dy="0.35em" transform="rotate(-90,0, 0)">1792-11</text>
      </g>
    </g>
    <g transform="translate(257.52,192.22)">
      <g class="primitive">
        <text text-anchor="end" dy="0.35em" transform="rotate(-90,0, 0)">1792-12</text>
      </g>
    </g>
    <g transform="translate(267.71,192.22)">
      <g class="primitive">
        <text text-anchor="end" dy="0.35em" transform="rotate(-90,0, 0)">1793-01</text>
      </g>
    </g>
    <g transform="translate(277.89,192.22)">
      <g class="primitive">
        <text text-anchor="end" dy="0.35em" transform="rotate(-90,0, 0)">1793-02</text>
      </g>
    </g>
    <g transform="translate(288.07,192.22)">
      <g class="primitive">
        <text text-anchor="end" dy="0.35em" transform="rotate(-90,0, 0)">1793-03</text>
      </g>
    </g>
    <g transform="translate(298.26,192.22)">
      <g class="primitive">
        <text text-anchor="end" dy="0.35em" transform="rotate(-90,0, 0)">1793-04</text>
      </g>
    </g>
    <g transform="translate(308.44,192.22)">
      <g class="primitive">
        <text text-anchor="end" dy="0.35em" transform="rotate(-90,0, 0)">1793-05</text>
      </g>
    </g>
    <g transform="translate(318.62,192.22)">
      <g class="primitive">
        <text text-anchor="end" dy="0.35em" transform="rotate(-90,0, 0)">1793-09</text>
      </g>
    </g>
    <g transform="translate(328.81,192.22)">
      <g class="primitive">
        <text text-anchor="end" dy="0.35em" transform="rotate(-90,0, 0)">1793-12</text>
      </g>
    </g>
    <g transform="translate(338.99,192.22)">
      <g class="primitive">
        <text text-anchor="end" dy="0.35em" transform="rotate(-90,0, 0)">1794-01</text>
      </g>
    </g>
    <g transform="translate(349.17,192.22)">
      <g class="primitive">
        <text text-anchor="end" dy="0.35em" transform="rotate(-90,0, 0)">1794-04</text>
      </g>
    </g>
    <g transform="translate(359.36,192.22)">
      <g class="primitive">
        <text text-anchor="end" dy="0.35em" transform="rotate(-90,0, 0)">1794-10</text>
      </g>
    </g>
    <g transform="translate(369.54,192.22)">
      <g class="primitive">
        <text text-anchor="end" dy="0.35em" transform="rotate(-90,0, 0)">1794-11</text>
      </g>
    </g>
    <g transform="translate(379.72,192.22)">
      <g class="primitive">
        <text text-anchor="end" dy="0.35em" transform="rotate(-90,0, 0)">post-1795</text>
      </g>
    </g>
    <g transform="translate(389.91,192.22)">
      <g class="primitive">
        <text text-anchor="end" dy="0.35em" transform="rotate(-90,0, 0)">missing info</text>
      </g>
    </g>
  </g>
  <g clip-path="url(#img-c9e53c73-5)">
    <g id="img-c9e53c73-6">
      <g pointer-events="visible" stroke-width="0.3" fill="#000000" fill-opacity="0.000" stroke="#000000" stroke-opacity="0.000" class="guide background" id="img-c9e53c73-7">
        <g transform="translate(211.7,100.91)" id="img-c9e53c73-8">
          <path d="M-183.3,-90.3 L183.3,-90.3 183.3,90.3 -183.3,90.3  z" class="primitive"/>
        </g>
      </g>
      <g class="guide ygridlines xfixed" stroke-dasharray="0.5,0.5" stroke-width="0.2" stroke="#D0D0E0" id="img-c9e53c73-9">
        <g transform="translate(211.7,189.22)" id="img-c9e53c73-10">
          <path fill="none" d="M-183.3,0 L183.3,0 " class="primitive"/>
        </g>
        <g transform="translate(211.7,153.89)" id="img-c9e53c73-11">
          <path fill="none" d="M-183.3,0 L183.3,0 " class="primitive"/>
        </g>
        <g transform="translate(211.7,118.57)" id="img-c9e53c73-12">
          <path fill="none" d="M-183.3,0 L183.3,0 " class="primitive"/>
        </g>
        <g transform="translate(211.7,83.25)" id="img-c9e53c73-13">
          <path fill="none" d="M-183.3,0 L183.3,0 " class="primitive"/>
        </g>
        <g transform="translate(211.7,47.93)" id="img-c9e53c73-14">
          <path fill="none" d="M-183.3,0 L183.3,0 " class="primitive"/>
        </g>
        <g transform="translate(211.7,12.61)" id="img-c9e53c73-15">
          <path fill="none" d="M-183.3,0 L183.3,0 " class="primitive"/>
        </g>
      </g>
      <g class="guide xgridlines yfixed" stroke-dasharray="0.5,0.5" stroke-width="0.2" stroke="#D0D0E0" id="img-c9e53c73-16">
        <g transform="translate(38.58,100.91)" id="img-c9e53c73-17">
          <path fill="none" d="M0,-90.3 L0,90.3 " class="primitive"/>
        </g>
        <g transform="translate(48.77,100.91)" id="img-c9e53c73-18">
          <path fill="none" d="M0,-90.3 L0,90.3 " class="primitive"/>
        </g>
        <g transform="translate(58.95,100.91)" id="img-c9e53c73-19">
          <path fill="none" d="M0,-90.3 L0,90.3 " class="primitive"/>
        </g>
        <g transform="translate(69.13,100.91)" id="img-c9e53c73-20">
          <path fill="none" d="M0,-90.3 L0,90.3 " class="primitive"/>
        </g>
        <g transform="translate(79.32,100.91)" id="img-c9e53c73-21">
          <path fill="none" d="M0,-90.3 L0,90.3 " class="primitive"/>
        </g>
        <g transform="translate(89.5,100.91)" id="img-c9e53c73-22">
          <path fill="none" d="M0,-90.3 L0,90.3 " class="primitive"/>
        </g>
        <g transform="translate(99.68,100.91)" id="img-c9e53c73-23">
          <path fill="none" d="M0,-90.3 L0,90.3 " class="primitive"/>
        </g>
        <g transform="translate(109.87,100.91)" id="img-c9e53c73-24">
          <path fill="none" d="M0,-90.3 L0,90.3 " class="primitive"/>
        </g>
        <g transform="translate(120.05,100.91)" id="img-c9e53c73-25">
          <path fill="none" d="M0,-90.3 L0,90.3 " class="primitive"/>
        </g>
        <g transform="translate(130.23,100.91)" id="img-c9e53c73-26">
          <path fill="none" d="M0,-90.3 L0,90.3 " class="primitive"/>
        </g>
        <g transform="translate(140.42,100.91)" id="img-c9e53c73-27">
          <path fill="none" d="M0,-90.3 L0,90.3 " class="primitive"/>
        </g>
        <g transform="translate(150.6,100.91)" id="img-c9e53c73-28">
          <path fill="none" d="M0,-90.3 L0,90.3 " class="primitive"/>
        </g>
        <g transform="translate(160.78,100.91)" id="img-c9e53c73-29">
          <path fill="none" d="M0,-90.3 L0,90.3 " class="primitive"/>
        </g>
        <g transform="translate(170.97,100.91)" id="img-c9e53c73-30">
          <path fill="none" d="M0,-90.3 L0,90.3 " class="primitive"/>
        </g>
        <g transform="translate(181.15,100.91)" id="img-c9e53c73-31">
          <path fill="none" d="M0,-90.3 L0,90.3 " class="primitive"/>
        </g>
        <g transform="translate(191.33,100.91)" id="img-c9e53c73-32">
          <path fill="none" d="M0,-90.3 L0,90.3 " class="primitive"/>
        </g>
        <g transform="translate(201.52,100.91)" id="img-c9e53c73-33">
          <path fill="none" d="M0,-90.3 L0,90.3 " class="primitive"/>
        </g>
        <g transform="translate(211.7,100.91)" id="img-c9e53c73-34">
          <path fill="none" d="M0,-90.3 L0,90.3 " class="primitive"/>
        </g>
        <g transform="translate(221.88,100.91)" id="img-c9e53c73-35">
          <path fill="none" d="M0,-90.3 L0,90.3 " class="primitive"/>
        </g>
        <g transform="translate(232.07,100.91)" id="img-c9e53c73-36">
          <path fill="none" d="M0,-90.3 L0,90.3 " class="primitive"/>
        </g>
        <g transform="translate(242.25,100.91)" id="img-c9e53c73-37">
          <path fill="none" d="M0,-90.3 L0,90.3 " class="primitive"/>
        </g>
        <g transform="translate(252.43,100.91)" id="img-c9e53c73-38">
          <path fill="none" d="M0,-90.3 L0,90.3 " class="primitive"/>
        </g>
        <g transform="translate(262.62,100.91)" id="img-c9e53c73-39">
          <path fill="none" d="M0,-90.3 L0,90.3 " class="primitive"/>
        </g>
        <g transform="translate(272.8,100.91)" id="img-c9e53c73-40">
          <path fill="none" d="M0,-90.3 L0,90.3 " class="primitive"/>
        </g>
        <g transform="translate(282.98,100.91)" id="img-c9e53c73-41">
          <path fill="none" d="M0,-90.3 L0,90.3 " class="primitive"/>
        </g>
        <g transform="translate(293.17,100.91)" id="img-c9e53c73-42">
          <path fill="none" d="M0,-90.3 L0,90.3 " class="primitive"/>
        </g>
        <g transform="translate(303.35,100.91)" id="img-c9e53c73-43">
          <path fill="none" d="M0,-90.3 L0,90.3 " class="primitive"/>
        </g>
        <g transform="translate(313.53,100.91)" id="img-c9e53c73-44">
          <path fill="none" d="M0,-90.3 L0,90.3 " class="primitive"/>
        </g>
        <g transform="translate(323.72,100.91)" id="img-c9e53c73-45">
          <path fill="none" d="M0,-90.3 L0,90.3 " class="primitive"/>
        </g>
        <g transform="translate(333.9,100.91)" id="img-c9e53c73-46">
          <path fill="none" d="M0,-90.3 L0,90.3 " class="primitive"/>
        </g>
        <g transform="translate(344.08,100.91)" id="img-c9e53c73-47">
          <path fill="none" d="M0,-90.3 L0,90.3 " class="primitive"/>
        </g>
        <g transform="translate(354.27,100.91)" id="img-c9e53c73-48">
          <path fill="none" d="M0,-90.3 L0,90.3 " class="primitive"/>
        </g>
        <g transform="translate(364.45,100.91)" id="img-c9e53c73-49">
          <path fill="none" d="M0,-90.3 L0,90.3 " class="primitive"/>
        </g>
        <g transform="translate(374.63,100.91)" id="img-c9e53c73-50">
          <path fill="none" d="M0,-90.3 L0,90.3 " class="primitive"/>
        </g>
        <g transform="translate(384.82,100.91)" id="img-c9e53c73-51">
          <path fill="none" d="M0,-90.3 L0,90.3 " class="primitive"/>
        </g>
      </g>
      <g class="plotpanel" id="img-c9e53c73-52">
        <metadata>
          <boundingbox value="28.39833333333337mm 10.611666666666679mm 366.6016666666667mm 180.60333333333335mm"/>
          <unitbox value="0.5 252831.2036390404 36.0 -255662.40727808082"/>
        </metadata>
        <g shape-rendering="crispEdges" stroke-width="0.3" id="img-c9e53c73-53">
          <g class="geometry" fill-opacity="1" stroke="#000000" stroke-opacity="0.000" fill="#00BFFF" id="img-c9e53c73-54">
            <g transform="translate(33.49,189.22)" id="img-c9e53c73-55">
              <path d="M-5.12,-0 L5.12,-0 5.12,0 -5.12,0  z" class="primitive"/>
            </g>
            <g transform="translate(43.67,182.37)" id="img-c9e53c73-56">
              <path d="M-5.12,-6.84 L5.12,-6.84 5.12,6.84 -5.12,6.84  z" class="primitive"/>
            </g>
            <g transform="translate(53.86,186.34)" id="img-c9e53c73-57">
              <path d="M-5.12,-2.87 L5.12,-2.87 5.12,2.87 -5.12,2.87  z" class="primitive"/>
            </g>
            <g transform="translate(64.04,188)" id="img-c9e53c73-58">
              <path d="M-5.12,-1.22 L5.12,-1.22 5.12,1.22 -5.12,1.22  z" class="primitive"/>
            </g>
            <g transform="translate(74.22,187.12)" id="img-c9e53c73-59">
              <path d="M-5.12,-2.1 L5.12,-2.1 5.12,2.1 -5.12,2.1  z" class="primitive"/>
            </g>
            <g transform="translate(84.41,185.72)" id="img-c9e53c73-60">
              <path d="M-5.12,-3.5 L5.12,-3.5 5.12,3.5 -5.12,3.5  z" class="primitive"/>
            </g>
            <g transform="translate(94.59,185.74)" id="img-c9e53c73-61">
              <path d="M-5.12,-3.47 L5.12,-3.47 5.12,3.47 -5.12,3.47  z" class="primitive"/>
            </g>
            <g transform="translate(104.77,184.32)" id="img-c9e53c73-62">
              <path d="M-5.12,-4.89 L5.12,-4.89 5.12,4.89 -5.12,4.89  z" class="primitive"/>
            </g>
            <g transform="translate(114.96,188.02)" id="img-c9e53c73-63">
              <path d="M-5.12,-1.19 L5.12,-1.19 5.12,1.19 -5.12,1.19  z" class="primitive"/>
            </g>
            <g transform="translate(125.14,186.04)" id="img-c9e53c73-64">
              <path d="M-5.12,-3.18 L5.12,-3.18 5.12,3.18 -5.12,3.18  z" class="primitive"/>
            </g>
            <g transform="translate(135.32,186.09)" id="img-c9e53c73-65">
              <path d="M-5.12,-3.12 L5.12,-3.12 5.12,3.12 -5.12,3.12  z" class="primitive"/>
            </g>
            <g transform="translate(145.51,187.19)" id="img-c9e53c73-66">
              <path d="M-5.12,-2.03 L5.12,-2.03 5.12,2.03 -5.12,2.03  z" class="primitive"/>
            </g>
            <g transform="translate(155.69,187.18)" id="img-c9e53c73-67">
              <path d="M-5.12,-2.03 L5.12,-2.03 5.12,2.03 -5.12,2.03  z" class="primitive"/>
            </g>
            <g transform="translate(165.87,188.1)" id="img-c9e53c73-68">
              <path d="M-5.12,-1.11 L5.12,-1.11 5.12,1.11 -5.12,1.11  z" class="primitive"/>
            </g>
            <g transform="translate(176.06,187.27)" id="img-c9e53c73-69">
              <path d="M-5.12,-1.95 L5.12,-1.95 5.12,1.95 -5.12,1.95  z" class="primitive"/>
            </g>
            <g transform="translate(186.24,188.2)" id="img-c9e53c73-70">
              <path d="M-5.12,-1.01 L5.12,-1.01 5.12,1.01 -5.12,1.01  z" class="primitive"/>
            </g>
            <g transform="translate(196.42,189.09)" id="img-c9e53c73-71">
              <path d="M-5.12,-0.13 L5.12,-0.13 5.12,0.13 -5.12,0.13  z" class="primitive"/>
            </g>
            <g transform="translate(206.61,187.79)" id="img-c9e53c73-72">
              <path d="M-5.12,-1.42 L5.12,-1.42 5.12,1.42 -5.12,1.42  z" class="primitive"/>
            </g>
            <g transform="translate(216.79,189.14)" id="img-c9e53c73-73">
              <path d="M-5.12,-0.08 L5.12,-0.08 5.12,0.08 -5.12,0.08  z" class="primitive"/>
            </g>
            <g transform="translate(226.97,188.67)" id="img-c9e53c73-74">
              <path d="M-5.12,-0.54 L5.12,-0.54 5.12,0.54 -5.12,0.54  z" class="primitive"/>
            </g>
            <g transform="translate(237.16,189.22)" id="img-c9e53c73-75">
              <path d="M-5.12,-0 L5.12,-0 5.12,0 -5.12,0  z" class="primitive"/>
            </g>
            <g transform="translate(247.34,189.2)" id="img-c9e53c73-76">
              <path d="M-5.12,-0.01 L5.12,-0.01 5.12,0.01 -5.12,0.01  z" class="primitive"/>
            </g>
            <g transform="translate(257.52,189.03)" id="img-c9e53c73-77">
              <path d="M-5.12,-0.18 L5.12,-0.18 5.12,0.18 -5.12,0.18  z" class="primitive"/>
            </g>
            <g transform="translate(267.71,188.8)" id="img-c9e53c73-78">
              <path d="M-5.12,-0.41 L5.12,-0.41 5.12,0.41 -5.12,0.41  z" class="primitive"/>
            </g>
            <g transform="translate(277.89,188.96)" id="img-c9e53c73-79">
              <path d="M-5.12,-0.26 L5.12,-0.26 5.12,0.26 -5.12,0.26  z" class="primitive"/>
            </g>
            <g transform="translate(288.07,189.03)" id="img-c9e53c73-80">
              <path d="M-5.12,-0.18 L5.12,-0.18 5.12,0.18 -5.12,0.18  z" class="primitive"/>
            </g>
            <g transform="translate(298.26,189.21)" id="img-c9e53c73-81">
              <path d="M-5.12,-0.01 L5.12,-0.01 5.12,0.01 -5.12,0.01  z" class="primitive"/>
            </g>
            <g transform="translate(308.44,189.19)" id="img-c9e53c73-82">
              <path d="M-5.12,-0.03 L5.12,-0.03 5.12,0.03 -5.12,0.03  z" class="primitive"/>
            </g>
            <g transform="translate(318.62,189)" id="img-c9e53c73-83">
              <path d="M-5.12,-0.22 L5.12,-0.22 5.12,0.22 -5.12,0.22  z" class="primitive"/>
            </g>
            <g transform="translate(328.81,189.22)" id="img-c9e53c73-84">
              <path d="M-5.12,-0 L5.12,-0 5.12,0 -5.12,0  z" class="primitive"/>
            </g>
            <g transform="translate(338.99,189.14)" id="img-c9e53c73-85">
              <path d="M-5.12,-0.07 L5.12,-0.07 5.12,0.07 -5.12,0.07  z" class="primitive"/>
            </g>
            <g transform="translate(349.17,189.09)" id="img-c9e53c73-86">
              <path d="M-5.12,-0.13 L5.12,-0.13 5.12,0.13 -5.12,0.13  z" class="primitive"/>
            </g>
            <g transform="translate(359.36,103.74)" id="img-c9e53c73-87">
              <path d="M-5.12,-85.47 L5.12,-85.47 5.12,85.47 -5.12,85.47  z" class="primitive"/>
            </g>
            <g transform="translate(369.54,186.95)" id="img-c9e53c73-88">
              <path d="M-5.12,-2.27 L5.12,-2.27 5.12,2.27 -5.12,2.27  z" class="primitive"/>
            </g>
            <g transform="translate(379.72,183.2)" id="img-c9e53c73-89">
              <path d="M-5.12,-6.02 L5.12,-6.02 5.12,6.02 -5.12,6.02  z" class="primitive"/>
            </g>
            <g transform="translate(389.91,182.45)" id="img-c9e53c73-90">
              <path d="M-5.12,-6.76 L5.12,-6.76 5.12,6.76 -5.12,6.76  z" class="primitive"/>
            </g>
          </g>
        </g>
      </g>
    </g>
  </g>
  <g class="guide ylabels" font-size="2.82" font-family="'PT Sans Caption','Helvetica Neue','Helvetica',sans-serif" fill="#6C606B" id="img-c9e53c73-91">
    <g transform="translate(27.4,189.22)" id="img-c9e53c73-92">
      <g class="primitive">
        <text text-anchor="end" dy="0.35em">0</text>
      </g>
    </g>
    <g transform="translate(27.4,153.89)" id="img-c9e53c73-93">
      <g class="primitive">
        <text text-anchor="end" dy="0.35em">5.00×10⁴</text>
      </g>
    </g>
    <g transform="translate(27.4,118.57)" id="img-c9e53c73-94">
      <g class="primitive">
        <text text-anchor="end" dy="0.35em">1.00×10⁵</text>
      </g>
    </g>
    <g transform="translate(27.4,83.25)" id="img-c9e53c73-95">
      <g class="primitive">
        <text text-anchor="end" dy="0.35em">1.50×10⁵</text>
      </g>
    </g>
    <g transform="translate(27.4,47.93)" id="img-c9e53c73-96">
      <g class="primitive">
        <text text-anchor="end" dy="0.35em">2.00×10⁵</text>
      </g>
    </g>
    <g transform="translate(27.4,12.61)" id="img-c9e53c73-97">
      <g class="primitive">
        <text text-anchor="end" dy="0.35em">2.50×10⁵</text>
      </g>
    </g>
  </g>
  <g font-size="3.88" font-family="'PT Sans','Helvetica Neue','Helvetica',sans-serif" fill="#564A55" stroke="#000000" stroke-opacity="0.000" id="img-c9e53c73-98">
    <g transform="translate(8.81,98.91)" id="img-c9e53c73-99">
      <g class="primitive">
        <text text-anchor="middle" dy="0.35em" transform="rotate(-90,0, 2)">Total Debt (in dollars)</text>
      </g>
    </g>
  </g>
  <g font-size="3.88" font-family="'PT Sans','Helvetica Neue','Helvetica',sans-serif" fill="#564A55" stroke="#000000" stroke-opacity="0.000" id="img-c9e53c73-100">
    <g transform="translate(211.7,5)" id="img-c9e53c73-101">
      <g class="primitive">
        <text text-anchor="middle" dy="0.6em">SC Debt Redeemed Per Year/Month</text>
      </g>
    </g>
  </g>
</g>
<defs>
  <clipPath id="img-c9e53c73-5">
    <path d="M28.4,10.61 L395,10.61 395,191.22 28.4,191.22 " />
  </clipPath>
</defs>
</svg>
