<?xml version="1.0" encoding="UTF-8"?>
<svg xmlns="http://www.w3.org/2000/svg"
     xmlns:xlink="http://www.w3.org/1999/xlink"
     xmlns:gadfly="http://www.gadflyjl.org/ns"
     version="1.2"
     width="400mm" height="225mm" viewBox="0 0 400 225"
     stroke="none"
     fill="#000000"
     stroke-width="0.3"
     font-size="3.88"
>
<defs>
  <marker id="arrow" markerWidth="15" markerHeight="7" refX="5" refY="3.5" orient="auto" markerUnits="strokeWidth">
    <path d="M0,0 L15,3.5 L0,7 z" stroke="context-stroke" fill="context-stroke"/>
  </marker>
</defs>
<g stroke="#000000" stroke-opacity="0.000" fill="#FFFFFF" id="img-78f8c233-1">
  <g transform="translate(200,112.5)">
    <path d="M-200,-112.5 L200,-112.5 200,112.5 -200,112.5  z" class="primitive"/>
  </g>
</g>
<g class="plotroot yscalable" id="img-78f8c233-2">
  <g font-size="3.88" font-family="'PT Sans','Helvetica Neue','Helvetica',sans-serif" fill="#564A55" stroke="#000000" stroke-opacity="0.000" id="img-78f8c233-3">
    <g transform="translate(210.86,213.39)">
      <g class="primitive">
        <text text-anchor="middle" dy="0.6em">Year</text>
      </g>
    </g>
  </g>
  <g class="guide xlabels" font-size="2.82" font-family="'PT Sans Caption','Helvetica Neue','Helvetica',sans-serif" fill="#6C606B" id="img-78f8c233-4">
    <g transform="translate(30.13,195.48)">
      <g class="primitive">
        <text text-anchor="end" dy="0.35em" transform="rotate(-90,0, 0)">1790-01</text>
      </g>
    </g>
    <g transform="translate(36.95,195.48)">
      <g class="primitive">
        <text text-anchor="end" dy="0.35em" transform="rotate(-90,0, 0)">1790-09</text>
      </g>
    </g>
    <g transform="translate(43.77,195.48)">
      <g class="primitive">
        <text text-anchor="end" dy="0.35em" transform="rotate(-90,0, 0)">1790-10</text>
      </g>
    </g>
    <g transform="translate(50.59,195.48)">
      <g class="primitive">
        <text text-anchor="end" dy="0.35em" transform="rotate(-90,0, 0)">1790-11</text>
      </g>
    </g>
    <g transform="translate(57.41,195.48)">
      <g class="primitive">
        <text text-anchor="end" dy="0.35em" transform="rotate(-90,0, 0)">1790-12</text>
      </g>
    </g>
    <g transform="translate(64.23,195.48)">
      <g class="primitive">
        <text text-anchor="end" dy="0.35em" transform="rotate(-90,0, 0)">1791-01</text>
      </g>
    </g>
    <g transform="translate(71.05,195.48)">
      <g class="primitive">
        <text text-anchor="end" dy="0.35em" transform="rotate(-90,0, 0)">1791-02</text>
      </g>
    </g>
    <g transform="translate(77.87,195.48)">
      <g class="primitive">
        <text text-anchor="end" dy="0.35em" transform="rotate(-90,0, 0)">1791-03</text>
      </g>
    </g>
    <g transform="translate(84.69,195.48)">
      <g class="primitive">
        <text text-anchor="end" dy="0.35em" transform="rotate(-90,0, 0)">1791-04</text>
      </g>
    </g>
    <g transform="translate(91.51,195.48)">
      <g class="primitive">
        <text text-anchor="end" dy="0.35em" transform="rotate(-90,0, 0)">1791-05</text>
      </g>
    </g>
    <g transform="translate(98.33,195.48)">
      <g class="primitive">
        <text text-anchor="end" dy="0.35em" transform="rotate(-90,0, 0)">1791-06</text>
      </g>
    </g>
    <g transform="translate(105.15,195.48)">
      <g class="primitive">
        <text text-anchor="end" dy="0.35em" transform="rotate(-90,0, 0)">1791-07</text>
      </g>
    </g>
    <g transform="translate(111.97,195.48)">
      <g class="primitive">
        <text text-anchor="end" dy="0.35em" transform="rotate(-90,0, 0)">1791-08</text>
      </g>
    </g>
    <g transform="translate(118.79,195.48)">
      <g class="primitive">
        <text text-anchor="end" dy="0.35em" transform="rotate(-90,0, 0)">1791-09</text>
      </g>
    </g>
    <g transform="translate(125.61,195.48)">
      <g class="primitive">
        <text text-anchor="end" dy="0.35em" transform="rotate(-90,0, 0)">1791-10</text>
      </g>
    </g>
    <g transform="translate(132.43,195.48)">
      <g class="primitive">
        <text text-anchor="end" dy="0.35em" transform="rotate(-90,0, 0)">1791-11</text>
      </g>
    </g>
    <g transform="translate(139.25,195.48)">
      <g class="primitive">
        <text text-anchor="end" dy="0.35em" transform="rotate(-90,0, 0)">1791-12</text>
      </g>
    </g>
    <g transform="translate(146.07,195.48)">
      <g class="primitive">
        <text text-anchor="end" dy="0.35em" transform="rotate(-90,0, 0)">1792-01</text>
      </g>
    </g>
    <g transform="translate(152.89,195.48)">
      <g class="primitive">
        <text text-anchor="end" dy="0.35em" transform="rotate(-90,0, 0)">1792-02</text>
      </g>
    </g>
    <g transform="translate(159.71,195.48)">
      <g class="primitive">
        <text text-anchor="end" dy="0.35em" transform="rotate(-90,0, 0)">1792-03</text>
      </g>
    </g>
    <g transform="translate(166.53,195.48)">
      <g class="primitive">
        <text text-anchor="end" dy="0.35em" transform="rotate(-90,0, 0)">1792-04</text>
      </g>
    </g>
    <g transform="translate(173.35,195.48)">
      <g class="primitive">
        <text text-anchor="end" dy="0.35em" transform="rotate(-90,0, 0)">1792-05</text>
      </g>
    </g>
    <g transform="translate(180.17,195.48)">
      <g class="primitive">
        <text text-anchor="end" dy="0.35em" transform="rotate(-90,0, 0)">1792-06</text>
      </g>
    </g>
    <g transform="translate(186.99,195.48)">
      <g class="primitive">
        <text text-anchor="end" dy="0.35em" transform="rotate(-90,0, 0)">1792-07</text>
      </g>
    </g>
    <g transform="translate(193.81,195.48)">
      <g class="primitive">
        <text text-anchor="end" dy="0.35em" transform="rotate(-90,0, 0)">1792-08</text>
      </g>
    </g>
    <g transform="translate(200.63,195.48)">
      <g class="primitive">
        <text text-anchor="end" dy="0.35em" transform="rotate(-90,0, 0)">1792-09</text>
      </g>
    </g>
    <g transform="translate(207.45,195.48)">
      <g class="primitive">
        <text text-anchor="end" dy="0.35em" transform="rotate(-90,0, 0)">1792-10</text>
      </g>
    </g>
    <g transform="translate(214.27,195.48)">
      <g class="primitive">
        <text text-anchor="end" dy="0.35em" transform="rotate(-90,0, 0)">1792-11</text>
      </g>
    </g>
    <g transform="translate(221.09,195.48)">
      <g class="primitive">
        <text text-anchor="end" dy="0.35em" transform="rotate(-90,0, 0)">1792-12</text>
      </g>
    </g>
    <g transform="translate(227.91,195.48)">
      <g class="primitive">
        <text text-anchor="end" dy="0.35em" transform="rotate(-90,0, 0)">1793-01</text>
      </g>
    </g>
    <g transform="translate(234.73,195.48)">
      <g class="primitive">
        <text text-anchor="end" dy="0.35em" transform="rotate(-90,0, 0)">1793-02</text>
      </g>
    </g>
    <g transform="translate(241.55,195.48)">
      <g class="primitive">
        <text text-anchor="end" dy="0.35em" transform="rotate(-90,0, 0)">1793-03</text>
      </g>
    </g>
    <g transform="translate(248.37,195.48)">
      <g class="primitive">
        <text text-anchor="end" dy="0.35em" transform="rotate(-90,0, 0)">1793-04</text>
      </g>
    </g>
    <g transform="translate(255.19,195.48)">
      <g class="primitive">
        <text text-anchor="end" dy="0.35em" transform="rotate(-90,0, 0)">1793-05</text>
      </g>
    </g>
    <g transform="translate(262.01,195.48)">
      <g class="primitive">
        <text text-anchor="end" dy="0.35em" transform="rotate(-90,0, 0)">1793-06</text>
      </g>
    </g>
    <g transform="translate(268.83,195.48)">
      <g class="primitive">
        <text text-anchor="end" dy="0.35em" transform="rotate(-90,0, 0)">1793-07</text>
      </g>
    </g>
    <g transform="translate(275.65,195.48)">
      <g class="primitive">
        <text text-anchor="end" dy="0.35em" transform="rotate(-90,0, 0)">1793-08</text>
      </g>
    </g>
    <g transform="translate(282.47,195.48)">
      <g class="primitive">
        <text text-anchor="end" dy="0.35em" transform="rotate(-90,0, 0)">1793-09</text>
      </g>
    </g>
    <g transform="translate(289.29,195.48)">
      <g class="primitive">
        <text text-anchor="end" dy="0.35em" transform="rotate(-90,0, 0)">1793-10</text>
      </g>
    </g>
    <g transform="translate(296.11,195.48)">
      <g class="primitive">
        <text text-anchor="end" dy="0.35em" transform="rotate(-90,0, 0)">1793-11</text>
      </g>
    </g>
    <g transform="translate(302.93,195.48)">
      <g class="primitive">
        <text text-anchor="end" dy="0.35em" transform="rotate(-90,0, 0)">1793-12</text>
      </g>
    </g>
    <g transform="translate(309.75,195.48)">
      <g class="primitive">
        <text text-anchor="end" dy="0.35em" transform="rotate(-90,0, 0)">1794-01</text>
      </g>
    </g>
    <g transform="translate(316.57,195.48)">
      <g class="primitive">
        <text text-anchor="end" dy="0.35em" transform="rotate(-90,0, 0)">1794-02</text>
      </g>
    </g>
    <g transform="translate(323.39,195.48)">
      <g class="primitive">
        <text text-anchor="end" dy="0.35em" transform="rotate(-90,0, 0)">1794-03</text>
      </g>
    </g>
    <g transform="translate(330.21,195.48)">
      <g class="primitive">
        <text text-anchor="end" dy="0.35em" transform="rotate(-90,0, 0)">1794-04</text>
      </g>
    </g>
    <g transform="translate(337.03,195.48)">
      <g class="primitive">
        <text text-anchor="end" dy="0.35em" transform="rotate(-90,0, 0)">1794-05</text>
      </g>
    </g>
    <g transform="translate(343.85,195.48)">
      <g class="primitive">
        <text text-anchor="end" dy="0.35em" transform="rotate(-90,0, 0)">1794-06</text>
      </g>
    </g>
    <g transform="translate(350.67,195.48)">
      <g class="primitive">
        <text text-anchor="end" dy="0.35em" transform="rotate(-90,0, 0)">1794-07</text>
      </g>
    </g>
    <g transform="translate(357.49,195.48)">
      <g class="primitive">
        <text text-anchor="end" dy="0.35em" transform="rotate(-90,0, 0)">1794-08</text>
      </g>
    </g>
    <g transform="translate(364.31,195.48)">
      <g class="primitive">
        <text text-anchor="end" dy="0.35em" transform="rotate(-90,0, 0)">1794-09</text>
      </g>
    </g>
    <g transform="translate(371.13,195.48)">
      <g class="primitive">
        <text text-anchor="end" dy="0.35em" transform="rotate(-90,0, 0)">1794-10</text>
      </g>
    </g>
    <g transform="translate(377.95,195.48)">
      <g class="primitive">
        <text text-anchor="end" dy="0.35em" transform="rotate(-90,0, 0)">1794-11</text>
      </g>
    </g>
    <g transform="translate(384.77,195.48)">
      <g class="primitive">
        <text text-anchor="end" dy="0.35em" transform="rotate(-90,0, 0)">1794-12</text>
      </g>
    </g>
    <g transform="translate(391.59,195.48)">
      <g class="primitive">
        <text text-anchor="end" dy="0.35em" transform="rotate(-90,0, 0)">post-1795</text>
      </g>
    </g>
  </g>
  <g clip-path="url(#img-78f8c233-5)">
    <g id="img-78f8c233-6">
      <g pointer-events="visible" stroke-width="0.3" fill="#000000" fill-opacity="0.000" stroke="#000000" stroke-opacity="0.000" class="guide background" id="img-78f8c233-7">
        <g transform="translate(210.86,102.54)" id="img-78f8c233-8">
          <path d="M-184.14,-91.93 L184.14,-91.93 184.14,91.93 -184.14,91.93  z" class="primitive"/>
        </g>
      </g>
      <g class="guide ygridlines xfixed" stroke-dasharray="0.5,0.5" stroke-width="0.2" stroke="#D0D0E0" id="img-78f8c233-9">
        <g transform="translate(210.86,192.48)" id="img-78f8c233-10">
          <path fill="none" d="M-184.14,0 L184.14,0 " class="primitive"/>
        </g>
        <g transform="translate(210.86,147.51)" id="img-78f8c233-11">
          <path fill="none" d="M-184.14,0 L184.14,0 " class="primitive"/>
        </g>
        <g transform="translate(210.86,102.54)" id="img-78f8c233-12">
          <path fill="none" d="M-184.14,0 L184.14,0 " class="primitive"/>
        </g>
        <g transform="translate(210.86,57.58)" id="img-78f8c233-13">
          <path fill="none" d="M-184.14,0 L184.14,0 " class="primitive"/>
        </g>
        <g transform="translate(210.86,12.61)" id="img-78f8c233-14">
          <path fill="none" d="M-184.14,0 L184.14,0 " class="primitive"/>
        </g>
      </g>
      <g class="guide xgridlines yfixed" stroke-dasharray="0.5,0.5" stroke-width="0.2" stroke="#D0D0E0" id="img-78f8c233-15">
        <g transform="translate(33.54,102.54)" id="img-78f8c233-16">
          <path fill="none" d="M0,-91.93 L0,91.93 " class="primitive"/>
        </g>
        <g transform="translate(40.36,102.54)" id="img-78f8c233-17">
          <path fill="none" d="M0,-91.93 L0,91.93 " class="primitive"/>
        </g>
        <g transform="translate(47.18,102.54)" id="img-78f8c233-18">
          <path fill="none" d="M0,-91.93 L0,91.93 " class="primitive"/>
        </g>
        <g transform="translate(54,102.54)" id="img-78f8c233-19">
          <path fill="none" d="M0,-91.93 L0,91.93 " class="primitive"/>
        </g>
        <g transform="translate(60.82,102.54)" id="img-78f8c233-20">
          <path fill="none" d="M0,-91.93 L0,91.93 " class="primitive"/>
        </g>
        <g transform="translate(67.64,102.54)" id="img-78f8c233-21">
          <path fill="none" d="M0,-91.93 L0,91.93 " class="primitive"/>
        </g>
        <g transform="translate(74.46,102.54)" id="img-78f8c233-22">
          <path fill="none" d="M0,-91.93 L0,91.93 " class="primitive"/>
        </g>
        <g transform="translate(81.28,102.54)" id="img-78f8c233-23">
          <path fill="none" d="M0,-91.93 L0,91.93 " class="primitive"/>
        </g>
        <g transform="translate(88.1,102.54)" id="img-78f8c233-24">
          <path fill="none" d="M0,-91.93 L0,91.93 " class="primitive"/>
        </g>
        <g transform="translate(94.92,102.54)" id="img-78f8c233-25">
          <path fill="none" d="M0,-91.93 L0,91.93 " class="primitive"/>
        </g>
        <g transform="translate(101.74,102.54)" id="img-78f8c233-26">
          <path fill="none" d="M0,-91.93 L0,91.93 " class="primitive"/>
        </g>
        <g transform="translate(108.56,102.54)" id="img-78f8c233-27">
          <path fill="none" d="M0,-91.93 L0,91.93 " class="primitive"/>
        </g>
        <g transform="translate(115.38,102.54)" id="img-78f8c233-28">
          <path fill="none" d="M0,-91.93 L0,91.93 " class="primitive"/>
        </g>
        <g transform="translate(122.2,102.54)" id="img-78f8c233-29">
          <path fill="none" d="M0,-91.93 L0,91.93 " class="primitive"/>
        </g>
        <g transform="translate(129.02,102.54)" id="img-78f8c233-30">
          <path fill="none" d="M0,-91.93 L0,91.93 " class="primitive"/>
        </g>
        <g transform="translate(135.84,102.54)" id="img-78f8c233-31">
          <path fill="none" d="M0,-91.93 L0,91.93 " class="primitive"/>
        </g>
        <g transform="translate(142.66,102.54)" id="img-78f8c233-32">
          <path fill="none" d="M0,-91.93 L0,91.93 " class="primitive"/>
        </g>
        <g transform="translate(149.48,102.54)" id="img-78f8c233-33">
          <path fill="none" d="M0,-91.93 L0,91.93 " class="primitive"/>
        </g>
        <g transform="translate(156.3,102.54)" id="img-78f8c233-34">
          <path fill="none" d="M0,-91.93 L0,91.93 " class="primitive"/>
        </g>
        <g transform="translate(163.12,102.54)" id="img-78f8c233-35">
          <path fill="none" d="M0,-91.93 L0,91.93 " class="primitive"/>
        </g>
        <g transform="translate(169.94,102.54)" id="img-78f8c233-36">
          <path fill="none" d="M0,-91.93 L0,91.93 " class="primitive"/>
        </g>
        <g transform="translate(176.76,102.54)" id="img-78f8c233-37">
          <path fill="none" d="M0,-91.93 L0,91.93 " class="primitive"/>
        </g>
        <g transform="translate(183.58,102.54)" id="img-78f8c233-38">
          <path fill="none" d="M0,-91.93 L0,91.93 " class="primitive"/>
        </g>
        <g transform="translate(190.4,102.54)" id="img-78f8c233-39">
          <path fill="none" d="M0,-91.93 L0,91.93 " class="primitive"/>
        </g>
        <g transform="translate(197.22,102.54)" id="img-78f8c233-40">
          <path fill="none" d="M0,-91.93 L0,91.93 " class="primitive"/>
        </g>
        <g transform="translate(204.04,102.54)" id="img-78f8c233-41">
          <path fill="none" d="M0,-91.93 L0,91.93 " class="primitive"/>
        </g>
        <g transform="translate(210.86,102.54)" id="img-78f8c233-42">
          <path fill="none" d="M0,-91.93 L0,91.93 " class="primitive"/>
        </g>
        <g transform="translate(217.68,102.54)" id="img-78f8c233-43">
          <path fill="none" d="M0,-91.93 L0,91.93 " class="primitive"/>
        </g>
        <g transform="translate(224.5,102.54)" id="img-78f8c233-44">
          <path fill="none" d="M0,-91.93 L0,91.93 " class="primitive"/>
        </g>
        <g transform="translate(231.32,102.54)" id="img-78f8c233-45">
          <path fill="none" d="M0,-91.93 L0,91.93 " class="primitive"/>
        </g>
        <g transform="translate(238.14,102.54)" id="img-78f8c233-46">
          <path fill="none" d="M0,-91.93 L0,91.93 " class="primitive"/>
        </g>
        <g transform="translate(244.96,102.54)" id="img-78f8c233-47">
          <path fill="none" d="M0,-91.93 L0,91.93 " class="primitive"/>
        </g>
        <g transform="translate(251.78,102.54)" id="img-78f8c233-48">
          <path fill="none" d="M0,-91.93 L0,91.93 " class="primitive"/>
        </g>
        <g transform="translate(258.6,102.54)" id="img-78f8c233-49">
          <path fill="none" d="M0,-91.93 L0,91.93 " class="primitive"/>
        </g>
        <g transform="translate(265.42,102.54)" id="img-78f8c233-50">
          <path fill="none" d="M0,-91.93 L0,91.93 " class="primitive"/>
        </g>
        <g transform="translate(272.24,102.54)" id="img-78f8c233-51">
          <path fill="none" d="M0,-91.93 L0,91.93 " class="primitive"/>
        </g>
        <g transform="translate(279.06,102.54)" id="img-78f8c233-52">
          <path fill="none" d="M0,-91.93 L0,91.93 " class="primitive"/>
        </g>
        <g transform="translate(285.88,102.54)" id="img-78f8c233-53">
          <path fill="none" d="M0,-91.93 L0,91.93 " class="primitive"/>
        </g>
        <g transform="translate(292.7,102.54)" id="img-78f8c233-54">
          <path fill="none" d="M0,-91.93 L0,91.93 " class="primitive"/>
        </g>
        <g transform="translate(299.52,102.54)" id="img-78f8c233-55">
          <path fill="none" d="M0,-91.93 L0,91.93 " class="primitive"/>
        </g>
        <g transform="translate(306.34,102.54)" id="img-78f8c233-56">
          <path fill="none" d="M0,-91.93 L0,91.93 " class="primitive"/>
        </g>
        <g transform="translate(313.16,102.54)" id="img-78f8c233-57">
          <path fill="none" d="M0,-91.93 L0,91.93 " class="primitive"/>
        </g>
        <g transform="translate(319.98,102.54)" id="img-78f8c233-58">
          <path fill="none" d="M0,-91.93 L0,91.93 " class="primitive"/>
        </g>
        <g transform="translate(326.8,102.54)" id="img-78f8c233-59">
          <path fill="none" d="M0,-91.93 L0,91.93 " class="primitive"/>
        </g>
        <g transform="translate(333.62,102.54)" id="img-78f8c233-60">
          <path fill="none" d="M0,-91.93 L0,91.93 " class="primitive"/>
        </g>
        <g transform="translate(340.44,102.54)" id="img-78f8c233-61">
          <path fill="none" d="M0,-91.93 L0,91.93 " class="primitive"/>
        </g>
        <g transform="translate(347.26,102.54)" id="img-78f8c233-62">
          <path fill="none" d="M0,-91.93 L0,91.93 " class="primitive"/>
        </g>
        <g transform="translate(354.08,102.54)" id="img-78f8c233-63">
          <path fill="none" d="M0,-91.93 L0,91.93 " class="primitive"/>
        </g>
        <g transform="translate(360.9,102.54)" id="img-78f8c233-64">
          <path fill="none" d="M0,-91.93 L0,91.93 " class="primitive"/>
        </g>
        <g transform="translate(367.72,102.54)" id="img-78f8c233-65">
          <path fill="none" d="M0,-91.93 L0,91.93 " class="primitive"/>
        </g>
        <g transform="translate(374.54,102.54)" id="img-78f8c233-66">
          <path fill="none" d="M0,-91.93 L0,91.93 " class="primitive"/>
        </g>
        <g transform="translate(381.36,102.54)" id="img-78f8c233-67">
          <path fill="none" d="M0,-91.93 L0,91.93 " class="primitive"/>
        </g>
        <g transform="translate(388.18,102.54)" id="img-78f8c233-68">
          <path fill="none" d="M0,-91.93 L0,91.93 " class="primitive"/>
        </g>
      </g>
      <g class="plotpanel" id="img-78f8c233-69">
        <metadata>
          <boundingbox value="26.725000000000023mm 10.611666666666679mm 368.275mm 183.86333333333334mm"/>
          <unitbox value="0.5 808895.6429881947 54.0 -817791.2859763895"/>
        </metadata>
        <g shape-rendering="crispEdges" stroke-width="0.3" id="img-78f8c233-70">
          <g class="geometry" fill-opacity="1" stroke="#000000" stroke-opacity="0.000" fill="#00BFFF" id="img-78f8c233-71">
            <g transform="translate(30.13,190.29)" id="img-78f8c233-72">
              <path d="M-3.43,-2.18 L3.43,-2.18 3.43,2.18 -3.43,2.18  z" class="primitive"/>
            </g>
            <g transform="translate(36.95,192.48)" id="img-78f8c233-73">
              <path d="M-3.43,-0 L3.43,-0 3.43,0 -3.43,0  z" class="primitive"/>
            </g>
            <g transform="translate(43.77,137.38)" id="img-78f8c233-74">
              <path d="M-3.43,-55.09 L3.43,-55.09 3.43,55.09 -3.43,55.09  z" class="primitive"/>
            </g>
            <g transform="translate(50.59,160.73)" id="img-78f8c233-75">
              <path d="M-3.43,-31.75 L3.43,-31.75 3.43,31.75 -3.43,31.75  z" class="primitive"/>
            </g>
            <g transform="translate(57.41,155.53)" id="img-78f8c233-76">
              <path d="M-3.43,-36.94 L3.43,-36.94 3.43,36.94 -3.43,36.94  z" class="primitive"/>
            </g>
            <g transform="translate(64.23,158.58)" id="img-78f8c233-77">
              <path d="M-3.43,-33.9 L3.43,-33.9 3.43,33.9 -3.43,33.9  z" class="primitive"/>
            </g>
            <g transform="translate(71.05,151.16)" id="img-78f8c233-78">
              <path d="M-3.43,-41.32 L3.43,-41.32 3.43,41.32 -3.43,41.32  z" class="primitive"/>
            </g>
            <g transform="translate(77.87,112.65)" id="img-78f8c233-79">
              <path d="M-3.43,-79.83 L3.43,-79.83 3.43,79.83 -3.43,79.83  z" class="primitive"/>
            </g>
            <g transform="translate(84.69,135.39)" id="img-78f8c233-80">
              <path d="M-3.43,-57.08 L3.43,-57.08 3.43,57.08 -3.43,57.08  z" class="primitive"/>
            </g>
            <g transform="translate(91.51,148)" id="img-78f8c233-81">
              <path d="M-3.43,-44.47 L3.43,-44.47 3.43,44.47 -3.43,44.47  z" class="primitive"/>
            </g>
            <g transform="translate(98.33,154.99)" id="img-78f8c233-82">
              <path d="M-3.43,-37.49 L3.43,-37.49 3.43,37.49 -3.43,37.49  z" class="primitive"/>
            </g>
            <g transform="translate(105.15,140.45)" id="img-78f8c233-83">
              <path d="M-3.43,-52.03 L3.43,-52.03 3.43,52.03 -3.43,52.03  z" class="primitive"/>
            </g>
            <g transform="translate(111.97,143.73)" id="img-78f8c233-84">
              <path d="M-3.43,-48.74 L3.43,-48.74 3.43,48.74 -3.43,48.74  z" class="primitive"/>
            </g>
            <g transform="translate(118.79,109.58)" id="img-78f8c233-85">
              <path d="M-3.43,-82.89 L3.43,-82.89 3.43,82.89 -3.43,82.89  z" class="primitive"/>
            </g>
            <g transform="translate(125.61,173.72)" id="img-78f8c233-86">
              <path d="M-3.43,-18.75 L3.43,-18.75 3.43,18.75 -3.43,18.75  z" class="primitive"/>
            </g>
            <g transform="translate(132.43,153.35)" id="img-78f8c233-87">
              <path d="M-3.43,-39.13 L3.43,-39.13 3.43,39.13 -3.43,39.13  z" class="primitive"/>
            </g>
            <g transform="translate(139.25,138.38)" id="img-78f8c233-88">
              <path d="M-3.43,-54.1 L3.43,-54.1 3.43,54.1 -3.43,54.1  z" class="primitive"/>
            </g>
            <g transform="translate(146.07,183.15)" id="img-78f8c233-89">
              <path d="M-3.43,-9.33 L3.43,-9.33 3.43,9.33 -3.43,9.33  z" class="primitive"/>
            </g>
            <g transform="translate(152.89,175.9)" id="img-78f8c233-90">
              <path d="M-3.43,-16.58 L3.43,-16.58 3.43,16.58 -3.43,16.58  z" class="primitive"/>
            </g>
            <g transform="translate(159.71,187.49)" id="img-78f8c233-91">
              <path d="M-3.43,-4.99 L3.43,-4.99 3.43,4.99 -3.43,4.99  z" class="primitive"/>
            </g>
            <g transform="translate(166.53,189.08)" id="img-78f8c233-92">
              <path d="M-3.43,-3.39 L3.43,-3.39 3.43,3.39 -3.43,3.39  z" class="primitive"/>
            </g>
            <g transform="translate(173.35,179.74)" id="img-78f8c233-93">
              <path d="M-3.43,-12.73 L3.43,-12.73 3.43,12.73 -3.43,12.73  z" class="primitive"/>
            </g>
            <g transform="translate(180.17,177.64)" id="img-78f8c233-94">
              <path d="M-3.43,-14.84 L3.43,-14.84 3.43,14.84 -3.43,14.84  z" class="primitive"/>
            </g>
            <g transform="translate(186.99,180.62)" id="img-78f8c233-95">
              <path d="M-3.43,-11.86 L3.43,-11.86 3.43,11.86 -3.43,11.86  z" class="primitive"/>
            </g>
            <g transform="translate(193.81,185.79)" id="img-78f8c233-96">
              <path d="M-3.43,-6.69 L3.43,-6.69 3.43,6.69 -3.43,6.69  z" class="primitive"/>
            </g>
            <g transform="translate(200.63,182.76)" id="img-78f8c233-97">
              <path d="M-3.43,-9.71 L3.43,-9.71 3.43,9.71 -3.43,9.71  z" class="primitive"/>
            </g>
            <g transform="translate(207.45,182.08)" id="img-78f8c233-98">
              <path d="M-3.43,-10.4 L3.43,-10.4 3.43,10.4 -3.43,10.4  z" class="primitive"/>
            </g>
            <g transform="translate(214.27,187.56)" id="img-78f8c233-99">
              <path d="M-3.43,-4.91 L3.43,-4.91 3.43,4.91 -3.43,4.91  z" class="primitive"/>
            </g>
            <g transform="translate(221.09,189.72)" id="img-78f8c233-100">
              <path d="M-3.43,-2.75 L3.43,-2.75 3.43,2.75 -3.43,2.75  z" class="primitive"/>
            </g>
            <g transform="translate(227.91,185.23)" id="img-78f8c233-101">
              <path d="M-3.43,-7.25 L3.43,-7.25 3.43,7.25 -3.43,7.25  z" class="primitive"/>
            </g>
            <g transform="translate(234.73,186.61)" id="img-78f8c233-102">
              <path d="M-3.43,-5.87 L3.43,-5.87 3.43,5.87 -3.43,5.87  z" class="primitive"/>
            </g>
            <g transform="translate(241.55,185.93)" id="img-78f8c233-103">
              <path d="M-3.43,-6.54 L3.43,-6.54 3.43,6.54 -3.43,6.54  z" class="primitive"/>
            </g>
            <g transform="translate(248.37,187.59)" id="img-78f8c233-104">
              <path d="M-3.43,-4.88 L3.43,-4.88 3.43,4.88 -3.43,4.88  z" class="primitive"/>
            </g>
            <g transform="translate(255.19,181.34)" id="img-78f8c233-105">
              <path d="M-3.43,-11.14 L3.43,-11.14 3.43,11.14 -3.43,11.14  z" class="primitive"/>
            </g>
            <g transform="translate(262.01,191.58)" id="img-78f8c233-106">
              <path d="M-3.43,-0.9 L3.43,-0.9 3.43,0.9 -3.43,0.9  z" class="primitive"/>
            </g>
            <g transform="translate(268.83,187.3)" id="img-78f8c233-107">
              <path d="M-3.43,-5.17 L3.43,-5.17 3.43,5.17 -3.43,5.17  z" class="primitive"/>
            </g>
            <g transform="translate(275.65,191.26)" id="img-78f8c233-108">
              <path d="M-3.43,-1.22 L3.43,-1.22 3.43,1.22 -3.43,1.22  z" class="primitive"/>
            </g>
            <g transform="translate(282.47,191.32)" id="img-78f8c233-109">
              <path d="M-3.43,-1.15 L3.43,-1.15 3.43,1.15 -3.43,1.15  z" class="primitive"/>
            </g>
            <g transform="translate(289.29,191.81)" id="img-78f8c233-110">
              <path d="M-3.43,-0.66 L3.43,-0.66 3.43,0.66 -3.43,0.66  z" class="primitive"/>
            </g>
            <g transform="translate(296.11,192.45)" id="img-78f8c233-111">
              <path d="M-3.43,-0.03 L3.43,-0.03 3.43,0.03 -3.43,0.03  z" class="primitive"/>
            </g>
            <g transform="translate(302.93,179.32)" id="img-78f8c233-112">
              <path d="M-3.43,-13.16 L3.43,-13.16 3.43,13.16 -3.43,13.16  z" class="primitive"/>
            </g>
            <g transform="translate(309.75,189.77)" id="img-78f8c233-113">
              <path d="M-3.43,-2.7 L3.43,-2.7 3.43,2.7 -3.43,2.7  z" class="primitive"/>
            </g>
            <g transform="translate(316.57,190.42)" id="img-78f8c233-114">
              <path d="M-3.43,-2.06 L3.43,-2.06 3.43,2.06 -3.43,2.06  z" class="primitive"/>
            </g>
            <g transform="translate(323.39,180.55)" id="img-78f8c233-115">
              <path d="M-3.43,-11.93 L3.43,-11.93 3.43,11.93 -3.43,11.93  z" class="primitive"/>
            </g>
            <g transform="translate(330.21,191.19)" id="img-78f8c233-116">
              <path d="M-3.43,-1.29 L3.43,-1.29 3.43,1.29 -3.43,1.29  z" class="primitive"/>
            </g>
            <g transform="translate(337.03,191.2)" id="img-78f8c233-117">
              <path d="M-3.43,-1.27 L3.43,-1.27 3.43,1.27 -3.43,1.27  z" class="primitive"/>
            </g>
            <g transform="translate(343.85,190.14)" id="img-78f8c233-118">
              <path d="M-3.43,-2.34 L3.43,-2.34 3.43,2.34 -3.43,2.34  z" class="primitive"/>
            </g>
            <g transform="translate(350.67,190.48)" id="img-78f8c233-119">
              <path d="M-3.43,-1.99 L3.43,-1.99 3.43,1.99 -3.43,1.99  z" class="primitive"/>
            </g>
            <g transform="translate(357.49,191.77)" id="img-78f8c233-120">
              <path d="M-3.43,-0.7 L3.43,-0.7 3.43,0.7 -3.43,0.7  z" class="primitive"/>
            </g>
            <g transform="translate(364.31,187.83)" id="img-78f8c233-121">
              <path d="M-3.43,-4.64 L3.43,-4.64 3.43,4.64 -3.43,4.64  z" class="primitive"/>
            </g>
            <g transform="translate(371.13,158.77)" id="img-78f8c233-122">
              <path d="M-3.43,-33.71 L3.43,-33.71 3.43,33.71 -3.43,33.71  z" class="primitive"/>
            </g>
            <g transform="translate(377.95,168.34)" id="img-78f8c233-123">
              <path d="M-3.43,-24.13 L3.43,-24.13 3.43,24.13 -3.43,24.13  z" class="primitive"/>
            </g>
            <g transform="translate(384.77,192.27)" id="img-78f8c233-124">
              <path d="M-3.43,-0.21 L3.43,-0.21 3.43,0.21 -3.43,0.21  z" class="primitive"/>
            </g>
            <g transform="translate(391.59,150.74)" id="img-78f8c233-125">
              <path d="M-3.43,-41.74 L3.43,-41.74 3.43,41.74 -3.43,41.74  z" class="primitive"/>
            </g>
          </g>
        </g>
      </g>
    </g>
  </g>
  <g class="guide ylabels" font-size="2.82" font-family="'PT Sans Caption','Helvetica Neue','Helvetica',sans-serif" fill="#6C606B" id="img-78f8c233-126">
    <g transform="translate(25.72,192.48)" id="img-78f8c233-127">
      <g class="primitive">
        <text text-anchor="end" dy="0.35em">0</text>
      </g>
    </g>
    <g transform="translate(25.72,147.51)" id="img-78f8c233-128">
      <g class="primitive">
        <text text-anchor="end" dy="0.35em">2.0×10⁵</text>
      </g>
    </g>
    <g transform="translate(25.72,102.54)" id="img-78f8c233-129">
      <g class="primitive">
        <text text-anchor="end" dy="0.35em">4.0×10⁵</text>
      </g>
    </g>
    <g transform="translate(25.72,57.58)" id="img-78f8c233-130">
      <g class="primitive">
        <text text-anchor="end" dy="0.35em">6.0×10⁵</text>
      </g>
    </g>
    <g transform="translate(25.72,12.61)" id="img-78f8c233-131">
      <g class="primitive">
        <text text-anchor="end" dy="0.35em">8.0×10⁵</text>
      </g>
    </g>
  </g>
  <g font-size="3.88" font-family="'PT Sans','Helvetica Neue','Helvetica',sans-serif" fill="#564A55" stroke="#000000" stroke-opacity="0.000" id="img-78f8c233-132">
    <g transform="translate(8.81,100.54)" id="img-78f8c233-133">
      <g class="primitive">
        <text text-anchor="middle" dy="0.35em" transform="rotate(-90,0, 2)">Total Debt (in dollars)</text>
      </g>
    </g>
  </g>
  <g font-size="3.88" font-family="'PT Sans','Helvetica Neue','Helvetica',sans-serif" fill="#564A55" stroke="#000000" stroke-opacity="0.000" id="img-78f8c233-134">
    <g transform="translate(210.86,5)" id="img-78f8c233-135">
      <g class="primitive">
        <text text-anchor="middle" dy="0.6em">UNITED STATES Debt Redeemed Per Year/Month</text>
      </g>
    </g>
  </g>
</g>
<defs>
  <clipPath id="img-78f8c233-5">
    <path d="M26.73,10.61 L395,10.61 395,194.48 26.73,194.48 " />
  </clipPath>
</defs>
</svg>
