<?xml version="1.0" encoding="UTF-8"?>
<svg xmlns="http://www.w3.org/2000/svg"
     xmlns:xlink="http://www.w3.org/1999/xlink"
     xmlns:gadfly="http://www.gadflyjl.org/ns"
     version="1.2"
     width="400mm" height="225mm" viewBox="0 0 400 225"
     stroke="none"
     fill="#000000"
     stroke-width="0.3"
     font-size="3.88"
>
<defs>
  <marker id="arrow" markerWidth="15" markerHeight="7" refX="5" refY="3.5" orient="auto" markerUnits="strokeWidth">
    <path d="M0,0 L15,3.5 L0,7 z" stroke="context-stroke" fill="context-stroke"/>
  </marker>
</defs>
<g stroke="#000000" stroke-opacity="0.000" fill="#FFFFFF" id="img-0ccdca1f-1">
  <g transform="translate(200,112.5)">
    <path d="M-200,-112.5 L200,-112.5 200,112.5 -200,112.5  z" class="primitive"/>
  </g>
</g>
<g class="plotroot yscalable" id="img-0ccdca1f-2">
  <g font-size="3.88" font-family="'PT Sans','Helvetica Neue','Helvetica',sans-serif" fill="#564A55" stroke="#000000" stroke-opacity="0.000" id="img-0ccdca1f-3">
    <g transform="translate(210.86,213.39)">
      <g class="primitive">
        <text text-anchor="middle" dy="0.6em">Year</text>
      </g>
    </g>
  </g>
  <g class="guide xlabels" font-size="2.82" font-family="'PT Sans Caption','Helvetica Neue','Helvetica',sans-serif" fill="#6C606B" id="img-0ccdca1f-4">
    <g transform="translate(63.55,206.72)">
      <g class="primitive">
        <text text-anchor="middle" dy="0.6em">1790</text>
      </g>
    </g>
    <g transform="translate(137.21,206.72)">
      <g class="primitive">
        <text text-anchor="middle" dy="0.6em">1791</text>
      </g>
    </g>
    <g transform="translate(210.86,206.72)">
      <g class="primitive">
        <text text-anchor="middle" dy="0.6em">1792</text>
      </g>
    </g>
    <g transform="translate(284.52,206.72)">
      <g class="primitive">
        <text text-anchor="middle" dy="0.6em">1793</text>
      </g>
    </g>
    <g transform="translate(358.17,206.72)">
      <g class="primitive">
        <text text-anchor="middle" dy="0.6em">1794</text>
      </g>
    </g>
  </g>
  <g clip-path="url(#img-0ccdca1f-5)">
    <g id="img-0ccdca1f-6">
      <g pointer-events="visible" stroke-width="0.3" fill="#000000" fill-opacity="0.000" stroke="#000000" stroke-opacity="0.000" class="guide background" id="img-0ccdca1f-7">
        <g transform="translate(210.86,108.16)" id="img-0ccdca1f-8">
          <path d="M-184.14,-97.55 L184.14,-97.55 184.14,97.55 -184.14,97.55  z" class="primitive"/>
        </g>
      </g>
      <g class="guide ygridlines xfixed" stroke-dasharray="0.5,0.5" stroke-width="0.2" stroke="#D0D0E0" id="img-0ccdca1f-9">
        <g transform="translate(210.86,203.72)" id="img-0ccdca1f-10">
          <path fill="none" d="M-184.14,0 L184.14,0 " class="primitive"/>
        </g>
        <g transform="translate(210.86,140.01)" id="img-0ccdca1f-11">
          <path fill="none" d="M-184.14,0 L184.14,0 " class="primitive"/>
        </g>
        <g transform="translate(210.86,76.31)" id="img-0ccdca1f-12">
          <path fill="none" d="M-184.14,0 L184.14,0 " class="primitive"/>
        </g>
        <g transform="translate(210.86,12.61)" id="img-0ccdca1f-13">
          <path fill="none" d="M-184.14,0 L184.14,0 " class="primitive"/>
        </g>
      </g>
      <g class="guide xgridlines yfixed" stroke-dasharray="0.5,0.5" stroke-width="0.2" stroke="#D0D0E0" id="img-0ccdca1f-14">
        <g transform="translate(100.38,108.16)" id="img-0ccdca1f-15">
          <path fill="none" d="M0,-97.55 L0,97.55 " class="primitive"/>
        </g>
        <g transform="translate(174.04,108.16)" id="img-0ccdca1f-16">
          <path fill="none" d="M0,-97.55 L0,97.55 " class="primitive"/>
        </g>
        <g transform="translate(247.69,108.16)" id="img-0ccdca1f-17">
          <path fill="none" d="M0,-97.55 L0,97.55 " class="primitive"/>
        </g>
        <g transform="translate(321.35,108.16)" id="img-0ccdca1f-18">
          <path fill="none" d="M0,-97.55 L0,97.55 " class="primitive"/>
        </g>
      </g>
      <g class="plotpanel" id="img-0ccdca1f-19">
        <metadata>
          <boundingbox value="26.725000000000023mm 10.611666666666679mm 368.275mm 195.10333333333335mm"/>
          <unitbox value="0.5 30313.96626606897 5.0 -30627.932532137933"/>
        </metadata>
        <g shape-rendering="crispEdges" stroke-width="0.3" id="img-0ccdca1f-20">
          <g class="geometry" fill-opacity="1" stroke="#000000" stroke-opacity="0.000" fill="#00BFFF" id="img-0ccdca1f-21">
            <g transform="translate(63.55,196.46)" id="img-0ccdca1f-22">
              <path d="M-36.85,-7.25 L36.85,-7.25 36.85,7.25 -36.85,7.25  z" class="primitive"/>
            </g>
            <g transform="translate(137.21,182.22)" id="img-0ccdca1f-23">
              <path d="M-36.85,-21.5 L36.85,-21.5 36.85,21.5 -36.85,21.5  z" class="primitive"/>
            </g>
            <g transform="translate(137.21,199.83)" id="img-0ccdca1f-24">
              <path d="M-36.85,-3.88 L36.85,-3.88 36.85,3.88 -36.85,3.88  z" class="primitive"/>
            </g>
            <g transform="translate(137.21,192.82)" id="img-0ccdca1f-25">
              <path d="M-36.85,-10.89 L36.85,-10.89 36.85,10.89 -36.85,10.89  z" class="primitive"/>
            </g>
            <g transform="translate(137.21,137.62)" id="img-0ccdca1f-26">
              <path d="M-36.85,-66.1 L36.85,-66.1 36.85,66.1 -36.85,66.1  z" class="primitive"/>
            </g>
            <g transform="translate(137.21,160.58)" id="img-0ccdca1f-27">
              <path d="M-36.85,-43.13 L36.85,-43.13 36.85,43.13 -36.85,43.13  z" class="primitive"/>
            </g>
            <g transform="translate(137.21,142.99)" id="img-0ccdca1f-28">
              <path d="M-36.85,-60.72 L36.85,-60.72 36.85,60.72 -36.85,60.72  z" class="primitive"/>
            </g>
            <g transform="translate(137.21,110.56)" id="img-0ccdca1f-29">
              <path d="M-36.85,-93.15 L36.85,-93.15 36.85,93.15 -36.85,93.15  z" class="primitive"/>
            </g>
            <g transform="translate(137.21,198.37)" id="img-0ccdca1f-30">
              <path d="M-36.85,-5.34 L36.85,-5.34 36.85,5.34 -36.85,5.34  z" class="primitive"/>
            </g>
            <g transform="translate(137.21,203.5)" id="img-0ccdca1f-31">
              <path d="M-36.85,-0.22 L36.85,-0.22 36.85,0.22 -36.85,0.22  z" class="primitive"/>
            </g>
            <g transform="translate(210.86,198.34)" id="img-0ccdca1f-32">
              <path d="M-36.85,-5.37 L36.85,-5.37 36.85,5.37 -36.85,5.37  z" class="primitive"/>
            </g>
            <g transform="translate(210.86,203.59)" id="img-0ccdca1f-33">
              <path d="M-36.85,-0.12 L36.85,-0.12 36.85,0.12 -36.85,0.12  z" class="primitive"/>
            </g>
            <g transform="translate(210.86,200.9)" id="img-0ccdca1f-34">
              <path d="M-36.85,-2.81 L36.85,-2.81 36.85,2.81 -36.85,2.81  z" class="primitive"/>
            </g>
            <g transform="translate(210.86,201.08)" id="img-0ccdca1f-35">
              <path d="M-36.85,-2.63 L36.85,-2.63 36.85,2.63 -36.85,2.63  z" class="primitive"/>
            </g>
            <g transform="translate(210.86,202.02)" id="img-0ccdca1f-36">
              <path d="M-36.85,-1.69 L36.85,-1.69 36.85,1.69 -36.85,1.69  z" class="primitive"/>
            </g>
            <g transform="translate(284.52,200.67)" id="img-0ccdca1f-37">
              <path d="M-36.85,-3.05 L36.85,-3.05 36.85,3.05 -36.85,3.05  z" class="primitive"/>
            </g>
            <g transform="translate(284.52,203.43)" id="img-0ccdca1f-38">
              <path d="M-36.85,-0.29 L36.85,-0.29 36.85,0.29 -36.85,0.29  z" class="primitive"/>
            </g>
            <g transform="translate(358.17,203.63)" id="img-0ccdca1f-39">
              <path d="M-36.85,-0.09 L36.85,-0.09 36.85,0.09 -36.85,0.09  z" class="primitive"/>
            </g>
            <g transform="translate(358.17,127.32)" id="img-0ccdca1f-40">
              <path d="M-36.85,-76.4 L36.85,-76.4 36.85,76.4 -36.85,76.4  z" class="primitive"/>
            </g>
          </g>
        </g>
      </g>
    </g>
  </g>
  <g class="guide ylabels" font-size="2.82" font-family="'PT Sans Caption','Helvetica Neue','Helvetica',sans-serif" fill="#6C606B" id="img-0ccdca1f-41">
    <g transform="translate(25.72,203.72)" id="img-0ccdca1f-42">
      <g class="primitive">
        <text text-anchor="end" dy="0.35em">0</text>
      </g>
    </g>
    <g transform="translate(25.72,140.01)" id="img-0ccdca1f-43">
      <g class="primitive">
        <text text-anchor="end" dy="0.35em">1.0×10⁴</text>
      </g>
    </g>
    <g transform="translate(25.72,76.31)" id="img-0ccdca1f-44">
      <g class="primitive">
        <text text-anchor="end" dy="0.35em">2.0×10⁴</text>
      </g>
    </g>
    <g transform="translate(25.72,12.61)" id="img-0ccdca1f-45">
      <g class="primitive">
        <text text-anchor="end" dy="0.35em">3.0×10⁴</text>
      </g>
    </g>
  </g>
  <g font-size="3.88" font-family="'PT Sans','Helvetica Neue','Helvetica',sans-serif" fill="#564A55" stroke="#000000" stroke-opacity="0.000" id="img-0ccdca1f-46">
    <g transform="translate(8.81,106.16)" id="img-0ccdca1f-47">
      <g class="primitive">
        <text text-anchor="middle" dy="0.35em" transform="rotate(-90,0, 2)">Total Debt (in dollars)</text>
      </g>
    </g>
  </g>
  <g font-size="3.88" font-family="'PT Sans','Helvetica Neue','Helvetica',sans-serif" fill="#564A55" stroke="#000000" stroke-opacity="0.000" id="img-0ccdca1f-48">
    <g transform="translate(210.86,5)" id="img-0ccdca1f-49">
      <g class="primitive">
        <text text-anchor="middle" dy="0.6em">GA Debt Redeemed Per Year</text>
      </g>
    </g>
  </g>
</g>
<defs>
  <clipPath id="img-0ccdca1f-5">
    <path d="M26.73,10.61 L395,10.61 395,205.72 26.73,205.72 " />
  </clipPath>
</defs>
</svg>
