<?xml version="1.0" encoding="UTF-8"?>
<svg xmlns="http://www.w3.org/2000/svg"
     xmlns:xlink="http://www.w3.org/1999/xlink"
     xmlns:gadfly="http://www.gadflyjl.org/ns"
     version="1.2"
     width="400mm" height="225mm" viewBox="0 0 400 225"
     stroke="none"
     fill="#000000"
     stroke-width="0.3"
     font-size="3.88"
>
<defs>
  <marker id="arrow" markerWidth="15" markerHeight="7" refX="5" refY="3.5" orient="auto" markerUnits="strokeWidth">
    <path d="M0,0 L15,3.5 L0,7 z" stroke="context-stroke" fill="context-stroke"/>
  </marker>
</defs>
<g stroke="#000000" stroke-opacity="0.000" fill="#FFFFFF" id="img-c27bbbb6-1">
  <g transform="translate(200,112.5)">
    <path d="M-200,-112.5 L200,-112.5 200,112.5 -200,112.5  z" class="primitive"/>
  </g>
</g>
<g class="plotroot yscalable" id="img-c27bbbb6-2">
  <g font-size="3.88" font-family="'PT Sans','Helvetica Neue','Helvetica',sans-serif" fill="#564A55" stroke="#000000" stroke-opacity="0.000" id="img-c27bbbb6-3">
    <g transform="translate(211.7,213.39)">
      <g class="primitive">
        <text text-anchor="middle" dy="0.6em">Year</text>
      </g>
    </g>
  </g>
  <g class="guide xlabels" font-size="2.82" font-family="'PT Sans Caption','Helvetica Neue','Helvetica',sans-serif" fill="#6C606B" id="img-c27bbbb6-4">
    <g transform="translate(51.31,206.72)">
      <g class="primitive">
        <text text-anchor="middle" dy="0.6em">1790</text>
      </g>
    </g>
    <g transform="translate(97.14,206.72)">
      <g class="primitive">
        <text text-anchor="middle" dy="0.6em">1791</text>
      </g>
    </g>
    <g transform="translate(142.96,206.72)">
      <g class="primitive">
        <text text-anchor="middle" dy="0.6em">1792</text>
      </g>
    </g>
    <g transform="translate(188.79,206.72)">
      <g class="primitive">
        <text text-anchor="middle" dy="0.6em">1793</text>
      </g>
    </g>
    <g transform="translate(234.61,206.72)">
      <g class="primitive">
        <text text-anchor="middle" dy="0.6em">1794</text>
      </g>
    </g>
    <g transform="translate(280.44,206.72)">
      <g class="primitive">
        <text text-anchor="middle" dy="0.6em">1795</text>
      </g>
    </g>
    <g transform="translate(326.26,206.72)">
      <g class="primitive">
        <text text-anchor="middle" dy="0.6em">1796</text>
      </g>
    </g>
    <g transform="translate(372.09,206.72)">
      <g class="primitive">
        <text text-anchor="middle" dy="0.6em">1797</text>
      </g>
    </g>
  </g>
  <g clip-path="url(#img-c27bbbb6-5)">
    <g id="img-c27bbbb6-6">
      <g pointer-events="visible" stroke-width="0.3" fill="#000000" fill-opacity="0.000" stroke="#000000" stroke-opacity="0.000" class="guide background" id="img-c27bbbb6-7">
        <g transform="translate(211.7,108.16)" id="img-c27bbbb6-8">
          <path d="M-183.3,-97.55 L183.3,-97.55 183.3,97.55 -183.3,97.55  z" class="primitive"/>
        </g>
      </g>
      <g class="guide ygridlines xfixed" stroke-dasharray="0.5,0.5" stroke-width="0.2" stroke="#D0D0E0" id="img-c27bbbb6-9">
        <g transform="translate(211.7,203.72)" id="img-c27bbbb6-10">
          <path fill="none" d="M-183.3,0 L183.3,0 " class="primitive"/>
        </g>
        <g transform="translate(211.7,155.94)" id="img-c27bbbb6-11">
          <path fill="none" d="M-183.3,0 L183.3,0 " class="primitive"/>
        </g>
        <g transform="translate(211.7,108.16)" id="img-c27bbbb6-12">
          <path fill="none" d="M-183.3,0 L183.3,0 " class="primitive"/>
        </g>
        <g transform="translate(211.7,60.39)" id="img-c27bbbb6-13">
          <path fill="none" d="M-183.3,0 L183.3,0 " class="primitive"/>
        </g>
        <g transform="translate(211.7,12.61)" id="img-c27bbbb6-14">
          <path fill="none" d="M-183.3,0 L183.3,0 " class="primitive"/>
        </g>
      </g>
      <g class="guide xgridlines yfixed" stroke-dasharray="0.5,0.5" stroke-width="0.2" stroke="#D0D0E0" id="img-c27bbbb6-15">
        <g transform="translate(74.22,108.16)" id="img-c27bbbb6-16">
          <path fill="none" d="M0,-97.55 L0,97.55 " class="primitive"/>
        </g>
        <g transform="translate(120.05,108.16)" id="img-c27bbbb6-17">
          <path fill="none" d="M0,-97.55 L0,97.55 " class="primitive"/>
        </g>
        <g transform="translate(165.87,108.16)" id="img-c27bbbb6-18">
          <path fill="none" d="M0,-97.55 L0,97.55 " class="primitive"/>
        </g>
        <g transform="translate(211.7,108.16)" id="img-c27bbbb6-19">
          <path fill="none" d="M0,-97.55 L0,97.55 " class="primitive"/>
        </g>
        <g transform="translate(257.52,108.16)" id="img-c27bbbb6-20">
          <path fill="none" d="M0,-97.55 L0,97.55 " class="primitive"/>
        </g>
        <g transform="translate(303.35,108.16)" id="img-c27bbbb6-21">
          <path fill="none" d="M0,-97.55 L0,97.55 " class="primitive"/>
        </g>
        <g transform="translate(349.17,108.16)" id="img-c27bbbb6-22">
          <path fill="none" d="M0,-97.55 L0,97.55 " class="primitive"/>
        </g>
      </g>
      <g class="plotpanel" id="img-c27bbbb6-23">
        <metadata>
          <boundingbox value="28.39833333333337mm 10.611666666666679mm 366.6016666666667mm 195.10333333333335mm"/>
          <unitbox value="0.5 202093.1084404598 8.0 -204186.21688091956"/>
        </metadata>
        <g shape-rendering="crispEdges" stroke-width="0.3" id="img-c27bbbb6-24">
          <g class="geometry" fill-opacity="1" stroke="#000000" stroke-opacity="0.000" fill="#00BFFF" id="img-c27bbbb6-25">
            <g transform="translate(51.31,169.8)" id="img-c27bbbb6-26">
              <path d="M-22.94,-33.91 L22.94,-33.91 22.94,33.91 -22.94,33.91  z" class="primitive"/>
            </g>
            <g transform="translate(51.31,186.81)" id="img-c27bbbb6-27">
              <path d="M-22.94,-16.9 L22.94,-16.9 22.94,16.9 -22.94,16.9  z" class="primitive"/>
            </g>
            <g transform="translate(51.31,187.62)" id="img-c27bbbb6-28">
              <path d="M-22.94,-16.1 L22.94,-16.1 22.94,16.1 -22.94,16.1  z" class="primitive"/>
            </g>
            <g transform="translate(97.14,190.4)" id="img-c27bbbb6-29">
              <path d="M-22.94,-13.32 L22.94,-13.32 22.94,13.32 -22.94,13.32  z" class="primitive"/>
            </g>
            <g transform="translate(97.14,189.72)" id="img-c27bbbb6-30">
              <path d="M-22.94,-13.99 L22.94,-13.99 22.94,13.99 -22.94,13.99  z" class="primitive"/>
            </g>
            <g transform="translate(97.14,175.72)" id="img-c27bbbb6-31">
              <path d="M-22.94,-27.99 L22.94,-27.99 22.94,27.99 -22.94,27.99  z" class="primitive"/>
            </g>
            <g transform="translate(97.14,123.36)" id="img-c27bbbb6-32">
              <path d="M-22.94,-80.36 L22.94,-80.36 22.94,80.36 -22.94,80.36  z" class="primitive"/>
            </g>
            <g transform="translate(97.14,190.69)" id="img-c27bbbb6-33">
              <path d="M-22.94,-13.02 L22.94,-13.02 22.94,13.02 -22.94,13.02  z" class="primitive"/>
            </g>
            <g transform="translate(97.14,199.98)" id="img-c27bbbb6-34">
              <path d="M-22.94,-3.74 L22.94,-3.74 22.94,3.74 -22.94,3.74  z" class="primitive"/>
            </g>
            <g transform="translate(97.14,200.35)" id="img-c27bbbb6-35">
              <path d="M-22.94,-3.36 L22.94,-3.36 22.94,3.36 -22.94,3.36  z" class="primitive"/>
            </g>
            <g transform="translate(97.14,194.22)" id="img-c27bbbb6-36">
              <path d="M-22.94,-9.49 L22.94,-9.49 22.94,9.49 -22.94,9.49  z" class="primitive"/>
            </g>
            <g transform="translate(97.14,143.66)" id="img-c27bbbb6-37">
              <path d="M-22.94,-60.06 L22.94,-60.06 22.94,60.06 -22.94,60.06  z" class="primitive"/>
            </g>
            <g transform="translate(97.14,189.23)" id="img-c27bbbb6-38">
              <path d="M-22.94,-14.48 L22.94,-14.48 22.94,14.48 -22.94,14.48  z" class="primitive"/>
            </g>
            <g transform="translate(97.14,202.35)" id="img-c27bbbb6-39">
              <path d="M-22.94,-1.36 L22.94,-1.36 22.94,1.36 -22.94,1.36  z" class="primitive"/>
            </g>
            <g transform="translate(97.14,203.72)" id="img-c27bbbb6-40">
              <path d="M-22.94,-0 L22.94,-0 22.94,0 -22.94,0  z" class="primitive"/>
            </g>
            <g transform="translate(142.96,203.22)" id="img-c27bbbb6-41">
              <path d="M-22.94,-0.5 L22.94,-0.5 22.94,0.5 -22.94,0.5  z" class="primitive"/>
            </g>
            <g transform="translate(142.96,203.71)" id="img-c27bbbb6-42">
              <path d="M-22.94,-0.01 L22.94,-0.01 22.94,0.01 -22.94,0.01  z" class="primitive"/>
            </g>
            <g transform="translate(142.96,203.72)" id="img-c27bbbb6-43">
              <path d="M-22.94,-0 L22.94,-0 22.94,0 -22.94,0  z" class="primitive"/>
            </g>
            <g transform="translate(142.96,202.9)" id="img-c27bbbb6-44">
              <path d="M-22.94,-0.82 L22.94,-0.82 22.94,0.82 -22.94,0.82  z" class="primitive"/>
            </g>
            <g transform="translate(142.96,203.26)" id="img-c27bbbb6-45">
              <path d="M-22.94,-0.46 L22.94,-0.46 22.94,0.46 -22.94,0.46  z" class="primitive"/>
            </g>
            <g transform="translate(142.96,203.4)" id="img-c27bbbb6-46">
              <path d="M-22.94,-0.32 L22.94,-0.32 22.94,0.32 -22.94,0.32  z" class="primitive"/>
            </g>
            <g transform="translate(142.96,203.66)" id="img-c27bbbb6-47">
              <path d="M-22.94,-0.05 L22.94,-0.05 22.94,0.05 -22.94,0.05  z" class="primitive"/>
            </g>
            <g transform="translate(142.96,203.43)" id="img-c27bbbb6-48">
              <path d="M-22.94,-0.28 L22.94,-0.28 22.94,0.28 -22.94,0.28  z" class="primitive"/>
            </g>
            <g transform="translate(142.96,203.4)" id="img-c27bbbb6-49">
              <path d="M-22.94,-0.31 L22.94,-0.31 22.94,0.31 -22.94,0.31  z" class="primitive"/>
            </g>
            <g transform="translate(142.96,203.11)" id="img-c27bbbb6-50">
              <path d="M-22.94,-0.6 L22.94,-0.6 22.94,0.6 -22.94,0.6  z" class="primitive"/>
            </g>
            <g transform="translate(188.79,203.66)" id="img-c27bbbb6-51">
              <path d="M-22.94,-0.05 L22.94,-0.05 22.94,0.05 -22.94,0.05  z" class="primitive"/>
            </g>
            <g transform="translate(188.79,201.68)" id="img-c27bbbb6-52">
              <path d="M-22.94,-2.03 L22.94,-2.03 22.94,2.03 -22.94,2.03  z" class="primitive"/>
            </g>
            <g transform="translate(188.79,186.9)" id="img-c27bbbb6-53">
              <path d="M-22.94,-16.81 L22.94,-16.81 22.94,16.81 -22.94,16.81  z" class="primitive"/>
            </g>
            <g transform="translate(188.79,203.65)" id="img-c27bbbb6-54">
              <path d="M-22.94,-0.06 L22.94,-0.06 22.94,0.06 -22.94,0.06  z" class="primitive"/>
            </g>
            <g transform="translate(188.79,201.8)" id="img-c27bbbb6-55">
              <path d="M-22.94,-1.91 L22.94,-1.91 22.94,1.91 -22.94,1.91  z" class="primitive"/>
            </g>
            <g transform="translate(188.79,203.43)" id="img-c27bbbb6-56">
              <path d="M-22.94,-0.29 L22.94,-0.29 22.94,0.29 -22.94,0.29  z" class="primitive"/>
            </g>
            <g transform="translate(188.79,203.72)" id="img-c27bbbb6-57">
              <path d="M-22.94,-0 L22.94,-0 22.94,0 -22.94,0  z" class="primitive"/>
            </g>
            <g transform="translate(188.79,203.58)" id="img-c27bbbb6-58">
              <path d="M-22.94,-0.14 L22.94,-0.14 22.94,0.14 -22.94,0.14  z" class="primitive"/>
            </g>
            <g transform="translate(188.79,203.71)" id="img-c27bbbb6-59">
              <path d="M-22.94,-0 L22.94,-0 22.94,0 -22.94,0  z" class="primitive"/>
            </g>
            <g transform="translate(188.79,203.72)" id="img-c27bbbb6-60">
              <path d="M-22.94,-0 L22.94,-0 22.94,0 -22.94,0  z" class="primitive"/>
            </g>
            <g transform="translate(234.61,203.55)" id="img-c27bbbb6-61">
              <path d="M-22.94,-0.17 L22.94,-0.17 22.94,0.17 -22.94,0.17  z" class="primitive"/>
            </g>
            <g transform="translate(234.61,203.7)" id="img-c27bbbb6-62">
              <path d="M-22.94,-0.02 L22.94,-0.02 22.94,0.02 -22.94,0.02  z" class="primitive"/>
            </g>
            <g transform="translate(234.61,203.72)" id="img-c27bbbb6-63">
              <path d="M-22.94,-0 L22.94,-0 22.94,0 -22.94,0  z" class="primitive"/>
            </g>
            <g transform="translate(234.61,203.72)" id="img-c27bbbb6-64">
              <path d="M-22.94,-0 L22.94,-0 22.94,0 -22.94,0  z" class="primitive"/>
            </g>
            <g transform="translate(234.61,203.72)" id="img-c27bbbb6-65">
              <path d="M-22.94,-0 L22.94,-0 22.94,0 -22.94,0  z" class="primitive"/>
            </g>
            <g transform="translate(234.61,203.67)" id="img-c27bbbb6-66">
              <path d="M-22.94,-0.04 L22.94,-0.04 22.94,0.04 -22.94,0.04  z" class="primitive"/>
            </g>
            <g transform="translate(234.61,203.69)" id="img-c27bbbb6-67">
              <path d="M-22.94,-0.02 L22.94,-0.02 22.94,0.02 -22.94,0.02  z" class="primitive"/>
            </g>
            <g transform="translate(234.61,203.72)" id="img-c27bbbb6-68">
              <path d="M-22.94,-0 L22.94,-0 22.94,0 -22.94,0  z" class="primitive"/>
            </g>
            <g transform="translate(234.61,203.68)" id="img-c27bbbb6-69">
              <path d="M-22.94,-0.03 L22.94,-0.03 22.94,0.03 -22.94,0.03  z" class="primitive"/>
            </g>
            <g transform="translate(234.61,203.65)" id="img-c27bbbb6-70">
              <path d="M-22.94,-0.06 L22.94,-0.06 22.94,0.06 -22.94,0.06  z" class="primitive"/>
            </g>
            <g transform="translate(280.44,203.72)" id="img-c27bbbb6-71">
              <path d="M-22.94,-0 L22.94,-0 22.94,0 -22.94,0  z" class="primitive"/>
            </g>
            <g transform="translate(280.44,203.72)" id="img-c27bbbb6-72">
              <path d="M-22.94,-0 L22.94,-0 22.94,0 -22.94,0  z" class="primitive"/>
            </g>
            <g transform="translate(280.44,203.72)" id="img-c27bbbb6-73">
              <path d="M-22.94,-0 L22.94,-0 22.94,0 -22.94,0  z" class="primitive"/>
            </g>
            <g transform="translate(280.44,203.46)" id="img-c27bbbb6-74">
              <path d="M-22.94,-0.25 L22.94,-0.25 22.94,0.25 -22.94,0.25  z" class="primitive"/>
            </g>
            <g transform="translate(280.44,203.66)" id="img-c27bbbb6-75">
              <path d="M-22.94,-0.05 L22.94,-0.05 22.94,0.05 -22.94,0.05  z" class="primitive"/>
            </g>
            <g transform="translate(326.26,203.72)" id="img-c27bbbb6-76">
              <path d="M-22.94,-0 L22.94,-0 22.94,0 -22.94,0  z" class="primitive"/>
            </g>
            <g transform="translate(326.26,203.72)" id="img-c27bbbb6-77">
              <path d="M-22.94,-0 L22.94,-0 22.94,0 -22.94,0  z" class="primitive"/>
            </g>
            <g transform="translate(326.26,203.72)" id="img-c27bbbb6-78">
              <path d="M-22.94,-0 L22.94,-0 22.94,0 -22.94,0  z" class="primitive"/>
            </g>
            <g transform="translate(326.26,203.6)" id="img-c27bbbb6-79">
              <path d="M-22.94,-0.11 L22.94,-0.11 22.94,0.11 -22.94,0.11  z" class="primitive"/>
            </g>
            <g transform="translate(326.26,203.72)" id="img-c27bbbb6-80">
              <path d="M-22.94,-0 L22.94,-0 22.94,0 -22.94,0  z" class="primitive"/>
            </g>
            <g transform="translate(326.26,203.72)" id="img-c27bbbb6-81">
              <path d="M-22.94,-0 L22.94,-0 22.94,0 -22.94,0  z" class="primitive"/>
            </g>
            <g transform="translate(326.26,203.72)" id="img-c27bbbb6-82">
              <path d="M-22.94,-0 L22.94,-0 22.94,0 -22.94,0  z" class="primitive"/>
            </g>
            <g transform="translate(326.26,203.72)" id="img-c27bbbb6-83">
              <path d="M-22.94,-0 L22.94,-0 22.94,0 -22.94,0  z" class="primitive"/>
            </g>
            <g transform="translate(326.26,203.71)" id="img-c27bbbb6-84">
              <path d="M-22.94,-0.01 L22.94,-0.01 22.94,0.01 -22.94,0.01  z" class="primitive"/>
            </g>
            <g transform="translate(326.26,203.66)" id="img-c27bbbb6-85">
              <path d="M-22.94,-0.05 L22.94,-0.05 22.94,0.05 -22.94,0.05  z" class="primitive"/>
            </g>
            <g transform="translate(372.09,203.72)" id="img-c27bbbb6-86">
              <path d="M-22.94,-0 L22.94,-0 22.94,0 -22.94,0  z" class="primitive"/>
            </g>
          </g>
        </g>
      </g>
    </g>
  </g>
  <g class="guide ylabels" font-size="2.82" font-family="'PT Sans Caption','Helvetica Neue','Helvetica',sans-serif" fill="#6C606B" id="img-c27bbbb6-87">
    <g transform="translate(27.4,203.72)" id="img-c27bbbb6-88">
      <g class="primitive">
        <text text-anchor="end" dy="0.35em">0</text>
      </g>
    </g>
    <g transform="translate(27.4,155.94)" id="img-c27bbbb6-89">
      <g class="primitive">
        <text text-anchor="end" dy="0.35em">5.00×10⁴</text>
      </g>
    </g>
    <g transform="translate(27.4,108.16)" id="img-c27bbbb6-90">
      <g class="primitive">
        <text text-anchor="end" dy="0.35em">1.00×10⁵</text>
      </g>
    </g>
    <g transform="translate(27.4,60.39)" id="img-c27bbbb6-91">
      <g class="primitive">
        <text text-anchor="end" dy="0.35em">1.50×10⁵</text>
      </g>
    </g>
    <g transform="translate(27.4,12.61)" id="img-c27bbbb6-92">
      <g class="primitive">
        <text text-anchor="end" dy="0.35em">2.00×10⁵</text>
      </g>
    </g>
  </g>
  <g font-size="3.88" font-family="'PT Sans','Helvetica Neue','Helvetica',sans-serif" fill="#564A55" stroke="#000000" stroke-opacity="0.000" id="img-c27bbbb6-93">
    <g transform="translate(8.81,106.16)" id="img-c27bbbb6-94">
      <g class="primitive">
        <text text-anchor="middle" dy="0.35em" transform="rotate(-90,0, 2)">Total Debt (in dollars)</text>
      </g>
    </g>
  </g>
  <g font-size="3.88" font-family="'PT Sans','Helvetica Neue','Helvetica',sans-serif" fill="#564A55" stroke="#000000" stroke-opacity="0.000" id="img-c27bbbb6-95">
    <g transform="translate(211.7,5)" id="img-c27bbbb6-96">
      <g class="primitive">
        <text text-anchor="middle" dy="0.6em">MD Debt Redeemed Per Year</text>
      </g>
    </g>
  </g>
</g>
<defs>
  <clipPath id="img-c27bbbb6-5">
    <path d="M28.4,10.61 L395,10.61 395,205.72 28.4,205.72 " />
  </clipPath>
</defs>
</svg>
