<?xml version="1.0" encoding="UTF-8"?>
<svg xmlns="http://www.w3.org/2000/svg"
     xmlns:xlink="http://www.w3.org/1999/xlink"
     xmlns:gadfly="http://www.gadflyjl.org/ns"
     version="1.2"
     width="400mm" height="225mm" viewBox="0 0 400 225"
     stroke="none"
     fill="#000000"
     stroke-width="0.3"
     font-size="3.88"
>
<defs>
  <marker id="arrow" markerWidth="15" markerHeight="7" refX="5" refY="3.5" orient="auto" markerUnits="strokeWidth">
    <path d="M0,0 L15,3.5 L0,7 z" stroke="context-stroke" fill="context-stroke"/>
  </marker>
</defs>
<g stroke="#000000" stroke-opacity="0.000" fill="#FFFFFF" id="img-d7ec10cb-1">
  <g transform="translate(200,112.5)">
    <path d="M-200,-112.5 L200,-112.5 200,112.5 -200,112.5  z" class="primitive"/>
  </g>
</g>
<g class="plotroot yscalable" id="img-d7ec10cb-2">
  <g font-size="3.88" font-family="'PT Sans','Helvetica Neue','Helvetica',sans-serif" fill="#564A55" stroke="#000000" stroke-opacity="0.000" id="img-d7ec10cb-3">
    <g transform="translate(210.86,213.39)">
      <g class="primitive">
        <text text-anchor="middle" dy="0.6em">Year</text>
      </g>
    </g>
  </g>
  <g class="guide xlabels" font-size="2.82" font-family="'PT Sans Caption','Helvetica Neue','Helvetica',sans-serif" fill="#6C606B" id="img-d7ec10cb-4">
    <g transform="translate(72.76,206.72)">
      <g class="primitive">
        <text text-anchor="middle" dy="0.6em">1791</text>
      </g>
    </g>
    <g transform="translate(164.83,206.72)">
      <g class="primitive">
        <text text-anchor="middle" dy="0.6em">1792</text>
      </g>
    </g>
    <g transform="translate(256.9,206.72)">
      <g class="primitive">
        <text text-anchor="middle" dy="0.6em">1793</text>
      </g>
    </g>
    <g transform="translate(348.97,206.72)">
      <g class="primitive">
        <text text-anchor="middle" dy="0.6em">1794</text>
      </g>
    </g>
  </g>
  <g clip-path="url(#img-d7ec10cb-5)">
    <g id="img-d7ec10cb-6">
      <g pointer-events="visible" stroke-width="0.3" fill="#000000" fill-opacity="0.000" stroke="#000000" stroke-opacity="0.000" class="guide background" id="img-d7ec10cb-7">
        <g transform="translate(210.86,108.16)" id="img-d7ec10cb-8">
          <path d="M-184.14,-97.55 L184.14,-97.55 184.14,97.55 -184.14,97.55  z" class="primitive"/>
        </g>
      </g>
      <g class="guide ygridlines xfixed" stroke-dasharray="0.5,0.5" stroke-width="0.2" stroke="#D0D0E0" id="img-d7ec10cb-9">
        <g transform="translate(210.86,203.72)" id="img-d7ec10cb-10">
          <path fill="none" d="M-184.14,0 L184.14,0 " class="primitive"/>
        </g>
        <g transform="translate(210.86,140.01)" id="img-d7ec10cb-11">
          <path fill="none" d="M-184.14,0 L184.14,0 " class="primitive"/>
        </g>
        <g transform="translate(210.86,76.31)" id="img-d7ec10cb-12">
          <path fill="none" d="M-184.14,0 L184.14,0 " class="primitive"/>
        </g>
        <g transform="translate(210.86,12.61)" id="img-d7ec10cb-13">
          <path fill="none" d="M-184.14,0 L184.14,0 " class="primitive"/>
        </g>
      </g>
      <g class="guide xgridlines yfixed" stroke-dasharray="0.5,0.5" stroke-width="0.2" stroke="#D0D0E0" id="img-d7ec10cb-14">
        <g transform="translate(118.79,108.16)" id="img-d7ec10cb-15">
          <path fill="none" d="M0,-97.55 L0,97.55 " class="primitive"/>
        </g>
        <g transform="translate(210.86,108.16)" id="img-d7ec10cb-16">
          <path fill="none" d="M0,-97.55 L0,97.55 " class="primitive"/>
        </g>
        <g transform="translate(302.93,108.16)" id="img-d7ec10cb-17">
          <path fill="none" d="M0,-97.55 L0,97.55 " class="primitive"/>
        </g>
      </g>
      <g class="plotpanel" id="img-d7ec10cb-18">
        <metadata>
          <boundingbox value="26.725000000000023mm 10.611666666666679mm 368.275mm 195.10333333333335mm"/>
          <unitbox value="0.5 30313.96626606897 4.0 -30627.932532137933"/>
        </metadata>
        <g shape-rendering="crispEdges" stroke-width="0.3" id="img-d7ec10cb-19">
          <g class="geometry" fill-opacity="1" stroke="#000000" stroke-opacity="0.000" fill="#00BFFF" id="img-d7ec10cb-20">
            <g transform="translate(72.76,188.59)" id="img-d7ec10cb-21">
              <path d="M-46.06,-15.13 L46.06,-15.13 46.06,15.13 -46.06,15.13  z" class="primitive"/>
            </g>
            <g transform="translate(72.76,202.27)" id="img-d7ec10cb-22">
              <path d="M-46.06,-1.45 L46.06,-1.45 46.06,1.45 -46.06,1.45  z" class="primitive"/>
            </g>
            <g transform="translate(72.76,188.14)" id="img-d7ec10cb-23">
              <path d="M-46.06,-15.58 L46.06,-15.58 46.06,15.58 -46.06,15.58  z" class="primitive"/>
            </g>
            <g transform="translate(72.76,178.65)" id="img-d7ec10cb-24">
              <path d="M-46.06,-25.07 L46.06,-25.07 46.06,25.07 -46.06,25.07  z" class="primitive"/>
            </g>
            <g transform="translate(72.76,194.08)" id="img-d7ec10cb-25">
              <path d="M-46.06,-9.64 L46.06,-9.64 46.06,9.64 -46.06,9.64  z" class="primitive"/>
            </g>
            <g transform="translate(72.76,190.12)" id="img-d7ec10cb-26">
              <path d="M-46.06,-13.59 L46.06,-13.59 46.06,13.59 -46.06,13.59  z" class="primitive"/>
            </g>
            <g transform="translate(72.76,202.55)" id="img-d7ec10cb-27">
              <path d="M-46.06,-1.16 L46.06,-1.16 46.06,1.16 -46.06,1.16  z" class="primitive"/>
            </g>
            <g transform="translate(72.76,178.1)" id="img-d7ec10cb-28">
              <path d="M-46.06,-25.62 L46.06,-25.62 46.06,25.62 -46.06,25.62  z" class="primitive"/>
            </g>
            <g transform="translate(164.83,201.27)" id="img-d7ec10cb-29">
              <path d="M-46.06,-2.45 L46.06,-2.45 46.06,2.45 -46.06,2.45  z" class="primitive"/>
            </g>
            <g transform="translate(164.83,199.82)" id="img-d7ec10cb-30">
              <path d="M-46.06,-3.9 L46.06,-3.9 46.06,3.9 -46.06,3.9  z" class="primitive"/>
            </g>
            <g transform="translate(164.83,110.69)" id="img-d7ec10cb-31">
              <path d="M-46.06,-93.03 L46.06,-93.03 46.06,93.03 -46.06,93.03  z" class="primitive"/>
            </g>
            <g transform="translate(164.83,203.53)" id="img-d7ec10cb-32">
              <path d="M-46.06,-0.18 L46.06,-0.18 46.06,0.18 -46.06,0.18  z" class="primitive"/>
            </g>
            <g transform="translate(164.83,200.94)" id="img-d7ec10cb-33">
              <path d="M-46.06,-2.78 L46.06,-2.78 46.06,2.78 -46.06,2.78  z" class="primitive"/>
            </g>
            <g transform="translate(256.9,194.51)" id="img-d7ec10cb-34">
              <path d="M-46.06,-9.21 L46.06,-9.21 46.06,9.21 -46.06,9.21  z" class="primitive"/>
            </g>
            <g transform="translate(256.9,203.14)" id="img-d7ec10cb-35">
              <path d="M-46.06,-0.57 L46.06,-0.57 46.06,0.57 -46.06,0.57  z" class="primitive"/>
            </g>
            <g transform="translate(256.9,201.68)" id="img-d7ec10cb-36">
              <path d="M-46.06,-2.03 L46.06,-2.03 46.06,2.03 -46.06,2.03  z" class="primitive"/>
            </g>
            <g transform="translate(256.9,200.51)" id="img-d7ec10cb-37">
              <path d="M-46.06,-3.2 L46.06,-3.2 46.06,3.2 -46.06,3.2  z" class="primitive"/>
            </g>
            <g transform="translate(348.97,164.95)" id="img-d7ec10cb-38">
              <path d="M-46.06,-38.76 L46.06,-38.76 46.06,38.76 -46.06,38.76  z" class="primitive"/>
            </g>
            <g transform="translate(348.97,196.61)" id="img-d7ec10cb-39">
              <path d="M-46.06,-7.11 L46.06,-7.11 46.06,7.11 -46.06,7.11  z" class="primitive"/>
            </g>
          </g>
        </g>
      </g>
    </g>
  </g>
  <g class="guide ylabels" font-size="2.82" font-family="'PT Sans Caption','Helvetica Neue','Helvetica',sans-serif" fill="#6C606B" id="img-d7ec10cb-40">
    <g transform="translate(25.72,203.72)" id="img-d7ec10cb-41">
      <g class="primitive">
        <text text-anchor="end" dy="0.35em">0</text>
      </g>
    </g>
    <g transform="translate(25.72,140.01)" id="img-d7ec10cb-42">
      <g class="primitive">
        <text text-anchor="end" dy="0.35em">1.0×10⁴</text>
      </g>
    </g>
    <g transform="translate(25.72,76.31)" id="img-d7ec10cb-43">
      <g class="primitive">
        <text text-anchor="end" dy="0.35em">2.0×10⁴</text>
      </g>
    </g>
    <g transform="translate(25.72,12.61)" id="img-d7ec10cb-44">
      <g class="primitive">
        <text text-anchor="end" dy="0.35em">3.0×10⁴</text>
      </g>
    </g>
  </g>
  <g font-size="3.88" font-family="'PT Sans','Helvetica Neue','Helvetica',sans-serif" fill="#564A55" stroke="#000000" stroke-opacity="0.000" id="img-d7ec10cb-45">
    <g transform="translate(8.81,106.16)" id="img-d7ec10cb-46">
      <g class="primitive">
        <text text-anchor="middle" dy="0.35em" transform="rotate(-90,0, 2)">Total Debt (in dollars)</text>
      </g>
    </g>
  </g>
  <g font-size="3.88" font-family="'PT Sans','Helvetica Neue','Helvetica',sans-serif" fill="#564A55" stroke="#000000" stroke-opacity="0.000" id="img-d7ec10cb-47">
    <g transform="translate(210.86,5)" id="img-d7ec10cb-48">
      <g class="primitive">
        <text text-anchor="middle" dy="0.6em">NC Debt Redeemed Per Year</text>
      </g>
    </g>
  </g>
</g>
<defs>
  <clipPath id="img-d7ec10cb-5">
    <path d="M26.73,10.61 L395,10.61 395,205.72 26.73,205.72 " />
  </clipPath>
</defs>
</svg>
