<?xml version="1.0" encoding="UTF-8"?>
<svg xmlns="http://www.w3.org/2000/svg"
     xmlns:xlink="http://www.w3.org/1999/xlink"
     xmlns:gadfly="http://www.gadflyjl.org/ns"
     version="1.2"
     width="400mm" height="225mm" viewBox="0 0 400 225"
     stroke="none"
     fill="#000000"
     stroke-width="0.3"
     font-size="3.88"
>
<defs>
  <marker id="arrow" markerWidth="15" markerHeight="7" refX="5" refY="3.5" orient="auto" markerUnits="strokeWidth">
    <path d="M0,0 L15,3.5 L0,7 z" stroke="context-stroke" fill="context-stroke"/>
  </marker>
</defs>
<g stroke="#000000" stroke-opacity="0.000" fill="#FFFFFF" id="img-c9eb1d6f-1">
  <g transform="translate(200,112.5)">
    <path d="M-200,-112.5 L200,-112.5 200,112.5 -200,112.5  z" class="primitive"/>
  </g>
</g>
<g class="plotroot yscalable" id="img-c9eb1d6f-2">
  <g font-size="3.88" font-family="'PT Sans','Helvetica Neue','Helvetica',sans-serif" fill="#564A55" stroke="#000000" stroke-opacity="0.000" id="img-c9eb1d6f-3">
    <g transform="translate(211.7,213.39)">
      <g class="primitive">
        <text text-anchor="middle" dy="0.6em">Year</text>
      </g>
    </g>
  </g>
  <g class="guide xlabels" font-size="2.82" font-family="'PT Sans Caption','Helvetica Neue','Helvetica',sans-serif" fill="#6C606B" id="img-c9eb1d6f-4">
    <g transform="translate(39.85,206.72)">
      <g class="primitive">
        <text text-anchor="middle" dy="0.6em">1791</text>
      </g>
    </g>
    <g transform="translate(62.77,206.72)">
      <g class="primitive">
        <text text-anchor="middle" dy="0.6em">1792</text>
      </g>
    </g>
    <g transform="translate(85.68,206.72)">
      <g class="primitive">
        <text text-anchor="middle" dy="0.6em">1793</text>
      </g>
    </g>
    <g transform="translate(108.59,206.72)">
      <g class="primitive">
        <text text-anchor="middle" dy="0.6em">1794</text>
      </g>
    </g>
    <g transform="translate(131.51,206.72)">
      <g class="primitive">
        <text text-anchor="middle" dy="0.6em">1795</text>
      </g>
    </g>
    <g transform="translate(154.42,206.72)">
      <g class="primitive">
        <text text-anchor="middle" dy="0.6em">1796</text>
      </g>
    </g>
    <g transform="translate(177.33,206.72)">
      <g class="primitive">
        <text text-anchor="middle" dy="0.6em">1797</text>
      </g>
    </g>
    <g transform="translate(200.24,206.72)">
      <g class="primitive">
        <text text-anchor="middle" dy="0.6em">1798</text>
      </g>
    </g>
    <g transform="translate(223.16,206.72)">
      <g class="primitive">
        <text text-anchor="middle" dy="0.6em">1799</text>
      </g>
    </g>
    <g transform="translate(246.07,206.72)">
      <g class="primitive">
        <text text-anchor="middle" dy="0.6em">1800</text>
      </g>
    </g>
    <g transform="translate(268.98,206.72)">
      <g class="primitive">
        <text text-anchor="middle" dy="0.6em">1801</text>
      </g>
    </g>
    <g transform="translate(291.89,206.72)">
      <g class="primitive">
        <text text-anchor="middle" dy="0.6em">1803</text>
      </g>
    </g>
    <g transform="translate(314.81,206.72)">
      <g class="primitive">
        <text text-anchor="middle" dy="0.6em">1805</text>
      </g>
    </g>
    <g transform="translate(337.72,206.72)">
      <g class="primitive">
        <text text-anchor="middle" dy="0.6em">1807</text>
      </g>
    </g>
    <g transform="translate(360.63,206.72)">
      <g class="primitive">
        <text text-anchor="middle" dy="0.6em">1808</text>
      </g>
    </g>
    <g transform="translate(383.54,206.72)">
      <g class="primitive">
        <text text-anchor="middle" dy="0.6em">1813</text>
      </g>
    </g>
  </g>
  <g clip-path="url(#img-c9eb1d6f-5)">
    <g id="img-c9eb1d6f-6">
      <g pointer-events="visible" stroke-width="0.3" fill="#000000" fill-opacity="0.000" stroke="#000000" stroke-opacity="0.000" class="guide background" id="img-c9eb1d6f-7">
        <g transform="translate(211.7,108.16)" id="img-c9eb1d6f-8">
          <path d="M-183.3,-97.55 L183.3,-97.55 183.3,97.55 -183.3,97.55  z" class="primitive"/>
        </g>
      </g>
      <g class="guide ygridlines xfixed" stroke-dasharray="0.5,0.5" stroke-width="0.2" stroke="#D0D0E0" id="img-c9eb1d6f-9">
        <g transform="translate(211.7,203.72)" id="img-c9eb1d6f-10">
          <path fill="none" d="M-183.3,0 L183.3,0 " class="primitive"/>
        </g>
        <g transform="translate(211.7,155.94)" id="img-c9eb1d6f-11">
          <path fill="none" d="M-183.3,0 L183.3,0 " class="primitive"/>
        </g>
        <g transform="translate(211.7,108.16)" id="img-c9eb1d6f-12">
          <path fill="none" d="M-183.3,0 L183.3,0 " class="primitive"/>
        </g>
        <g transform="translate(211.7,60.39)" id="img-c9eb1d6f-13">
          <path fill="none" d="M-183.3,0 L183.3,0 " class="primitive"/>
        </g>
        <g transform="translate(211.7,12.61)" id="img-c9eb1d6f-14">
          <path fill="none" d="M-183.3,0 L183.3,0 " class="primitive"/>
        </g>
      </g>
      <g class="guide xgridlines yfixed" stroke-dasharray="0.5,0.5" stroke-width="0.2" stroke="#D0D0E0" id="img-c9eb1d6f-15">
        <g transform="translate(51.31,108.16)" id="img-c9eb1d6f-16">
          <path fill="none" d="M0,-97.55 L0,97.55 " class="primitive"/>
        </g>
        <g transform="translate(74.22,108.16)" id="img-c9eb1d6f-17">
          <path fill="none" d="M0,-97.55 L0,97.55 " class="primitive"/>
        </g>
        <g transform="translate(97.14,108.16)" id="img-c9eb1d6f-18">
          <path fill="none" d="M0,-97.55 L0,97.55 " class="primitive"/>
        </g>
        <g transform="translate(120.05,108.16)" id="img-c9eb1d6f-19">
          <path fill="none" d="M0,-97.55 L0,97.55 " class="primitive"/>
        </g>
        <g transform="translate(142.96,108.16)" id="img-c9eb1d6f-20">
          <path fill="none" d="M0,-97.55 L0,97.55 " class="primitive"/>
        </g>
        <g transform="translate(165.87,108.16)" id="img-c9eb1d6f-21">
          <path fill="none" d="M0,-97.55 L0,97.55 " class="primitive"/>
        </g>
        <g transform="translate(188.79,108.16)" id="img-c9eb1d6f-22">
          <path fill="none" d="M0,-97.55 L0,97.55 " class="primitive"/>
        </g>
        <g transform="translate(211.7,108.16)" id="img-c9eb1d6f-23">
          <path fill="none" d="M0,-97.55 L0,97.55 " class="primitive"/>
        </g>
        <g transform="translate(234.61,108.16)" id="img-c9eb1d6f-24">
          <path fill="none" d="M0,-97.55 L0,97.55 " class="primitive"/>
        </g>
        <g transform="translate(257.52,108.16)" id="img-c9eb1d6f-25">
          <path fill="none" d="M0,-97.55 L0,97.55 " class="primitive"/>
        </g>
        <g transform="translate(280.44,108.16)" id="img-c9eb1d6f-26">
          <path fill="none" d="M0,-97.55 L0,97.55 " class="primitive"/>
        </g>
        <g transform="translate(303.35,108.16)" id="img-c9eb1d6f-27">
          <path fill="none" d="M0,-97.55 L0,97.55 " class="primitive"/>
        </g>
        <g transform="translate(326.26,108.16)" id="img-c9eb1d6f-28">
          <path fill="none" d="M0,-97.55 L0,97.55 " class="primitive"/>
        </g>
        <g transform="translate(349.17,108.16)" id="img-c9eb1d6f-29">
          <path fill="none" d="M0,-97.55 L0,97.55 " class="primitive"/>
        </g>
        <g transform="translate(372.09,108.16)" id="img-c9eb1d6f-30">
          <path fill="none" d="M0,-97.55 L0,97.55 " class="primitive"/>
        </g>
      </g>
      <g class="plotpanel" id="img-c9eb1d6f-31">
        <metadata>
          <boundingbox value="28.39833333333337mm 10.611666666666679mm 366.60166666666663mm 195.10333333333335mm"/>
          <unitbox value="0.5 202093.1084404598 16.0 -204186.21688091956"/>
        </metadata>
        <g shape-rendering="crispEdges" stroke-width="0.3" id="img-c9eb1d6f-32">
          <g class="geometry" fill-opacity="1" stroke="#000000" stroke-opacity="0.000" fill="#00BFFF" id="img-c9eb1d6f-33">
            <g transform="translate(39.85,203.26)" id="img-c9eb1d6f-34">
              <path d="M-11.48,-0.46 L11.48,-0.46 11.48,0.46 -11.48,0.46  z" class="primitive"/>
            </g>
            <g transform="translate(39.85,203.67)" id="img-c9eb1d6f-35">
              <path d="M-11.48,-0.04 L11.48,-0.04 11.48,0.04 -11.48,0.04  z" class="primitive"/>
            </g>
            <g transform="translate(39.85,114.01)" id="img-c9eb1d6f-36">
              <path d="M-11.48,-89.71 L11.48,-89.71 11.48,89.71 -11.48,89.71  z" class="primitive"/>
            </g>
            <g transform="translate(39.85,196.75)" id="img-c9eb1d6f-37">
              <path d="M-11.48,-6.97 L11.48,-6.97 11.48,6.97 -11.48,6.97  z" class="primitive"/>
            </g>
            <g transform="translate(39.85,190.11)" id="img-c9eb1d6f-38">
              <path d="M-11.48,-13.6 L11.48,-13.6 11.48,13.6 -11.48,13.6  z" class="primitive"/>
            </g>
            <g transform="translate(39.85,203.49)" id="img-c9eb1d6f-39">
              <path d="M-11.48,-0.22 L11.48,-0.22 11.48,0.22 -11.48,0.22  z" class="primitive"/>
            </g>
            <g transform="translate(39.85,202.95)" id="img-c9eb1d6f-40">
              <path d="M-11.48,-0.76 L11.48,-0.76 11.48,0.76 -11.48,0.76  z" class="primitive"/>
            </g>
            <g transform="translate(39.85,202.91)" id="img-c9eb1d6f-41">
              <path d="M-11.48,-0.81 L11.48,-0.81 11.48,0.81 -11.48,0.81  z" class="primitive"/>
            </g>
            <g transform="translate(62.77,203.69)" id="img-c9eb1d6f-42">
              <path d="M-11.48,-0.02 L11.48,-0.02 11.48,0.02 -11.48,0.02  z" class="primitive"/>
            </g>
            <g transform="translate(62.77,203.03)" id="img-c9eb1d6f-43">
              <path d="M-11.48,-0.68 L11.48,-0.68 11.48,0.68 -11.48,0.68  z" class="primitive"/>
            </g>
            <g transform="translate(62.77,203.24)" id="img-c9eb1d6f-44">
              <path d="M-11.48,-0.48 L11.48,-0.48 11.48,0.48 -11.48,0.48  z" class="primitive"/>
            </g>
            <g transform="translate(62.77,198.09)" id="img-c9eb1d6f-45">
              <path d="M-11.48,-5.63 L11.48,-5.63 11.48,5.63 -11.48,5.63  z" class="primitive"/>
            </g>
            <g transform="translate(62.77,203.08)" id="img-c9eb1d6f-46">
              <path d="M-11.48,-0.64 L11.48,-0.64 11.48,0.64 -11.48,0.64  z" class="primitive"/>
            </g>
            <g transform="translate(62.77,203.61)" id="img-c9eb1d6f-47">
              <path d="M-11.48,-0.11 L11.48,-0.11 11.48,0.11 -11.48,0.11  z" class="primitive"/>
            </g>
            <g transform="translate(62.77,203.7)" id="img-c9eb1d6f-48">
              <path d="M-11.48,-0.01 L11.48,-0.01 11.48,0.01 -11.48,0.01  z" class="primitive"/>
            </g>
            <g transform="translate(62.77,203.29)" id="img-c9eb1d6f-49">
              <path d="M-11.48,-0.42 L11.48,-0.42 11.48,0.42 -11.48,0.42  z" class="primitive"/>
            </g>
            <g transform="translate(62.77,203.27)" id="img-c9eb1d6f-50">
              <path d="M-11.48,-0.44 L11.48,-0.44 11.48,0.44 -11.48,0.44  z" class="primitive"/>
            </g>
            <g transform="translate(62.77,203.59)" id="img-c9eb1d6f-51">
              <path d="M-11.48,-0.12 L11.48,-0.12 11.48,0.12 -11.48,0.12  z" class="primitive"/>
            </g>
            <g transform="translate(85.68,203.55)" id="img-c9eb1d6f-52">
              <path d="M-11.48,-0.17 L11.48,-0.17 11.48,0.17 -11.48,0.17  z" class="primitive"/>
            </g>
            <g transform="translate(85.68,202.85)" id="img-c9eb1d6f-53">
              <path d="M-11.48,-0.87 L11.48,-0.87 11.48,0.87 -11.48,0.87  z" class="primitive"/>
            </g>
            <g transform="translate(85.68,203.42)" id="img-c9eb1d6f-54">
              <path d="M-11.48,-0.3 L11.48,-0.3 11.48,0.3 -11.48,0.3  z" class="primitive"/>
            </g>
            <g transform="translate(85.68,203.44)" id="img-c9eb1d6f-55">
              <path d="M-11.48,-0.27 L11.48,-0.27 11.48,0.27 -11.48,0.27  z" class="primitive"/>
            </g>
            <g transform="translate(85.68,203.71)" id="img-c9eb1d6f-56">
              <path d="M-11.48,-0 L11.48,-0 11.48,0 -11.48,0  z" class="primitive"/>
            </g>
            <g transform="translate(85.68,203.57)" id="img-c9eb1d6f-57">
              <path d="M-11.48,-0.14 L11.48,-0.14 11.48,0.14 -11.48,0.14  z" class="primitive"/>
            </g>
            <g transform="translate(108.59,203.65)" id="img-c9eb1d6f-58">
              <path d="M-11.48,-0.06 L11.48,-0.06 11.48,0.06 -11.48,0.06  z" class="primitive"/>
            </g>
            <g transform="translate(108.59,201.22)" id="img-c9eb1d6f-59">
              <path d="M-11.48,-2.49 L11.48,-2.49 11.48,2.49 -11.48,2.49  z" class="primitive"/>
            </g>
            <g transform="translate(108.59,203.23)" id="img-c9eb1d6f-60">
              <path d="M-11.48,-0.48 L11.48,-0.48 11.48,0.48 -11.48,0.48  z" class="primitive"/>
            </g>
            <g transform="translate(108.59,198.86)" id="img-c9eb1d6f-61">
              <path d="M-11.48,-4.85 L11.48,-4.85 11.48,4.85 -11.48,4.85  z" class="primitive"/>
            </g>
            <g transform="translate(108.59,203.72)" id="img-c9eb1d6f-62">
              <path d="M-11.48,-0 L11.48,-0 11.48,0 -11.48,0  z" class="primitive"/>
            </g>
            <g transform="translate(131.51,203.58)" id="img-c9eb1d6f-63">
              <path d="M-11.48,-0.13 L11.48,-0.13 11.48,0.13 -11.48,0.13  z" class="primitive"/>
            </g>
            <g transform="translate(131.51,203.65)" id="img-c9eb1d6f-64">
              <path d="M-11.48,-0.07 L11.48,-0.07 11.48,0.07 -11.48,0.07  z" class="primitive"/>
            </g>
            <g transform="translate(131.51,203.69)" id="img-c9eb1d6f-65">
              <path d="M-11.48,-0.02 L11.48,-0.02 11.48,0.02 -11.48,0.02  z" class="primitive"/>
            </g>
            <g transform="translate(131.51,203.55)" id="img-c9eb1d6f-66">
              <path d="M-11.48,-0.16 L11.48,-0.16 11.48,0.16 -11.48,0.16  z" class="primitive"/>
            </g>
            <g transform="translate(154.42,203.71)" id="img-c9eb1d6f-67">
              <path d="M-11.48,-0 L11.48,-0 11.48,0 -11.48,0  z" class="primitive"/>
            </g>
            <g transform="translate(154.42,203.33)" id="img-c9eb1d6f-68">
              <path d="M-11.48,-0.38 L11.48,-0.38 11.48,0.38 -11.48,0.38  z" class="primitive"/>
            </g>
            <g transform="translate(154.42,203.64)" id="img-c9eb1d6f-69">
              <path d="M-11.48,-0.07 L11.48,-0.07 11.48,0.07 -11.48,0.07  z" class="primitive"/>
            </g>
            <g transform="translate(154.42,203.7)" id="img-c9eb1d6f-70">
              <path d="M-11.48,-0.02 L11.48,-0.02 11.48,0.02 -11.48,0.02  z" class="primitive"/>
            </g>
            <g transform="translate(177.33,135.82)" id="img-c9eb1d6f-71">
              <path d="M-11.48,-67.89 L11.48,-67.89 11.48,67.89 -11.48,67.89  z" class="primitive"/>
            </g>
            <g transform="translate(177.33,203.71)" id="img-c9eb1d6f-72">
              <path d="M-11.48,-0 L11.48,-0 11.48,0 -11.48,0  z" class="primitive"/>
            </g>
            <g transform="translate(177.33,203.31)" id="img-c9eb1d6f-73">
              <path d="M-11.48,-0.4 L11.48,-0.4 11.48,0.4 -11.48,0.4  z" class="primitive"/>
            </g>
            <g transform="translate(177.33,203.54)" id="img-c9eb1d6f-74">
              <path d="M-11.48,-0.17 L11.48,-0.17 11.48,0.17 -11.48,0.17  z" class="primitive"/>
            </g>
            <g transform="translate(177.33,203.34)" id="img-c9eb1d6f-75">
              <path d="M-11.48,-0.37 L11.48,-0.37 11.48,0.37 -11.48,0.37  z" class="primitive"/>
            </g>
            <g transform="translate(177.33,203.58)" id="img-c9eb1d6f-76">
              <path d="M-11.48,-0.14 L11.48,-0.14 11.48,0.14 -11.48,0.14  z" class="primitive"/>
            </g>
            <g transform="translate(177.33,203.37)" id="img-c9eb1d6f-77">
              <path d="M-11.48,-0.34 L11.48,-0.34 11.48,0.34 -11.48,0.34  z" class="primitive"/>
            </g>
            <g transform="translate(200.24,203.48)" id="img-c9eb1d6f-78">
              <path d="M-11.48,-0.23 L11.48,-0.23 11.48,0.23 -11.48,0.23  z" class="primitive"/>
            </g>
            <g transform="translate(200.24,203.68)" id="img-c9eb1d6f-79">
              <path d="M-11.48,-0.04 L11.48,-0.04 11.48,0.04 -11.48,0.04  z" class="primitive"/>
            </g>
            <g transform="translate(200.24,202.93)" id="img-c9eb1d6f-80">
              <path d="M-11.48,-0.79 L11.48,-0.79 11.48,0.79 -11.48,0.79  z" class="primitive"/>
            </g>
            <g transform="translate(200.24,203.71)" id="img-c9eb1d6f-81">
              <path d="M-11.48,-0 L11.48,-0 11.48,0 -11.48,0  z" class="primitive"/>
            </g>
            <g transform="translate(200.24,203.71)" id="img-c9eb1d6f-82">
              <path d="M-11.48,-0 L11.48,-0 11.48,0 -11.48,0  z" class="primitive"/>
            </g>
            <g transform="translate(223.16,203.55)" id="img-c9eb1d6f-83">
              <path d="M-11.48,-0.16 L11.48,-0.16 11.48,0.16 -11.48,0.16  z" class="primitive"/>
            </g>
            <g transform="translate(223.16,203.69)" id="img-c9eb1d6f-84">
              <path d="M-11.48,-0.03 L11.48,-0.03 11.48,0.03 -11.48,0.03  z" class="primitive"/>
            </g>
            <g transform="translate(223.16,202.06)" id="img-c9eb1d6f-85">
              <path d="M-11.48,-1.65 L11.48,-1.65 11.48,1.65 -11.48,1.65  z" class="primitive"/>
            </g>
            <g transform="translate(246.07,203.55)" id="img-c9eb1d6f-86">
              <path d="M-11.48,-0.16 L11.48,-0.16 11.48,0.16 -11.48,0.16  z" class="primitive"/>
            </g>
            <g transform="translate(246.07,203.7)" id="img-c9eb1d6f-87">
              <path d="M-11.48,-0.02 L11.48,-0.02 11.48,0.02 -11.48,0.02  z" class="primitive"/>
            </g>
            <g transform="translate(246.07,203.69)" id="img-c9eb1d6f-88">
              <path d="M-11.48,-0.03 L11.48,-0.03 11.48,0.03 -11.48,0.03  z" class="primitive"/>
            </g>
            <g transform="translate(246.07,203.53)" id="img-c9eb1d6f-89">
              <path d="M-11.48,-0.18 L11.48,-0.18 11.48,0.18 -11.48,0.18  z" class="primitive"/>
            </g>
            <g transform="translate(268.98,203.41)" id="img-c9eb1d6f-90">
              <path d="M-11.48,-0.3 L11.48,-0.3 11.48,0.3 -11.48,0.3  z" class="primitive"/>
            </g>
            <g transform="translate(268.98,203.06)" id="img-c9eb1d6f-91">
              <path d="M-11.48,-0.65 L11.48,-0.65 11.48,0.65 -11.48,0.65  z" class="primitive"/>
            </g>
            <g transform="translate(268.98,203.11)" id="img-c9eb1d6f-92">
              <path d="M-11.48,-0.61 L11.48,-0.61 11.48,0.61 -11.48,0.61  z" class="primitive"/>
            </g>
            <g transform="translate(268.98,203.63)" id="img-c9eb1d6f-93">
              <path d="M-11.48,-0.09 L11.48,-0.09 11.48,0.09 -11.48,0.09  z" class="primitive"/>
            </g>
            <g transform="translate(268.98,203.54)" id="img-c9eb1d6f-94">
              <path d="M-11.48,-0.18 L11.48,-0.18 11.48,0.18 -11.48,0.18  z" class="primitive"/>
            </g>
            <g transform="translate(268.98,203.7)" id="img-c9eb1d6f-95">
              <path d="M-11.48,-0.02 L11.48,-0.02 11.48,0.02 -11.48,0.02  z" class="primitive"/>
            </g>
            <g transform="translate(291.89,200.43)" id="img-c9eb1d6f-96">
              <path d="M-11.48,-3.28 L11.48,-3.28 11.48,3.28 -11.48,3.28  z" class="primitive"/>
            </g>
            <g transform="translate(291.89,203.7)" id="img-c9eb1d6f-97">
              <path d="M-11.48,-0.01 L11.48,-0.01 11.48,0.01 -11.48,0.01  z" class="primitive"/>
            </g>
            <g transform="translate(314.81,199.53)" id="img-c9eb1d6f-98">
              <path d="M-11.48,-4.19 L11.48,-4.19 11.48,4.19 -11.48,4.19  z" class="primitive"/>
            </g>
            <g transform="translate(337.72,203.65)" id="img-c9eb1d6f-99">
              <path d="M-11.48,-0.07 L11.48,-0.07 11.48,0.07 -11.48,0.07  z" class="primitive"/>
            </g>
            <g transform="translate(337.72,203.7)" id="img-c9eb1d6f-100">
              <path d="M-11.48,-0.01 L11.48,-0.01 11.48,0.01 -11.48,0.01  z" class="primitive"/>
            </g>
            <g transform="translate(360.63,203.71)" id="img-c9eb1d6f-101">
              <path d="M-11.48,-0.01 L11.48,-0.01 11.48,0.01 -11.48,0.01  z" class="primitive"/>
            </g>
            <g transform="translate(383.54,203.51)" id="img-c9eb1d6f-102">
              <path d="M-11.48,-0.21 L11.48,-0.21 11.48,0.21 -11.48,0.21  z" class="primitive"/>
            </g>
          </g>
        </g>
      </g>
    </g>
  </g>
  <g class="guide ylabels" font-size="2.82" font-family="'PT Sans Caption','Helvetica Neue','Helvetica',sans-serif" fill="#6C606B" id="img-c9eb1d6f-103">
    <g transform="translate(27.4,203.72)" id="img-c9eb1d6f-104">
      <g class="primitive">
        <text text-anchor="end" dy="0.35em">0</text>
      </g>
    </g>
    <g transform="translate(27.4,155.94)" id="img-c9eb1d6f-105">
      <g class="primitive">
        <text text-anchor="end" dy="0.35em">5.00×10⁴</text>
      </g>
    </g>
    <g transform="translate(27.4,108.16)" id="img-c9eb1d6f-106">
      <g class="primitive">
        <text text-anchor="end" dy="0.35em">1.00×10⁵</text>
      </g>
    </g>
    <g transform="translate(27.4,60.39)" id="img-c9eb1d6f-107">
      <g class="primitive">
        <text text-anchor="end" dy="0.35em">1.50×10⁵</text>
      </g>
    </g>
    <g transform="translate(27.4,12.61)" id="img-c9eb1d6f-108">
      <g class="primitive">
        <text text-anchor="end" dy="0.35em">2.00×10⁵</text>
      </g>
    </g>
  </g>
  <g font-size="3.88" font-family="'PT Sans','Helvetica Neue','Helvetica',sans-serif" fill="#564A55" stroke="#000000" stroke-opacity="0.000" id="img-c9eb1d6f-109">
    <g transform="translate(8.81,106.16)" id="img-c9eb1d6f-110">
      <g class="primitive">
        <text text-anchor="middle" dy="0.35em" transform="rotate(-90,0, 2)">Total Debt (in dollars)</text>
      </g>
    </g>
  </g>
  <g font-size="3.88" font-family="'PT Sans','Helvetica Neue','Helvetica',sans-serif" fill="#564A55" stroke="#000000" stroke-opacity="0.000" id="img-c9eb1d6f-111">
    <g transform="translate(211.7,5)" id="img-c9eb1d6f-112">
      <g class="primitive">
        <text text-anchor="middle" dy="0.6em">NJ Debt Redeemed Per Year</text>
      </g>
    </g>
  </g>
</g>
<defs>
  <clipPath id="img-c9eb1d6f-5">
    <path d="M28.4,10.61 L395,10.61 395,205.72 28.4,205.72 " />
  </clipPath>
</defs>
</svg>
