<?xml version="1.0" encoding="UTF-8"?>
<svg xmlns="http://www.w3.org/2000/svg"
     xmlns:xlink="http://www.w3.org/1999/xlink"
     xmlns:gadfly="http://www.gadflyjl.org/ns"
     version="1.2"
     width="400mm" height="225mm" viewBox="0 0 400 225"
     stroke="none"
     fill="#000000"
     stroke-width="0.3"
     font-size="3.88"
>
<defs>
  <marker id="arrow" markerWidth="15" markerHeight="7" refX="5" refY="3.5" orient="auto" markerUnits="strokeWidth">
    <path d="M0,0 L15,3.5 L0,7 z" stroke="context-stroke" fill="context-stroke"/>
  </marker>
</defs>
<g stroke="#000000" stroke-opacity="0.000" fill="#FFFFFF" id="img-8b13c1c1-1">
  <g transform="translate(200,112.5)">
    <path d="M-200,-112.5 L200,-112.5 200,112.5 -200,112.5  z" class="primitive"/>
  </g>
</g>
<g class="plotroot yscalable" id="img-8b13c1c1-2">
  <g font-size="3.88" font-family="'PT Sans','Helvetica Neue','Helvetica',sans-serif" fill="#564A55" stroke="#000000" stroke-opacity="0.000" id="img-8b13c1c1-3">
    <g transform="translate(210.86,213.39)">
      <g class="primitive">
        <text text-anchor="middle" dy="0.6em">Year</text>
      </g>
    </g>
  </g>
  <g class="guide xlabels" font-size="2.82" font-family="'PT Sans Caption','Helvetica Neue','Helvetica',sans-serif" fill="#6C606B" id="img-8b13c1c1-4">
    <g transform="translate(57.41,206.72)">
      <g class="primitive">
        <text text-anchor="middle" dy="0.6em">1790</text>
      </g>
    </g>
    <g transform="translate(118.79,206.72)">
      <g class="primitive">
        <text text-anchor="middle" dy="0.6em">1791</text>
      </g>
    </g>
    <g transform="translate(180.17,206.72)">
      <g class="primitive">
        <text text-anchor="middle" dy="0.6em">1792</text>
      </g>
    </g>
    <g transform="translate(241.55,206.72)">
      <g class="primitive">
        <text text-anchor="middle" dy="0.6em">1793</text>
      </g>
    </g>
    <g transform="translate(302.93,206.72)">
      <g class="primitive">
        <text text-anchor="middle" dy="0.6em">1794</text>
      </g>
    </g>
    <g transform="translate(364.31,206.72)">
      <g class="primitive">
        <text text-anchor="middle" dy="0.6em">1795</text>
      </g>
    </g>
  </g>
  <g clip-path="url(#img-8b13c1c1-5)">
    <g id="img-8b13c1c1-6">
      <g pointer-events="visible" stroke-width="0.3" fill="#000000" fill-opacity="0.000" stroke="#000000" stroke-opacity="0.000" class="guide background" id="img-8b13c1c1-7">
        <g transform="translate(210.86,108.16)" id="img-8b13c1c1-8">
          <path d="M-184.14,-97.55 L184.14,-97.55 184.14,97.55 -184.14,97.55  z" class="primitive"/>
        </g>
      </g>
      <g class="guide ygridlines xfixed" stroke-dasharray="0.5,0.5" stroke-width="0.2" stroke="#D0D0E0" id="img-8b13c1c1-9">
        <g transform="translate(210.86,203.72)" id="img-8b13c1c1-10">
          <path fill="none" d="M-184.14,0 L184.14,0 " class="primitive"/>
        </g>
        <g transform="translate(210.86,165.49)" id="img-8b13c1c1-11">
          <path fill="none" d="M-184.14,0 L184.14,0 " class="primitive"/>
        </g>
        <g transform="translate(210.86,127.27)" id="img-8b13c1c1-12">
          <path fill="none" d="M-184.14,0 L184.14,0 " class="primitive"/>
        </g>
        <g transform="translate(210.86,89.05)" id="img-8b13c1c1-13">
          <path fill="none" d="M-184.14,0 L184.14,0 " class="primitive"/>
        </g>
        <g transform="translate(210.86,50.83)" id="img-8b13c1c1-14">
          <path fill="none" d="M-184.14,0 L184.14,0 " class="primitive"/>
        </g>
        <g transform="translate(210.86,12.61)" id="img-8b13c1c1-15">
          <path fill="none" d="M-184.14,0 L184.14,0 " class="primitive"/>
        </g>
      </g>
      <g class="guide xgridlines yfixed" stroke-dasharray="0.5,0.5" stroke-width="0.2" stroke="#D0D0E0" id="img-8b13c1c1-16">
        <g transform="translate(88.1,108.16)" id="img-8b13c1c1-17">
          <path fill="none" d="M0,-97.55 L0,97.55 " class="primitive"/>
        </g>
        <g transform="translate(149.48,108.16)" id="img-8b13c1c1-18">
          <path fill="none" d="M0,-97.55 L0,97.55 " class="primitive"/>
        </g>
        <g transform="translate(210.86,108.16)" id="img-8b13c1c1-19">
          <path fill="none" d="M0,-97.55 L0,97.55 " class="primitive"/>
        </g>
        <g transform="translate(272.24,108.16)" id="img-8b13c1c1-20">
          <path fill="none" d="M0,-97.55 L0,97.55 " class="primitive"/>
        </g>
        <g transform="translate(333.62,108.16)" id="img-8b13c1c1-21">
          <path fill="none" d="M0,-97.55 L0,97.55 " class="primitive"/>
        </g>
      </g>
      <g class="plotpanel" id="img-8b13c1c1-22">
        <metadata>
          <boundingbox value="26.725000000000023mm 10.611666666666679mm 368.275mm 195.10333333333335mm"/>
          <unitbox value="0.5 505232.77110114944 6.0 -510465.5422022989"/>
        </metadata>
        <g shape-rendering="crispEdges" stroke-width="0.3" id="img-8b13c1c1-23">
          <g class="geometry" fill-opacity="1" stroke="#000000" stroke-opacity="0.000" fill="#00BFFF" id="img-8b13c1c1-24">
            <g transform="translate(57.41,151.44)" id="img-8b13c1c1-25">
              <path d="M-30.71,-52.27 L30.71,-52.27 30.71,52.27 -30.71,52.27  z" class="primitive"/>
            </g>
            <g transform="translate(57.41,184.38)" id="img-8b13c1c1-26">
              <path d="M-30.71,-19.33 L30.71,-19.33 30.71,19.33 -30.71,19.33  z" class="primitive"/>
            </g>
            <g transform="translate(57.41,171.6)" id="img-8b13c1c1-27">
              <path d="M-30.71,-32.11 L30.71,-32.11 30.71,32.11 -30.71,32.11  z" class="primitive"/>
            </g>
            <g transform="translate(118.79,181.17)" id="img-8b13c1c1-28">
              <path d="M-30.71,-22.55 L30.71,-22.55 30.71,22.55 -30.71,22.55  z" class="primitive"/>
            </g>
            <g transform="translate(118.79,181.73)" id="img-8b13c1c1-29">
              <path d="M-30.71,-21.98 L30.71,-21.98 30.71,21.98 -30.71,21.98  z" class="primitive"/>
            </g>
            <g transform="translate(118.79,167.72)" id="img-8b13c1c1-30">
              <path d="M-30.71,-35.99 L30.71,-35.99 30.71,35.99 -30.71,35.99  z" class="primitive"/>
            </g>
            <g transform="translate(118.79,171.2)" id="img-8b13c1c1-31">
              <path d="M-30.71,-32.51 L30.71,-32.51 30.71,32.51 -30.71,32.51  z" class="primitive"/>
            </g>
            <g transform="translate(118.79,174.92)" id="img-8b13c1c1-32">
              <path d="M-30.71,-28.8 L30.71,-28.8 30.71,28.8 -30.71,28.8  z" class="primitive"/>
            </g>
            <g transform="translate(118.79,163.29)" id="img-8b13c1c1-33">
              <path d="M-30.71,-40.43 L30.71,-40.43 30.71,40.43 -30.71,40.43  z" class="primitive"/>
            </g>
            <g transform="translate(118.79,176.84)" id="img-8b13c1c1-34">
              <path d="M-30.71,-26.88 L30.71,-26.88 30.71,26.88 -30.71,26.88  z" class="primitive"/>
            </g>
            <g transform="translate(118.79,154.96)" id="img-8b13c1c1-35">
              <path d="M-30.71,-48.75 L30.71,-48.75 30.71,48.75 -30.71,48.75  z" class="primitive"/>
            </g>
            <g transform="translate(118.79,132.21)" id="img-8b13c1c1-36">
              <path d="M-30.71,-71.5 L30.71,-71.5 30.71,71.5 -30.71,71.5  z" class="primitive"/>
            </g>
            <g transform="translate(118.79,190.33)" id="img-8b13c1c1-37">
              <path d="M-30.71,-13.39 L30.71,-13.39 30.71,13.39 -30.71,13.39  z" class="primitive"/>
            </g>
            <g transform="translate(118.79,138.54)" id="img-8b13c1c1-38">
              <path d="M-30.71,-65.17 L30.71,-65.17 30.71,65.17 -30.71,65.17  z" class="primitive"/>
            </g>
            <g transform="translate(118.79,114.78)" id="img-8b13c1c1-39">
              <path d="M-30.71,-88.93 L30.71,-88.93 30.71,88.93 -30.71,88.93  z" class="primitive"/>
            </g>
            <g transform="translate(180.17,189.65)" id="img-8b13c1c1-40">
              <path d="M-30.71,-14.07 L30.71,-14.07 30.71,14.07 -30.71,14.07  z" class="primitive"/>
            </g>
            <g transform="translate(180.17,177.36)" id="img-8b13c1c1-41">
              <path d="M-30.71,-26.36 L30.71,-26.36 30.71,26.36 -30.71,26.36  z" class="primitive"/>
            </g>
            <g transform="translate(180.17,195.64)" id="img-8b13c1c1-42">
              <path d="M-30.71,-8.07 L30.71,-8.07 30.71,8.07 -30.71,8.07  z" class="primitive"/>
            </g>
            <g transform="translate(180.17,198.21)" id="img-8b13c1c1-43">
              <path d="M-30.71,-5.5 L30.71,-5.5 30.71,5.5 -30.71,5.5  z" class="primitive"/>
            </g>
            <g transform="translate(180.17,182.99)" id="img-8b13c1c1-44">
              <path d="M-30.71,-20.72 L30.71,-20.72 30.71,20.72 -30.71,20.72  z" class="primitive"/>
            </g>
            <g transform="translate(180.17,186.72)" id="img-8b13c1c1-45">
              <path d="M-30.71,-17 L30.71,-17 30.71,17 -30.71,17  z" class="primitive"/>
            </g>
            <g transform="translate(180.17,187.52)" id="img-8b13c1c1-46">
              <path d="M-30.71,-16.19 L30.71,-16.19 30.71,16.19 -30.71,16.19  z" class="primitive"/>
            </g>
            <g transform="translate(180.17,195.01)" id="img-8b13c1c1-47">
              <path d="M-30.71,-8.7 L30.71,-8.7 30.71,8.7 -30.71,8.7  z" class="primitive"/>
            </g>
            <g transform="translate(180.17,194.32)" id="img-8b13c1c1-48">
              <path d="M-30.71,-9.39 L30.71,-9.39 30.71,9.39 -30.71,9.39  z" class="primitive"/>
            </g>
            <g transform="translate(180.17,188.84)" id="img-8b13c1c1-49">
              <path d="M-30.71,-14.87 L30.71,-14.87 30.71,14.87 -30.71,14.87  z" class="primitive"/>
            </g>
            <g transform="translate(180.17,197.67)" id="img-8b13c1c1-50">
              <path d="M-30.71,-6.05 L30.71,-6.05 30.71,6.05 -30.71,6.05  z" class="primitive"/>
            </g>
            <g transform="translate(180.17,200.26)" id="img-8b13c1c1-51">
              <path d="M-30.71,-3.46 L30.71,-3.46 30.71,3.46 -30.71,3.46  z" class="primitive"/>
            </g>
            <g transform="translate(241.55,193.75)" id="img-8b13c1c1-52">
              <path d="M-30.71,-9.96 L30.71,-9.96 30.71,9.96 -30.71,9.96  z" class="primitive"/>
            </g>
            <g transform="translate(241.55,198.72)" id="img-8b13c1c1-53">
              <path d="M-30.71,-4.99 L30.71,-4.99 30.71,4.99 -30.71,4.99  z" class="primitive"/>
            </g>
            <g transform="translate(241.55,200.12)" id="img-8b13c1c1-54">
              <path d="M-30.71,-3.6 L30.71,-3.6 30.71,3.6 -30.71,3.6  z" class="primitive"/>
            </g>
            <g transform="translate(241.55,195.97)" id="img-8b13c1c1-55">
              <path d="M-30.71,-7.74 L30.71,-7.74 30.71,7.74 -30.71,7.74  z" class="primitive"/>
            </g>
            <g transform="translate(241.55,185.57)" id="img-8b13c1c1-56">
              <path d="M-30.71,-18.15 L30.71,-18.15 30.71,18.15 -30.71,18.15  z" class="primitive"/>
            </g>
            <g transform="translate(241.55,202.5)" id="img-8b13c1c1-57">
              <path d="M-30.71,-1.21 L30.71,-1.21 30.71,1.21 -30.71,1.21  z" class="primitive"/>
            </g>
            <g transform="translate(241.55,194.98)" id="img-8b13c1c1-58">
              <path d="M-30.71,-8.74 L30.71,-8.74 30.71,8.74 -30.71,8.74  z" class="primitive"/>
            </g>
            <g transform="translate(241.55,201.73)" id="img-8b13c1c1-59">
              <path d="M-30.71,-1.98 L30.71,-1.98 30.71,1.98 -30.71,1.98  z" class="primitive"/>
            </g>
            <g transform="translate(241.55,202.56)" id="img-8b13c1c1-60">
              <path d="M-30.71,-1.16 L30.71,-1.16 30.71,1.16 -30.71,1.16  z" class="primitive"/>
            </g>
            <g transform="translate(241.55,202.6)" id="img-8b13c1c1-61">
              <path d="M-30.71,-1.12 L30.71,-1.12 30.71,1.12 -30.71,1.12  z" class="primitive"/>
            </g>
            <g transform="translate(241.55,203.67)" id="img-8b13c1c1-62">
              <path d="M-30.71,-0.05 L30.71,-0.05 30.71,0.05 -30.71,0.05  z" class="primitive"/>
            </g>
            <g transform="translate(241.55,181.36)" id="img-8b13c1c1-63">
              <path d="M-30.71,-22.36 L30.71,-22.36 30.71,22.36 -30.71,22.36  z" class="primitive"/>
            </g>
            <g transform="translate(302.93,199.26)" id="img-8b13c1c1-64">
              <path d="M-30.71,-4.46 L30.71,-4.46 30.71,4.46 -30.71,4.46  z" class="primitive"/>
            </g>
            <g transform="translate(302.93,202.59)" id="img-8b13c1c1-65">
              <path d="M-30.71,-1.13 L30.71,-1.13 30.71,1.13 -30.71,1.13  z" class="primitive"/>
            </g>
            <g transform="translate(302.93,183.52)" id="img-8b13c1c1-66">
              <path d="M-30.71,-20.19 L30.71,-20.19 30.71,20.19 -30.71,20.19  z" class="primitive"/>
            </g>
            <g transform="translate(302.93,202.62)" id="img-8b13c1c1-67">
              <path d="M-30.71,-1.09 L30.71,-1.09 30.71,1.09 -30.71,1.09  z" class="primitive"/>
            </g>
            <g transform="translate(302.93,201.86)" id="img-8b13c1c1-68">
              <path d="M-30.71,-1.85 L30.71,-1.85 30.71,1.85 -30.71,1.85  z" class="primitive"/>
            </g>
            <g transform="translate(302.93,199.81)" id="img-8b13c1c1-69">
              <path d="M-30.71,-3.9 L30.71,-3.9 30.71,3.9 -30.71,3.9  z" class="primitive"/>
            </g>
            <g transform="translate(302.93,200.9)" id="img-8b13c1c1-70">
              <path d="M-30.71,-2.82 L30.71,-2.82 30.71,2.82 -30.71,2.82  z" class="primitive"/>
            </g>
            <g transform="translate(302.93,202.87)" id="img-8b13c1c1-71">
              <path d="M-30.71,-0.85 L30.71,-0.85 30.71,0.85 -30.71,0.85  z" class="primitive"/>
            </g>
            <g transform="translate(302.93,196.06)" id="img-8b13c1c1-72">
              <path d="M-30.71,-7.65 L30.71,-7.65 30.71,7.65 -30.71,7.65  z" class="primitive"/>
            </g>
            <g transform="translate(302.93,194.68)" id="img-8b13c1c1-73">
              <path d="M-30.71,-9.03 L30.71,-9.03 30.71,9.03 -30.71,9.03  z" class="primitive"/>
            </g>
            <g transform="translate(302.93,203.43)" id="img-8b13c1c1-74">
              <path d="M-30.71,-0.29 L30.71,-0.29 30.71,0.29 -30.71,0.29  z" class="primitive"/>
            </g>
            <g transform="translate(364.31,203.31)" id="img-8b13c1c1-75">
              <path d="M-30.71,-0.41 L30.71,-0.41 30.71,0.41 -30.71,0.41  z" class="primitive"/>
            </g>
            <g transform="translate(364.31,201.05)" id="img-8b13c1c1-76">
              <path d="M-30.71,-2.66 L30.71,-2.66 30.71,2.66 -30.71,2.66  z" class="primitive"/>
            </g>
            <g transform="translate(364.31,200.95)" id="img-8b13c1c1-77">
              <path d="M-30.71,-2.77 L30.71,-2.77 30.71,2.77 -30.71,2.77  z" class="primitive"/>
            </g>
            <g transform="translate(364.31,195.94)" id="img-8b13c1c1-78">
              <path d="M-30.71,-7.77 L30.71,-7.77 30.71,7.77 -30.71,7.77  z" class="primitive"/>
            </g>
            <g transform="translate(364.31,195.58)" id="img-8b13c1c1-79">
              <path d="M-30.71,-8.14 L30.71,-8.14 30.71,8.14 -30.71,8.14  z" class="primitive"/>
            </g>
            <g transform="translate(364.31,202.44)" id="img-8b13c1c1-80">
              <path d="M-30.71,-1.27 L30.71,-1.27 30.71,1.27 -30.71,1.27  z" class="primitive"/>
            </g>
            <g transform="translate(364.31,197.32)" id="img-8b13c1c1-81">
              <path d="M-30.71,-6.39 L30.71,-6.39 30.71,6.39 -30.71,6.39  z" class="primitive"/>
            </g>
            <g transform="translate(364.31,200.07)" id="img-8b13c1c1-82">
              <path d="M-30.71,-3.65 L30.71,-3.65 30.71,3.65 -30.71,3.65  z" class="primitive"/>
            </g>
          </g>
        </g>
      </g>
    </g>
  </g>
  <g class="guide ylabels" font-size="2.82" font-family="'PT Sans Caption','Helvetica Neue','Helvetica',sans-serif" fill="#6C606B" id="img-8b13c1c1-83">
    <g transform="translate(25.72,203.72)" id="img-8b13c1c1-84">
      <g class="primitive">
        <text text-anchor="end" dy="0.35em">0</text>
      </g>
    </g>
    <g transform="translate(25.72,165.49)" id="img-8b13c1c1-85">
      <g class="primitive">
        <text text-anchor="end" dy="0.35em">1.0×10⁵</text>
      </g>
    </g>
    <g transform="translate(25.72,127.27)" id="img-8b13c1c1-86">
      <g class="primitive">
        <text text-anchor="end" dy="0.35em">2.0×10⁵</text>
      </g>
    </g>
    <g transform="translate(25.72,89.05)" id="img-8b13c1c1-87">
      <g class="primitive">
        <text text-anchor="end" dy="0.35em">3.0×10⁵</text>
      </g>
    </g>
    <g transform="translate(25.72,50.83)" id="img-8b13c1c1-88">
      <g class="primitive">
        <text text-anchor="end" dy="0.35em">4.0×10⁵</text>
      </g>
    </g>
    <g transform="translate(25.72,12.61)" id="img-8b13c1c1-89">
      <g class="primitive">
        <text text-anchor="end" dy="0.35em">5.0×10⁵</text>
      </g>
    </g>
  </g>
  <g font-size="3.88" font-family="'PT Sans','Helvetica Neue','Helvetica',sans-serif" fill="#564A55" stroke="#000000" stroke-opacity="0.000" id="img-8b13c1c1-90">
    <g transform="translate(8.81,106.16)" id="img-8b13c1c1-91">
      <g class="primitive">
        <text text-anchor="middle" dy="0.35em" transform="rotate(-90,0, 2)">Total Debt (in dollars)</text>
      </g>
    </g>
  </g>
  <g font-size="3.88" font-family="'PT Sans','Helvetica Neue','Helvetica',sans-serif" fill="#564A55" stroke="#000000" stroke-opacity="0.000" id="img-8b13c1c1-92">
    <g transform="translate(210.86,5)" id="img-8b13c1c1-93">
      <g class="primitive">
        <text text-anchor="middle" dy="0.6em">NY Debt Redeemed Per Year</text>
      </g>
    </g>
  </g>
</g>
<defs>
  <clipPath id="img-8b13c1c1-5">
    <path d="M26.73,10.61 L395,10.61 395,205.72 26.73,205.72 " />
  </clipPath>
</defs>
</svg>
