<?xml version="1.0" encoding="UTF-8"?>
<svg xmlns="http://www.w3.org/2000/svg"
     xmlns:xlink="http://www.w3.org/1999/xlink"
     xmlns:gadfly="http://www.gadflyjl.org/ns"
     version="1.2"
     width="400mm" height="225mm" viewBox="0 0 400 225"
     stroke="none"
     fill="#000000"
     stroke-width="0.3"
     font-size="3.88"
>
<defs>
  <marker id="arrow" markerWidth="15" markerHeight="7" refX="5" refY="3.5" orient="auto" markerUnits="strokeWidth">
    <path d="M0,0 L15,3.5 L0,7 z" stroke="context-stroke" fill="context-stroke"/>
  </marker>
</defs>
<g stroke="#000000" stroke-opacity="0.000" fill="#FFFFFF" id="img-4c6ed531-1">
  <g transform="translate(200,112.5)">
    <path d="M-200,-112.5 L200,-112.5 200,112.5 -200,112.5  z" class="primitive"/>
  </g>
</g>
<g class="plotroot yscalable" id="img-4c6ed531-2">
  <g font-size="3.88" font-family="'PT Sans','Helvetica Neue','Helvetica',sans-serif" fill="#564A55" stroke="#000000" stroke-opacity="0.000" id="img-4c6ed531-3">
    <g transform="translate(210.86,213.39)">
      <g class="primitive">
        <text text-anchor="middle" dy="0.6em">Year</text>
      </g>
    </g>
  </g>
  <g class="guide xlabels" font-size="2.82" font-family="'PT Sans Caption','Helvetica Neue','Helvetica',sans-serif" fill="#6C606B" id="img-4c6ed531-4">
    <g transform="translate(72.76,206.72)">
      <g class="primitive">
        <text text-anchor="middle" dy="0.6em">1790</text>
      </g>
    </g>
    <g transform="translate(164.83,206.72)">
      <g class="primitive">
        <text text-anchor="middle" dy="0.6em">1791</text>
      </g>
    </g>
    <g transform="translate(256.9,206.72)">
      <g class="primitive">
        <text text-anchor="middle" dy="0.6em">1792</text>
      </g>
    </g>
    <g transform="translate(348.97,206.72)">
      <g class="primitive">
        <text text-anchor="middle" dy="0.6em">1793</text>
      </g>
    </g>
  </g>
  <g clip-path="url(#img-4c6ed531-5)">
    <g id="img-4c6ed531-6">
      <g pointer-events="visible" stroke-width="0.3" fill="#000000" fill-opacity="0.000" stroke="#000000" stroke-opacity="0.000" class="guide background" id="img-4c6ed531-7">
        <g transform="translate(210.86,108.16)" id="img-4c6ed531-8">
          <path d="M-184.14,-97.55 L184.14,-97.55 184.14,97.55 -184.14,97.55  z" class="primitive"/>
        </g>
      </g>
      <g class="guide ygridlines xfixed" stroke-dasharray="0.5,0.5" stroke-width="0.2" stroke="#D0D0E0" id="img-4c6ed531-9">
        <g transform="translate(210.86,203.72)" id="img-4c6ed531-10">
          <path fill="none" d="M-184.14,0 L184.14,0 " class="primitive"/>
        </g>
        <g transform="translate(210.86,108.16)" id="img-4c6ed531-11">
          <path fill="none" d="M-184.14,0 L184.14,0 " class="primitive"/>
        </g>
        <g transform="translate(210.86,12.61)" id="img-4c6ed531-12">
          <path fill="none" d="M-184.14,0 L184.14,0 " class="primitive"/>
        </g>
      </g>
      <g class="guide xgridlines yfixed" stroke-dasharray="0.5,0.5" stroke-width="0.2" stroke="#D0D0E0" id="img-4c6ed531-13">
        <g transform="translate(118.79,108.16)" id="img-4c6ed531-14">
          <path fill="none" d="M0,-97.55 L0,97.55 " class="primitive"/>
        </g>
        <g transform="translate(210.86,108.16)" id="img-4c6ed531-15">
          <path fill="none" d="M0,-97.55 L0,97.55 " class="primitive"/>
        </g>
        <g transform="translate(302.93,108.16)" id="img-4c6ed531-16">
          <path fill="none" d="M0,-97.55 L0,97.55 " class="primitive"/>
        </g>
      </g>
      <g class="plotpanel" id="img-4c6ed531-17">
        <metadata>
          <boundingbox value="26.725000000000023mm 10.611666666666679mm 368.275mm 195.10333333333335mm"/>
          <unitbox value="0.5 101046.5542202299 4.0 -102093.10844045978"/>
        </metadata>
        <g shape-rendering="crispEdges" stroke-width="0.3" id="img-4c6ed531-18">
          <g class="geometry" fill-opacity="1" stroke="#000000" stroke-opacity="0.000" fill="#00BFFF" id="img-4c6ed531-19">
            <g transform="translate(72.76,114.84)" id="img-4c6ed531-20">
              <path d="M-46.06,-88.87 L46.06,-88.87 46.06,88.87 -46.06,88.87  z" class="primitive"/>
            </g>
            <g transform="translate(72.76,147.74)" id="img-4c6ed531-21">
              <path d="M-46.06,-55.97 L46.06,-55.97 46.06,55.97 -46.06,55.97  z" class="primitive"/>
            </g>
            <g transform="translate(72.76,154.16)" id="img-4c6ed531-22">
              <path d="M-46.06,-49.56 L46.06,-49.56 46.06,49.56 -46.06,49.56  z" class="primitive"/>
            </g>
            <g transform="translate(164.83,122.42)" id="img-4c6ed531-23">
              <path d="M-46.06,-81.29 L46.06,-81.29 46.06,81.29 -46.06,81.29  z" class="primitive"/>
            </g>
            <g transform="translate(164.83,115.55)" id="img-4c6ed531-24">
              <path d="M-46.06,-88.17 L46.06,-88.17 46.06,88.17 -46.06,88.17  z" class="primitive"/>
            </g>
            <g transform="translate(164.83,140.62)" id="img-4c6ed531-25">
              <path d="M-46.06,-63.1 L46.06,-63.1 46.06,63.1 -46.06,63.1  z" class="primitive"/>
            </g>
            <g transform="translate(164.83,120.97)" id="img-4c6ed531-26">
              <path d="M-46.06,-82.74 L46.06,-82.74 46.06,82.74 -46.06,82.74  z" class="primitive"/>
            </g>
            <g transform="translate(164.83,136.7)" id="img-4c6ed531-27">
              <path d="M-46.06,-67.01 L46.06,-67.01 46.06,67.01 -46.06,67.01  z" class="primitive"/>
            </g>
            <g transform="translate(164.83,175.22)" id="img-4c6ed531-28">
              <path d="M-46.06,-28.49 L46.06,-28.49 46.06,28.49 -46.06,28.49  z" class="primitive"/>
            </g>
            <g transform="translate(164.83,156.16)" id="img-4c6ed531-29">
              <path d="M-46.06,-47.55 L46.06,-47.55 46.06,47.55 -46.06,47.55  z" class="primitive"/>
            </g>
            <g transform="translate(164.83,163.38)" id="img-4c6ed531-30">
              <path d="M-46.06,-40.34 L46.06,-40.34 46.06,40.34 -46.06,40.34  z" class="primitive"/>
            </g>
            <g transform="translate(164.83,173.58)" id="img-4c6ed531-31">
              <path d="M-46.06,-30.14 L46.06,-30.14 46.06,30.14 -46.06,30.14  z" class="primitive"/>
            </g>
            <g transform="translate(164.83,153.34)" id="img-4c6ed531-32">
              <path d="M-46.06,-50.37 L46.06,-50.37 46.06,50.37 -46.06,50.37  z" class="primitive"/>
            </g>
            <g transform="translate(256.9,202.18)" id="img-4c6ed531-33">
              <path d="M-46.06,-1.54 L46.06,-1.54 46.06,1.54 -46.06,1.54  z" class="primitive"/>
            </g>
            <g transform="translate(256.9,193.57)" id="img-4c6ed531-34">
              <path d="M-46.06,-10.14 L46.06,-10.14 46.06,10.14 -46.06,10.14  z" class="primitive"/>
            </g>
            <g transform="translate(256.9,191.62)" id="img-4c6ed531-35">
              <path d="M-46.06,-12.1 L46.06,-12.1 46.06,12.1 -46.06,12.1  z" class="primitive"/>
            </g>
            <g transform="translate(256.9,200.56)" id="img-4c6ed531-36">
              <path d="M-46.06,-3.15 L46.06,-3.15 46.06,3.15 -46.06,3.15  z" class="primitive"/>
            </g>
            <g transform="translate(256.9,201.36)" id="img-4c6ed531-37">
              <path d="M-46.06,-2.35 L46.06,-2.35 46.06,2.35 -46.06,2.35  z" class="primitive"/>
            </g>
            <g transform="translate(256.9,200.98)" id="img-4c6ed531-38">
              <path d="M-46.06,-2.74 L46.06,-2.74 46.06,2.74 -46.06,2.74  z" class="primitive"/>
            </g>
            <g transform="translate(256.9,203.36)" id="img-4c6ed531-39">
              <path d="M-46.06,-0.35 L46.06,-0.35 46.06,0.35 -46.06,0.35  z" class="primitive"/>
            </g>
            <g transform="translate(256.9,202.77)" id="img-4c6ed531-40">
              <path d="M-46.06,-0.95 L46.06,-0.95 46.06,0.95 -46.06,0.95  z" class="primitive"/>
            </g>
            <g transform="translate(348.97,203.16)" id="img-4c6ed531-41">
              <path d="M-46.06,-0.56 L46.06,-0.56 46.06,0.56 -46.06,0.56  z" class="primitive"/>
            </g>
            <g transform="translate(348.97,188.71)" id="img-4c6ed531-42">
              <path d="M-46.06,-15 L46.06,-15 46.06,15 -46.06,15  z" class="primitive"/>
            </g>
          </g>
        </g>
      </g>
    </g>
  </g>
  <g class="guide ylabels" font-size="2.82" font-family="'PT Sans Caption','Helvetica Neue','Helvetica',sans-serif" fill="#6C606B" id="img-4c6ed531-43">
    <g transform="translate(25.72,203.72)" id="img-4c6ed531-44">
      <g class="primitive">
        <text text-anchor="end" dy="0.35em">0</text>
      </g>
    </g>
    <g transform="translate(25.72,108.16)" id="img-4c6ed531-45">
      <g class="primitive">
        <text text-anchor="end" dy="0.35em">5.0×10⁴</text>
      </g>
    </g>
    <g transform="translate(25.72,12.61)" id="img-4c6ed531-46">
      <g class="primitive">
        <text text-anchor="end" dy="0.35em">1.0×10⁵</text>
      </g>
    </g>
  </g>
  <g font-size="3.88" font-family="'PT Sans','Helvetica Neue','Helvetica',sans-serif" fill="#564A55" stroke="#000000" stroke-opacity="0.000" id="img-4c6ed531-47">
    <g transform="translate(8.81,106.16)" id="img-4c6ed531-48">
      <g class="primitive">
        <text text-anchor="middle" dy="0.35em" transform="rotate(-90,0, 2)">Total Debt (in dollars)</text>
      </g>
    </g>
  </g>
  <g font-size="3.88" font-family="'PT Sans','Helvetica Neue','Helvetica',sans-serif" fill="#564A55" stroke="#000000" stroke-opacity="0.000" id="img-4c6ed531-49">
    <g transform="translate(210.86,5)" id="img-4c6ed531-50">
      <g class="primitive">
        <text text-anchor="middle" dy="0.6em">PA Debt Redeemed Per Year</text>
      </g>
    </g>
  </g>
</g>
<defs>
  <clipPath id="img-4c6ed531-5">
    <path d="M26.73,10.61 L395,10.61 395,205.72 26.73,205.72 " />
  </clipPath>
</defs>
</svg>
