<?xml version="1.0" encoding="UTF-8"?>
<svg xmlns="http://www.w3.org/2000/svg"
     xmlns:xlink="http://www.w3.org/1999/xlink"
     xmlns:gadfly="http://www.gadflyjl.org/ns"
     version="1.2"
     width="400mm" height="225mm" viewBox="0 0 400 225"
     stroke="none"
     fill="#000000"
     stroke-width="0.3"
     font-size="3.88"
>
<defs>
  <marker id="arrow" markerWidth="15" markerHeight="7" refX="5" refY="3.5" orient="auto" markerUnits="strokeWidth">
    <path d="M0,0 L15,3.5 L0,7 z" stroke="context-stroke" fill="context-stroke"/>
  </marker>
</defs>
<g stroke="#000000" stroke-opacity="0.000" fill="#FFFFFF" id="img-e366817e-1">
  <g transform="translate(200,112.5)">
    <path d="M-200,-112.5 L200,-112.5 200,112.5 -200,112.5  z" class="primitive"/>
  </g>
</g>
<g class="plotroot yscalable" id="img-e366817e-2">
  <g font-size="3.88" font-family="'PT Sans','Helvetica Neue','Helvetica',sans-serif" fill="#564A55" stroke="#000000" stroke-opacity="0.000" id="img-e366817e-3">
    <g transform="translate(210.86,213.39)">
      <g class="primitive">
        <text text-anchor="middle" dy="0.6em">Year</text>
      </g>
    </g>
  </g>
  <g class="guide xlabels" font-size="2.82" font-family="'PT Sans Caption','Helvetica Neue','Helvetica',sans-serif" fill="#6C606B" id="img-e366817e-4">
    <g transform="translate(63.55,206.72)">
      <g class="primitive">
        <text text-anchor="middle" dy="0.6em">1790</text>
      </g>
    </g>
    <g transform="translate(137.21,206.72)">
      <g class="primitive">
        <text text-anchor="middle" dy="0.6em">1791</text>
      </g>
    </g>
    <g transform="translate(210.86,206.72)">
      <g class="primitive">
        <text text-anchor="middle" dy="0.6em">1792</text>
      </g>
    </g>
    <g transform="translate(284.52,206.72)">
      <g class="primitive">
        <text text-anchor="middle" dy="0.6em">1793</text>
      </g>
    </g>
    <g transform="translate(358.17,206.72)">
      <g class="primitive">
        <text text-anchor="middle" dy="0.6em">1794</text>
      </g>
    </g>
  </g>
  <g clip-path="url(#img-e366817e-5)">
    <g id="img-e366817e-6">
      <g pointer-events="visible" stroke-width="0.3" fill="#000000" fill-opacity="0.000" stroke="#000000" stroke-opacity="0.000" class="guide background" id="img-e366817e-7">
        <g transform="translate(210.86,108.16)" id="img-e366817e-8">
          <path d="M-184.14,-97.55 L184.14,-97.55 184.14,97.55 -184.14,97.55  z" class="primitive"/>
        </g>
      </g>
      <g class="guide ygridlines xfixed" stroke-dasharray="0.5,0.5" stroke-width="0.2" stroke="#D0D0E0" id="img-e366817e-9">
        <g transform="translate(210.86,203.72)" id="img-e366817e-10">
          <path fill="none" d="M-184.14,0 L184.14,0 " class="primitive"/>
        </g>
        <g transform="translate(210.86,171.86)" id="img-e366817e-11">
          <path fill="none" d="M-184.14,0 L184.14,0 " class="primitive"/>
        </g>
        <g transform="translate(210.86,140.01)" id="img-e366817e-12">
          <path fill="none" d="M-184.14,0 L184.14,0 " class="primitive"/>
        </g>
        <g transform="translate(210.86,108.16)" id="img-e366817e-13">
          <path fill="none" d="M-184.14,0 L184.14,0 " class="primitive"/>
        </g>
        <g transform="translate(210.86,76.31)" id="img-e366817e-14">
          <path fill="none" d="M-184.14,0 L184.14,0 " class="primitive"/>
        </g>
        <g transform="translate(210.86,44.46)" id="img-e366817e-15">
          <path fill="none" d="M-184.14,0 L184.14,0 " class="primitive"/>
        </g>
        <g transform="translate(210.86,12.61)" id="img-e366817e-16">
          <path fill="none" d="M-184.14,0 L184.14,0 " class="primitive"/>
        </g>
      </g>
      <g class="guide xgridlines yfixed" stroke-dasharray="0.5,0.5" stroke-width="0.2" stroke="#D0D0E0" id="img-e366817e-17">
        <g transform="translate(100.38,108.16)" id="img-e366817e-18">
          <path fill="none" d="M0,-97.55 L0,97.55 " class="primitive"/>
        </g>
        <g transform="translate(174.04,108.16)" id="img-e366817e-19">
          <path fill="none" d="M0,-97.55 L0,97.55 " class="primitive"/>
        </g>
        <g transform="translate(247.69,108.16)" id="img-e366817e-20">
          <path fill="none" d="M0,-97.55 L0,97.55 " class="primitive"/>
        </g>
        <g transform="translate(321.35,108.16)" id="img-e366817e-21">
          <path fill="none" d="M0,-97.55 L0,97.55 " class="primitive"/>
        </g>
      </g>
      <g class="plotpanel" id="img-e366817e-22">
        <metadata>
          <boundingbox value="26.725000000000023mm 10.611666666666679mm 368.27500000000003mm 195.10333333333335mm"/>
          <unitbox value="0.5 60627.93253213794 5.0 -61255.865064275866"/>
        </metadata>
        <g shape-rendering="crispEdges" stroke-width="0.3" id="img-e366817e-23">
          <g class="geometry" fill-opacity="1" stroke="#000000" stroke-opacity="0.000" fill="#00BFFF" id="img-e366817e-24">
            <g transform="translate(63.55,187.45)" id="img-e366817e-25">
              <path d="M-36.85,-16.26 L36.85,-16.26 36.85,16.26 -36.85,16.26  z" class="primitive"/>
            </g>
            <g transform="translate(63.55,161.27)" id="img-e366817e-26">
              <path d="M-36.85,-42.44 L36.85,-42.44 36.85,42.44 -36.85,42.44  z" class="primitive"/>
            </g>
            <g transform="translate(137.21,181.22)" id="img-e366817e-27">
              <path d="M-36.85,-22.49 L36.85,-22.49 36.85,22.49 -36.85,22.49  z" class="primitive"/>
            </g>
            <g transform="translate(137.21,189.09)" id="img-e366817e-28">
              <path d="M-36.85,-14.63 L36.85,-14.63 36.85,14.63 -36.85,14.63  z" class="primitive"/>
            </g>
            <g transform="translate(137.21,151.64)" id="img-e366817e-29">
              <path d="M-36.85,-52.08 L36.85,-52.08 36.85,52.08 -36.85,52.08  z" class="primitive"/>
            </g>
            <g transform="translate(137.21,187.14)" id="img-e366817e-30">
              <path d="M-36.85,-16.57 L36.85,-16.57 36.85,16.57 -36.85,16.57  z" class="primitive"/>
            </g>
            <g transform="translate(137.21,174.37)" id="img-e366817e-31">
              <path d="M-36.85,-29.34 L36.85,-29.34 36.85,29.34 -36.85,29.34  z" class="primitive"/>
            </g>
            <g transform="translate(137.21,162.37)" id="img-e366817e-32">
              <path d="M-36.85,-41.35 L36.85,-41.35 36.85,41.35 -36.85,41.35  z" class="primitive"/>
            </g>
            <g transform="translate(137.21,188.62)" id="img-e366817e-33">
              <path d="M-36.85,-15.09 L36.85,-15.09 36.85,15.09 -36.85,15.09  z" class="primitive"/>
            </g>
            <g transform="translate(137.21,188.08)" id="img-e366817e-34">
              <path d="M-36.85,-15.64 L36.85,-15.64 36.85,15.64 -36.85,15.64  z" class="primitive"/>
            </g>
            <g transform="translate(137.21,186.02)" id="img-e366817e-35">
              <path d="M-36.85,-17.7 L36.85,-17.7 36.85,17.7 -36.85,17.7  z" class="primitive"/>
            </g>
            <g transform="translate(137.21,195.95)" id="img-e366817e-36">
              <path d="M-36.85,-7.77 L36.85,-7.77 36.85,7.77 -36.85,7.77  z" class="primitive"/>
            </g>
            <g transform="translate(137.21,203.2)" id="img-e366817e-37">
              <path d="M-36.85,-0.51 L36.85,-0.51 36.85,0.51 -36.85,0.51  z" class="primitive"/>
            </g>
            <g transform="translate(210.86,203.58)" id="img-e366817e-38">
              <path d="M-36.85,-0.13 L36.85,-0.13 36.85,0.13 -36.85,0.13  z" class="primitive"/>
            </g>
            <g transform="translate(210.86,203.56)" id="img-e366817e-39">
              <path d="M-36.85,-0.16 L36.85,-0.16 36.85,0.16 -36.85,0.16  z" class="primitive"/>
            </g>
            <g transform="translate(210.86,200.38)" id="img-e366817e-40">
              <path d="M-36.85,-3.33 L36.85,-3.33 36.85,3.33 -36.85,3.33  z" class="primitive"/>
            </g>
            <g transform="translate(210.86,203.4)" id="img-e366817e-41">
              <path d="M-36.85,-0.32 L36.85,-0.32 36.85,0.32 -36.85,0.32  z" class="primitive"/>
            </g>
            <g transform="translate(210.86,197.4)" id="img-e366817e-42">
              <path d="M-36.85,-6.32 L36.85,-6.32 36.85,6.32 -36.85,6.32  z" class="primitive"/>
            </g>
            <g transform="translate(210.86,203.16)" id="img-e366817e-43">
              <path d="M-36.85,-0.55 L36.85,-0.55 36.85,0.55 -36.85,0.55  z" class="primitive"/>
            </g>
            <g transform="translate(210.86,203.44)" id="img-e366817e-44">
              <path d="M-36.85,-0.28 L36.85,-0.28 36.85,0.28 -36.85,0.28  z" class="primitive"/>
            </g>
            <g transform="translate(210.86,203.12)" id="img-e366817e-45">
              <path d="M-36.85,-0.6 L36.85,-0.6 36.85,0.6 -36.85,0.6  z" class="primitive"/>
            </g>
            <g transform="translate(210.86,202.41)" id="img-e366817e-46">
              <path d="M-36.85,-1.31 L36.85,-1.31 36.85,1.31 -36.85,1.31  z" class="primitive"/>
            </g>
            <g transform="translate(284.52,203.63)" id="img-e366817e-47">
              <path d="M-36.85,-0.09 L36.85,-0.09 36.85,0.09 -36.85,0.09  z" class="primitive"/>
            </g>
            <g transform="translate(284.52,202.38)" id="img-e366817e-48">
              <path d="M-36.85,-1.34 L36.85,-1.34 36.85,1.34 -36.85,1.34  z" class="primitive"/>
            </g>
            <g transform="translate(284.52,203.4)" id="img-e366817e-49">
              <path d="M-36.85,-0.32 L36.85,-0.32 36.85,0.32 -36.85,0.32  z" class="primitive"/>
            </g>
            <g transform="translate(284.52,203.17)" id="img-e366817e-50">
              <path d="M-36.85,-0.54 L36.85,-0.54 36.85,0.54 -36.85,0.54  z" class="primitive"/>
            </g>
            <g transform="translate(284.52,203.23)" id="img-e366817e-51">
              <path d="M-36.85,-0.49 L36.85,-0.49 36.85,0.49 -36.85,0.49  z" class="primitive"/>
            </g>
            <g transform="translate(284.52,200.62)" id="img-e366817e-52">
              <path d="M-36.85,-3.09 L36.85,-3.09 36.85,3.09 -36.85,3.09  z" class="primitive"/>
            </g>
            <g transform="translate(358.17,203.49)" id="img-e366817e-53">
              <path d="M-36.85,-0.23 L36.85,-0.23 36.85,0.23 -36.85,0.23  z" class="primitive"/>
            </g>
            <g transform="translate(358.17,203.65)" id="img-e366817e-54">
              <path d="M-36.85,-0.06 L36.85,-0.06 36.85,0.06 -36.85,0.06  z" class="primitive"/>
            </g>
            <g transform="translate(358.17,203.69)" id="img-e366817e-55">
              <path d="M-36.85,-0.03 L36.85,-0.03 36.85,0.03 -36.85,0.03  z" class="primitive"/>
            </g>
            <g transform="translate(358.17,203.27)" id="img-e366817e-56">
              <path d="M-36.85,-0.44 L36.85,-0.44 36.85,0.44 -36.85,0.44  z" class="primitive"/>
            </g>
            <g transform="translate(358.17,203.37)" id="img-e366817e-57">
              <path d="M-36.85,-0.34 L36.85,-0.34 36.85,0.34 -36.85,0.34  z" class="primitive"/>
            </g>
            <g transform="translate(358.17,108.29)" id="img-e366817e-58">
              <path d="M-36.85,-95.43 L36.85,-95.43 36.85,95.43 -36.85,95.43  z" class="primitive"/>
            </g>
            <g transform="translate(358.17,203.7)" id="img-e366817e-59">
              <path d="M-36.85,-0.02 L36.85,-0.02 36.85,0.02 -36.85,0.02  z" class="primitive"/>
            </g>
          </g>
        </g>
      </g>
    </g>
  </g>
  <g class="guide ylabels" font-size="2.82" font-family="'PT Sans Caption','Helvetica Neue','Helvetica',sans-serif" fill="#6C606B" id="img-e366817e-60">
    <g transform="translate(25.72,203.72)" id="img-e366817e-61">
      <g class="primitive">
        <text text-anchor="end" dy="0.35em">0</text>
      </g>
    </g>
    <g transform="translate(25.72,171.86)" id="img-e366817e-62">
      <g class="primitive">
        <text text-anchor="end" dy="0.35em">1.0×10⁴</text>
      </g>
    </g>
    <g transform="translate(25.72,140.01)" id="img-e366817e-63">
      <g class="primitive">
        <text text-anchor="end" dy="0.35em">2.0×10⁴</text>
      </g>
    </g>
    <g transform="translate(25.72,108.16)" id="img-e366817e-64">
      <g class="primitive">
        <text text-anchor="end" dy="0.35em">3.0×10⁴</text>
      </g>
    </g>
    <g transform="translate(25.72,76.31)" id="img-e366817e-65">
      <g class="primitive">
        <text text-anchor="end" dy="0.35em">4.0×10⁴</text>
      </g>
    </g>
    <g transform="translate(25.72,44.46)" id="img-e366817e-66">
      <g class="primitive">
        <text text-anchor="end" dy="0.35em">5.0×10⁴</text>
      </g>
    </g>
    <g transform="translate(25.72,12.61)" id="img-e366817e-67">
      <g class="primitive">
        <text text-anchor="end" dy="0.35em">6.0×10⁴</text>
      </g>
    </g>
  </g>
  <g font-size="3.88" font-family="'PT Sans','Helvetica Neue','Helvetica',sans-serif" fill="#564A55" stroke="#000000" stroke-opacity="0.000" id="img-e366817e-68">
    <g transform="translate(8.81,106.16)" id="img-e366817e-69">
      <g class="primitive">
        <text text-anchor="middle" dy="0.35em" transform="rotate(-90,0, 2)">Total Debt (in dollars)</text>
      </g>
    </g>
  </g>
  <g font-size="3.88" font-family="'PT Sans','Helvetica Neue','Helvetica',sans-serif" fill="#564A55" stroke="#000000" stroke-opacity="0.000" id="img-e366817e-70">
    <g transform="translate(210.86,5)" id="img-e366817e-71">
      <g class="primitive">
        <text text-anchor="middle" dy="0.6em">RI Debt Redeemed Per Year</text>
      </g>
    </g>
  </g>
</g>
<defs>
  <clipPath id="img-e366817e-5">
    <path d="M26.73,10.61 L395,10.61 395,205.72 26.73,205.72 " />
  </clipPath>
</defs>
</svg>
