<?xml version="1.0" encoding="UTF-8"?>
<svg xmlns="http://www.w3.org/2000/svg"
     xmlns:xlink="http://www.w3.org/1999/xlink"
     xmlns:gadfly="http://www.gadflyjl.org/ns"
     version="1.2"
     width="400mm" height="225mm" viewBox="0 0 400 225"
     stroke="none"
     fill="#000000"
     stroke-width="0.3"
     font-size="3.88"
>
<defs>
  <marker id="arrow" markerWidth="15" markerHeight="7" refX="5" refY="3.5" orient="auto" markerUnits="strokeWidth">
    <path d="M0,0 L15,3.5 L0,7 z" stroke="context-stroke" fill="context-stroke"/>
  </marker>
</defs>
<g stroke="#000000" stroke-opacity="0.000" fill="#FFFFFF" id="img-54a72640-1">
  <g transform="translate(200,112.5)">
    <path d="M-200,-112.5 L200,-112.5 200,112.5 -200,112.5  z" class="primitive"/>
  </g>
</g>
<g class="plotroot yscalable" id="img-54a72640-2">
  <g font-size="3.88" font-family="'PT Sans','Helvetica Neue','Helvetica',sans-serif" fill="#564A55" stroke="#000000" stroke-opacity="0.000" id="img-54a72640-3">
    <g transform="translate(211.7,213.39)">
      <g class="primitive">
        <text text-anchor="middle" dy="0.6em">Year</text>
      </g>
    </g>
  </g>
  <g class="guide xlabels" font-size="2.82" font-family="'PT Sans Caption','Helvetica Neue','Helvetica',sans-serif" fill="#6C606B" id="img-54a72640-4">
    <g transform="translate(51.31,206.72)">
      <g class="primitive">
        <text text-anchor="middle" dy="0.6em">1790</text>
      </g>
    </g>
    <g transform="translate(97.14,206.72)">
      <g class="primitive">
        <text text-anchor="middle" dy="0.6em">1791</text>
      </g>
    </g>
    <g transform="translate(142.96,206.72)">
      <g class="primitive">
        <text text-anchor="middle" dy="0.6em">1792</text>
      </g>
    </g>
    <g transform="translate(188.79,206.72)">
      <g class="primitive">
        <text text-anchor="middle" dy="0.6em">1793</text>
      </g>
    </g>
    <g transform="translate(234.61,206.72)">
      <g class="primitive">
        <text text-anchor="middle" dy="0.6em">1794</text>
      </g>
    </g>
    <g transform="translate(280.44,206.72)">
      <g class="primitive">
        <text text-anchor="middle" dy="0.6em">1795</text>
      </g>
    </g>
    <g transform="translate(326.26,206.72)">
      <g class="primitive">
        <text text-anchor="middle" dy="0.6em">1796</text>
      </g>
    </g>
    <g transform="translate(372.09,206.72)">
      <g class="primitive">
        <text text-anchor="middle" dy="0.6em">1797</text>
      </g>
    </g>
  </g>
  <g clip-path="url(#img-54a72640-5)">
    <g id="img-54a72640-6">
      <g pointer-events="visible" stroke-width="0.3" fill="#000000" fill-opacity="0.000" stroke="#000000" stroke-opacity="0.000" class="guide background" id="img-54a72640-7">
        <g transform="translate(211.7,108.16)" id="img-54a72640-8">
          <path d="M-183.3,-97.55 L183.3,-97.55 183.3,97.55 -183.3,97.55  z" class="primitive"/>
        </g>
      </g>
      <g class="guide ygridlines xfixed" stroke-dasharray="0.5,0.5" stroke-width="0.2" stroke="#D0D0E0" id="img-54a72640-9">
        <g transform="translate(211.7,203.72)" id="img-54a72640-10">
          <path fill="none" d="M-183.3,0 L183.3,0 " class="primitive"/>
        </g>
        <g transform="translate(211.7,165.49)" id="img-54a72640-11">
          <path fill="none" d="M-183.3,0 L183.3,0 " class="primitive"/>
        </g>
        <g transform="translate(211.7,127.27)" id="img-54a72640-12">
          <path fill="none" d="M-183.3,0 L183.3,0 " class="primitive"/>
        </g>
        <g transform="translate(211.7,89.05)" id="img-54a72640-13">
          <path fill="none" d="M-183.3,0 L183.3,0 " class="primitive"/>
        </g>
        <g transform="translate(211.7,50.83)" id="img-54a72640-14">
          <path fill="none" d="M-183.3,0 L183.3,0 " class="primitive"/>
        </g>
        <g transform="translate(211.7,12.61)" id="img-54a72640-15">
          <path fill="none" d="M-183.3,0 L183.3,0 " class="primitive"/>
        </g>
      </g>
      <g class="guide xgridlines yfixed" stroke-dasharray="0.5,0.5" stroke-width="0.2" stroke="#D0D0E0" id="img-54a72640-16">
        <g transform="translate(74.22,108.16)" id="img-54a72640-17">
          <path fill="none" d="M0,-97.55 L0,97.55 " class="primitive"/>
        </g>
        <g transform="translate(120.05,108.16)" id="img-54a72640-18">
          <path fill="none" d="M0,-97.55 L0,97.55 " class="primitive"/>
        </g>
        <g transform="translate(165.87,108.16)" id="img-54a72640-19">
          <path fill="none" d="M0,-97.55 L0,97.55 " class="primitive"/>
        </g>
        <g transform="translate(211.7,108.16)" id="img-54a72640-20">
          <path fill="none" d="M0,-97.55 L0,97.55 " class="primitive"/>
        </g>
        <g transform="translate(257.52,108.16)" id="img-54a72640-21">
          <path fill="none" d="M0,-97.55 L0,97.55 " class="primitive"/>
        </g>
        <g transform="translate(303.35,108.16)" id="img-54a72640-22">
          <path fill="none" d="M0,-97.55 L0,97.55 " class="primitive"/>
        </g>
        <g transform="translate(349.17,108.16)" id="img-54a72640-23">
          <path fill="none" d="M0,-97.55 L0,97.55 " class="primitive"/>
        </g>
      </g>
      <g class="plotpanel" id="img-54a72640-24">
        <metadata>
          <boundingbox value="28.39833333333337mm 10.611666666666679mm 366.6016666666667mm 195.10333333333335mm"/>
          <unitbox value="0.5 252616.38555057472 8.0 -255232.77110114944"/>
        </metadata>
        <g shape-rendering="crispEdges" stroke-width="0.3" id="img-54a72640-25">
          <g class="geometry" fill-opacity="1" stroke="#000000" stroke-opacity="0.000" fill="#00BFFF" id="img-54a72640-26">
            <g transform="translate(51.31,203.72)" id="img-54a72640-27">
              <path d="M-22.94,-0 L22.94,-0 22.94,0 -22.94,0  z" class="primitive"/>
            </g>
            <g transform="translate(51.31,196.31)" id="img-54a72640-28">
              <path d="M-22.94,-7.41 L22.94,-7.41 22.94,7.41 -22.94,7.41  z" class="primitive"/>
            </g>
            <g transform="translate(51.31,200.6)" id="img-54a72640-29">
              <path d="M-22.94,-3.11 L22.94,-3.11 22.94,3.11 -22.94,3.11  z" class="primitive"/>
            </g>
            <g transform="translate(97.14,202.4)" id="img-54a72640-30">
              <path d="M-22.94,-1.32 L22.94,-1.32 22.94,1.32 -22.94,1.32  z" class="primitive"/>
            </g>
            <g transform="translate(97.14,201.45)" id="img-54a72640-31">
              <path d="M-22.94,-2.27 L22.94,-2.27 22.94,2.27 -22.94,2.27  z" class="primitive"/>
            </g>
            <g transform="translate(97.14,199.93)" id="img-54a72640-32">
              <path d="M-22.94,-3.79 L22.94,-3.79 22.94,3.79 -22.94,3.79  z" class="primitive"/>
            </g>
            <g transform="translate(97.14,199.95)" id="img-54a72640-33">
              <path d="M-22.94,-3.76 L22.94,-3.76 22.94,3.76 -22.94,3.76  z" class="primitive"/>
            </g>
            <g transform="translate(97.14,198.42)" id="img-54a72640-34">
              <path d="M-22.94,-5.3 L22.94,-5.3 22.94,5.3 -22.94,5.3  z" class="primitive"/>
            </g>
            <g transform="translate(97.14,202.42)" id="img-54a72640-35">
              <path d="M-22.94,-1.29 L22.94,-1.29 22.94,1.29 -22.94,1.29  z" class="primitive"/>
            </g>
            <g transform="translate(97.14,200.27)" id="img-54a72640-36">
              <path d="M-22.94,-3.44 L22.94,-3.44 22.94,3.44 -22.94,3.44  z" class="primitive"/>
            </g>
            <g transform="translate(97.14,200.34)" id="img-54a72640-37">
              <path d="M-22.94,-3.38 L22.94,-3.38 22.94,3.38 -22.94,3.38  z" class="primitive"/>
            </g>
            <g transform="translate(97.14,201.52)" id="img-54a72640-38">
              <path d="M-22.94,-2.2 L22.94,-2.2 22.94,2.2 -22.94,2.2  z" class="primitive"/>
            </g>
            <g transform="translate(97.14,201.52)" id="img-54a72640-39">
              <path d="M-22.94,-2.2 L22.94,-2.2 22.94,2.2 -22.94,2.2  z" class="primitive"/>
            </g>
            <g transform="translate(97.14,202.51)" id="img-54a72640-40">
              <path d="M-22.94,-1.2 L22.94,-1.2 22.94,1.2 -22.94,1.2  z" class="primitive"/>
            </g>
            <g transform="translate(142.96,201.61)" id="img-54a72640-41">
              <path d="M-22.94,-2.11 L22.94,-2.11 22.94,2.11 -22.94,2.11  z" class="primitive"/>
            </g>
            <g transform="translate(142.96,202.62)" id="img-54a72640-42">
              <path d="M-22.94,-1.09 L22.94,-1.09 22.94,1.09 -22.94,1.09  z" class="primitive"/>
            </g>
            <g transform="translate(142.96,203.58)" id="img-54a72640-43">
              <path d="M-22.94,-0.14 L22.94,-0.14 22.94,0.14 -22.94,0.14  z" class="primitive"/>
            </g>
            <g transform="translate(142.96,202.18)" id="img-54a72640-44">
              <path d="M-22.94,-1.54 L22.94,-1.54 22.94,1.54 -22.94,1.54  z" class="primitive"/>
            </g>
            <g transform="translate(142.96,203.63)" id="img-54a72640-45">
              <path d="M-22.94,-0.08 L22.94,-0.08 22.94,0.08 -22.94,0.08  z" class="primitive"/>
            </g>
            <g transform="translate(142.96,203.13)" id="img-54a72640-46">
              <path d="M-22.94,-0.59 L22.94,-0.59 22.94,0.59 -22.94,0.59  z" class="primitive"/>
            </g>
            <g transform="translate(142.96,203.72)" id="img-54a72640-47">
              <path d="M-22.94,-0 L22.94,-0 22.94,0 -22.94,0  z" class="primitive"/>
            </g>
            <g transform="translate(142.96,203.7)" id="img-54a72640-48">
              <path d="M-22.94,-0.01 L22.94,-0.01 22.94,0.01 -22.94,0.01  z" class="primitive"/>
            </g>
            <g transform="translate(142.96,203.52)" id="img-54a72640-49">
              <path d="M-22.94,-0.2 L22.94,-0.2 22.94,0.2 -22.94,0.2  z" class="primitive"/>
            </g>
            <g transform="translate(188.79,203.27)" id="img-54a72640-50">
              <path d="M-22.94,-0.44 L22.94,-0.44 22.94,0.44 -22.94,0.44  z" class="primitive"/>
            </g>
            <g transform="translate(188.79,203.43)" id="img-54a72640-51">
              <path d="M-22.94,-0.28 L22.94,-0.28 22.94,0.28 -22.94,0.28  z" class="primitive"/>
            </g>
            <g transform="translate(188.79,203.52)" id="img-54a72640-52">
              <path d="M-22.94,-0.2 L22.94,-0.2 22.94,0.2 -22.94,0.2  z" class="primitive"/>
            </g>
            <g transform="translate(188.79,203.71)" id="img-54a72640-53">
              <path d="M-22.94,-0.01 L22.94,-0.01 22.94,0.01 -22.94,0.01  z" class="primitive"/>
            </g>
            <g transform="translate(188.79,203.68)" id="img-54a72640-54">
              <path d="M-22.94,-0.03 L22.94,-0.03 22.94,0.03 -22.94,0.03  z" class="primitive"/>
            </g>
            <g transform="translate(188.79,203.48)" id="img-54a72640-55">
              <path d="M-22.94,-0.24 L22.94,-0.24 22.94,0.24 -22.94,0.24  z" class="primitive"/>
            </g>
            <g transform="translate(188.79,203.72)" id="img-54a72640-56">
              <path d="M-22.94,-0 L22.94,-0 22.94,0 -22.94,0  z" class="primitive"/>
            </g>
            <g transform="translate(234.61,203.64)" id="img-54a72640-57">
              <path d="M-22.94,-0.08 L22.94,-0.08 22.94,0.08 -22.94,0.08  z" class="primitive"/>
            </g>
            <g transform="translate(234.61,203.58)" id="img-54a72640-58">
              <path d="M-22.94,-0.14 L22.94,-0.14 22.94,0.14 -22.94,0.14  z" class="primitive"/>
            </g>
            <g transform="translate(234.61,111.23)" id="img-54a72640-59">
              <path d="M-22.94,-92.49 L22.94,-92.49 22.94,92.49 -22.94,92.49  z" class="primitive"/>
            </g>
            <g transform="translate(234.61,201.26)" id="img-54a72640-60">
              <path d="M-22.94,-2.45 L22.94,-2.45 22.94,2.45 -22.94,2.45  z" class="primitive"/>
            </g>
            <g transform="translate(280.44,203.72)" id="img-54a72640-61">
              <path d="M-22.94,-0 L22.94,-0 22.94,0 -22.94,0  z" class="primitive"/>
            </g>
            <g transform="translate(280.44,202.21)" id="img-54a72640-62">
              <path d="M-22.94,-1.51 L22.94,-1.51 22.94,1.51 -22.94,1.51  z" class="primitive"/>
            </g>
            <g transform="translate(280.44,203.66)" id="img-54a72640-63">
              <path d="M-22.94,-0.05 L22.94,-0.05 22.94,0.05 -22.94,0.05  z" class="primitive"/>
            </g>
            <g transform="translate(280.44,199.36)" id="img-54a72640-64">
              <path d="M-22.94,-4.36 L22.94,-4.36 22.94,4.36 -22.94,4.36  z" class="primitive"/>
            </g>
            <g transform="translate(280.44,203.72)" id="img-54a72640-65">
              <path d="M-22.94,-0 L22.94,-0 22.94,0 -22.94,0  z" class="primitive"/>
            </g>
            <g transform="translate(280.44,203.39)" id="img-54a72640-66">
              <path d="M-22.94,-0.33 L22.94,-0.33 22.94,0.33 -22.94,0.33  z" class="primitive"/>
            </g>
            <g transform="translate(326.26,203.64)" id="img-54a72640-67">
              <path d="M-22.94,-0.08 L22.94,-0.08 22.94,0.08 -22.94,0.08  z" class="primitive"/>
            </g>
            <g transform="translate(326.26,203.61)" id="img-54a72640-68">
              <path d="M-22.94,-0.11 L22.94,-0.11 22.94,0.11 -22.94,0.11  z" class="primitive"/>
            </g>
            <g transform="translate(326.26,203.72)" id="img-54a72640-69">
              <path d="M-22.94,-0 L22.94,-0 22.94,0 -22.94,0  z" class="primitive"/>
            </g>
            <g transform="translate(326.26,203.72)" id="img-54a72640-70">
              <path d="M-22.94,-0 L22.94,-0 22.94,0 -22.94,0  z" class="primitive"/>
            </g>
            <g transform="translate(326.26,203.68)" id="img-54a72640-71">
              <path d="M-22.94,-0.03 L22.94,-0.03 22.94,0.03 -22.94,0.03  z" class="primitive"/>
            </g>
            <g transform="translate(372.09,203.67)" id="img-54a72640-72">
              <path d="M-22.94,-0.04 L22.94,-0.04 22.94,0.04 -22.94,0.04  z" class="primitive"/>
            </g>
          </g>
        </g>
      </g>
    </g>
  </g>
  <g class="guide ylabels" font-size="2.82" font-family="'PT Sans Caption','Helvetica Neue','Helvetica',sans-serif" fill="#6C606B" id="img-54a72640-73">
    <g transform="translate(27.4,203.72)" id="img-54a72640-74">
      <g class="primitive">
        <text text-anchor="end" dy="0.35em">0</text>
      </g>
    </g>
    <g transform="translate(27.4,165.49)" id="img-54a72640-75">
      <g class="primitive">
        <text text-anchor="end" dy="0.35em">5.00×10⁴</text>
      </g>
    </g>
    <g transform="translate(27.4,127.27)" id="img-54a72640-76">
      <g class="primitive">
        <text text-anchor="end" dy="0.35em">1.00×10⁵</text>
      </g>
    </g>
    <g transform="translate(27.4,89.05)" id="img-54a72640-77">
      <g class="primitive">
        <text text-anchor="end" dy="0.35em">1.50×10⁵</text>
      </g>
    </g>
    <g transform="translate(27.4,50.83)" id="img-54a72640-78">
      <g class="primitive">
        <text text-anchor="end" dy="0.35em">2.00×10⁵</text>
      </g>
    </g>
    <g transform="translate(27.4,12.61)" id="img-54a72640-79">
      <g class="primitive">
        <text text-anchor="end" dy="0.35em">2.50×10⁵</text>
      </g>
    </g>
  </g>
  <g font-size="3.88" font-family="'PT Sans','Helvetica Neue','Helvetica',sans-serif" fill="#564A55" stroke="#000000" stroke-opacity="0.000" id="img-54a72640-80">
    <g transform="translate(8.81,106.16)" id="img-54a72640-81">
      <g class="primitive">
        <text text-anchor="middle" dy="0.35em" transform="rotate(-90,0, 2)">Total Debt (in dollars)</text>
      </g>
    </g>
  </g>
  <g font-size="3.88" font-family="'PT Sans','Helvetica Neue','Helvetica',sans-serif" fill="#564A55" stroke="#000000" stroke-opacity="0.000" id="img-54a72640-82">
    <g transform="translate(211.7,5)" id="img-54a72640-83">
      <g class="primitive">
        <text text-anchor="middle" dy="0.6em">SC Debt Redeemed Per Year</text>
      </g>
    </g>
  </g>
</g>
<defs>
  <clipPath id="img-54a72640-5">
    <path d="M28.4,10.61 L395,10.61 395,205.72 28.4,205.72 " />
  </clipPath>
</defs>
</svg>
