<?xml version="1.0" encoding="UTF-8"?>
<svg xmlns="http://www.w3.org/2000/svg"
     xmlns:xlink="http://www.w3.org/1999/xlink"
     xmlns:gadfly="http://www.gadflyjl.org/ns"
     version="1.2"
     width="400mm" height="225mm" viewBox="0 0 400 225"
     stroke="none"
     fill="#000000"
     stroke-width="0.3"
     font-size="3.88"
>
<defs>
  <marker id="arrow" markerWidth="15" markerHeight="7" refX="5" refY="3.5" orient="auto" markerUnits="strokeWidth">
    <path d="M0,0 L15,3.5 L0,7 z" stroke="context-stroke" fill="context-stroke"/>
  </marker>
</defs>
<g stroke="#000000" stroke-opacity="0.000" fill="#FFFFFF" id="img-a7023dba-1">
  <g transform="translate(200,112.5)">
    <path d="M-200,-112.5 L200,-112.5 200,112.5 -200,112.5  z" class="primitive"/>
  </g>
</g>
<g class="plotroot yscalable" id="img-a7023dba-2">
  <g font-size="3.88" font-family="'PT Sans','Helvetica Neue','Helvetica',sans-serif" fill="#564A55" stroke="#000000" stroke-opacity="0.000" id="img-a7023dba-3">
    <g transform="translate(210.86,213.39)">
      <g class="primitive">
        <text text-anchor="middle" dy="0.6em">Year</text>
      </g>
    </g>
  </g>
  <g class="guide xlabels" font-size="2.82" font-family="'PT Sans Caption','Helvetica Neue','Helvetica',sans-serif" fill="#6C606B" id="img-a7023dba-4">
    <g transform="translate(49.74,206.72)">
      <g class="primitive">
        <text text-anchor="middle" dy="0.6em">1790</text>
      </g>
    </g>
    <g transform="translate(95.78,206.72)">
      <g class="primitive">
        <text text-anchor="middle" dy="0.6em">1791</text>
      </g>
    </g>
    <g transform="translate(141.81,206.72)">
      <g class="primitive">
        <text text-anchor="middle" dy="0.6em">1792</text>
      </g>
    </g>
    <g transform="translate(187.85,206.72)">
      <g class="primitive">
        <text text-anchor="middle" dy="0.6em">1793</text>
      </g>
    </g>
    <g transform="translate(233.88,206.72)">
      <g class="primitive">
        <text text-anchor="middle" dy="0.6em">1794</text>
      </g>
    </g>
    <g transform="translate(279.91,206.72)">
      <g class="primitive">
        <text text-anchor="middle" dy="0.6em">1795</text>
      </g>
    </g>
    <g transform="translate(325.95,206.72)">
      <g class="primitive">
        <text text-anchor="middle" dy="0.6em">1796</text>
      </g>
    </g>
    <g transform="translate(371.98,206.72)">
      <g class="primitive">
        <text text-anchor="middle" dy="0.6em">1797</text>
      </g>
    </g>
  </g>
  <g clip-path="url(#img-a7023dba-5)">
    <g id="img-a7023dba-6">
      <g pointer-events="visible" stroke-width="0.3" fill="#000000" fill-opacity="0.000" stroke="#000000" stroke-opacity="0.000" class="guide background" id="img-a7023dba-7">
        <g transform="translate(210.86,108.16)" id="img-a7023dba-8">
          <path d="M-184.14,-97.55 L184.14,-97.55 184.14,97.55 -184.14,97.55  z" class="primitive"/>
        </g>
      </g>
      <g class="guide ygridlines xfixed" stroke-dasharray="0.5,0.5" stroke-width="0.2" stroke="#D0D0E0" id="img-a7023dba-9">
        <g transform="translate(210.86,203.72)" id="img-a7023dba-10">
          <path fill="none" d="M-184.14,0 L184.14,0 " class="primitive"/>
        </g>
        <g transform="translate(210.86,155.94)" id="img-a7023dba-11">
          <path fill="none" d="M-184.14,0 L184.14,0 " class="primitive"/>
        </g>
        <g transform="translate(210.86,108.16)" id="img-a7023dba-12">
          <path fill="none" d="M-184.14,0 L184.14,0 " class="primitive"/>
        </g>
        <g transform="translate(210.86,60.39)" id="img-a7023dba-13">
          <path fill="none" d="M-184.14,0 L184.14,0 " class="primitive"/>
        </g>
        <g transform="translate(210.86,12.61)" id="img-a7023dba-14">
          <path fill="none" d="M-184.14,0 L184.14,0 " class="primitive"/>
        </g>
      </g>
      <g class="guide xgridlines yfixed" stroke-dasharray="0.5,0.5" stroke-width="0.2" stroke="#D0D0E0" id="img-a7023dba-15">
        <g transform="translate(72.76,108.16)" id="img-a7023dba-16">
          <path fill="none" d="M0,-97.55 L0,97.55 " class="primitive"/>
        </g>
        <g transform="translate(118.79,108.16)" id="img-a7023dba-17">
          <path fill="none" d="M0,-97.55 L0,97.55 " class="primitive"/>
        </g>
        <g transform="translate(164.83,108.16)" id="img-a7023dba-18">
          <path fill="none" d="M0,-97.55 L0,97.55 " class="primitive"/>
        </g>
        <g transform="translate(210.86,108.16)" id="img-a7023dba-19">
          <path fill="none" d="M0,-97.55 L0,97.55 " class="primitive"/>
        </g>
        <g transform="translate(256.9,108.16)" id="img-a7023dba-20">
          <path fill="none" d="M0,-97.55 L0,97.55 " class="primitive"/>
        </g>
        <g transform="translate(302.93,108.16)" id="img-a7023dba-21">
          <path fill="none" d="M0,-97.55 L0,97.55 " class="primitive"/>
        </g>
        <g transform="translate(348.97,108.16)" id="img-a7023dba-22">
          <path fill="none" d="M0,-97.55 L0,97.55 " class="primitive"/>
        </g>
      </g>
      <g class="plotpanel" id="img-a7023dba-23">
        <metadata>
          <boundingbox value="26.725000000000023mm 10.611666666666679mm 368.27500000000003mm 195.10333333333335mm"/>
          <unitbox value="0.5 80837.24337618392 8.0 -81674.48675236783"/>
        </metadata>
        <g shape-rendering="crispEdges" stroke-width="0.3" id="img-a7023dba-24">
          <g class="geometry" fill-opacity="1" stroke="#000000" stroke-opacity="0.000" fill="#00BFFF" id="img-a7023dba-25">
            <g transform="translate(49.74,180.51)" id="img-a7023dba-26">
              <path d="M-23.04,-23.21 L23.04,-23.21 23.04,23.21 -23.04,23.21  z" class="primitive"/>
            </g>
            <g transform="translate(49.74,192.22)" id="img-a7023dba-27">
              <path d="M-23.04,-11.5 L23.04,-11.5 23.04,11.5 -23.04,11.5  z" class="primitive"/>
            </g>
            <g transform="translate(49.74,186.44)" id="img-a7023dba-28">
              <path d="M-23.04,-17.27 L23.04,-17.27 23.04,17.27 -23.04,17.27  z" class="primitive"/>
            </g>
            <g transform="translate(49.74,197.32)" id="img-a7023dba-29">
              <path d="M-23.04,-6.39 L23.04,-6.39 23.04,6.39 -23.04,6.39  z" class="primitive"/>
            </g>
            <g transform="translate(95.78,182.13)" id="img-a7023dba-30">
              <path d="M-23.04,-21.59 L23.04,-21.59 23.04,21.59 -23.04,21.59  z" class="primitive"/>
            </g>
            <g transform="translate(95.78,135.02)" id="img-a7023dba-31">
              <path d="M-23.04,-68.69 L23.04,-68.69 23.04,68.69 -23.04,68.69  z" class="primitive"/>
            </g>
            <g transform="translate(95.78,118.64)" id="img-a7023dba-32">
              <path d="M-23.04,-85.07 L23.04,-85.07 23.04,85.07 -23.04,85.07  z" class="primitive"/>
            </g>
            <g transform="translate(95.78,180.14)" id="img-a7023dba-33">
              <path d="M-23.04,-23.58 L23.04,-23.58 23.04,23.58 -23.04,23.58  z" class="primitive"/>
            </g>
            <g transform="translate(95.78,152.76)" id="img-a7023dba-34">
              <path d="M-23.04,-50.95 L23.04,-50.95 23.04,50.95 -23.04,50.95  z" class="primitive"/>
            </g>
            <g transform="translate(95.78,186.14)" id="img-a7023dba-35">
              <path d="M-23.04,-17.58 L23.04,-17.58 23.04,17.58 -23.04,17.58  z" class="primitive"/>
            </g>
            <g transform="translate(95.78,189.29)" id="img-a7023dba-36">
              <path d="M-23.04,-14.43 L23.04,-14.43 23.04,14.43 -23.04,14.43  z" class="primitive"/>
            </g>
            <g transform="translate(95.78,197.11)" id="img-a7023dba-37">
              <path d="M-23.04,-6.6 L23.04,-6.6 23.04,6.6 -23.04,6.6  z" class="primitive"/>
            </g>
            <g transform="translate(95.78,137.42)" id="img-a7023dba-38">
              <path d="M-23.04,-66.3 L23.04,-66.3 23.04,66.3 -23.04,66.3  z" class="primitive"/>
            </g>
            <g transform="translate(95.78,202.49)" id="img-a7023dba-39">
              <path d="M-23.04,-1.23 L23.04,-1.23 23.04,1.23 -23.04,1.23  z" class="primitive"/>
            </g>
            <g transform="translate(95.78,202.94)" id="img-a7023dba-40">
              <path d="M-23.04,-0.78 L23.04,-0.78 23.04,0.78 -23.04,0.78  z" class="primitive"/>
            </g>
            <g transform="translate(95.78,202.6)" id="img-a7023dba-41">
              <path d="M-23.04,-1.11 L23.04,-1.11 23.04,1.11 -23.04,1.11  z" class="primitive"/>
            </g>
            <g transform="translate(141.81,203.21)" id="img-a7023dba-42">
              <path d="M-23.04,-0.5 L23.04,-0.5 23.04,0.5 -23.04,0.5  z" class="primitive"/>
            </g>
            <g transform="translate(141.81,203.72)" id="img-a7023dba-43">
              <path d="M-23.04,-0 L23.04,-0 23.04,0 -23.04,0  z" class="primitive"/>
            </g>
            <g transform="translate(141.81,203.72)" id="img-a7023dba-44">
              <path d="M-23.04,-0 L23.04,-0 23.04,0 -23.04,0  z" class="primitive"/>
            </g>
            <g transform="translate(141.81,203.72)" id="img-a7023dba-45">
              <path d="M-23.04,-0 L23.04,-0 23.04,0 -23.04,0  z" class="primitive"/>
            </g>
            <g transform="translate(141.81,200.32)" id="img-a7023dba-46">
              <path d="M-23.04,-3.4 L23.04,-3.4 23.04,3.4 -23.04,3.4  z" class="primitive"/>
            </g>
            <g transform="translate(141.81,201.73)" id="img-a7023dba-47">
              <path d="M-23.04,-1.99 L23.04,-1.99 23.04,1.99 -23.04,1.99  z" class="primitive"/>
            </g>
            <g transform="translate(141.81,199.85)" id="img-a7023dba-48">
              <path d="M-23.04,-3.87 L23.04,-3.87 23.04,3.87 -23.04,3.87  z" class="primitive"/>
            </g>
            <g transform="translate(141.81,202.77)" id="img-a7023dba-49">
              <path d="M-23.04,-0.94 L23.04,-0.94 23.04,0.94 -23.04,0.94  z" class="primitive"/>
            </g>
            <g transform="translate(141.81,199.51)" id="img-a7023dba-50">
              <path d="M-23.04,-4.21 L23.04,-4.21 23.04,4.21 -23.04,4.21  z" class="primitive"/>
            </g>
            <g transform="translate(141.81,199.94)" id="img-a7023dba-51">
              <path d="M-23.04,-3.77 L23.04,-3.77 23.04,3.77 -23.04,3.77  z" class="primitive"/>
            </g>
            <g transform="translate(141.81,202.55)" id="img-a7023dba-52">
              <path d="M-23.04,-1.17 L23.04,-1.17 23.04,1.17 -23.04,1.17  z" class="primitive"/>
            </g>
            <g transform="translate(187.85,203.4)" id="img-a7023dba-53">
              <path d="M-23.04,-0.31 L23.04,-0.31 23.04,0.31 -23.04,0.31  z" class="primitive"/>
            </g>
            <g transform="translate(187.85,202.33)" id="img-a7023dba-54">
              <path d="M-23.04,-1.39 L23.04,-1.39 23.04,1.39 -23.04,1.39  z" class="primitive"/>
            </g>
            <g transform="translate(187.85,200.32)" id="img-a7023dba-55">
              <path d="M-23.04,-3.39 L23.04,-3.39 23.04,3.39 -23.04,3.39  z" class="primitive"/>
            </g>
            <g transform="translate(187.85,202.68)" id="img-a7023dba-56">
              <path d="M-23.04,-1.04 L23.04,-1.04 23.04,1.04 -23.04,1.04  z" class="primitive"/>
            </g>
            <g transform="translate(187.85,203.65)" id="img-a7023dba-57">
              <path d="M-23.04,-0.06 L23.04,-0.06 23.04,0.06 -23.04,0.06  z" class="primitive"/>
            </g>
            <g transform="translate(187.85,203.36)" id="img-a7023dba-58">
              <path d="M-23.04,-0.35 L23.04,-0.35 23.04,0.35 -23.04,0.35  z" class="primitive"/>
            </g>
            <g transform="translate(187.85,203.65)" id="img-a7023dba-59">
              <path d="M-23.04,-0.07 L23.04,-0.07 23.04,0.07 -23.04,0.07  z" class="primitive"/>
            </g>
            <g transform="translate(187.85,202.57)" id="img-a7023dba-60">
              <path d="M-23.04,-1.15 L23.04,-1.15 23.04,1.15 -23.04,1.15  z" class="primitive"/>
            </g>
            <g transform="translate(187.85,203.65)" id="img-a7023dba-61">
              <path d="M-23.04,-0.06 L23.04,-0.06 23.04,0.06 -23.04,0.06  z" class="primitive"/>
            </g>
            <g transform="translate(233.88,203.64)" id="img-a7023dba-62">
              <path d="M-23.04,-0.08 L23.04,-0.08 23.04,0.08 -23.04,0.08  z" class="primitive"/>
            </g>
            <g transform="translate(233.88,203.38)" id="img-a7023dba-63">
              <path d="M-23.04,-0.33 L23.04,-0.33 23.04,0.33 -23.04,0.33  z" class="primitive"/>
            </g>
            <g transform="translate(233.88,203.6)" id="img-a7023dba-64">
              <path d="M-23.04,-0.12 L23.04,-0.12 23.04,0.12 -23.04,0.12  z" class="primitive"/>
            </g>
            <g transform="translate(233.88,202.94)" id="img-a7023dba-65">
              <path d="M-23.04,-0.78 L23.04,-0.78 23.04,0.78 -23.04,0.78  z" class="primitive"/>
            </g>
            <g transform="translate(233.88,203.67)" id="img-a7023dba-66">
              <path d="M-23.04,-0.05 L23.04,-0.05 23.04,0.05 -23.04,0.05  z" class="primitive"/>
            </g>
            <g transform="translate(233.88,202.78)" id="img-a7023dba-67">
              <path d="M-23.04,-0.93 L23.04,-0.93 23.04,0.93 -23.04,0.93  z" class="primitive"/>
            </g>
            <g transform="translate(233.88,202.1)" id="img-a7023dba-68">
              <path d="M-23.04,-1.61 L23.04,-1.61 23.04,1.61 -23.04,1.61  z" class="primitive"/>
            </g>
            <g transform="translate(233.88,203.16)" id="img-a7023dba-69">
              <path d="M-23.04,-0.55 L23.04,-0.55 23.04,0.55 -23.04,0.55  z" class="primitive"/>
            </g>
            <g transform="translate(233.88,203.44)" id="img-a7023dba-70">
              <path d="M-23.04,-0.27 L23.04,-0.27 23.04,0.27 -23.04,0.27  z" class="primitive"/>
            </g>
            <g transform="translate(279.91,203)" id="img-a7023dba-71">
              <path d="M-23.04,-0.72 L23.04,-0.72 23.04,0.72 -23.04,0.72  z" class="primitive"/>
            </g>
            <g transform="translate(279.91,203.47)" id="img-a7023dba-72">
              <path d="M-23.04,-0.24 L23.04,-0.24 23.04,0.24 -23.04,0.24  z" class="primitive"/>
            </g>
            <g transform="translate(279.91,203.72)" id="img-a7023dba-73">
              <path d="M-23.04,-0 L23.04,-0 23.04,0 -23.04,0  z" class="primitive"/>
            </g>
            <g transform="translate(279.91,203.64)" id="img-a7023dba-74">
              <path d="M-23.04,-0.08 L23.04,-0.08 23.04,0.08 -23.04,0.08  z" class="primitive"/>
            </g>
            <g transform="translate(279.91,203.7)" id="img-a7023dba-75">
              <path d="M-23.04,-0.02 L23.04,-0.02 23.04,0.02 -23.04,0.02  z" class="primitive"/>
            </g>
            <g transform="translate(279.91,202.89)" id="img-a7023dba-76">
              <path d="M-23.04,-0.83 L23.04,-0.83 23.04,0.83 -23.04,0.83  z" class="primitive"/>
            </g>
            <g transform="translate(279.91,203.61)" id="img-a7023dba-77">
              <path d="M-23.04,-0.11 L23.04,-0.11 23.04,0.11 -23.04,0.11  z" class="primitive"/>
            </g>
            <g transform="translate(279.91,203.42)" id="img-a7023dba-78">
              <path d="M-23.04,-0.29 L23.04,-0.29 23.04,0.29 -23.04,0.29  z" class="primitive"/>
            </g>
            <g transform="translate(279.91,203.69)" id="img-a7023dba-79">
              <path d="M-23.04,-0.02 L23.04,-0.02 23.04,0.02 -23.04,0.02  z" class="primitive"/>
            </g>
            <g transform="translate(279.91,203.22)" id="img-a7023dba-80">
              <path d="M-23.04,-0.49 L23.04,-0.49 23.04,0.49 -23.04,0.49  z" class="primitive"/>
            </g>
            <g transform="translate(279.91,203.61)" id="img-a7023dba-81">
              <path d="M-23.04,-0.1 L23.04,-0.1 23.04,0.1 -23.04,0.1  z" class="primitive"/>
            </g>
            <g transform="translate(325.95,203.29)" id="img-a7023dba-82">
              <path d="M-23.04,-0.42 L23.04,-0.42 23.04,0.42 -23.04,0.42  z" class="primitive"/>
            </g>
            <g transform="translate(325.95,203.64)" id="img-a7023dba-83">
              <path d="M-23.04,-0.08 L23.04,-0.08 23.04,0.08 -23.04,0.08  z" class="primitive"/>
            </g>
            <g transform="translate(325.95,201.62)" id="img-a7023dba-84">
              <path d="M-23.04,-2.09 L23.04,-2.09 23.04,2.09 -23.04,2.09  z" class="primitive"/>
            </g>
            <g transform="translate(325.95,202.89)" id="img-a7023dba-85">
              <path d="M-23.04,-0.83 L23.04,-0.83 23.04,0.83 -23.04,0.83  z" class="primitive"/>
            </g>
            <g transform="translate(325.95,203.58)" id="img-a7023dba-86">
              <path d="M-23.04,-0.13 L23.04,-0.13 23.04,0.13 -23.04,0.13  z" class="primitive"/>
            </g>
            <g transform="translate(325.95,202.6)" id="img-a7023dba-87">
              <path d="M-23.04,-1.11 L23.04,-1.11 23.04,1.11 -23.04,1.11  z" class="primitive"/>
            </g>
            <g transform="translate(325.95,203.63)" id="img-a7023dba-88">
              <path d="M-23.04,-0.08 L23.04,-0.08 23.04,0.08 -23.04,0.08  z" class="primitive"/>
            </g>
            <g transform="translate(325.95,201.48)" id="img-a7023dba-89">
              <path d="M-23.04,-2.24 L23.04,-2.24 23.04,2.24 -23.04,2.24  z" class="primitive"/>
            </g>
            <g transform="translate(325.95,203.72)" id="img-a7023dba-90">
              <path d="M-23.04,-0 L23.04,-0 23.04,0 -23.04,0  z" class="primitive"/>
            </g>
            <g transform="translate(371.98,203.7)" id="img-a7023dba-91">
              <path d="M-23.04,-0.01 L23.04,-0.01 23.04,0.01 -23.04,0.01  z" class="primitive"/>
            </g>
          </g>
        </g>
      </g>
    </g>
  </g>
  <g class="guide ylabels" font-size="2.82" font-family="'PT Sans Caption','Helvetica Neue','Helvetica',sans-serif" fill="#6C606B" id="img-a7023dba-92">
    <g transform="translate(25.72,203.72)" id="img-a7023dba-93">
      <g class="primitive">
        <text text-anchor="end" dy="0.35em">0</text>
      </g>
    </g>
    <g transform="translate(25.72,155.94)" id="img-a7023dba-94">
      <g class="primitive">
        <text text-anchor="end" dy="0.35em">2.0×10⁴</text>
      </g>
    </g>
    <g transform="translate(25.72,108.16)" id="img-a7023dba-95">
      <g class="primitive">
        <text text-anchor="end" dy="0.35em">4.0×10⁴</text>
      </g>
    </g>
    <g transform="translate(25.72,60.39)" id="img-a7023dba-96">
      <g class="primitive">
        <text text-anchor="end" dy="0.35em">6.0×10⁴</text>
      </g>
    </g>
    <g transform="translate(25.72,12.61)" id="img-a7023dba-97">
      <g class="primitive">
        <text text-anchor="end" dy="0.35em">8.0×10⁴</text>
      </g>
    </g>
  </g>
  <g font-size="3.88" font-family="'PT Sans','Helvetica Neue','Helvetica',sans-serif" fill="#564A55" stroke="#000000" stroke-opacity="0.000" id="img-a7023dba-98">
    <g transform="translate(8.81,106.16)" id="img-a7023dba-99">
      <g class="primitive">
        <text text-anchor="middle" dy="0.35em" transform="rotate(-90,0, 2)">Total Debt (in dollars)</text>
      </g>
    </g>
  </g>
  <g font-size="3.88" font-family="'PT Sans','Helvetica Neue','Helvetica',sans-serif" fill="#564A55" stroke="#000000" stroke-opacity="0.000" id="img-a7023dba-100">
    <g transform="translate(210.86,5)" id="img-a7023dba-101">
      <g class="primitive">
        <text text-anchor="middle" dy="0.6em">VA Debt Redeemed Per Year</text>
      </g>
    </g>
  </g>
</g>
<defs>
  <clipPath id="img-a7023dba-5">
    <path d="M26.73,10.61 L395,10.61 395,205.72 26.73,205.72 " />
  </clipPath>
</defs>
</svg>
